<svg width="15px" height="16px" viewBox="0 0 15 16" version="1.1" xmlns="http://www.w3.org/2000/svg" xmlns:xlink="http://www.w3.org/1999/xlink">
    <g stroke="none" stroke-width="1" fill="none" fill-rule="evenodd">
        <g transform="translate(-730.000000, -635.000000)" fill="#999999">
            <g transform="translate(690.000000, -48.000000)">
                <g transform="translate(40.000000, 683.000000)">
                    <g>
                        <path d="M13.7269517,1.96413793 L12.5131586,1.96413793 L12.5131586,1 C12.5131586,0.390510345 12.0189793,0.0322206897 11.4097103,0.0322206897 C10.7560276,0.0322206897 10.5,0.390510345 10.5,1 L10.5,1.96413793 L4.5,1.96413793 L4.5,1 C4.5,0.390510345 4.07415172,0.0322206897 3.46488276,0.0322206897 C2.8112,0.0322206897 2.5,0.390510345 2.5,1 L2.5,1.96413793 L1.10344828,1.96413793 C0.493958621,1.96413793 0,2.45809655 0,3.06758621 L0,15 C0,15.6094897 0.493958621,15.9998897 1.10344828,15.9998897 L13.7269517,15.9998897 C14.3362207,15.9998897 15,15.6094897 15,15 L15,3.06758621 C15,2.45809655 14.3362207,1.96413793 13.7269517,1.96413793 Z M1.5,14.5 L13.5,14.5 L13.5,4.5 L1.5,4.5 L1.5,14.5 Z"></path>
                        <path d="M3.15529503,9 L4.84470497,9 C4.93038666,9 5,8.9304352 5,8.84470497 L5,7.15548921 C5,7.06961334 4.93038666,7 4.84470497,7 L3.15529503,7 C3.0695648,7 3,7.06961334 3,7.15548921 L3,8.84470497 C3,8.9304352 3.0695648,9 3.15529503,9 Z"></path>
                        <path d="M6.65529503,9 L8.34470497,9 C8.43038666,9 8.5,8.9304352 8.5,8.84470497 L8.5,7.15548921 C8.5,7.06961334 8.43038666,7 8.34470497,7 L6.65529503,7 C6.5695648,7 6.5,7.06961334 6.5,7.15548921 L6.5,8.84470497 C6.5,8.9304352 6.5695648,9 6.65529503,9 Z"></path>
                        <path d="M10.155295,9 L11.844705,9 C11.9303867,9 12,8.9304352 12,8.84470497 L12,7.15548921 C12,7.06961334 11.9303867,7 11.844705,7 L10.155295,7 C10.0695648,7 10,7.06961334 10,7.15548921 L10,8.84470497 C10,8.9304352 10.0695648,9 10.155295,9 Z"></path>
                        <path d="M3.15529503,12 L4.84470497,12 C4.93038666,12 5,11.9304352 5,11.844705 L5,10.1554892 C5,10.0696133 4.93038666,10 4.84470497,10 L3.15529503,10 C3.0695648,10 3,10.0696133 3,10.1554892 L3,11.844705 C3,11.9304352 3.0695648,12 3.15529503,12 Z"></path>
                        <path d="M6.65529503,12 L8.34470497,12 C8.43038666,12 8.5,11.9304352 8.5,11.844705 L8.5,10.1554892 C8.5,10.0696133 8.43038666,10 8.34470497,10 L6.65529503,10 C6.5695648,10 6.5,10.0696133 6.5,10.1554892 L6.5,11.844705 C6.5,11.9304352 6.5695648,12 6.65529503,12 Z"></path>
                        <path d="M10.155295,12 L11.844705,12 C11.9303867,12 12,11.9304352 12,11.844705 L12,10.1554892 C12,10.0696133 11.9303867,10 11.844705,10 L10.155295,10 C10.0695648,10 10,10.0696133 10,10.1554892 L10,11.844705 C10,11.9304352 10.0695648,12 10.155295,12 Z"></path>
                    </g>
                </g>
            </g>
        </g>
    </g>
</svg>