<?xml version="1.0" encoding="UTF-8" standalone="no"?>
<svg xmlns:rdf="http://www.w3.org/1999/02/22-rdf-syntax-ns#" xmlns="http://www.w3.org/2000/svg" height="42" width="120" version="1.1" xmlns:cc="http://creativecommons.org/ns#" xmlns:dc="http://purl.org/dc/elements/1.1/" viewBox="0 0 120 42">
 <metadata>
  <rdf:RDF>
   <cc:Work rdf:about="">
    <dc:format>image/svg+xml</dc:format>
    <dc:type rdf:resource="http://purl.org/dc/dcmitype/StillImage"/>
    <dc:title/>
   </cc:Work>
  </rdf:RDF>
 </metadata>
 <path fill-rule="evenodd" d="m107.24 10.919c-0.802 0-1.14 0.74-1.192 1.276h2.257c0.01-0.482-0.2-1.276-1.065-1.276zm-50.457 2.864c0 0.516 0.328 0.753 0.738 0.753 0.528 0 0.897-0.344 1.024-0.72a0.91 0.91 0 0 0 0.031 -0.29v-0.718c-0.917-0.011-1.793 0.181-1.793 0.975zm24.965-2.81c-0.919 0-1.287 0.91-1.287 1.78 0 1.01 0.495 1.772 1.276 1.772 0.738 0 1.255-0.73 1.255-1.793 0-0.815-0.36-1.76-1.244-1.76zm-8.716-0.054c-0.802 0-1.14 0.74-1.192 1.276h2.257c0.01-0.482-0.2-1.276-1.065-1.276zm-9.338 0.127c-0.527 0-1.013 0.388-1.15 0.967a1.514 1.514 0 0 0 -0.043 0.343v0.848c0 0.107 0.011 0.215 0.032 0.312 0.138 0.536 0.591 0.923 1.15 0.923 0.812 0 1.308-0.656 1.308-1.717 0-0.923-0.433-1.676-1.297-1.676zm45.802 17.072h-6.65c0.027 1.001 0.348 1.764 0.966 2.292 0.56 0.474 1.283 0.712 2.174 0.712 0.986 0 1.88-0.16 2.688-0.485l0.349 1.569c-0.94 0.42-2.058 0.624-3.347 0.624-1.543 0-2.757-0.46-3.64-1.385-0.88-0.925-1.325-2.168-1.325-3.726 0-1.534 0.412-2.805 1.23-3.826 0.866-1.084 2.03-1.625 3.49-1.625 1.44 0 2.527 0.541 3.263 1.625 0.586 0.866 0.882 1.933 0.882 3.2 0 0.4-0.028 0.741-0.08 1.025zm-9.147-15.89v3.134h-1.296v-7.62h1.296v3.101h0.022c0.158-0.246 0.38-0.45 0.643-0.59 0.263-0.151 0.57-0.236 0.897-0.236 0.875 0 1.794 0.59 1.794 2.265v3.08h-1.299v-2.942c0-0.752-0.274-1.331-0.99-1.331-0.507 0-0.866 0.344-1.013 0.74a1.192 1.192 0 0 0 -0.054 0.397zm-0.335 12.251a3.857 3.857 0 0 0 -0.698 -0.057c-0.78 0-1.38 0.3-1.805 0.896-0.37 0.53-0.554 1.189-0.554 2.003v5.324h-2.223v-6.957c0-1.162-0.02-2.228-0.06-3.192h1.929l0.082 1.943h0.06c0.232-0.666 0.6-1.204 1.109-1.604a2.626 2.626 0 0 1 1.602 -0.542c0.204 0 0.39 0.01 0.55 0.038v2.148zm-5.689-14.344h0.728v-0.978l1.277-0.365v1.343h1.233v0.987h-1.239v2.308c0 0.644 0.169 0.966 0.664 0.966 0.232 0 0.358-0.01 0.506-0.054l0.022 0.999c-0.19 0.074-0.538 0.14-0.939 0.14-0.485 0-0.876-0.162-1.118-0.43-0.285-0.3-0.412-0.784-0.412-1.47v-2.46h-0.728v-0.986zm-2.29 21.198c-0.919 1.027-2.136 1.542-3.651 1.542-1.466 0-2.636-0.494-3.504-1.483-0.867-0.985-1.3-2.236-1.3-3.738 0-1.571 0.447-2.86 1.343-3.861 0.897-1.006 2.101-1.5 3.62-1.5 1.468 0 2.644 0.488 3.533 1.481 0.845 0.956 1.27 2.198 1.27 3.714 0 1.564-0.435 2.84-1.31 3.845zm-10.347-15.853c-1.445 0-2.574-1.01-2.574-2.695 0-1.717 1.107-2.769 2.658-2.769 1.53 0 2.553 1.095 2.553 2.683 0 1.922-1.33 2.78-2.638 2.78zm1.249 8.705h-2.445v4.933c0 1.252 0.434 1.873 1.296 1.873 0.396 0 0.722-0.03 0.984-0.099l0.063 1.708c-0.438 0.168-1.012 0.252-1.723 0.252-0.871 0-1.56-0.268-2.051-0.815-0.497-0.54-0.742-1.453-0.742-2.734v-5.118h-1.455v-1.69h1.455v-1.857l2.173-0.668v2.525h2.445v1.69zm-7.812 7.434c-0.905 0.823-2.159 1.232-3.768 1.232-1.491 0-2.684-0.294-3.584-0.876l0.515-1.879c0.97 0.582 2.036 0.877 3.196 0.877 0.838 0 1.487-0.193 1.952-0.573 0.463-0.382 0.695-0.893 0.695-1.541 0-0.563-0.19-1.044-0.572-1.436-0.387-0.39-1.018-0.748-1.907-1.086-2.42-0.916-3.63-2.26-3.63-4.027 0-1.155 0.422-2.104 1.278-2.841 0.855-0.737 1.986-1.107 3.397-1.107 1.258 0 2.305 0.225 3.141 0.667l-0.56 1.839c-0.779-0.43-1.665-0.649-2.653-0.649-0.78 0-1.394 0.202-1.835 0.583a1.705 1.705 0 0 0 -0.553 1.277c0 0.553 0.212 1.015 0.636 1.382 0.37 0.332 1.04 0.692 2.008 1.081 1.194 0.484 2.067 1.058 2.63 1.715 0.559 0.653 0.84 1.466 0.84 2.44 0 1.198-0.41 2.175-1.226 2.922zm-11.153-16.139c-0.665 0-1.256-0.257-1.625-0.902h-0.021l-0.063 0.784h-1.109c0.021-0.354 0.043-0.933 0.043-1.471v-6.151h1.297v3.113h0.021c0.317-0.505 0.876-0.837 1.646-0.837 1.255 0 2.152 1.062 2.141 2.65 0 1.88-1.17 2.814-2.33 2.814zm-1.523 16.062c-0.825 0.887-1.848 1.333-3.073 1.333-1.32 0-2.27-0.48-2.845-1.444v5.33h-2.217v-10.93c0-1.085-0.028-2.195-0.081-3.335h1.943l0.129 1.608h0.038c0.743-1.207 1.861-1.812 3.366-1.812 1.176 0 2.158 0.47 2.945 1.418 0.788 0.945 1.18 2.194 1.18 3.738 0 1.73-0.46 3.09-1.385 4.094zm-9.946-16.18h1.297v-7.62h-1.296v7.62zm-1.01 16.18c-0.823 0.887-1.85 1.333-3.072 1.333-1.324 0-2.271-0.48-2.847-1.444v5.33h-2.215v-10.93c0-1.085-0.028-2.195-0.085-3.335h1.95l0.122 1.608h0.039c0.742-1.207 1.862-1.812 3.369-1.812 1.176 0 2.155 0.47 2.946 1.418 0.784 0.945 1.179 2.194 1.179 3.738 0 1.73-0.46 3.09-1.385 4.094zm-8.676-17.618c0-1.31 1.15-1.987 3.048-1.975v-0.086c0-0.343-0.137-0.913-1.044-0.913-0.507 0-1.033 0.162-1.381 0.387l-0.254-0.86c0.38-0.235 1.044-0.46 1.857-0.46 1.645 0 2.12 1.062 2.12 2.21v1.879c0 0.472 0.02 0.934 0.084 1.256h-1.171l-0.094-0.58h-0.032c-0.306 0.408-0.844 0.699-1.52 0.699-1.033 0-1.613-0.763-1.613-1.557zm-2.67 1.438h-1.277l-1.91-5.227h1.405l0.832 2.651c0.147 0.461 0.253 0.88 0.348 1.31h0.033c0.094-0.43 0.21-0.838 0.347-1.31l0.823-2.651h1.361l-1.962 5.227zm-0.503 17.283l-1.292-4.13h-4.495l-1.233 4.13h-2.295l4.448-14.073h2.753l4.475 14.073h-2.361zm-15.66-0.529c0 1.275-1.02 2.308-2.272 2.308h-9.741c-1.254 0-2.275-1.033-2.275-2.308v-22.029c0-1.274 1.021-2.311 2.275-2.311h9.74c1.253 0 2.274 1.037 2.274 2.311v22.03zm8.64-23.989h1.655l2.31 7.235h-1.403l-0.642-2.05h-2.247l-0.613 2.05h-1.34l2.28-7.235zm16.546 7.235h1.296v-5.227h-1.296v5.227zm0.653-7.406c0.443 0 0.718 0.312 0.728 0.718 0 0.387-0.285 0.71-0.739 0.71a0.694 0.694 0 0 1 -0.717 -0.71c0-0.406 0.296-0.718 0.728-0.718zm7.67 2.994c-0.506 0-1.033 0.162-1.381 0.387l-0.253-0.86c0.379-0.235 1.044-0.46 1.856-0.46 1.645 0 2.12 1.062 2.12 2.21v1.879c0 0.472 0.02 0.934 0.083 1.256h-1.17l-0.094-0.58h-0.032c-0.305 0.408-0.844 0.699-1.518 0.699-1.035 0-1.615-0.763-1.615-1.557 0-1.31 1.15-1.987 3.049-1.975v-0.086c0-0.343-0.138-0.913-1.045-0.913zm10.289 4.412h1.296v-7.62h-1.296v7.62zm5.316-5.345c1.667 0 2.216 1.395 2.216 2.543 0 0.248-0.022 0.441-0.043 0.559h-3.437c0.031 0.944 0.749 1.352 1.582 1.352 0.6 0 1.023-0.096 1.424-0.236l0.19 0.902c-0.443 0.193-1.055 0.331-1.794 0.331-1.666 0-2.646-1.04-2.646-2.639 0-1.45 0.864-2.812 2.51-2.812zm13.623 0.118l0.063 0.784h0.032c0.232-0.41 0.791-0.902 1.646-0.902 0.896 0 1.824 0.59 1.824 2.242v3.103h-1.297v-2.952c0-0.751-0.275-1.32-0.98-1.32-0.517 0-0.876 0.375-1.014 0.773a1.247 1.247 0 0 0 -0.063 0.419v3.08h-1.298v-3.67c0-0.602-0.021-1.106-0.043-1.557h1.13zm20.585-0.118c1.667 0 2.215 1.395 2.215 2.543 0 0.248-0.02 0.441-0.041 0.559h-3.439c0.032 0.944 0.749 1.352 1.582 1.352a4.05 4.05 0 0 0 1.423 -0.236l0.19 0.902c-0.442 0.193-1.054 0.331-1.792 0.331-1.667 0-2.647-1.04-2.647-2.639 0-1.45 0.864-2.812 2.51-2.812zm7.62-10.017h-109.86c-2.795 0-5.07 2.29-5.07 5.107v31.793c0 2.812 2.275 5.1 5.07 5.1h109.86c2.795 0 5.07-2.288 5.07-5.1v-31.793c0-2.816-2.28-5.107-5.07-5.107zm-81.15 10.532c-0.138-0.44-0.253-0.934-0.359-1.353h-0.022c-0.105 0.42-0.22 0.923-0.337 1.353l-0.548 1.782h1.825l-0.559-1.782zm12.091 3.284c0.031-0.096 0.031-0.193 0.031-0.29v-0.718c-0.917-0.011-1.791 0.181-1.791 0.975 0 0.516 0.326 0.753 0.737 0.753 0.527 0 0.896-0.344 1.023-0.72zm59.396 10.015c-0.724 0-1.311 0.314-1.765 0.923-0.369 0.486-0.59 1.072-0.657 1.75h4.617c0.012-0.666-0.129-1.241-0.43-1.731-0.384-0.624-0.974-0.942-1.765-0.942zm-69.168-3.38h-0.039c-0.139 0.6-0.355 1.481-0.659 2.652l-1.15 3.676h3.714l-1.168-3.676c-0.126-0.377-0.361-1.262-0.701-2.652zm22.898 3.63c-0.549 0-1.04 0.184-1.486 0.552a2.606 2.606 0 0 0 -0.874 1.457c-0.068 0.28-0.1 0.508-0.1 0.69v1.689c0 0.74 0.219 1.364 0.666 1.872 0.443 0.504 1.022 0.76 1.73 0.76 0.839 0 1.488-0.326 1.953-0.982 0.467-0.654 0.7-1.517 0.7-2.592 0-0.986-0.22-1.801-0.657-2.44-0.482-0.665-1.126-1.005-1.932-1.005zm29.463-0.14c-0.887 0-1.564 0.401-2.027 1.207-0.4 0.664-0.597 1.474-0.597 2.432 0 0.934 0.196 1.73 0.597 2.396 0.474 0.805 1.145 1.205 2.01 1.205 0.843 0 1.51-0.406 1.986-1.23 0.413-0.674 0.619-1.482 0.619-2.41s-0.198-1.729-0.592-2.393c-0.472-0.806-1.133-1.207-1.996-1.207zm-40.421 0.14c-0.547 0-1.04 0.184-1.485 0.552a2.6 2.6 0 0 0 -0.874 1.457c-0.066 0.28-0.1 0.508-0.1 0.69v1.689c0 0.74 0.218 1.364 0.665 1.872 0.443 0.504 1.023 0.76 1.733 0.76 0.832 0 1.486-0.326 1.95-0.982 0.466-0.654 0.696-1.517 0.696-2.592 0-0.986-0.216-1.801-0.654-2.44-0.48-0.665-1.123-1.005-1.931-1.005zm-36.956 5.697h11.524v-17.347h-11.527v17.347zm5.762 1.025c-0.647 0-1.173 0.537-1.173 1.197s0.526 1.196 1.173 1.196c0.65 0 1.175-0.537 1.175-1.196 0-0.66-0.525-1.197-1.175-1.197zm-1.132-20.143h2.26a0.272 0.272 0 0 0 0 -0.543h-2.26a0.272 0.272 0 0 0 0 0.543z"/>
</svg>
