<svg width="43" height="16" viewBox="0 0 43 16" version="1.1" xmlns="http://www.w3.org/2000/svg" xmlns:xlink="http://www.w3.org/1999/xlink">
<title>Group 100.1</title>
<desc>Created using Figma</desc>
<g id="Canvas" transform="translate(4504 1546)">
<g id="Group 100.1">
<g id="Rectangle 2">
<use xlink:href="#path0_s_fill" transform="translate(-4504 -1546)" fill="#E97017"/>
</g>
<g id="&#208;&#161;&#208;&#154;&#208;&#158;&#208;&#160;&#208;&#158;">
<use xlink:href="#path1_s_fill" transform="translate(-4499.7 -1541.14)" fill="#FFFFFF"/>
<use xlink:href="#path2_s_fill" transform="translate(-4499.7 -1541.14)" fill="#FFFFFF"/>
<use xlink:href="#path3_s_fill" transform="translate(-4499.7 -1541.14)" fill="#FFFFFF"/>
<use xlink:href="#path4_s_fill" transform="translate(-4499.7 -1541.14)" fill="#FFFFFF"/>
<use xlink:href="#path5_s_fill" transform="translate(-4499.7 -1541.14)" fill="#FFFFFF"/>
</g>
</g>
</g>
<defs>
<path id="path0_s_fill" d="M 0 2C 0 0.895431 0.895431 0 2 0L 41 0C 42.1046 0 43 0.895431 43 2L 43 14C 43 15.1046 42.1046 16 41 16L 2 16C 0.895431 16 0 15.1046 0 14L 0 2Z"/>
<path id="path1_s_fill" d="M 3.64 7.28C 4.92 7.28 6.04 6.65 6.64 5.66L 5.26 4.86C 4.96 5.4 4.35 5.72 3.64 5.72C 2.4 5.72 1.6 4.89 1.6 3.64C 1.6 2.39 2.4 1.56 3.64 1.56C 4.35 1.56 4.95 1.88 5.26 2.42L 6.64 1.62C 6.03 0.63 4.91 0 3.64 0C 1.53 0 0 1.58 0 3.64C 0 5.7 1.53 7.28 3.64 7.28Z"/>
<path id="path2_s_fill" d="M 13.0498 7.14L 10.5898 3.55L 12.9498 0.14L 11.1298 0.14L 8.98984 3.18L 8.98984 0.14L 7.38984 0.14L 7.38984 7.14L 8.98984 7.14L 8.98984 3.9L 11.2298 7.14L 13.0498 7.14Z"/>
<path id="path3_s_fill" d="M 16.3939 7.28C 18.4039 7.28 20.0339 5.7 20.0339 3.64C 20.0339 1.58 18.4039 0 16.3939 0C 14.3839 0 12.7539 1.58 12.7539 3.64C 12.7539 5.7 14.3839 7.28 16.3939 7.28ZM 16.3939 5.72C 15.2539 5.72 14.3539 4.89 14.3539 3.64C 14.3539 2.39 15.2539 1.56 16.3939 1.56C 17.5339 1.56 18.4339 2.39 18.4339 3.64C 18.4339 4.89 17.5339 5.72 16.3939 5.72Z"/>
<path id="path4_s_fill" d="M 23.5848 0.14L 20.9348 0.14L 20.9348 7.14L 22.5348 7.14L 22.5348 4.94L 23.5848 4.94C 24.9648 4.94 26.0348 3.87 26.0348 2.54C 26.0348 1.21 24.9648 0.14 23.5848 0.14ZM 23.5848 3.44L 22.5348 3.44L 22.5348 1.64L 23.5848 1.64C 24.0748 1.64 24.4348 2.03 24.4348 2.54C 24.4348 3.05 24.0748 3.44 23.5848 3.44Z"/>
<path id="path5_s_fill" d="M 30.1244 7.28C 32.1344 7.28 33.7644 5.7 33.7644 3.64C 33.7644 1.58 32.1344 0 30.1244 0C 28.1144 0 26.4844 1.58 26.4844 3.64C 26.4844 5.7 28.1144 7.28 30.1244 7.28ZM 30.1244 5.72C 28.9844 5.72 28.0844 4.89 28.0844 3.64C 28.0844 2.39 28.9844 1.56 30.1244 1.56C 31.2644 1.56 32.1644 2.39 32.1644 3.64C 32.1644 4.89 31.2644 5.72 30.1244 5.72Z"/>
</defs>
</svg>
