<svg width="16" height="16" viewBox="0 0 16 16" version="1.1" xmlns="http://www.w3.org/2000/svg" xmlns:xlink="http://www.w3.org/1999/xlink"><path d="M237.861611,13.8442459 L234.407439,10.3705284 C235.450636,9.22888826 235.647296,8.12342468 235.647296,6.49542954 C235.647296,2.91167002 232.585038,0 228.823648,0 C225.058799,0 222,2.91496334 222,6.49542954 C222,10.0758957 225.062258,12.9908591 228.823648,12.9908591 C230.533907,12.9908591 231.748413,12.7530342 232.947741,11.7600154 L236.596988,15.2337329 C236.689336,15.3214702 237.403818,15.2337329 237.52442,15.2337329 C237.645023,15.2337329 237.769263,15.1898643 237.861611,15.0986648 C238.04613,14.9229791 238.04613,14.0199316 237.861611,13.8442459 Z M223.684379,6.46851991 C223.684379,3.78612689 225.977649,1.60682273 228.793402,1.60682273 C231.612015,1.60682273 233.902271,3.7891416 233.902271,6.46851991 C233.902271,9.14789821 231.612015,11.3332318 228.793402,11.3332318 C225.977649,11.3332318 223.684379,9.15091292 223.684379,6.46851991 Z" transform="translate(-1233.000000, -148.000000) translate(995.000000, 135.000000) translate(16.000000, 13.363636)" fill="#999" stroke="none" stroke-width="1" fill-rule="evenodd"/></svg>