<svg xmlns="http://www.w3.org/2000/svg" xmlns:xlink="http://www.w3.org/1999/xlink" viewBox="0 0 50 50" version="1.1">
<g id="surface1">
<path style=" " d="M 36.9375 9 C 35.191406 9 33.6875 9.394531 32.46875 10.125 C 33.699219 10.777344 34.699219 11.835938 35.375 13.21875 C 36.441406 15.402344 36.480469 17.886719 36.03125 19.6875 C 36.21875 20.320313 36.273438 21.042969 36.1875 21.75 C 35.984375 23.453125 35.347656 24.503906 34.6875 25.15625 C 34.433594 26 34.050781 26.941406 33.5 27.75 C 33.5 27.984375 33.492188 28.207031 33.5 28.4375 C 33.949219 28.714844 34.855469 29.078125 35.4375 29.3125 C 37.621094 30.191406 40.988281 31.554688 42.375 35 L 47 35 C 47.273438 35 47.53125 34.886719 47.71875 34.6875 C 47.90625 34.488281 48.015625 34.210938 48 33.9375 C 47.769531 30.015625 44.648438 28.765625 42.375 27.84375 C 41.164063 27.351563 40.023438 26.894531 39.6875 26.21875 C 39.636719 25.578125 39.652344 25.054688 39.65625 24.46875 L 39.65625 24.3125 C 40.207031 23.671875 40.660156 22.585938 40.875 21.625 C 41.347656 21.308594 41.875 20.675781 42.03125 19.34375 C 42.101563 18.757813 42.003906 18.230469 41.78125 17.8125 C 42.269531 16.46875 42.25 14.308594 41.4375 12.65625 C 40.753906 11.265625 39.617188 10.441406 38.1875 10.25 L 37.84375 9.5625 C 37.675781 9.222656 37.316406 9 36.9375 9 Z M 28.59375 10 C 26.1875 10 24.109375 10.683594 22.625 11.90625 C 23.480469 12.5625 24.1875 13.429688 24.71875 14.5 C 25.773438 16.621094 26.0625 19.449219 25.46875 21.6875 C 25.679688 22.363281 25.746094 23.113281 25.65625 23.875 C 25.441406 25.726563 24.761719 26.851563 24.0625 27.53125 C 23.792969 28.46875 23.332031 29.589844 22.71875 30.5 C 22.714844 30.882813 22.734375 31.214844 22.75 31.59375 C 23.195313 31.921875 24.257813 32.378906 25 32.6875 C 27.503906 33.722656 31.066406 35.203125 32.4375 39.03125 L 40 39 C 40.273438 39 40.53125 38.886719 40.71875 38.6875 C 40.90625 38.488281 41.015625 38.210938 41 37.9375 C 40.742188 33.601563 37.238281 32.210938 34.6875 31.1875 C 33.273438 30.621094 31.953125 30.066406 31.5625 29.25 C 31.503906 28.519531 31.492188 27.945313 31.5 27.28125 L 31.5 27.09375 C 32.132813 26.390625 32.699219 25.132813 32.9375 24.03125 C 33.457031 23.707031 34.039063 22.996094 34.21875 21.5 C 34.296875 20.84375 34.164063 20.234375 33.90625 19.78125 C 34.464844 18.316406 34.464844 15.941406 33.5625 14.09375 C 32.796875 12.527344 31.527344 11.566406 29.90625 11.375 L 29.46875 10.5625 C 29.300781 10.222656 28.972656 10 28.59375 10 Z M 17.65625 11 C 14.175781 11 11.425781 12.292969 9.875 14.65625 C 8.542969 16.683594 8.261719 19.296875 9.125 21.75 C 8.828125 22.207031 8.65625 22.859375 8.75 23.65625 C 8.941406 25.316406 9.558594 26.066406 10.125 26.40625 C 10.382813 27.621094 10.988281 29.042969 11.6875 29.8125 L 11.6875 30.09375 C 11.695313 30.847656 11.722656 31.476563 11.65625 32.3125 C 11.234375 33.273438 9.894531 33.867188 8.375 34.53125 C 5.796875 35.664063 2.273438 37.207031 2 41.9375 C 1.984375 42.210938 2.09375 42.488281 2.28125 42.6875 C 2.46875 42.886719 2.726563 43 3 43 L 30 43 C 30.277344 43 30.527344 42.886719 30.71875 42.6875 C 30.90625 42.488281 31.015625 42.210938 31 41.9375 C 30.726563 37.199219 27.136719 35.722656 24.25 34.53125 C 22.632813 33.863281 21.207031 33.265625 20.78125 32.3125 C 20.714844 31.476563 20.742188 30.847656 20.75 30.09375 L 20.75 29.8125 C 21.433594 29.046875 22.027344 27.621094 22.28125 26.40625 C 22.847656 26.066406 23.464844 25.3125 23.65625 23.65625 C 23.738281 22.933594 23.628906 22.265625 23.34375 21.78125 C 23.980469 20.164063 23.96875 17.449219 22.9375 15.375 C 22.113281 13.71875 20.738281 12.726563 19.03125 12.53125 L 18.5625 11.5625 C 18.394531 11.21875 18.039063 11 17.65625 11 Z " fill="#ffffff"></path>
</g>
</svg>