<svg xmlns="http://www.w3.org/2000/svg" width="48" height="48" viewBox="0 0 48 48">
    <path fill="#CCD3D7" fill-rule="nonzero" d="M9.523.011c-.829-.067-1.75.173-2.6.77-.75.522-2.365 1.805-3.875 3.257-.754.723-1.473 1.477-2.028 2.217C.46 6.995-.028 7.673 0 8.658.031 9.54.12 12.154 2 16.16c1.88 4.001 5.529 9.492 12.644 16.611 7.119 7.12 12.61 10.767 16.611 12.648 4.002 1.88 6.619 1.97 7.502 1.999.98.03 1.658-.459 2.399-1.018.74-.56 1.493-1.275 2.217-2.029 1.447-1.51 2.73-3.126 3.252-3.875 1.191-1.695.993-3.698-.332-4.628-.833-.585-8.495-5.684-9.648-6.391-1.17-.716-2.516-.392-3.72.244-.946.5-3.509 1.969-4.24 2.39-.552-.35-2.643-1.742-7.141-6.24-4.502-4.498-5.89-6.59-6.24-7.14.421-.733 1.885-3.282 2.39-4.246.631-1.2.985-2.558.232-3.736-.316-.501-1.75-2.685-3.198-4.877-1.452-2.192-2.828-4.27-3.185-4.767v-.004C11.076.457 10.348.078 9.523.01zm-.198 2.2c.295.038.471.156.471.156.173.24 1.684 2.504 3.13 4.692a618.919 618.919 0 0 1 3.182 4.847c.042.063.1.778-.32 1.573v.005c-.475.904-2.693 4.78-2.693 4.78l-.307.542.316.539s1.653 2.79 6.913 8.049c5.263 5.26 8.053 6.917 8.053 6.917l.539.316.542-.307s3.867-2.214 4.78-2.693c.795-.417 1.51-.362 1.595-.312.745.459 9.02 5.958 9.53 6.316.017.013.467.694-.19 1.628h-.004c-.395.568-1.691 2.213-3.042 3.619-.677.702-1.371 1.359-1.96 1.8-.59.442-1.115.581-1.031.585-.917-.029-2.941-.05-6.657-1.796-3.715-1.742-9.016-5.23-16.005-12.223C9.182 24.259 5.694 18.958 3.948 15.238 2.206 11.523 2.185 9.5 2.156 8.586c.004.084.143-.446.584-1.035.442-.59 1.094-1.288 1.797-1.965 1.41-1.35 3.05-2.647 3.619-3.042v.004c.467-.328.875-.37 1.17-.336z"/>
</svg>
