<svg width="32" height="32" viewBox="0 0 32 32" version="1.1" xmlns="http://www.w3.org/2000/svg" xmlns:xlink="http://www.w3.org/1999/xlink"><defs><polygon id="path-1" points="0 0.0452195734 0 17.9999053 17.9286399 17.9999053 17.9286399 0.0452195734 5.1356945e-21 0.0452195734"/></defs><g transform="translate(-493.000000, -249.000000) translate(493.000000, 249.000000)" stroke="none" stroke-width="1" fill="none" fill-rule="evenodd"><rect fill="#02A7DF" x="0" y="0" width="32" height="32" rx="16"/><g transform="translate(7.000000, 7.000000)"><mask id="mask-2" fill="#fff"><use xlink:href="#path-1"/></mask><path d="M14.1768474,11.1675789 C13.8091737,10.7849368 13.3658526,10.5803053 12.8960526,10.5803053 C12.4299474,10.5803053 11.9827421,10.7810526 11.6001,11.1638842 L10.4025316,12.3575211 C10.3039105,12.3044211 10.2054789,12.2552053 10.1107421,12.2059895 C9.97436842,12.1377316 9.84543158,12.0733105 9.73548947,12.0050526 C8.61385263,11.2926789 7.59448421,10.3641632 6.6168,9.16294737 C6.14311579,8.56416316 5.82484737,8.06011579 5.59373684,7.54872632 C5.90437895,7.26451579 6.19247368,6.96879474 6.4728,6.68458421 C6.57904737,6.57857368 6.68505789,6.46867895 6.79125789,6.36247895 C7.58690526,5.56683158 7.58690526,4.536 6.79125789,3.74016316 L5.75654211,2.70563684 C5.63925789,2.58816316 5.51785263,2.46694737 5.40426316,2.34577895 C5.17684737,2.11078421 4.93815789,1.86821053 4.69188947,1.64079474 C4.32421579,1.27700526 3.88458947,1.08383684 3.42236842,1.08383684 C2.95995789,1.08383684 2.51294211,1.27700526 2.13399474,1.64079474 L2.12641579,1.64837368 L0.837852632,2.94825789 C0.352847368,3.43321579 0.0762157895,4.02437368 0.0155368421,4.71031579 C-0.0753157895,5.81679474 0.250531579,6.84762632 0.500684211,7.52205789 C1.11443684,9.17810526 2.03167895,10.7127474 3.39963158,12.3575211 C5.05937368,14.3394158 7.05642632,15.9044211 9.33768947,17.0072053 C10.2091737,17.4202105 11.3726842,17.9090526 12.6723316,17.9923263 C12.7521,17.9962105 12.8353737,17.9999053 12.9112105,17.9999053 C13.7866263,17.9999053 14.5217368,17.6855684 15.0977368,17.0601158 C15.1014789,17.0525368 15.1090579,17.0488421 15.1129421,17.0412632 C15.3099947,16.8025737 15.5372211,16.5864316 15.7761,16.3553684 C15.9389053,16.1999053 16.1056421,16.0371 16.2686368,15.8664789 C16.6438895,15.4762579 16.8407526,15.0214263 16.8407526,14.5553684 C16.8407526,14.0855684 16.6400053,13.6344316 16.2573632,13.2554842 L14.1768474,11.1675789 Z M15.5335263,15.1578 C15.5296421,15.1578 15.5296421,15.1616842 15.5335263,15.1578 C15.3856895,15.3171474 15.2341105,15.4611 15.0711158,15.6202105 C14.8248474,15.8552053 14.5746947,16.1014737 14.3398421,16.3781053 C13.9570105,16.7874158 13.5061105,16.9805842 12.9149053,16.9805842 C12.8581105,16.9805842 12.7974316,16.9805842 12.7406368,16.9768895 C11.6152579,16.9048895 10.5692684,16.4652632 9.78489474,16.0902 C7.64000526,15.0517895 5.75654211,13.5776368 4.19153684,11.7095211 C2.89946842,10.1519526 2.03537368,8.712 1.46325789,7.16589474 C1.11074211,6.22241053 0.981947368,5.48706316 1.03878947,4.79373158 C1.07668421,4.35022105 1.24711579,3.98273684 1.56168947,3.66821053 L2.85394737,2.37590526 C3.03953684,2.20163684 3.23658947,2.1069 3.42994737,2.1069 C3.66863684,2.1069 3.86180526,2.25104211 3.98321053,2.37221053 L3.99448421,2.38353158 C4.22578421,2.59962632 4.44543158,2.82315789 4.67668421,3.06184737 C4.79420526,3.18320526 4.91542105,3.30442105 5.03658947,3.42952105 L6.07111579,4.46404737 C6.4728,4.86573158 6.4728,5.2371 6.07111579,5.63878421 C5.96122105,5.74872632 5.85516316,5.85862105 5.74526842,5.96463158 C5.427,6.29047895 5.12374737,6.59373158 4.79420526,6.88926316 C4.78662632,6.89684211 4.77904737,6.90072632 4.77516316,6.90811579 C4.44931579,7.23415263 4.50999474,7.55242105 4.57806316,7.76832632 L4.58957368,7.80257368 C4.85857895,8.45426842 5.23752632,9.06821053 5.81352632,9.79962632 L5.81726842,9.80332105 C6.86325789,11.0916947 7.96585263,12.0960947 9.18227368,12.8652632 C9.33768947,12.9638842 9.4968,13.0434632 9.64837895,13.1191105 C9.78489474,13.1874158 9.91368947,13.2517895 10.0235842,13.3200474 C10.0387895,13.3276737 10.0539474,13.3389474 10.0691053,13.3465263 C10.1979,13.4109 10.3191158,13.4412632 10.4441684,13.4412632 C10.7587421,13.4412632 10.9557947,13.2442105 11.0201684,13.1798368 L12.3161684,11.8838368 C12.4451053,11.7548526 12.6497842,11.5996263 12.8884737,11.5996263 C13.1234684,11.5996263 13.3166368,11.7472737 13.4341105,11.8762579 L15.5296421,13.9717421 C15.9200526,14.3582684 15.9200526,14.7563053 15.5335263,15.1578 L15.5335263,15.1578 Z" fill="#FFF" mask="url(#mask-2)"/><path d="M9.69015789,4.31616316 C10.6828579,4.4829 11.5848947,4.95288947 12.3048947,5.67284211 C13.0248474,6.39279474 13.4909526,7.29464211 13.6615263,8.28753158 C13.7031632,8.53773158 13.9191158,8.712 14.1655737,8.712 C14.1957474,8.712 14.2223684,8.70811579 14.2527316,8.70442105 C14.5330579,8.6589 14.7187895,8.39373158 14.6733158,8.11326316 C14.4686368,6.912 13.9002158,5.81679474 13.0324263,4.94900526 C12.1646368,4.08116842 11.0694316,3.51274737 9.86816842,3.30811579 C9.58784211,3.26278421 9.32641579,3.44837368 9.27701053,3.72500526 C9.22779474,4.00163684 9.40964211,4.27064211 9.69015789,4.31616316 L9.69015789,4.31616316 Z" fill="#FFF" mask="url(#mask-2)"/><path d="M17.9208,7.96537895 C17.5836789,5.98741579 16.6512789,4.18741579 15.2189526,2.75485263 C13.7866263,1.32252632 11.9866263,0.390363158 10.0084263,0.0530052632 C9.73179474,0.00378947368 9.47036842,0.193263158 9.42115263,0.469894737 C9.37563158,0.750221053 9.56122105,1.01188421 9.84173684,1.0611 C11.6076789,1.36046842 13.2182053,2.19794211 14.499,3.47504211 C15.7797947,4.75583684 16.6135263,6.36636316 16.9129421,8.13230526 C16.9545789,8.38226842 17.1704842,8.55658421 17.4168,8.55658421 C17.4471158,8.55658421 17.4737842,8.55288947 17.5039105,8.54900526 C17.7807316,8.50736842 17.9702053,8.24201053 17.9208,7.96537895 L17.9208,7.96537895 Z" fill="#FFF" mask="url(#mask-2)"/></g></g></svg>