<svg width="32" height="32" viewBox="0 0 32 32" version="1.1" xmlns="http://www.w3.org/2000/svg" xmlns:xlink="http://www.w3.org/1999/xlink"><g transform="translate(-93.000000, -249.000000) translate(93.000000, 249.000000)" stroke="none" stroke-width="1" fill="none" fill-rule="evenodd"><rect fill="#02A7DF" x="0" y="0" width="32" height="32" rx="16"/><g fill="#FFF"><path d="M7.18876762,0.0187989556 C3.22594778,0.0187989556 0,3.24474674 0,7.20756658 C0,7.65864752 0.041310705,8.11353525 0.127785901,8.5572846 C0.131639687,8.58350914 0.146678851,8.66265274 0.176804178,8.79795822 C0.285650131,9.28297128 0.447415144,9.76046475 0.657963446,10.2153995 C1.43248042,12.0389452 3.1356188,14.8398486 6.87280418,17.8401619 C6.96679896,17.9154517 7.07973368,17.9530966 7.19243342,17.9530966 C7.30532115,17.9530966 7.41806789,17.9154517 7.51206266,17.8401619 C11.2455822,14.8398486 12.9525744,12.0389452 13.7269034,10.2153995 C13.9374987,9.76046475 14.0992167,9.28663708 14.2082507,8.79795822 C14.238376,8.66265274 14.2534151,8.58350914 14.2570809,8.5572846 C14.3398903,8.11353525 14.3848668,7.65864752 14.3848668,7.20756658 C14.3775352,3.24474674 11.1515875,0.0187989556 7.18876762,0.0187989556 L7.18876762,0.0187989556 Z M13.2495979,8.38066841 C13.2495979,8.388 13.2457441,8.39551958 13.2457441,8.40303916 C13.2420783,8.42197911 13.230705,8.47832898 13.211953,8.56480418 L13.211953,8.57232376 C13.1179582,8.99346736 12.978799,9.4032376 12.7944752,9.79792167 C12.7908094,9.80177546 12.7908094,9.80929504 12.7869556,9.81296084 C12.0840157,11.4786423 10.5424543,14.0203551 7.18876762,16.7911802 C3.83508094,14.0203551 2.29351958,11.4786423 1.59039164,9.81296084 C1.58672585,9.80929504 1.58672585,9.80177546 1.58287206,9.79792167 C1.40240209,9.40709138 1.26324282,8.99346736 1.16558225,8.57232376 L1.16558225,8.56480418 C1.1429765,8.47832898 1.13545692,8.42197911 1.13160313,8.40303916 C1.13160313,8.39551958 1.12793734,8.388 1.12793734,8.37681462 C1.05264752,7.98965013 1.0152376,7.59858486 1.0152376,7.20371279 C1.0152376,3.80114883 3.78606266,1.03018277 7.18876762,1.03018277 C10.5912846,1.03018277 13.3622977,3.80114883 13.3622977,7.20371279 C13.3622977,7.60225065 13.3246997,7.99716971 13.2495979,8.38066841 L13.2495979,8.38066841 Z" transform="translate(9.000000, 7.000000)"/><path d="M7.18876762,2.72208877 C4.67346736,2.72208877 2.6243342,4.77122193 2.6243342,7.28652219 C2.6243342,9.80177546 4.67346736,11.8509556 7.18876762,11.8509556 C9.70402089,11.8509556 11.7530131,9.80177546 11.7530131,7.28652219 C11.7530131,4.77122193 9.70402089,2.72208877 7.18876762,2.72208877 L7.18876762,2.72208877 Z M7.18876762,10.835718 C5.22991645,10.835718 3.6395248,9.24147258 3.6395248,7.28652219 C3.6395248,5.33133681 5.23358225,3.73727937 7.18876762,3.73727937 C9.14376501,3.73727937 10.7379634,5.33133681 10.7379634,7.28652219 C10.7379634,9.24147258 9.1476188,10.835718 7.18876762,10.835718 L7.18876762,10.835718 Z" transform="translate(9.000000, 7.000000)"/></g></g></svg>