<?xml version="1.0" encoding="UTF-8" standalone="no"?>
<svg xmlns:rdf="http://www.w3.org/1999/02/22-rdf-syntax-ns#" xmlns="http://www.w3.org/2000/svg" height="40" width="120" version="1.1" xmlns:cc="http://creativecommons.org/ns#" xmlns:dc="http://purl.org/dc/elements/1.1/" viewBox="0 0 120 40">
 <metadata>
  <rdf:RDF>
   <cc:Work rdf:about="">
    <dc:format>image/svg+xml</dc:format>
    <dc:type rdf:resource="http://purl.org/dc/dcmitype/StillImage"/>
    <dc:title/>
   </cc:Work>
  </rdf:RDF>
 </metadata>
 <g fill-rule="evenodd">
  <path d="m52.344 7.98c-0.246 0-0.454 0.11-0.626 0.334-0.171 0.223-0.257 0.504-0.257 0.845 0 0.354 0.09 0.642 0.272 0.864 0.18 0.222 0.401 0.333 0.664 0.333 0.246 0 0.454-0.111 0.626-0.335 0.171-0.224 0.257-0.505 0.257-0.844 0-0.356-0.09-0.644-0.27-0.865a0.826 0.826 0 0 0 -0.666 -0.333m4.882 0.018c-0.073 0-0.173 0.008-0.298 0.023 0.017 0.34 0.025 0.697 0.025 1.068 0 0.406 0.008 0.81 0.025 1.21 0.11 0.022 0.218 0.033 0.328 0.033 0.362 0 0.63-0.114 0.803-0.341 0.175-0.227 0.261-0.504 0.261-0.831s-0.093-0.602-0.282-0.826c-0.188-0.223-0.476-0.336-0.862-0.336m8.26-0.03c-0.12 0-0.246 0.012-0.379 0.038 0.019 0.322 0.028 0.686 0.028 1.093 0.042 0.003 0.091 0.005 0.146 0.005 0.614 0 0.921-0.197 0.921-0.59 0-0.364-0.239-0.546-0.716-0.546m-3.213-0.007c0 0.065-0.15 0.54-0.446 1.424h0.918c-0.288-0.879-0.432-1.354-0.432-1.425h-0.04m-23.831 0.001c0 0.065-0.15 0.54-0.447 1.424h0.918c-0.287-0.879-0.431-1.354-0.431-1.425h-0.04m10.326 0.011c-0.158 0-0.297 0.012-0.418 0.035 0.018 0.264 0.027 0.608 0.027 1.031 0.093 0.004 0.171 0.006 0.235 0.006 0.535 0 0.802-0.188 0.802-0.565 0-0.338-0.215-0.508-0.646-0.508m-3.614 0.028a2.68 2.68 0 0 0 -0.297 0.023c0.017 0.34 0.025 0.697 0.025 1.068 0 0.406 0.009 0.81 0.025 1.21 0.11 0.022 0.219 0.033 0.328 0.033 0.362 0 0.63-0.114 0.803-0.341 0.175-0.227 0.261-0.504 0.261-0.831s-0.093-0.602-0.282-0.826c-0.188-0.223-0.476-0.336-0.863-0.336m28.04-0.017c-0.246 0-0.455 0.11-0.626 0.334-0.171 0.223-0.258 0.504-0.258 0.845 0 0.354 0.09 0.642 0.272 0.864 0.18 0.222 0.402 0.333 0.664 0.333 0.246 0 0.455-0.111 0.626-0.335 0.172-0.224 0.258-0.505 0.258-0.844 0-0.356-0.09-0.644-0.27-0.865a0.826 0.826 0 0 0 -0.666 -0.333m-4.683-0.012c-0.119 0-0.246 0.012-0.378 0.038 0.019 0.322 0.028 0.686 0.028 1.093 0.042 0.003 0.09 0.005 0.146 0.005 0.614 0 0.92-0.197 0.92-0.59 0-0.364-0.238-0.546-0.716-0.546m-6.577 11.973c-0.707 0-1.318 0.268-1.834 0.801-0.517 0.534-0.774 1.24-0.774 2.12s0.257 1.586 0.774 2.12c0.516 0.533 1.127 0.8 1.834 0.8 0.706 0 1.317-0.267 1.834-0.8 0.516-0.534 0.775-1.24 0.775-2.12s-0.259-1.586-0.775-2.12c-0.517-0.533-1.128-0.8-1.834-0.8m-8.722-0.001c-0.707 0-1.318 0.268-1.834 0.801-0.517 0.534-0.775 1.24-0.775 2.12s0.258 1.586 0.775 2.12c0.516 0.533 1.127 0.8 1.834 0.8 0.706 0 1.318-0.267 1.834-0.8 0.516-0.534 0.774-1.24 0.774-2.12s-0.258-1.586-0.774-2.12c-0.516-0.533-1.128-0.8-1.834-0.8m41.392-3.398h-2.51v4.124h2.51c0.63 0 1.135-0.215 1.516-0.643 0.38-0.43 0.57-0.902 0.57-1.42 0-0.516-0.19-0.989-0.57-1.418s-0.886-0.643-1.516-0.643m9.096 6.829c-0.37 0.32-0.554 0.693-0.554 1.123 0 0.395 0.168 0.708 0.506 0.94 0.336 0.23 0.722 0.346 1.157 0.346 0.619 0 1.182-0.234 1.687-0.701 0.506-0.467 0.758-1.02 0.758-1.658-0.424-0.352-1.06-0.528-1.907-0.528-0.729 0-1.277 0.16-1.647 0.478m-21.454-3.432c-0.554 0-1.035 0.177-1.442 0.529-0.408 0.352-0.688 0.825-0.84 1.42h4.63c-0.033-0.464-0.242-0.903-0.628-1.32-0.386-0.419-0.96-0.628-1.72-0.628m-11.656-0.001c-0.695 0-1.293 0.268-1.793 0.801-0.5 0.534-0.75 1.24-0.75 2.12s0.25 1.586 0.75 2.12c0.5 0.533 1.098 0.8 1.794 0.8 0.706 0 1.307-0.264 1.801-0.792s0.742-1.238 0.742-2.128c0-0.89-0.248-1.6-0.742-2.128s-1.095-0.792-1.801-0.792"/>
  <path d="m111.95 30.465h-1.549l1.858-4.074-3.292-7.572h1.63l2.38 5.807h0.033l2.314-5.807h1.63l-5.004 11.646zm-3.261-3.563h-1.435v-1.12h-0.064c-0.599 0.923-1.474 1.384-2.626 1.384-0.848 0-1.557-0.247-2.127-0.742-0.571-0.495-0.856-1.149-0.856-1.963 0-0.88 0.336-1.57 1.01-2.07s1.506-0.75 2.495-0.75c0.88 0 1.603 0.164 2.168 0.494v-0.231c0-0.594-0.201-1.07-0.603-1.426-0.402-0.358-0.897-0.537-1.483-0.537-0.435 0-0.83 0.105-1.182 0.314a1.614 1.614 0 0 0 -0.726 0.857l-1.37-0.594c0.185-0.484 0.549-0.932 1.092-1.344 0.544-0.413 1.261-0.618 2.153-0.618 1.021 0 1.869 0.303 2.543 0.906 0.674 0.605 1.01 1.458 1.01 2.558v4.882zm-9.488 0h1.5v-11.811h-1.5v11.811zm-2.062-5.782a3.664 3.664 0 0 1 -2.568 0.998h-2.478v4.784h-1.5v-11.811h3.978c0.99 0 1.845 0.333 2.568 0.998 0.722 0.666 1.084 1.504 1.084 2.516 0 1.011-0.362 1.85-1.084 2.515zm-10.963 2.022h-6.31c0.043 0.814 0.313 1.457 0.807 1.929 0.495 0.473 1.073 0.71 1.736 0.71 1.076 0 1.805-0.462 2.185-1.386l1.336 0.56c-0.26 0.628-0.69 1.154-1.287 1.577-0.598 0.423-1.332 0.634-2.2 0.634-1.208 0-2.188-0.406-2.944-1.22-0.755-0.814-1.133-1.842-1.133-3.085 0-1.177 0.367-2.188 1.1-3.036 0.734-0.846 1.672-1.27 2.813-1.27 1.184 0 2.132 0.391 2.844 1.172 0.712 0.78 1.068 1.826 1.068 3.134l-0.015 0.28zm-7.931-12.316h-0.623c0-0.07-0.231-0.438-0.693-1.105-0.485-0.703-0.761-1.184-0.828-1.442h-0.04c0.041 0.372 0.063 0.71 0.063 1.01 0 0.421 0.011 0.933 0.035 1.537h-0.62a37.065 37.065 0 0 0 0 -3.324h0.748c0 0.09 0.209 0.45 0.624 1.08 0.442 0.669 0.696 1.122 0.762 1.36h0.037c-0.04-0.379-0.06-0.72-0.06-1.02 0-0.461-0.012-0.935-0.036-1.42h0.631c-0.023 0.423-0.035 0.95-0.035 1.586 0 0.64 0.012 1.22 0.035 1.738zm-2.258 16.076h1.5v-11.811h-1.5v11.811zm-1.636-16.5a1.53 1.53 0 0 1 -1.173 0.516c-0.444 0-0.816-0.158-1.115-0.473-0.299-0.316-0.449-0.718-0.449-1.204 0-0.523 0.158-0.956 0.475-1.3a1.531 1.531 0 0 1 1.172 -0.515c0.445 0 0.817 0.158 1.115 0.472 0.3 0.315 0.45 0.717 0.45 1.205 0 0.522-0.158 0.955-0.475 1.3zm0.217 16.088c0 1.386-0.396 2.439-1.19 3.16-0.793 0.72-1.76 1.08-2.9 1.08-0.947 0-1.719-0.239-2.316-0.717-0.598-0.479-1.028-1.027-1.288-1.643l1.37-0.576c0.152 0.439 0.431 0.808 0.84 1.105 0.406 0.297 0.87 0.445 1.393 0.445 0.826 0 1.475-0.25 1.948-0.75s0.709-1.18 0.709-2.038v-0.775h-0.065c-0.261 0.396-0.631 0.726-1.11 0.99a3.28 3.28 0 0 1 -1.613 0.395c-1.032 0-1.923-0.412-2.674-1.237-0.75-0.825-1.125-1.847-1.125-3.068 0-1.22 0.375-2.244 1.125-3.07 0.75-0.823 1.642-1.235 2.674-1.235 0.598 0 1.136 0.131 1.614 0.395s0.848 0.594 1.109 0.99h0.065v-1.122h1.434v7.671zm-9.263-16.925c-0.079 0-0.135-0.002-0.168-0.005 0 0.32 0.009 0.742 0.028 1.266h-0.71c0.022-0.491 0.033-1.071 0.033-1.738 0-0.613-0.011-1.142-0.032-1.586h0.438c0.062 0 0.182-0.002 0.359-0.008 0.176-0.005 0.329-0.007 0.458-0.007 0.32 0 0.59 0.074 0.81 0.22s0.331 0.368 0.331 0.666c0 0.407-0.15 0.707-0.448 0.901s-0.665 0.29-1.099 0.29zm-0.421 16.372c-0.773 0.82-1.756 1.23-2.95 1.23-1.197 0-2.18-0.41-2.952-1.23-0.772-0.819-1.158-1.844-1.158-3.076s0.386-2.257 1.158-3.076c0.771-0.82 1.755-1.23 2.951-1.23 1.195 0 2.178 0.41 2.95 1.23 0.772 0.819 1.158 1.844 1.158 3.076s-0.386 2.257-1.157 3.076zm-8.722 0c-0.772 0.82-1.756 1.23-2.951 1.23-1.196 0-2.18-0.41-2.95-1.23-0.772-0.819-1.159-1.844-1.159-3.076s0.387-2.257 1.158-3.076c0.772-0.82 1.755-1.23 2.95-1.23 1.196 0 2.18 0.41 2.952 1.23 0.772 0.819 1.157 1.844 1.157 3.076s-0.385 2.257-1.157 3.076zm-7.783-16.436c0 0.438 0.007 0.879 0.022 1.325h-0.7c0.021-0.514 0.032-1.094 0.032-1.738 0-0.62-0.01-1.148-0.033-1.586h0.437c0.05 0 0.155-0.002 0.316-0.008a14.2 14.2 0 0 1 0.445 -0.007c0.772 0 1.158 0.267 1.158 0.802 0 0.424-0.22 0.719-0.66 0.886v0.038c0.17 0.047 0.318 0.181 0.446 0.402 0.127 0.22 0.3 0.624 0.517 1.211h-0.747c-0.195-0.602-0.345-0.974-0.45-1.115-0.103-0.142-0.271-0.213-0.503-0.213-0.098 0-0.192 0.001-0.28 0.003zm-1.347 15.917c-1.098 1.166-2.527 1.748-4.288 1.748-1.685 0-3.116-0.59-4.295-1.773-1.18-1.182-1.769-2.648-1.769-4.396s0.589-3.214 1.769-4.397c1.179-1.182 2.61-1.773 4.295-1.773a5.96 5.96 0 0 1 2.397 0.495c0.76 0.33 1.37 0.77 1.826 1.32l-1.027 1.04c-0.772-0.936-1.837-1.403-3.196-1.403-1.228 0-2.29 0.437-3.187 1.312-0.896 0.874-1.345 2.01-1.345 3.406 0 1.397 0.449 2.532 1.345 3.407 0.897 0.874 1.959 1.311 3.187 1.311 1.304 0 2.392-0.44 3.26-1.32 0.566-0.572 0.892-1.37 0.979-2.392h-4.239v-1.419h5.657c0.055 0.309 0.082 0.605 0.082 0.891 0 1.65-0.483 2.964-1.45 3.943zm-15.092-3.57a6.337 6.337 0 0 1 -0.71 0.438c-1.438 0.805-2.88 1.602-4.316 2.412-0.194 0.11-0.309 0.105-0.469-0.063a316.05 316.05 0 0 0 -3.09 -3.18c-0.15-0.154-0.155-0.238 0-0.392a522.65 522.65 0 0 0 3.605 -3.63c0.14-0.145 0.242-0.16 0.418-0.06 1.42 0.815 2.848 1.619 4.273 2.427 0.44 0.25 0.784 0.573 0.803 1.102-0.016 0.424-0.214 0.723-0.514 0.947zm-6.2 3.503c-4.759 2.635-9.513 5.278-14.267 7.92-0.079 0.043-0.152 0.114-0.192 0.141 3.706-3.79 7.415-7.579 11.113-11.379 0.229-0.236 0.336-0.204 0.542 0.013 0.94 0.99 1.892 1.966 2.85 2.937 0.168 0.171 0.182 0.241-0.046 0.368zm-16.446 8.196c-0.428-0.333-0.591-0.778-0.59-1.308 0-2.234-0.004-4.469-0.006-6.703v-4.74h0.007c0-3.772 0.001-7.545-0.002-11.318 0-0.463 0.089-0.886 0.413-1.235 0.126-0.136 0.216-0.173 0.371-0.013 2.508 2.59 5.023 5.175 7.538 7.76 1.627 1.673 3.255 3.348 4.89 5.015 0.158 0.161 0.172 0.247 0.004 0.416-3.998 4.023-7.994 8.05-11.977 12.087-0.244 0.247-0.415 0.22-0.648 0.039zm1.571-25.53c5.106 2.895 10.212 5.791 15.321 8.68 0.235 0.133 0.23 0.207 0.049 0.388a550.15 550.15 0 0 0 -3.407 3.43c-0.123 0.124-0.197 0.195-0.36 0.026-4.063-4.192-8.132-8.379-12.199-12.566-0.034-0.035-0.062-0.077-0.131-0.163 0.305-0.003 0.52 0.087 0.727 0.204zm26.604 1.175c0.393-1.024 0.589-1.587 0.589-1.69h0.954c0 0.096 0.177 0.652 0.534 1.665 0.355 1.013 0.533 1.566 0.533 1.658h-0.807c0-0.112-0.077-0.43-0.23-0.955h-1.165c-0.158 0.516-0.237 0.834-0.237 0.955h-0.76c0-0.066 0.197-0.61 0.59-1.633zm3.156-1.69h0.749c0 0.09 0.208 0.45 0.624 1.08 0.442 0.668 0.696 1.121 0.761 1.36h0.038c-0.04-0.38-0.06-0.72-0.06-1.022 0-0.46-0.013-0.934-0.036-1.419h0.63c-0.023 0.423-0.035 0.95-0.035 1.586 0 0.64 0.012 1.22 0.036 1.738h-0.623c0-0.07-0.231-0.438-0.694-1.105-0.485-0.703-0.76-1.184-0.827-1.442h-0.04c0.041 0.372 0.062 0.71 0.062 1.01 0 0.421 0.012 0.933 0.035 1.537h-0.62a37.065 37.065 0 0 0 0 -3.324zm3.589 0h0.441c0.072 0 0.18-0.003 0.323-0.009 0.142-0.005 0.236-0.007 0.28-0.007 0.607 0 1.047 0.153 1.32 0.46 0.274 0.306 0.41 0.674 0.41 1.102 0 0.484-0.152 0.906-0.459 1.266-0.306 0.361-0.734 0.541-1.286 0.541-0.25 0-0.592-0.01-1.03-0.03a42.23 42.23 0 0 0 0 -3.324zm7.025 0.438a1.532 1.532 0 0 1 1.173 -0.515c0.444 0 0.816 0.158 1.116 0.472 0.298 0.315 0.448 0.717 0.448 1.205 0 0.522-0.158 0.955-0.474 1.3a1.53 1.53 0 0 1 -1.173 0.515c-0.444 0-0.816-0.158-1.115-0.473-0.3-0.316-0.45-0.718-0.45-1.204 0-0.523 0.159-0.956 0.475-1.3zm3.45-0.439h0.714c-0.022 0.43-0.033 0.957-0.033 1.586 0 0.641 0.01 1.22 0.033 1.738h-0.714a41.909 41.909 0 0 0 0 -3.324zm1.595 0h0.442c0.072 0 0.18-0.002 0.322-0.008a9.81 9.81 0 0 1 0.28 -0.007c0.608 0 1.048 0.153 1.321 0.46 0.273 0.306 0.41 0.674 0.41 1.102 0 0.484-0.153 0.906-0.459 1.266-0.306 0.361-0.735 0.541-1.286 0.541-0.25 0-0.593-0.01-1.03-0.03a40.916 40.916 0 0 0 0 -3.324zm5.016 1.69c0.393-1.023 0.59-1.586 0.59-1.69h0.953c0 0.097 0.178 0.653 0.533 1.666 0.357 1.013 0.534 1.566 0.534 1.658h-0.807c0-0.112-0.077-0.43-0.23-0.955h-1.165c-0.158 0.516-0.238 0.834-0.238 0.955h-0.758c0-0.066 0.196-0.61 0.588-1.633zm6.182-1.69h0.44c0.061 0 0.18-0.002 0.357-0.008 0.177-0.005 0.33-0.007 0.46-0.007 0.319 0 0.589 0.074 0.81 0.22 0.22 0.146 0.33 0.368 0.33 0.666 0 0.407-0.15 0.707-0.448 0.901-0.299 0.194-0.665 0.29-1.099 0.29-0.079 0-0.135 0-0.169-0.004 0 0.32 0.01 0.742 0.028 1.266h-0.709c0.022-0.491 0.033-1.071 0.033-1.738 0-0.613-0.011-1.142-0.033-1.586zm-62.178-7.501c-2.93 0-5.305 2.42-5.305 5.406v29.188c0 2.986 2.376 5.406 5.305 5.406h109.39c2.929 0 5.303-2.42 5.303-5.406v-29.188c0-2.986-2.37-5.406-5.3-5.406h-109.4z"/>
 </g>
</svg>
