<svg width="37" height="48" viewBox="0 0 37 48" version="1.1" xmlns="http://www.w3.org/2000/svg" xmlns:xlink="http://www.w3.org/1999/xlink"><path d="M123.237462,100.838406 L91.1528021,100.838406 L91.1528021,93.5810313 C91.1528021,90.6820938 93.5016785,88.3235313 96.3888255,88.3235313 C96.4280403,88.3235313 98.1601231,88.2813438 99.5287215,87.656875 L105.282848,95.8849375 C105.720187,96.5103438 106.435858,96.88375 107.196906,96.88375 L107.197093,96.88375 C107.958048,96.88375 108.673719,96.5103438 109.111058,95.8849375 L114.864344,87.6580938 C116.425188,88.3237188 117.962317,88.3237188 118.001532,88.3237188 C120.888586,88.3237188 123.237462,90.6821875 123.237462,93.581125 L123.237462,100.838406 Z M104.520306,81.4593437 C105.373509,81.7694687 106.271155,81.9352187 107.196719,81.9352187 C108.115001,81.9352187 109.01218,81.7747187 109.871079,81.4650625 C110.265095,83.5267187 111.406714,85.323625 113.001451,86.5606562 L107.349377,94.6426562 C107.312403,94.6954375 107.261237,94.7221562 107.196906,94.7221562 C107.132762,94.7221562 107.081596,94.6954375 107.044715,94.64275 L101.39124,86.558875 C102.986164,85.3204375 104.12741,83.5222187 104.520306,81.4593437 Z M99.4383406,70.4664063 C100.796575,69.2509375 101.870408,67.738375 102.569367,66.060625 C102.675433,66.158875 102.786822,66.2517813 102.90316,66.3390625 C103.62546,66.8802813 104.485106,67.1665 105.389195,67.1665 L112.72536,67.1665 C113.763247,67.1665 114.657999,67.791625 115.057244,68.6862813 C115.05715,68.6939688 115.05603,68.701375 115.05603,68.7089688 C115.05603,74.810125 111.530428,79.773625 107.196813,79.773625 C105.310765,79.773625 103.481766,78.8043438 102.047062,77.044375 C100.646438,75.3264063 99.7290907,73.006375 99.4383406,70.4664063 Z M102.983457,58.3516563 C103.376259,58.2376563 103.791096,58.1700625 104.216484,58.1508438 C104.37437,58.1437188 104.528802,58.1018125 104.668668,58.0279375 C105.758468,57.4530625 106.912785,57.1615938 108.099688,57.1615938 C112.504356,57.1615938 116.087754,61.118125 116.087754,65.9814063 C116.087754,66.127375 116.083646,66.2725938 116.077297,66.41725 C115.222973,65.546125 114.03607,65.0048125 112.725173,65.0048125 L105.389101,65.0048125 C104.952696,65.0048125 104.538326,64.8671875 104.190901,64.60675 C103.894268,64.3844688 103.664955,64.0856875 103.52789,63.74275 C103.315756,63.2123125 102.792798,62.8805313 102.223342,62.9165313 C101.651832,62.953 101.171077,63.3515313 101.026729,63.9082188 C100.601621,65.5484688 99.7538334,67.0593438 98.5909263,68.2845625 C97.5089698,63.8126875 99.4619629,59.37325 102.983457,58.3516563 Z M118.254655,86.1684063 C118.216654,86.1642813 112.713782,86.3272188 111.895593,80.40625 C112.804724,79.7693125 113.642614,78.9424375 114.380787,77.939125 C115.816798,75.9871562 116.742082,73.5385938 117.071673,70.8901563 C117.184929,70.7872187 117.278672,70.6593438 117.341789,70.5085 C117.938135,69.0820937 118.240556,67.5590313 118.240556,65.9814062 C118.240556,59.9262812 113.69154,55 108.099688,55 C106.637347,55 105.218423,55.33825 103.878396,56.0062188 C103.367202,56.0454062 102.866279,56.1356875 102.385897,56.275 C100.089307,56.9412813 98.2204393,58.651 97.1234504,61.0894375 C96.058487,63.457 95.8485942,66.244 96.5326133,68.9373437 C96.6772414,69.5063125 96.8608976,70.0655313 97.0788202,70.599625 C97.1378292,70.7441875 97.2256891,70.867375 97.3312891,70.9688125 C97.8652647,75.1027187 99.8241401,78.527875 102.495232,80.3979063 C101.674521,86.329 96.173704,86.164375 96.1357029,86.1685 C92.1784573,86.3032187 89,89.5754687 89,93.5810312 L89,101.919156 C89,102.516156 89.4818759,103 90.0764477,103 L124.313816,103 C124.908202,103 125.390171,102.516156 125.390171,101.919156 L125.390171,93.5810312 C125.390171,89.575375 122.2119,86.303125 118.254655,86.1684063 L118.254655,86.1684063 Z" transform="translate(-859.000000, -221.000000) translate(770.000000, 166.000000)" fill="#D8D8D8" stroke="none" stroke-width="1" fill-rule="evenodd"/></svg>