<svg xmlns="http://www.w3.org/2000/svg" viewBox="0 0 50 50">
    <path style="line-height:normal;text-indent:0;text-align:start;text-decoration-line:none;text-decoration-style:solid;text-decoration-color:#000;text-transform:none;block-progression:tb;isolation:auto;mix-blend-mode:normal" d="M 9 4 C 6.2545455 4 4 6.2545455 4 9 L 4 41 C 4 43.745455 6.2545455 46 9 46 L 41 46 C 43.745455 46 46 43.745455 46 41 L 46 9 C 46 6.2545455 43.745455 4 41 4 L 9 4 z M 9 6 L 41 6 C 42.654545 6 44 7.3454545 44 9 L 44 41 C 44 42.354295 43.091958 43.487607 41.857422 43.859375 C 41.558322 42.259808 40.838139 40.976552 39.884766 40.007812 C 38.724321 38.828665 37.277728 38.081017 35.869141 37.472656 C 34.460553 36.864295 33.072569 36.389259 32.015625 35.863281 C 30.991548 35.353659 30.388357 34.827993 30.126953 34.222656 C 30.065283 33.196697 30.055638 32.351439 30.054688 31.439453 C 30.456052 31.03682 30.760403 30.568388 31.056641 29.960938 C 31.408195 29.240056 31.645125 28.361661 31.794922 27.478516 C 32.575669 27.036726 33.21308 26.213416 33.365234 24.701172 L 33.367188 24.697266 L 33.367188 24.691406 C 33.448588 23.801408 33.173691 23.182547 32.822266 22.697266 C 33.247428 21.344423 33.749529 19.235276 33.570312 17.027344 C 33.470723 15.800433 33.155754 14.557669 32.396484 13.525391 C 31.717658 12.602523 30.616457 11.964848 29.261719 11.677734 C 28.866634 11.140509 28.342458 10.712637 27.705078 10.460938 C 26.893569 10.140473 25.948966 10 24.910156 10 L 24.898438 10 L 24.886719 10 C 20.913546 10.09532 18.32908 11.746972 17.220703 14.251953 C 16.172861 16.620123 16.392977 19.539893 17.123047 22.554688 C 16.732547 23.03941 16.40062 23.697324 16.560547 24.652344 C 16.720692 26.177567 17.376685 26.97123 18.126953 27.394531 C 18.285431 28.259924 18.537004 29.126922 18.90625 29.851562 C 19.124939 30.280738 19.35953 30.666436 19.603516 30.994141 C 19.700776 31.124767 19.843975 31.210528 19.945312 31.324219 C 19.957712 32.33801 19.997423 33.136825 19.876953 34.148438 C 19.631933 34.775549 19.037046 35.307614 18.013672 35.830078 C 16.964371 36.365779 15.576459 36.847625 14.164062 37.460938 C 12.751667 38.074249 11.298163 38.824348 10.130859 40.003906 C 9.1714731 40.973364 8.4437818 42.257454 8.1425781 43.859375 C 6.9080423 43.487607 6 42.354295 6 41 L 6 9 C 6 7.3454545 7.3454545 6 9 6 z M 24.919922 12.001953 C 25.76382 12.003153 26.481059 12.128906 26.970703 12.322266 C 27.462694 12.516552 27.6911 12.748723 27.777344 12.9375 L 28.005859 13.441406 L 28.556641 13.513672 C 29.703692 13.66346 30.330988 14.093466 30.785156 14.710938 C 31.239324 15.328409 31.49601 16.201864 31.576172 17.189453 C 31.736496 19.164632 31.162156 21.522027 30.796875 22.572266 L 30.542969 23.304688 L 31.1875 23.734375 C 31.11695 23.687425 31.432529 23.861577 31.375 24.507812 C 31.375 24.507812 31.375 24.509766 31.375 24.509766 C 31.217542 25.990671 30.587574 25.927734 30.933594 25.927734 L 30.029297 25.927734 L 29.9375 26.826172 C 29.86375 27.559551 29.584168 28.414775 29.257812 29.083984 C 28.931458 29.753194 28.394298 30.262892 28.550781 30.173828 L 28.044922 30.460938 L 28.044922 31.042969 C 28.044922 32.205969 28.044532 33.225047 28.136719 34.599609 L 28.148438 34.751953 L 28.203125 34.894531 C 28.722353 36.23202 29.884163 37.036806 31.125 37.654297 C 32.365837 38.271788 33.765634 38.74258 35.076172 39.308594 C 36.386709 39.874608 37.591398 40.528586 38.458984 41.410156 C 39.128822 42.09079 39.622307 42.895312 39.859375 44 L 10.142578 44 C 10.381275 42.897582 10.877657 42.094274 11.552734 41.412109 C 12.427524 40.528136 13.641004 39.869188 14.958984 39.296875 C 16.276964 38.724562 17.681832 38.244409 18.921875 37.611328 C 20.161918 36.978248 21.319187 36.144032 21.806641 34.779297 L 21.841797 34.679688 L 21.855469 34.574219 C 22.049086 33.130693 21.955078 32.15824 21.955078 30.953125 L 21.955078 30.371094 L 21.449219 30.083984 C 21.534139 30.132234 21.364859 30.012764 21.207031 29.800781 C 21.049204 29.588798 20.862061 29.285935 20.6875 28.943359 C 20.338377 28.258209 20.041305 27.399218 19.970703 26.732422 L 19.876953 25.837891 L 19.015625 25.837891 C 18.953022 25.811913 18.649621 25.610892 18.535156 24.416016 L 18.53125 24.373047 L 18.523438 24.332031 C 18.418608 23.758962 18.707552 23.65325 18.720703 23.644531 L 19.316406 23.25 L 19.134766 22.556641 C 18.355598 19.583476 18.246957 16.874769 19.048828 15.0625 C 19.849494 13.25296 21.443035 12.08876 24.919922 12.001953 z" font-weight="400" font-family="sans-serif" white-space="normal" overflow="visible"></path>
</svg>