<svg width="15" height="12" viewBox="0 0 15 12" version="1.1" xmlns="http://www.w3.org/2000/svg" xmlns:xlink="http://www.w3.org/1999/xlink"><path d="M12.7943761,2.89921071 C12.6863894,7.92947823 9.51513376,11.4260609 4.70494044,11.6447682 C2.73384105,11.7568557 1.31361062,11.1007338 8.8817842e-16,10.3366253 C1.42023042,10.5553326 3.28471002,10.0058305 4.26615895,9.12963445 C2.84592853,9.02301465 1.97109939,8.260273 1.53231791,7.05328218 C1.97109939,7.16536966 2.40851396,7.05328218 2.73384105,7.05328218 C1.42023042,6.61586761 0.550868971,5.85175904 0.438781488,4.10073385 C0.769576255,4.31944113 1.20152314,4.43152861 1.63893771,4.43152861 C0.657488772,3.88202656 8.8817842e-16,1.80430737 0.769576255,0.490696745 C2.18980668,2.02301465 3.93536419,3.33662528 6.78129272,3.55533256 C6.01855106,0.490696745 10.1726225,-1.14824096 11.8115602,0.928111313 C12.5743019,0.821491512 13.1251709,0.490696745 13.6692052,0.277457144 C13.4504979,1.0401988 13.0130834,1.47898028 12.4676821,1.91639485 C13.0130834,1.80430737 13.5625854,1.69768757 14,1.47898028 C13.8879125,2.02301465 13.3438781,2.46179614 12.7943761,2.89921071 Z" transform="translate(-693.000000, -614.000000) translate(601.000000, 604.000000) translate(0.000000, -0.000000) translate(84.000000, 0.000000) translate(8.600000, 10.200000)" fill="#999" stroke="none" stroke-width="1" fill-rule="evenodd"/></svg>