<svg width="24" height="30" viewBox="0 0 24 30" version="1.1" xmlns="http://www.w3.org/2000/svg" xmlns:xlink="http://www.w3.org/1999/xlink"><g fill="#666" stroke="none" stroke-width="1" fill-rule="evenodd"><path d="M11.9938839,0 C5.3822359,0 0,5.39627675 0,12.0251728 C0,12.7797286 0.0689236077,13.5406523 0.213200557,14.282944 C0.21963029,14.3268117 0.244721934,14.4592009 0.294983632,14.6855362 C0.4765844,15.4968527 0.746476388,16.2955907 1.09775939,17.056593 C2.38997902,20.1069701 5.23152922,24.7922443 11.4667242,29.8110859 C11.6235469,29.9370286 11.8119695,30 12,30 C12.1883441,30 12.3764531,29.9370286 12.5332758,29.8110859 C18.7623547,24.7922443 21.6103346,20.1069701 22.9022406,17.056593 C23.253602,16.2955907 23.5234156,15.5029848 23.70533,14.6855362 C23.7555917,14.4592009 23.7806834,14.3268117 23.7867994,14.282944 C23.9249603,13.5406523 24,12.7797286 24,12.0251728 C23.9877678,5.39627675 18.6055319,0 11.9938839,0 Z M22.6028426,14.0718633 C22.6028426,14.0847021 22.5961008,14.09787 22.5961008,14.111038 C22.5896878,14.1442049 22.5697912,14.2428824 22.5369864,14.3943142 L22.5369864,14.4074821 C22.3725516,15.1449712 22.1291057,15.8625437 21.806649,16.553698 C21.800236,16.5604466 21.800236,16.5736145 21.7934942,16.5800339 C20.563768,19.4969057 17.8669539,23.9478469 12,28.8 C6.13304608,23.9478469 3.43623201,19.4969057 2.20617697,16.5800339 C2.19976401,16.5736145 2.19976401,16.5604466 2.19302218,16.553698 C1.87730723,15.8692923 1.6338614,15.1449712 1.46301357,14.4074821 L1.46301357,14.3943142 C1.42346699,14.2428824 1.4103122,14.1442049 1.40357037,14.111038 C1.40357037,14.09787 1.39715741,14.0847021 1.39715741,14.0651147 C1.26544508,13.3871284 1.2,12.7023113 1.2,12.0108278 C1.2,6.05239997 6.0472933,1.2 12,1.2 C17.9523778,1.2 22.8,6.05239997 22.8,12.0108278 C22.8,12.7087306 22.7342261,13.4002964 22.6028426,14.0718633 Z" transform="translate(-689.000000, -355.000000) translate(506.000000, 355.000000) translate(183.000000, 0.000000)"/><path d="M12.0001606,4.8 C7.70176382,4.8 4.2,8.3016917 4.2,12.6 C4.2,16.898228 7.70176382,20.4 12.0001606,20.4 C16.2984771,20.4 19.8,16.898228 19.8,12.6 C19.8,8.3016917 16.2984771,4.8 12.0001606,4.8 Z M12.0000437,19.2 C8.35743483,19.2 5.4,16.2353988 5.4,12.6000437 C5.4,8.96425162 8.36425162,6 12.0000437,6 C15.6354862,6 18.6,8.96425162 18.6,12.6000437 C18.6,16.2353988 15.6426526,19.2 12.0000437,19.2 Z" transform="translate(-689.000000, -355.000000) translate(506.000000, 355.000000) translate(183.000000, 0.000000)"/></g></svg>