<svg width="32" height="32" viewBox="0 0 32 32" version="1.1" xmlns="http://www.w3.org/2000/svg" xmlns:xlink="http://www.w3.org/1999/xlink"><g transform="translate(-893.000000, -249.000000) translate(893.000000, 249.000000)" stroke="none" stroke-width="1" fill="none" fill-rule="evenodd"><rect fill="#02A7DF" x="0" y="0" width="32" height="32" rx="16"/><path d="M22.3238672,25.0993359 L8.90066406,25.0993359 L8.90066406,22.0754297 C8.90066406,20.8675391 9.88335937,19.8848047 11.09125,19.8848047 C11.1076562,19.8848047 11.8323047,19.8672266 12.4048828,19.6070312 L14.8122266,23.0353906 C14.9951953,23.2959766 15.2946094,23.4515625 15.6130078,23.4515625 L15.6130859,23.4515625 C15.9314453,23.4515625 16.2308594,23.2959766 16.4138281,23.0353906 L18.8208203,19.6075391 C19.4738281,19.8848828 20.1169141,19.8848828 20.1333203,19.8848828 C21.3411719,19.8848828 22.3238672,20.8675781 22.3238672,22.0754687 L22.3238672,25.0993359 L22.3238672,25.0993359 Z M14.4932031,17.0247266 C14.8501563,17.1539453 15.2257031,17.2230078 15.6129297,17.2230078 C15.9971094,17.2230078 16.3724609,17.1561328 16.7317969,17.0271094 C16.8966406,17.8861328 17.3742578,18.6348438 18.0414453,19.1502734 L15.6767969,22.5177734 C15.6613281,22.5397656 15.6399219,22.5508984 15.6130078,22.5508984 C15.5861719,22.5508984 15.5647656,22.5397656 15.5493359,22.5178125 L13.1841016,19.1495312 C13.8513672,18.6335156 14.3288281,17.8842578 14.4932031,17.0247266 L14.4932031,17.0247266 Z M12.3670703,12.4443359 C12.9353125,11.9378906 13.3845703,11.3076562 13.6769922,10.6085938 C13.7213672,10.6495313 13.7679687,10.6882422 13.8166406,10.7246094 C14.1188281,10.9501172 14.4784766,11.069375 14.8567188,11.069375 L17.9259375,11.069375 C18.3601563,11.069375 18.7344922,11.3298438 18.9015234,11.7026172 C18.9014844,11.7058203 18.9010156,11.7089062 18.9010156,11.7120703 C18.9010156,14.2542188 17.4260156,16.3223438 15.6129688,16.3223438 C14.8239063,16.3223438 14.0587109,15.9184766 13.4584766,15.1851563 C12.8725,14.4693359 12.4887109,13.5026563 12.3670703,12.4443359 L12.3670703,12.4443359 Z M13.8502344,7.39652344 C14.0145703,7.34902344 14.188125,7.32085937 14.3660938,7.31285156 C14.4321484,7.30988281 14.4967578,7.29242188 14.5552734,7.26164063 C15.0112109,7.02210937 15.4941406,6.90066406 15.9907031,6.90066406 C17.8334766,6.90066406 19.3326562,8.54921875 19.3326562,10.5755859 C19.3326562,10.6364063 19.3309375,10.6969141 19.3282812,10.7571875 C18.9708594,10.3942188 18.4742969,10.1686719 17.9258594,10.1686719 L14.8566797,10.1686719 C14.6741016,10.1686719 14.5007422,10.1113281 14.3553906,10.0028125 C14.2312891,9.91019531 14.1353516,9.78570313 14.0780078,9.6428125 C13.9892578,9.42179688 13.7704687,9.28355469 13.5322266,9.29855469 C13.293125,9.31375 13.0919922,9.47980469 13.0316016,9.71175781 C12.85375,10.3951953 12.4990625,11.0247266 12.0125391,11.5352344 C11.5598828,9.67195313 12.3769531,7.8221875 13.8502344,7.39652344 L13.8502344,7.39652344 Z M20.2392188,18.9868359 C20.2233203,18.9851172 17.9210938,19.0530078 17.5787891,16.5859375 C17.9591406,16.3205469 18.3096875,15.9760156 18.6185156,15.5579687 C19.2192969,14.7446484 19.6064063,13.7244141 19.7442969,12.6208984 C19.7916797,12.5780078 19.8308984,12.5247266 19.8573047,12.461875 C20.1067969,11.8675391 20.2333203,11.2329297 20.2333203,10.5755859 C20.2333203,8.05261719 18.3301563,6 15.9907031,6 C15.3789062,6 14.7852734,6.1409375 14.2246484,6.41925781 C14.0107813,6.43558594 13.8012109,6.47320312 13.6002344,6.53125 C12.6394141,6.80886719 11.8575391,7.52125 11.3985937,8.53726562 C10.9530469,9.52375 10.8652344,10.685 11.1514063,11.8072266 C11.2119141,12.0442969 11.28875,12.2773047 11.3799219,12.4998438 C11.4046094,12.5600781 11.4413672,12.6114062 11.4855469,12.6536719 C11.7089453,14.3761328 12.5284766,15.8032812 13.6459766,16.5824609 C13.3026172,19.05375 11.00125,18.9851562 10.9853516,18.986875 C9.32976563,19.0430078 8,20.4064453 8,22.0754297 L8,25.5496484 C8,25.7983984 8.20160156,26 8.45035156,26 L22.7741797,26 C23.0228516,26 23.2244922,25.7983984 23.2244922,25.5496484 L23.2244922,22.0754297 C23.2244922,20.4064062 21.8948047,19.0429688 20.2392188,18.9868359 L20.2392188,18.9868359 Z" fill="#FFF"/></g></svg>