<svg width="24" height="24" viewBox="0 0 24 24" version="1.1" xmlns="http://www.w3.org/2000/svg" xmlns:xlink="http://www.w3.org/1999/xlink">
<g id="Canvas" transform="translate(4486 1557)">
<g id="fire-icon">
<g id="Rectangle 15">
<use xlink:href="#path0_fill" transform="translate(-4486 -1557)" fill="#FFFFFF"/>
</g>
<g id="fire">
<use xlink:href="#path1_fill" transform="translate(-4483.33 -1557)" fill="#E97017"/>
</g>
</g>
</g>
<defs>
<path id="path0_fill" d="M 0 0L 24 0L 24 24L 0 24L 0 0Z"/>
<path id="path1_fill" d="M 17.9487 14.0517C 17.6738 10.4723 16.0073 8.22932 14.5371 6.24998C 13.1758 4.41754 12 2.83514 12 0.500856C 12 0.313356 11.895 0.141981 11.7285 0.0560595C 11.5615 -0.030378 11.3608 -0.0162217 11.209 0.094122C 9.00098 1.67409 7.1587 4.33701 6.51515 6.87782C 6.06839 8.64674 6.00928 10.6354 6.00098 11.9488C 3.96192 11.5132 3.50001 8.46318 3.49514 8.42995C 3.47217 8.27174 3.37551 8.13407 3.23489 8.05888C 3.09281 7.98468 2.9258 7.97929 2.78175 8.05059C 2.67483 8.10234 0.157218 9.38156 0.0107342 14.4891C 0.000468575 14.659 0 14.8295 0 14.9999C 0 19.9619 4.03758 23.9992 9 23.9992C 9.00684 23.9997 9.01415 24.0007 9.02001 23.9992C 9.02198 23.9992 9.0239 23.9992 9.02634 23.9992C 13.9766 23.985 18 19.9531 18 14.9999C 18 14.7503 17.9487 14.0517 17.9487 14.0517ZM 9 22.9993C 7.34568 22.9993 6 21.5658 6 19.8037C 6 19.7437 5.99953 19.6831 6.00389 19.6089C 6.0239 18.8658 6.16504 18.3585 6.31982 18.0211C 6.60989 18.6441 7.12842 19.2169 7.97072 19.2169C 8.24709 19.2169 8.47073 18.9932 8.47073 18.7169C 8.47073 18.0051 8.4854 17.1838 8.66264 16.4426C 8.82037 15.7854 9.19729 15.0862 9.67485 14.5258C 9.88725 15.2533 10.3013 15.8421 10.7056 16.4167C 11.2843 17.2389 11.8824 18.089 11.9874 19.5386C 11.9937 19.6245 12.0001 19.711 12.0001 19.8037C 12 21.5658 10.6543 22.9993 9 22.9993Z"/>
</defs>
</svg>
