<svg width="21" height="16" viewBox="0 0 21 16" version="1.1" xmlns="http://www.w3.org/2000/svg" xmlns:xlink="http://www.w3.org/1999/xlink"><defs><polygon id="path-1" points="20.3984064 15.9681594 20.3984064 0.00838247012 0.0019123506 0.00838247012 0.0019123506 15.9681594 20.3984064 15.9681594"/></defs><g transform="translate(-879.000000, -635.000000) translate(690.000000, -48.000000) translate(189.000000, 683.000000)" stroke="none" stroke-width="1" fill="none" fill-rule="evenodd"><mask id="mask-2" fill="#fff"><use xlink:href="#path-1"/></mask><path d="M17.2091793,9.03888446 L20.3500876,15.4910598 C20.4778327,15.7534024 20.34349,15.9681594 20.0516653,15.9681594 L0.346741036,15.9681594 C0.0549163347,15.9681594 -0.0794262948,15.7534024 0.0483187251,15.4910598 L3.18922709,9.03888446 C3.23917131,8.93615936 3.37351394,8.85223904 3.48755378,8.85223904 L6.18078088,8.85223904 C6.26368127,8.85223904 6.37587251,8.90415936 6.43015139,8.96691633 C6.61281275,9.17807171 6.79904382,9.3843506 6.98457371,9.58855777 C7.16086056,9.78240637 7.33800797,9.97874104 7.51381673,10.1796972 L4.31773705,10.1796972 C4.20356972,10.1796972 4.06922709,10.2637131 4.01928287,10.3663108 L1.93861355,14.6407012 L18.4596653,14.6407012 L16.3791235,10.3663108 C16.3291793,10.2635857 16.1948367,10.1796972 16.0806693,10.1796972 L12.8773546,10.1796972 C13.0531633,9.97874104 13.2303426,9.78240637 13.4066295,9.58855777 C13.5927649,9.38374502 13.7798884,9.17794422 13.9630279,8.96666135 C14.0173068,8.90403187 14.129243,8.85223904 14.2120159,8.85223904 L16.9108526,8.85223904 C17.0250199,8.85223904 17.1592351,8.93615936 17.2091793,9.03888446 Z M14.8168606,4.62938645 C14.8168606,8.15502789 11.8818486,8.81625498 10.5014821,12.2043347 C10.3893227,12.4796175 10.001753,12.478247 9.88956175,12.2029641 C8.64430279,9.1481753 6.13520319,8.31053386 5.65513944,5.58916335 C5.18253386,2.9100239 7.03748207,0.285768924 9.74575299,0.0296733068 C12.500239,-0.230661355 14.8168606,1.92879681 14.8168606,4.62938645 Z M12.6362072,4.62938645 C12.6362072,3.28165737 11.5435857,2.18913147 10.1958566,2.18913147 C8.84796813,2.18913147 7.7554741,3.28165737 7.7554741,4.62938645 C7.7554741,5.97724303 8.84796813,7.06973705 10.1958566,7.06973705 C11.5435857,7.06973705 12.6362072,5.97724303 12.6362072,4.62938645 Z" fill="#999" mask="url(#mask-2)"/></g></svg>