<svg width="32" height="32" viewBox="0 0 32 32" version="1.1" xmlns="http://www.w3.org/2000/svg" xmlns:xlink="http://www.w3.org/1999/xlink"><defs><polygon id="path-1" points="8.00393443 11.0136393 8.00393443 20.0491607 23.9664613 20.0491607 23.9664613 11.0136393 8.00393443 11.0136393"/></defs><g transform="translate(-96.000000, -5620.000000) translate(-40.000000, 5361.000000) translate(136.000000, 259.000000)" stroke="none" stroke-width="1" fill="none" fill-rule="evenodd"><rect fill="#A1A1B1" x="0" y="0" width="32" height="32"/><mask id="mask-2" fill="#fff"><use xlink:href="#path-1"/></mask><path d="M21.7413115,16.7587541 C22.2710164,17.2759344 22.8299016,17.7623607 23.3050492,18.3318033 C23.5148852,18.5845902 23.7136393,18.8456393 23.8655082,19.1391475 C24.080918,19.5563934 23.8857705,20.0156721 23.511541,20.0407869 L21.1857049,20.039541 C20.5855738,20.0894426 20.107082,19.8479344 19.7046557,19.4378361 C19.3826885,19.1097049 19.0842623,18.7605902 18.7748197,18.4214426 C18.6478033,18.2828852 18.5148852,18.152459 18.3560656,18.0495082 C18.0386885,17.8432787 17.763082,17.9062951 17.5814426,18.2375082 C17.3967869,18.5743607 17.3547541,18.9472787 17.3365902,19.3228197 C17.3117377,19.8704262 17.1462295,20.0144262 16.5960656,20.039541 C15.4200656,20.095082 14.3043279,19.9170492 13.2676721,19.3240656 C12.3537705,18.8010492 11.6449836,18.0628197 11.0281967,17.2272787 C9.82708197,15.5997377 8.90727869,13.811541 8.08065574,11.9734426 C7.8944918,11.5592131 8.0307541,11.336918 8.4877377,11.3289836 C9.24642623,11.3143607 10.0051148,11.3154098 10.7648525,11.3279344 C11.0732459,11.3325246 11.277377,11.5093115 11.3965246,11.8007869 C11.8071475,12.8102295 12.3094426,13.7705574 12.9400656,14.660918 C13.1078689,14.8978361 13.2792131,15.1348197 13.523082,15.3018361 C13.7927869,15.4864918 13.9979672,15.4252459 14.1249836,15.1247869 C14.2054426,14.9342295 14.2407869,14.7290492 14.2589508,14.524918 C14.3188852,13.8228197 14.3268197,13.1219672 14.2215738,12.4224262 C14.1567869,11.9857049 13.9108852,11.7032131 13.4751475,11.620459 C13.2527869,11.5784262 13.2858361,11.4957377 13.3937049,11.3686557 C13.580459,11.1499016 13.7563934,11.0136393 14.1068197,11.0136393 L16.7356721,11.0136393 C17.1495738,11.0953443 17.2415738,11.2813115 17.2981639,11.6975738 L17.300459,14.6176393 C17.2958689,14.7790164 17.380918,15.2572459 17.6713443,15.3640656 C17.9036721,15.4398689 18.0568525,15.2539016 18.1961967,15.106623 C18.8255738,14.438623 19.2748197,13.6491148 19.6761967,12.8318033 C19.8542295,12.4721311 20.0074098,12.0989508 20.1557377,11.7259672 C20.2659016,11.4491148 20.4382951,11.3130492 20.7500328,11.3189508 L23.2801967,11.3212459 C23.3550164,11.3212459 23.431082,11.3222951 23.5036066,11.3348197 C23.9300984,11.4076066 24.0468852,11.5910164 23.9152131,12.0072131 C23.7077377,12.6603934 23.3040656,13.2047213 22.9093115,13.7516066 C22.4874754,14.3353443 22.0361311,14.8991475 21.6178361,15.4864918 C21.233377,16.0228852 21.2638033,16.2931148 21.7413115,16.7587541 Z" fill="#16163C" mask="url(#mask-2)"/></g></svg>