<svg xmlns="http://www.w3.org/2000/svg" width="120" height="40" viewBox="0 0 120 40">
    <g fill="#FFF" fill-rule="evenodd">
        <path d="M52.344 7.98c-.246 0-.454.11-.626.334-.171.223-.257.504-.257.845 0 .354.09.642.272.864.18.222.401.333.664.333.246 0 .454-.111.626-.335.171-.224.257-.505.257-.844 0-.356-.09-.644-.27-.865a.826.826 0 0 0-.666-.333M57.226 7.997c-.073 0-.173.008-.298.023.017.34.025.697.025 1.068 0 .406.008.81.025 1.21.11.022.218.033.328.033.362 0 .63-.114.803-.341.175-.227.261-.504.261-.831 0-.327-.093-.602-.282-.826-.188-.223-.476-.336-.862-.336M65.486 7.967c-.12 0-.246.012-.379.038.019.322.028.686.028 1.093.042.003.091.005.146.005.614 0 .921-.197.921-.59 0-.364-.239-.546-.716-.546M62.273 7.96c0 .065-.15.54-.446 1.424h.918c-.288-.879-.432-1.354-.432-1.425h-.04M38.442 7.96c0 .065-.15.54-.447 1.424h.918c-.287-.879-.431-1.354-.431-1.425h-.04M48.768 7.97c-.158 0-.297.012-.418.035.018.264.027.608.027 1.031.093.004.171.006.235.006.535 0 .802-.188.802-.565 0-.338-.215-.508-.646-.508M45.154 7.997a2.68 2.68 0 0 0-.297.023c.017.34.025.697.025 1.068 0 .406.009.81.025 1.21.11.022.219.033.328.033.362 0 .63-.114.803-.341.175-.227.261-.504.261-.831 0-.327-.093-.602-.282-.826-.188-.223-.476-.336-.863-.336M73.194 7.98c-.246 0-.455.11-.626.334-.171.223-.258.504-.258.845 0 .354.09.642.272.864.18.222.402.333.664.333.246 0 .455-.111.626-.335.172-.224.258-.505.258-.844 0-.356-.09-.644-.27-.865a.826.826 0 0 0-.666-.333M68.511 7.967c-.119 0-.246.012-.378.038.019.322.028.686.028 1.093.042.003.09.005.146.005.614 0 .92-.197.92-.59 0-.364-.238-.546-.716-.546M61.934 19.94c-.707 0-1.318.268-1.834.801-.517.534-.774 1.24-.774 2.12 0 .88.257 1.586.774 2.12.516.533 1.127.8 1.834.8.706 0 1.317-.267 1.834-.8.516-.534.775-1.24.775-2.12 0-.88-.259-1.586-.775-2.12-.517-.533-1.128-.8-1.834-.8M53.212 19.94c-.707 0-1.318.268-1.834.801-.517.534-.775 1.24-.775 2.12 0 .88.258 1.586.775 2.12.516.533 1.127.8 1.834.8.706 0 1.318-.267 1.834-.8.516-.534.774-1.24.774-2.12 0-.88-.258-1.586-.774-2.12-.516-.533-1.128-.8-1.834-.8M94.604 16.543h-2.51v4.124h2.51c.63 0 1.135-.215 1.516-.643.38-.43.57-.902.57-1.42 0-.516-.19-.989-.57-1.418-.38-.429-.886-.643-1.516-.643M103.7 23.372c-.37.32-.554.693-.554 1.123 0 .395.168.708.506.94.336.23.722.346 1.157.346.619 0 1.182-.234 1.687-.701.506-.467.758-1.02.758-1.658-.424-.352-1.06-.528-1.907-.528-.729 0-1.277.16-1.647.478M82.246 19.94c-.554 0-1.035.177-1.442.529-.408.352-.688.825-.84 1.42h4.63c-.033-.464-.242-.903-.628-1.32-.386-.419-.96-.628-1.72-.628M70.59 19.94c-.695 0-1.293.268-1.793.801-.5.534-.75 1.24-.75 2.12 0 .88.25 1.586.75 2.12.5.533 1.098.8 1.794.8.706 0 1.307-.264 1.801-.792s.742-1.238.742-2.128c0-.89-.248-1.6-.742-2.128s-1.095-.792-1.801-.792"/>
        <path d="M111.95 30.465h-1.549l1.858-4.074-3.292-7.572h1.63l2.38 5.807h.033l2.314-5.807h1.63l-5.004 11.646zm-3.261-3.563h-1.435v-1.12h-.064c-.599.923-1.474 1.384-2.626 1.384-.848 0-1.557-.247-2.127-.742-.571-.495-.856-1.149-.856-1.963 0-.88.336-1.57 1.01-2.07.674-.5 1.506-.75 2.495-.75.88 0 1.603.164 2.168.494v-.231c0-.594-.201-1.07-.603-1.426-.402-.358-.897-.537-1.483-.537-.435 0-.83.105-1.182.314a1.614 1.614 0 0 0-.726.857l-1.37-.594c.185-.484.549-.932 1.092-1.344.544-.413 1.261-.618 2.153-.618 1.021 0 1.869.303 2.543.906.674.605 1.01 1.458 1.01 2.558v4.882zm-9.488 0h1.5V15.091h-1.5v11.811zM97.14 21.12a3.664 3.664 0 0 1-2.568.998h-2.478v4.784h-1.5V15.091h3.978c.99 0 1.845.333 2.568.998.722.666 1.084 1.504 1.084 2.516 0 1.011-.362 1.85-1.084 2.515zm-10.963 2.022h-6.31c.043.814.313 1.457.807 1.929.495.473 1.073.71 1.736.71 1.076 0 1.805-.462 2.185-1.386l1.336.56c-.26.628-.69 1.154-1.287 1.577-.598.423-1.332.634-2.2.634-1.208 0-2.188-.406-2.944-1.22-.755-.814-1.133-1.842-1.133-3.085 0-1.177.367-2.188 1.1-3.036.734-.846 1.672-1.27 2.813-1.27 1.184 0 2.132.391 2.844 1.172.712.78 1.068 1.826 1.068 3.134l-.015.28zm-7.931-12.316h-.623c0-.07-.231-.438-.693-1.105-.485-.703-.761-1.184-.828-1.442h-.04c.041.372.063.71.063 1.01 0 .421.011.933.035 1.537h-.62a37.065 37.065 0 0 0 0-3.324h.748c0 .09.209.45.624 1.08.442.669.696 1.122.762 1.36h.037c-.04-.379-.06-.72-.06-1.02 0-.461-.012-.935-.036-1.42h.631c-.023.423-.035.95-.035 1.586 0 .64.012 1.22.035 1.738zm-2.258 16.076h1.5V15.091h-1.5v11.811zm-1.636-16.5a1.53 1.53 0 0 1-1.173.516c-.444 0-.816-.158-1.115-.473-.299-.316-.449-.718-.449-1.204 0-.523.158-.956.475-1.3a1.531 1.531 0 0 1 1.172-.515c.445 0 .817.158 1.115.472.3.315.45.717.45 1.205 0 .522-.158.955-.475 1.3zm.217 16.088c0 1.386-.396 2.439-1.19 3.16-.793.72-1.76 1.08-2.9 1.08-.947 0-1.719-.239-2.316-.717-.598-.479-1.028-1.027-1.288-1.643l1.37-.576c.152.439.431.808.84 1.105.406.297.87.445 1.393.445.826 0 1.475-.25 1.948-.75.473-.5.709-1.18.709-2.038v-.775h-.065c-.261.396-.631.726-1.11.99a3.28 3.28 0 0 1-1.613.395c-1.032 0-1.923-.412-2.674-1.237-.75-.825-1.125-1.847-1.125-3.068 0-1.22.375-2.244 1.125-3.07.75-.823 1.642-1.235 2.674-1.235.598 0 1.136.131 1.614.395.478.264.848.594 1.109.99h.065v-1.122h1.434v7.671zM65.306 9.565c-.079 0-.135-.002-.168-.005 0 .32.009.742.028 1.266h-.71c.022-.491.033-1.071.033-1.738 0-.613-.011-1.142-.032-1.586h.438c.062 0 .182-.002.359-.008.176-.005.329-.007.458-.007.32 0 .59.074.81.22.22.146.331.368.331.666 0 .407-.15.707-.448.901-.298.194-.665.29-1.099.29zm-.421 16.372c-.773.82-1.756 1.23-2.95 1.23-1.197 0-2.18-.41-2.952-1.23-.772-.819-1.158-1.844-1.158-3.076s.386-2.257 1.158-3.076c.771-.82 1.755-1.23 2.951-1.23 1.195 0 2.178.41 2.95 1.23.772.819 1.158 1.844 1.158 3.076s-.386 2.257-1.157 3.076zm-8.722 0c-.772.82-1.756 1.23-2.951 1.23-1.196 0-2.18-.41-2.95-1.23-.772-.819-1.159-1.844-1.159-3.076s.387-2.257 1.158-3.076c.772-.82 1.755-1.23 2.95-1.23 1.196 0 2.18.41 2.952 1.23.772.819 1.157 1.844 1.157 3.076s-.385 2.257-1.157 3.076zM48.38 9.501c0 .438.007.879.022 1.325h-.7c.021-.514.032-1.094.032-1.738 0-.62-.01-1.148-.033-1.586h.437c.05 0 .155-.002.316-.008a14.2 14.2 0 0 1 .445-.007c.772 0 1.158.267 1.158.802 0 .424-.22.719-.66.886v.038c.17.047.318.181.446.402.127.22.3.624.517 1.211h-.747c-.195-.602-.345-.974-.45-1.115-.103-.142-.271-.213-.503-.213-.098 0-.192.001-.28.003zm-1.347 15.917c-1.098 1.166-2.527 1.748-4.288 1.748-1.685 0-3.116-.59-4.295-1.773-1.18-1.182-1.769-2.648-1.769-4.396 0-1.748.589-3.214 1.769-4.397 1.179-1.182 2.61-1.773 4.295-1.773a5.96 5.96 0 0 1 2.397.495c.76.33 1.37.77 1.826 1.32l-1.027 1.04c-.772-.936-1.837-1.403-3.196-1.403-1.228 0-2.29.437-3.187 1.312-.896.874-1.345 2.01-1.345 3.406 0 1.397.449 2.532 1.345 3.407.897.874 1.959 1.311 3.187 1.311 1.304 0 2.392-.44 3.26-1.32.566-.572.892-1.37.979-2.392h-4.239v-1.419h5.657c.055.309.082.605.082.891 0 1.65-.483 2.964-1.45 3.943zm-15.092-3.57a6.337 6.337 0 0 1-.71.438c-1.438.805-2.88 1.602-4.316 2.412-.194.11-.309.105-.469-.063a316.049 316.049 0 0 0-3.09-3.18c-.15-.154-.155-.238 0-.392a522.65 522.65 0 0 0 3.605-3.63c.14-.145.242-.16.418-.06 1.42.815 2.848 1.619 4.273 2.427.44.25.784.573.803 1.102-.016.424-.214.723-.514.947zm-6.2 3.503c-4.759 2.635-9.513 5.278-14.267 7.92-.079.043-.152.114-.192.141 3.706-3.79 7.415-7.579 11.113-11.379.229-.236.336-.204.542.013.94.99 1.892 1.966 2.85 2.937.168.171.182.241-.046.368zM9.295 33.547c-.428-.333-.591-.778-.59-1.308 0-2.234-.004-4.469-.006-6.703v-4.74h.007c0-3.772.001-7.545-.002-11.318 0-.463.089-.886.413-1.235.126-.136.216-.173.371-.013 2.508 2.59 5.023 5.175 7.538 7.76 1.627 1.673 3.255 3.348 4.89 5.015.158.161.172.247.004.416-3.998 4.023-7.994 8.05-11.977 12.087-.244.247-.415.22-.648.039zm1.571-25.53c5.106 2.895 10.212 5.791 15.321 8.68.235.133.23.207.049.388a550.152 550.152 0 0 0-3.407 3.43c-.123.124-.197.195-.36.026-4.063-4.192-8.132-8.379-12.199-12.566-.034-.035-.062-.077-.131-.163.305-.003.52.087.727.204zM37.47 9.192c.393-1.024.589-1.587.589-1.69h.954c0 .096.177.652.534 1.665.355 1.013.533 1.566.533 1.658h-.807c0-.112-.077-.43-.23-.955h-1.165c-.158.516-.237.834-.237.955h-.76c0-.066.197-.61.59-1.633zm3.156-1.69h.749c0 .09.208.45.624 1.08.442.668.696 1.121.761 1.36h.038c-.04-.38-.06-.72-.06-1.022 0-.46-.013-.934-.036-1.419h.63c-.023.423-.035.95-.035 1.586 0 .64.012 1.22.036 1.738h-.623c0-.07-.231-.438-.694-1.105-.485-.703-.76-1.184-.827-1.442h-.04c.041.372.062.71.062 1.01 0 .421.012.933.035 1.537h-.62a37.065 37.065 0 0 0 0-3.324zm3.589 0h.441c.072 0 .18-.003.323-.009.142-.005.236-.007.28-.007.607 0 1.047.153 1.32.46.274.306.41.674.41 1.102 0 .484-.152.906-.459 1.266-.306.361-.734.541-1.286.541-.25 0-.592-.01-1.03-.03a42.23 42.23 0 0 0 0-3.324zm7.025.438a1.532 1.532 0 0 1 1.173-.515c.444 0 .816.158 1.116.472.298.315.448.717.448 1.205 0 .522-.158.955-.474 1.3a1.53 1.53 0 0 1-1.173.515c-.444 0-.816-.158-1.115-.473-.3-.316-.45-.718-.45-1.204 0-.523.159-.956.475-1.3zm3.45-.439h.714c-.022.43-.033.957-.033 1.586 0 .641.01 1.22.033 1.738h-.714a41.909 41.909 0 0 0 0-3.324zm1.595 0h.442c.072 0 .18-.002.322-.008a9.81 9.81 0 0 1 .28-.007c.608 0 1.048.153 1.321.46.273.306.41.674.41 1.102 0 .484-.153.906-.459 1.266-.306.361-.735.541-1.286.541-.25 0-.593-.01-1.03-.03a40.916 40.916 0 0 0 0-3.324zm5.016 1.69c.393-1.023.59-1.586.59-1.69h.953c0 .097.178.653.533 1.666.357 1.013.534 1.566.534 1.658h-.807c0-.112-.077-.43-.23-.955h-1.165c-.158.516-.238.834-.238.955h-.758c0-.066.196-.61.588-1.633zm6.182-1.69h.44c.061 0 .18-.002.357-.008.177-.005.33-.007.46-.007.319 0 .589.074.81.22.22.146.33.368.33.666 0 .407-.15.707-.448.901-.299.194-.665.29-1.099.29-.079 0-.135 0-.169-.004 0 .32.01.742.028 1.266h-.709c.022-.491.033-1.071.033-1.738 0-.613-.011-1.142-.033-1.586zM5.305 0C2.375 0 0 2.42 0 5.406v29.188C0 37.58 2.376 40 5.305 40h109.392c2.929 0 5.303-2.42 5.303-5.406V5.406C120 2.42 117.626 0 114.697 0H5.305z"/>
    </g>
</svg>
