<svg width="24px" height="24px" viewBox="0 0 24 24" version="1.1" xmlns="http://www.w3.org/2000/svg" xmlns:xlink="http://www.w3.org/1999/xlink">
    <g stroke="none" stroke-width="1" fill="none" fill-rule="evenodd">
        <path d="M12,0 C5.37826848,0 0,5.37826848 0,12 C0,18.6217315 5.37826848,24 12,24 C18.6217315,24 24,18.6217315 24,12 C24,5.37826848 18.6217315,0 12,0 Z M12,0.96 C18.1029091,0.96 23.04,5.89709088 23.04,12 C23.04,18.1029091 18.1029091,23.04 12,23.04 C5.89709088,23.04 0.96,18.1029091 0.96,12 C0.96,5.89709088 5.89709088,0.96 12,0.96 Z M11.955,2.385 C11.9346984,2.38870512 11.9146568,2.39371552 11.895,2.4 C11.6714983,2.45005357 11.5144867,2.65102846 11.52,2.88 L11.52,10.65 C10.963993,10.8494453 10.56,11.3753659 10.56,12 C10.56,12.217691 10.6235237,12.4150075 10.71,12.6 L7.815,15.495 C7.69173034,15.618254 7.64358328,15.7979109 7.68869668,15.9662907 C7.73381009,16.1346704 7.86532956,16.2661899 8.03370932,16.3113033 C8.20208908,16.3564167 8.38174598,16.3082697 8.505,16.185 L11.4,13.29 C11.5849925,13.3764763 11.782309,13.44 12,13.44 C12.7952899,13.44 13.44,12.7952899 13.44,12 C13.44,11.3753659 13.036007,10.8494453 12.48,10.65 L12.48,2.88 C12.4849188,2.74192043 12.4301044,2.60841659 12.3295754,2.51363214 C12.2290465,2.41884769 12.0925518,2.37197436 11.955,2.385 L11.955,2.385 Z" fill="#000000" fill-rule="nonzero"></path>
    </g>
</svg>