<svg width="32" height="32" viewBox="0 0 32 32" version="1.1" xmlns="http://www.w3.org/2000/svg" xmlns:xlink="http://www.w3.org/1999/xlink"><g transform="translate(-184.000000, -5620.000000) translate(-40.000000, 5361.000000) translate(224.000000, 259.000000)" stroke="none" stroke-width="1" fill="none" fill-rule="evenodd"><rect fill="#A1A1B1" x="0" y="0" width="32" height="32"/><rect fill="#16163C" x="6" y="6" width="21" height="21"/><path d="M4,4 L4,28 L28,28 L28,4 L4,4 Z M22.8385,12.76 C22.72,18.28 19.24,22.117 13.9615,22.357 C11.7985,22.48 10.24,21.76 8.7985,20.9215 C10.357,21.1615 12.403,20.5585 13.48,19.597 C11.9215,19.48 10.9615,18.643 10.48,17.3185 C10.9615,17.4415 11.4415,17.3185 11.7985,17.3185 C10.357,16.8385 9.403,16 9.28,14.0785 C9.643,14.3185 10.117,14.4415 10.597,14.4415 C9.52,13.8385 8.7985,11.5585 9.643,10.117 C11.2015,11.7985 13.117,13.24 16.24,13.48 C15.403,10.117 19.9615,8.3185 21.76,10.597 C22.597,10.48 23.2015,10.117 23.7985,9.883 C23.5585,10.72 23.0785,11.2015 22.48,11.6815 C23.0785,11.5585 23.6815,11.4415 24.1615,11.2015 C24.0385,11.7985 23.4415,12.28 22.8385,12.76 Z" fill="#A1A1B1"/></g></svg>