<svg width="32" height="32" viewBox="0 0 32 32" version="1.1" xmlns="http://www.w3.org/2000/svg" xmlns:xlink="http://www.w3.org/1999/xlink"><g transform="translate(-140.000000, -5620.000000) translate(-40.000000, 5361.000000) translate(180.000000, 259.000000)" stroke="none" stroke-width="1" fill="none" fill-rule="evenodd"><rect fill="#A1A1B1" x="0" y="0" width="32" height="32"/><rect fill="#16163C" x="9" y="4" width="15" height="23"/><path d="M2,3 L2,27 L14.8174607,27 L14.8174607,17.706216 L11.6895342,17.706216 L11.6895342,14.0821595 L14.8174607,14.0821595 L14.8174607,11.4099803 C14.8174607,8.3132061 16.7108312,6.62405654 19.4776213,6.62405654 C20.8033268,6.62405654 21.9386568,6.72328253 22.2721023,6.76828037 L22.2721023,10.0035094 L20.3521946,10.0081246 C18.8476516,10.0081246 18.5592039,10.7200135 18.5592039,11.7711168 L18.5592039,14.0821595 L22.1463391,14.0821595 L21.6779001,17.7016009 L18.5592039,17.7016009 L18.5592039,27 L26,27 L26,3 L2,3 Z" fill="#A1A1B1"/></g></svg>