<svg xmlns="http://www.w3.org/2000/svg" width="14" height="14" viewBox="0 0 14 14">
    <g fill="none" fill-rule="evenodd">
        <path d="M-1-1h16v16H-1z"/>
        <path fill="#872742" d="M13.686 11.049l-2.162-2.163c-.43-.43-1.143-.416-1.589.03l-1.09 1.09-.214-.12c-.688-.382-1.63-.904-2.62-1.895-.994-.994-1.517-1.937-1.899-2.626l-.117-.21.73-.73.36-.36c.446-.446.46-1.158.03-1.588L2.951.314c-.43-.43-1.143-.417-1.59.03L.754.956l.015.017c-.204.261-.374.562-.501.886-.117.309-.19.603-.223.898-.286 2.367.796 4.53 3.73 7.466 4.058 4.056 7.328 3.75 7.47 3.735a3.65 3.65 0 0 0 .9-.226 3.49 3.49 0 0 0 .882-.5l.013.012.619-.605c.444-.447.457-1.16.027-1.59z"/>
    </g>
</svg>
