<svg xmlns="http://www.w3.org/2000/svg" width="120" height="42" viewBox="0 0 120 42">
    <path fill="#FFF" fill-rule="evenodd" d="M107.239 10.919c-.802 0-1.14.74-1.192 1.276h2.257c.01-.482-.2-1.276-1.065-1.276zm-50.457 2.864c0 .516.328.753.738.753.528 0 .897-.344 1.024-.72a.91.91 0 0 0 .031-.29v-.718c-.917-.011-1.793.181-1.793.975zm24.965-2.81c-.919 0-1.287.91-1.287 1.78 0 1.01.495 1.772 1.276 1.772.738 0 1.255-.73 1.255-1.793 0-.815-.36-1.76-1.244-1.76zm-8.716-.054c-.802 0-1.14.74-1.192 1.276h2.257c.01-.482-.2-1.276-1.065-1.276zm-9.338.127c-.527 0-1.013.388-1.15.967a1.514 1.514 0 0 0-.043.343v.848c0 .107.011.215.032.312.138.536.591.923 1.15.923.812 0 1.308-.656 1.308-1.717 0-.923-.433-1.676-1.297-1.676zm45.802 17.072h-6.65c.027 1.001.348 1.764.966 2.292.56.474 1.283.712 2.174.712.986 0 1.88-.16 2.688-.485l.349 1.569c-.94.42-2.058.624-3.347.624-1.543 0-2.757-.46-3.64-1.385-.88-.925-1.325-2.168-1.325-3.726 0-1.534.412-2.805 1.23-3.826.866-1.084 2.03-1.625 3.49-1.625 1.44 0 2.527.541 3.263 1.625.586.866.882 1.933.882 3.2 0 .4-.028.741-.08 1.025zm-9.147-15.89v3.134h-1.296v-7.62h1.296v3.101h.022c.158-.246.38-.45.643-.59.263-.151.57-.236.897-.236.875 0 1.794.59 1.794 2.265v3.08h-1.299V12.42c0-.752-.274-1.331-.99-1.331-.507 0-.866.344-1.013.74a1.192 1.192 0 0 0-.054.397zm-.335 12.251a3.857 3.857 0 0 0-.698-.057c-.78 0-1.38.3-1.805.896-.37.53-.554 1.189-.554 2.003v5.324H94.74v-6.957c0-1.162-.02-2.228-.06-3.192h1.929l.082 1.943h.06c.232-.666.6-1.204 1.109-1.604a2.626 2.626 0 0 1 1.602-.542c.204 0 .39.01.55.038v2.148zm-5.689-14.344h.728v-.978l1.277-.365v1.343h1.233v.987H96.33v2.308c0 .644.169.966.664.966.232 0 .358-.01.506-.054l.022.999c-.19.074-.538.14-.939.14-.485 0-.876-.162-1.118-.43-.285-.3-.412-.784-.412-1.47v-2.46h-.728v-.986zm-2.29 21.198c-.919 1.027-2.136 1.542-3.651 1.542-1.466 0-2.636-.494-3.504-1.483-.867-.985-1.3-2.236-1.3-3.738 0-1.571.447-2.86 1.343-3.861.897-1.006 2.101-1.5 3.62-1.5 1.468 0 2.644.488 3.533 1.481.845.956 1.27 2.198 1.27 3.714 0 1.564-.435 2.84-1.31 3.845zM81.694 15.48c-1.445 0-2.574-1.01-2.574-2.695 0-1.717 1.107-2.769 2.658-2.769 1.53 0 2.553 1.095 2.553 2.683 0 1.922-1.33 2.78-2.638 2.78zm1.249 8.705h-2.445v4.933c0 1.252.434 1.873 1.296 1.873.396 0 .722-.03.984-.099l.063 1.708c-.438.168-1.012.252-1.723.252-.871 0-1.56-.268-2.051-.815-.497-.54-.742-1.453-.742-2.734v-5.118H76.87v-1.69h1.455v-1.857l2.173-.668v2.525h2.445v1.69zm-7.812 7.434c-.905.823-2.159 1.232-3.768 1.232-1.491 0-2.684-.294-3.584-.876l.515-1.879c.97.582 2.036.877 3.196.877.838 0 1.487-.193 1.952-.573.463-.382.695-.893.695-1.541 0-.563-.19-1.044-.572-1.436-.387-.39-1.018-.748-1.907-1.086-2.42-.916-3.63-2.26-3.63-4.027 0-1.155.422-2.104 1.278-2.841.855-.737 1.986-1.107 3.397-1.107 1.258 0 2.305.225 3.141.667l-.56 1.839c-.779-.43-1.665-.649-2.653-.649-.78 0-1.394.202-1.835.583a1.705 1.705 0 0 0-.553 1.277c0 .553.212 1.015.636 1.382.37.332 1.04.692 2.008 1.081 1.194.484 2.067 1.058 2.63 1.715.559.653.84 1.466.84 2.44 0 1.198-.41 2.175-1.226 2.922zM63.978 15.48c-.665 0-1.256-.257-1.625-.902h-.021l-.063.784H61.16c.021-.354.043-.933.043-1.471V7.74H62.5v3.113h.021c.317-.505.876-.837 1.646-.837 1.255 0 2.152 1.062 2.141 2.65 0 1.88-1.17 2.814-2.33 2.814zm-1.523 16.062c-.825.887-1.848 1.333-3.073 1.333-1.32 0-2.27-.48-2.845-1.444v5.33H54.32v-10.93c0-1.085-.028-2.195-.081-3.335h1.943l.129 1.608h.038c.743-1.207 1.861-1.812 3.366-1.812 1.176 0 2.158.47 2.945 1.418.788.945 1.18 2.194 1.18 3.738 0 1.73-.46 3.09-1.385 4.094zm-9.946-16.18h1.297v-7.62H52.51v7.62zm-1.01 16.18c-.823.887-1.85 1.333-3.072 1.333-1.324 0-2.271-.48-2.847-1.444v5.33h-2.215v-10.93c0-1.085-.028-2.195-.085-3.335h1.95l.122 1.608h.039c.742-1.207 1.862-1.812 3.369-1.812 1.176 0 2.155.47 2.946 1.418.784.945 1.179 2.194 1.179 3.738 0 1.73-.46 3.09-1.385 4.094zm-8.676-17.618c0-1.31 1.15-1.987 3.048-1.975v-.086c0-.343-.137-.913-1.044-.913-.507 0-1.033.162-1.381.387l-.254-.86c.38-.235 1.044-.46 1.857-.46 1.645 0 2.12 1.062 2.12 2.21v1.879c0 .472.02.934.084 1.256h-1.171l-.094-.58h-.032c-.306.408-.844.699-1.52.699-1.033 0-1.613-.763-1.613-1.557zm-2.67 1.438h-1.277l-1.91-5.227h1.405l.832 2.651c.147.461.253.88.348 1.31h.033c.094-.43.21-.838.347-1.31l.823-2.651h1.361l-1.962 5.227zm-.503 17.283l-1.292-4.13h-4.495l-1.233 4.13h-2.295l4.448-14.073h2.753l4.475 14.073H39.65zm-15.66-.529c0 1.275-1.02 2.308-2.272 2.308h-9.741c-1.254 0-2.275-1.033-2.275-2.308V10.087c0-1.274 1.021-2.311 2.275-2.311h9.74c1.253 0 2.274 1.037 2.274 2.311v22.03zm8.64-23.989h1.655l2.31 7.235h-1.403l-.642-2.05h-2.247l-.613 2.05h-1.34l2.28-7.235zm16.546 7.235h1.296v-5.227h-1.296v5.227zm.653-7.406c.443 0 .718.312.728.718 0 .387-.285.71-.739.71a.694.694 0 0 1-.717-.71c0-.406.296-.718.728-.718zm7.67 2.994c-.506 0-1.033.162-1.381.387l-.253-.86c.379-.235 1.044-.46 1.856-.46 1.645 0 2.12 1.062 2.12 2.21v1.879c0 .472.02.934.083 1.256h-1.17l-.094-.58h-.032c-.305.408-.844.699-1.518.699-1.035 0-1.615-.763-1.615-1.557 0-1.31 1.15-1.987 3.049-1.975v-.086c0-.343-.138-.913-1.045-.913zm10.289 4.412h1.296v-7.62h-1.296v7.62zm5.316-5.345c1.667 0 2.216 1.395 2.216 2.543 0 .248-.022.441-.043.559H71.84c.031.944.749 1.352 1.582 1.352.6 0 1.023-.096 1.424-.236l.19.902c-.443.193-1.055.331-1.794.331-1.666 0-2.646-1.04-2.646-2.639 0-1.45.864-2.812 2.51-2.812zm13.623.118l.063.784h.032c.232-.41.791-.902 1.646-.902.896 0 1.824.59 1.824 2.242v3.103h-1.297V12.41c0-.751-.275-1.32-.98-1.32-.517 0-.876.375-1.014.773a1.247 1.247 0 0 0-.063.419v3.08H85.64v-3.67c0-.602-.021-1.106-.043-1.557h1.13zm20.585-.118c1.667 0 2.215 1.395 2.215 2.543 0 .248-.02.441-.041.559h-3.439c.032.944.749 1.352 1.582 1.352a4.05 4.05 0 0 0 1.423-.236l.19.902c-.442.193-1.054.331-1.792.331-1.667 0-2.647-1.04-2.647-2.639 0-1.45.864-2.812 2.51-2.812zM114.93 0H5.071C2.275 0 0 2.29 0 5.107V36.9C0 39.712 2.275 42 5.07 42h109.86c2.795 0 5.07-2.288 5.07-5.1V5.107C120 2.291 117.725 0 114.93 0zM33.78 10.532c-.138-.44-.253-.934-.359-1.353h-.022c-.105.42-.22.923-.337 1.353l-.548 1.782h1.825l-.559-1.782zm12.091 3.284c.031-.096.031-.193.031-.29v-.718c-.917-.011-1.791.181-1.791.975 0 .516.326.753.737.753.527 0 .896-.344 1.023-.72zm59.396 10.015c-.724 0-1.311.314-1.765.923-.369.486-.59 1.072-.657 1.75h4.617c.012-.666-.129-1.241-.43-1.731-.384-.624-.974-.942-1.765-.942zm-69.168-3.38h-.039c-.139.6-.355 1.481-.659 2.652l-1.15 3.676h3.714L36.8 23.103c-.126-.377-.361-1.262-.701-2.652zm22.898 3.63c-.549 0-1.04.184-1.486.552a2.606 2.606 0 0 0-.874 1.457c-.068.28-.1.508-.1.69v1.689c0 .74.219 1.364.666 1.872.443.504 1.022.76 1.73.76.839 0 1.488-.326 1.953-.982.467-.654.7-1.517.7-2.592 0-.986-.22-1.801-.657-2.44-.482-.665-1.126-1.005-1.932-1.005zm29.463-.14c-.887 0-1.564.401-2.027 1.207-.4.664-.597 1.474-.597 2.432 0 .934.196 1.73.597 2.396.474.805 1.145 1.205 2.01 1.205.843 0 1.51-.406 1.986-1.23.413-.674.619-1.482.619-2.41 0-.928-.198-1.729-.592-2.393-.472-.806-1.133-1.207-1.996-1.207zm-40.421.14c-.547 0-1.04.184-1.485.552a2.6 2.6 0 0 0-.874 1.457c-.066.28-.1.508-.1.69v1.689c0 .74.218 1.364.665 1.872.443.504 1.023.76 1.733.76.832 0 1.486-.326 1.95-.982.466-.654.696-1.517.696-2.592 0-.986-.216-1.801-.654-2.44-.48-.665-1.123-1.005-1.931-1.005zm-36.956 5.697H22.61V12.431H11.083v17.347zm5.762 1.025c-.647 0-1.173.537-1.173 1.197s.526 1.196 1.173 1.196c.65 0 1.175-.537 1.175-1.196 0-.66-.525-1.197-1.175-1.197zM15.716 10.66h2.26a.272.272 0 0 0 0-.543h-2.26a.272.272 0 0 0 0 .543z"/>
</svg>
