<svg xmlns="http://www.w3.org/2000/svg" width="48" height="35" viewBox="0 0 48 35">
    <g fill="none" fill-rule="evenodd">
        <path d="M0-7h48v48H0z"/>
        <path fill="#CCD3D7" fill-rule="nonzero" d="M0 .2V29h3.84a.966.966 0 0 0 .844-.476.97.97 0 0 0 0-.968.966.966 0 0 0-.844-.476H1.92V2.12h38.4v1.92a.966.966 0 0 0 .476.844.97.97 0 0 0 .968 0c.3-.176.48-.499.476-.844V.2H0zm5.76 5.76v28.8H48V5.96H5.76zm1.92 1.92h38.4v1.68c-.472.386-15.15 12.413-16.47 13.53a4.22 4.22 0 0 1-2.73 1.02 4.22 4.22 0 0 1-2.73-1.02C22.83 21.973 8.153 9.946 7.68 9.56V7.88zm0 4.14a8265.3 8265.3 0 0 1 10.65 8.76L7.68 28.79V12.02zm38.4 0v16.77l-10.65-8.01c4.331-3.57 9.056-7.451 10.65-8.76zM19.86 22.07c.979.806 2.82 2.314 3.03 2.49a6.203 6.203 0 0 0 3.99 1.47c.926 0 2.528-.232 3.99-1.47.21-.176 2.051-1.684 3.03-2.49l12.18 9.12v1.65H7.68v-1.65l12.18-9.12z"/>
    </g>
</svg>
