<svg width="9" height="16" viewBox="0 0 9 16" version="1.1" xmlns="http://www.w3.org/2000/svg" xmlns:xlink="http://www.w3.org/1999/xlink"><path d="M20.5036074,8.00312102 L18.3840813,8 C16.0031478,8 14.4640314,9.54573591 14.4640314,11.9376837 L14.4640314,13.7534916 L12.3328164,13.7534916 C12.1494061,13.7534916 12,13.8989311 12,14.0793259 L12,16.7103436 C12,16.8899061 12.1494061,17.0361778 12.3328164,17.0361778 L14.4640314,17.0361778 L14.4640314,23.6741658 C14.4640314,23.8537283 14.6134375,24 14.7976979,24 L17.5771185,24 C17.7613789,24 17.910785,23.8537283 17.910785,23.6741658 L17.910785,17.0361778 L20.4022323,17.0361778 C20.5864927,17.0361778 20.7352612,16.8899061 20.7352612,16.7103436 L20.7367489,14.0793259 C20.7367489,13.9931858 20.7010444,13.9103748 20.6387742,13.8485786 C20.5765039,13.7876148 20.4919184,13.7534916 20.4030824,13.7534916 L17.910785,13.7534916 L17.910785,12.2142058 C17.910785,11.4745247 18.0910074,11.0989623 19.0747922,11.0989623 L20.5027573,11.09813 C20.6870177,11.09813 20.8355737,10.9518583 20.8355737,10.7722958 L20.8355737,8.32999558 C20.8355737,8.1493927 20.6870177,8.00395329 20.5036074,8.00312102 Z" transform="translate(-655.000000, -612.000000) translate(601.000000, 604.000000) translate(0.000000, -0.000000) translate(42.000000, 0.000000)" fill="#999" stroke="none" stroke-width="1" fill-rule="evenodd"/></svg>