<svg width="17" height="10" viewBox="0 0 17 10" version="1.1" xmlns="http://www.w3.org/2000/svg" xmlns:xlink="http://www.w3.org/1999/xlink"><path d="M13.7701763,5.75718225 C14.3009938,6.2754489 14.861053,6.76289686 15.3371986,7.33353558 C15.5474754,7.58685344 15.746647,7.84845095 15.8988348,8.14257565 C16.1146971,8.56069797 15.9191397,9.02094137 15.5441241,9.04610887 L13.2134027,9.04486035 C12.612011,9.09486681 12.1325141,8.85285133 11.7292426,8.44189157 C11.4065991,8.11307119 11.107546,7.76322313 10.7974534,7.42336321 C10.6701702,7.2845148 10.536973,7.15381461 10.3778197,7.05064755 C10.0597761,6.84398486 9.78359059,6.90713361 9.60156971,7.23904244 C9.41652611,7.57660245 9.37440503,7.95030379 9.35620295,8.32663358 C9.33129829,8.87539038 9.16544244,9.01969285 8.6141229,9.04486035 C7.43565274,9.100518 6.31757145,8.92211126 5.27873824,8.3278821 C4.36291697,7.80376713 3.65264129,7.06398698 3.03455886,6.22669096 C1.83092119,4.59573136 0.909185881,2.80377857 0.0808266264,0.961819325 C-0.105728341,0.546719737 0.0308201698,0.323957729 0.488763661,0.316006636 C1.24904579,0.30135297 2.00932793,0.302404354 2.77066145,0.314955252 C3.07970266,0.319555058 3.28426258,0.49671328 3.40366039,0.788800928 C3.81514585,1.80036386 4.31849599,2.76270888 4.95044355,3.65493972 C5.1185993,3.89235539 5.29030346,4.12983678 5.53468456,4.29720399 C5.80495598,4.48224759 6.01056729,4.42087304 6.13785048,4.11978292 C6.2184785,3.92882528 6.253897,3.72321398 6.27209909,3.51865405 C6.3321594,2.81508095 6.3401105,2.11275637 6.23464353,1.41174601 C6.16972056,0.974107377 5.92330241,0.691022206 5.48664945,0.608094284 C5.26382173,0.565973208 5.29694033,0.483110998 5.40503575,0.355762098 C5.59218213,0.136548511 5.7684861,0 6.11964839,0 L8.7540227,0 C9.16879373,0.0818765375 9.26098697,0.268234371 9.317696,0.685371016 L9.31999591,3.61157013 C9.3153961,3.77328614 9.40062393,4.25252016 9.69166019,4.35956421 C9.92447606,4.43552671 10.0779781,4.24916888 10.2176151,4.10158083 C10.8483141,3.43217771 11.2985037,2.64101117 11.7007238,1.82198295 C11.8791305,1.46155533 12.0326326,1.08759115 12.181272,0.713824098 C12.2916674,0.436390117 12.4644229,0.30003874 12.7768154,0.305952776 L15.3122939,0.308252678 C15.3872708,0.308252678 15.4634961,0.309304063 15.536173,0.32185496 C15.9635607,0.394794733 16.0805929,0.578589817 15.9486442,0.995660751 C15.7407329,1.65021307 15.3362129,2.19568429 14.9406296,2.74371826 C14.5179075,3.32868209 14.0656152,3.89366962 13.6464415,4.48224759 C13.261175,5.01976772 13.2916651,5.29056484 13.7701763,5.75718225 Z" transform="translate(-608.000000, -615.000000) translate(601.000000, 604.000000) translate(0.000000, -0.000000) translate(7.600000, 11.000000)" fill="#999" stroke="none" stroke-width="1" fill-rule="evenodd"/></svg>