<svg width="57" height="72" viewBox="0 0 57 72" version="1.1" xmlns="http://www.w3.org/2000/svg" xmlns:xlink="http://www.w3.org/1999/xlink">
<title>groceries</title>
<desc>Created using Figma</desc>
<g id="Canvas" transform="translate(-344 3736)">
<g id="groceries">
<g id="Fill 1">
<use xlink:href="#path0_fill" transform="translate(344.454 -3715.7)" fill="#436B1C"/>
</g>
<g id="Group 6">
<g id="Fill 2">
<use xlink:href="#path1_fill" transform="translate(351.825 -3735.2)" fill="#88C057"/>
</g>
<g id="Fill 4">
<use xlink:href="#path2_fill" transform="translate(375.4 -3735.76)" fill="#EEAF4B"/>
</g>
<g id="Fill 5">
<use xlink:href="#path3_fill" transform="translate(344.013 -3714.22)" fill="#A90D00"/>
</g>
</g>
<g id="Fill 7">
<use xlink:href="#path4_fill" transform="translate(381.549 -3711.02)" fill="#A46F3E"/>
</g>
<g id="Fill 8">
<use xlink:href="#path5_fill" transform="translate(384.643 -3720.14)" fill="#A46F3E"/>
</g>
<g id="Fill 9">
<use xlink:href="#path6_fill" transform="translate(387.741 -3728.51)" fill="#A46F3E"/>
</g>
<g id="Fill 10">
<use xlink:href="#path7_fill" transform="translate(364.252 -3725.29)" fill="#DAE7EF"/>
</g>
<g id="Group 14">
<g id="Fill 11">
<use xlink:href="#path8_fill" transform="translate(363.826 -3725.75)" fill="#FFFFFF"/>
</g>
<g id="Fill 13">
<use xlink:href="#path9_fill" transform="translate(344 -3703.04)" fill="#FBD490"/>
</g>
</g>
<g id="Fill 15">
<use xlink:href="#path10_fill" transform="translate(349.236 -3683.4)" fill="#E0B877"/>
</g>
<g id="Fill 16">
<use xlink:href="#path11_fill" transform="translate(349.236 -3678.17)" fill="#E0B877"/>
</g>
<g id="Fill 17">
<use xlink:href="#path12_fill" transform="translate(349.236 -3672.92)" fill="#E0B877"/>
</g>
<g id="Fill 18">
<use xlink:href="#path13_fill" transform="translate(368.872 -3672.92)" fill="#E0B877"/>
</g>
</g>
</g>
<defs>
<path id="path0_fill" fill-rule="evenodd" d="M 6.49515 5.99805C 6.05497 5.99805 5.62624 5.78041 5.37588 5.37787C 4.57733 4.07368 3.07515 2.56496 1.35042 2.62387C 0.614057 2.58459 0.0200574 2.07405 0.000421045 1.35077C -0.017579 0.629138 0.543694 0.0285928 1.27351 0.002411C 4.02751 -0.0810435 6.3806 2.01677 7.60788 4.00332C 7.98424 4.61696 7.79278 5.42368 7.17915 5.80659C 6.96806 5.94077 6.73242 5.99805 6.49515 5.99805Z"/>
<path id="path1_fill" fill-rule="evenodd" d="M 25.92 8.07382C 25.7416 5.52273 23.6193 3.51 21.0305 3.51C 21.0175 3.51 21.0109 3.51 21.0044 3.51C 21.0502 3.12545 21.024 2.71636 20.9029 2.28927C 20.5511 1.09309 19.4956 0.173455 18.2569 0.0261818C 17.2456 -0.0949091 16.3129 0.268364 15.6551 0.914727C 15.0349 0.351818 14.2233 0 13.3216 0C 11.3842 0 9.81164 1.57255 9.81164 3.51C 9.81164 3.51655 9.81164 3.52309 9.81164 3.528C 7.46018 3.70145 5.60618 5.66346 5.60618 8.06727C 5.60618 8.43218 5.65691 8.78236 5.74036 9.12764C 2.934 9.24382 0.703636 11.5445 0.703636 14.3755C 0.703636 15.3344 0.958909 16.2295 1.40727 17.0035C 0.549818 17.7055 0 18.7805 0 19.9816C 0 21.0747 0.466364 22.0598 1.20273 22.7618C 4.35927 20.1796 7.67782 28.8098 11.5822 35.7005C 12.8798 37.9882 26.892 35.5533 28.0096 36.972C 29.2827 35.8282 30.1075 15.9038 30.1385 14.1529C 30.1958 11.3465 28.4138 8.94927 25.92 8.07382Z"/>
<path id="path2_fill" fill-rule="evenodd" d="M 4.13509 34.732L 5.06782 34.1757C 6.79418 33.1333 8.95418 33.1333 10.6805 34.1757L 11.6133 34.732C 13.3396 35.7679 15.4996 35.7679 17.226 34.732L 19.8655 33.562C 20.2484 32.4755 20.5184 31.6966 20.6264 31.3513C 23.0875 23.4313 24.6731 15.0957 24.8891 6.78621C 24.9791 3.44312 22.212 -1.77361 17.6155 0.599122C 13.1024 2.92439 9.86891 11.8491 7.59927 16.0857C 4.37073 22.114 1.81473 28.6595 0 35.3391C 1.37945 35.6844 2.86855 35.4864 4.13509 34.732Z"/>
<path id="path3_fill" fill-rule="evenodd" d="M 1.48422 11.8441L 3.24822 12.8979C 5.26913 14.1121 7.79895 14.1121 9.81986 12.8979L 10.2731 12.623C 11.9995 11.5872 14.1595 11.5872 15.8859 12.623L 16.8186 13.1859C 17.8348 13.793 18.9917 14.0368 20.1306 13.9272C 20.9668 11.2239 20.6853 7.84158 19.3877 5.55394C 15.0235 -2.15497 11.3924 -0.582424 7.89549 2.76067C 7.22458 3.40049 6.4064 3.87339 5.51131 4.12867C 1.67567 5.22176 -1.14869 7.01685 0.461492 11.8948C 0.742947 11.6903 1.13895 11.633 1.48422 11.8441Z"/>
<path id="path4_fill" fill-rule="evenodd" d="M 1.30892 7.13907C 1.16819 7.13907 1.02747 7.11943 0.886738 7.06871C 0.202738 6.83798 -0.160534 6.09671 0.0685566 5.41271C 0.944011 2.84361 3.74383 1.46907 6.31456 2.33143C 7.51565 2.74052 8.82638 2.0958 9.23547 0.893069C 9.46456 0.20416 10.2075 -0.160749 10.8964 0.0683418C 11.5804 0.305615 11.9453 1.04689 11.7146 1.73089C 10.8391 4.29998 8.03928 5.68107 5.47019 4.81216C 4.2691 4.40307 2.95837 5.0478 2.54928 6.25052C 2.36437 6.80034 1.85219 7.13907 1.30892 7.13907Z"/>
<path id="path5_fill" fill-rule="evenodd" d="M 1.30955 7.13928C 1.17537 7.13928 1.0281 7.11965 0.887372 7.07547C 0.203372 6.83819 -0.161538 6.09692 0.0691897 5.41292C 0.497917 4.16601 1.37992 3.15637 2.55483 2.57547C 3.73137 1.99947 5.06828 1.90947 6.31355 2.33165C 7.52283 2.74074 8.82537 2.09601 9.23446 0.886738C 9.46519 0.202738 10.213 -0.160534 10.897 0.0685566C 11.581 0.305829 11.9459 1.0471 11.7152 1.7311C 10.8397 4.30019 8.03992 5.68128 5.47083 4.81237C 4.88828 4.61437 4.26155 4.65201 3.71174 4.92692C 3.16355 5.19528 2.74792 5.66819 2.54992 6.25074C 2.36337 6.80056 1.85937 7.13928 1.30955 7.13928Z"/>
<path id="path6_fill" fill-rule="evenodd" d="M 1.31146 6.37991C 1.17073 6.37991 1.03 6.36191 0.889275 6.31609C 0.205275 6.08046 -0.164543 5.33918 0.0710932 4.65518C 0.832002 2.39864 3.29309 1.18937 5.54964 1.95027C 5.98491 2.09755 6.44473 2.06646 6.84728 1.86846C 7.25637 1.66882 7.564 1.31864 7.70964 0.889911C 7.94037 0.205911 8.68164 -0.165544 9.37218 0.0717291C 10.0562 0.302456 10.4211 1.04373 10.1904 1.73427C 9.814 2.82573 9.04 3.70937 8.01073 4.21337C 6.97491 4.72555 5.79837 4.80246 4.70528 4.431C 3.81673 4.12991 2.85291 4.60282 2.55182 5.49791C 2.36691 6.04118 1.85473 6.37991 1.31146 6.37991Z"/>
<path id="path7_fill" fill-rule="evenodd" d="M 2.60752 7.97947C 1.36715 9.62238 -0.581755 11.5713 0.166064 15.0109L 2.19188 24.2597L 3.12461 23.7033C 4.85097 22.6609 7.01097 22.6609 8.73734 23.7033L 9.67006 24.2597C 10.431 24.7129 11.1477 24.8667 11.1477 24.8667C 12.5092 19.8611 14.2846 14.9275 16.4528 10.2295C 15.4366 7.69802 13.275 6.84711 11.7024 5.9782C 11.691 5.9782 11.6844 5.97166 11.6779 5.96511C 10.6797 5.39729 10.6224 4.03584 11.3702 3.17184C 11.6648 2.82656 11.799 2.3602 11.6959 1.88729L 11.5372 1.16566C 11.3637 0.372019 10.5717 -0.138526 9.77315 0.033292L 1.82043 1.77275C 1.02188 1.94456 0.516245 2.7382 0.6897 3.53675L 0.850064 4.25838C 0.951518 4.73784 1.2837 5.10929 1.70588 5.2942C 2.67788 5.70984 3.26534 6.78984 2.77279 7.7242C 2.72206 7.80602 2.67134 7.89602 2.60752 7.97947Z"/>
<path id="path8_fill" fill-rule="evenodd" d="M 11.3812 4.24798L 2.37465 6.21653C 1.3781 6.43417 0.388102 5.80089 0.170465 4.80435L 0.042829 4.21689C -0.174807 3.21871 0.458465 2.22871 1.45501 2.01108L 10.4616 0.0425299C 11.4516 -0.175106 12.4432 0.464712 12.6608 1.45471L 12.795 2.04871C 13.011 3.04035 12.3728 4.03035 11.3812 4.24798Z"/>
<path id="path9_fill" fill-rule="evenodd" d="M 53.5545 0.433204L 51.2653 33.1981C 51.1 36.4708 48.3951 39.035 45.1224 39.035L 8.37453 39.035C 5.10181 39.035 2.39853 36.4708 2.23163 33.1981L 0.00126227 1.50666C -0.0363741 0.765386 0.775262 0.279386 1.41344 0.663932L 3.17253 1.71775C 5.19835 2.93193 7.72326 2.93193 9.74253 1.71775L 10.1958 1.44284C 11.9287 0.407023 14.0822 0.407023 15.8085 1.44284L 16.7413 2.00575C 18.4742 3.04157 20.6276 3.04157 22.354 2.00575L 23.2867 1.44284C 25.0196 0.407023 27.1731 0.407023 28.8994 1.44284L 29.8322 2.00575C 31.5651 3.04157 33.7185 3.04157 35.4449 2.00575L 36.3776 1.44284C 38.1105 0.407023 40.264 0.407023 41.9904 1.44284L 42.9231 2.00575C 44.656 3.04157 46.8094 3.04157 48.5358 2.00575L 52.972 0.0372045C 53.2534 -0.0904319 53.566 0.127204 53.5545 0.433204Z"/>
<path id="path10_fill" fill-rule="evenodd" d="M 10.4776 2.62145L 1.31073 2.62145C 0.589091 2.62145 0 2.034 0 1.31073C 0 0.589091 0.589091 0 1.31073 0L 10.4776 0C 11.1993 0 11.7802 0.589091 11.7802 1.31073C 11.7802 2.034 11.1993 2.62145 10.4776 2.62145Z"/>
<path id="path11_fill" fill-rule="evenodd" d="M 13.0909 2.61982L 1.31073 2.61982C 0.589091 2.61982 0 2.03236 0 1.30909C 0 0.587454 0.589091 0 1.31073 0L 13.0909 0C 13.8142 0 14.4016 0.587454 14.4016 1.30909C 14.4016 2.03236 13.8142 2.61982 13.0909 2.61982Z"/>
<path id="path12_fill" fill-rule="evenodd" d="M 15.7124 2.61327L 1.31073 2.61327C 0.589091 2.61327 0 2.03236 0 1.30418C 0 0.580909 0.589091 0 1.31073 0L 15.7124 0C 16.434 0 17.0231 0.580909 17.0231 1.30418C 17.0231 2.03236 16.434 2.61327 15.7124 2.61327Z"/>
<path id="path13_fill" fill-rule="evenodd" d="M 3.93218 2.61327L 1.31073 2.61327C 0.589091 2.61327 0 2.03236 0 1.30418C 0 0.580909 0.589091 0 1.31073 0L 3.93218 0C 4.65382 0 5.23473 0.580909 5.23473 1.30418C 5.23473 2.03236 4.65382 2.61327 3.93218 2.61327Z"/>
</defs>
</svg>
