<svg width="61px" height="13px" viewBox="0 0 61 13" version="1.1" xmlns="http://www.w3.org/2000/svg" xmlns:xlink="http://www.w3.org/1999/xlink">
    <title>BBCG</title>
    <g id="Page-1" stroke="none" stroke-width="1" fill="none" fill-rule="evenodd" opacity="0.639999986">
        <g id="02-1-Лэндинг-мероприятия-2" transform="translate(-136.000000, -8.000000)" fill="#231F20">
            <g id="top-menu">
                <g id="logo" transform="translate(136.000000, 8.000000)">
                    <path d="M46.4425223,4.78304783 C46.3265345,5.46473517 46.2985994,6.16194856 46.3587169,6.874688 C47.0887335,7.29475341 47.8984885,7.59124863 48.7879818,7.76417366 C48.898609,7.05087324 49.0378009,6.20851705 49.1980921,5.29672325 C49.1237971,5.2838028 49.0491687,5.27073368 48.974207,5.25751591 C47.9733896,5.0810448 47.1194279,4.919787 46.4425223,4.78304783 Z M46.4881743,4.53945312 C47.1705967,4.64243962 48.0272946,4.78284467 49.0268277,4.95908932 C49.1018417,4.97231631 49.1764911,4.98556903 49.2507759,4.99884747 C49.4246448,4.0217675 49.5826471,3.19337389 49.715519,2.54373256 C48.8678986,2.41137521 48.0496081,2.40776398 47.2606476,2.53289887 C46.8947567,3.14525945 46.6372656,3.81411087 46.4881743,4.53945312 Z M49.5454545,5.35646188 C49.5292158,5.35370096 49.5129607,5.35093274 49.4966893,5.34815721 C49.3353255,6.26060045 49.1778847,7.10048305 49.0377753,7.80908381 C50.0204666,7.97083919 50.9669038,7.94352038 51.8770869,7.72712737 C52.0874952,7.18755341 52.2509557,6.6320463 52.3674683,6.06060606 L49.5454545,6.06060606 L49.5454545,5.35646188 Z M46.0712653,4.70682236 C45.1653691,4.51754177 44.6660228,4.38675392 44.6733317,4.34530305 C44.6806463,4.30382015 45.1953993,4.35181234 46.1127306,4.48401354 C46.255802,3.77185812 46.4844594,3.15106559 46.7987028,2.62163595 C46.2391201,2.74814562 45.694733,2.9413579 45.1655416,3.2012728 C45.7139483,2.73792466 46.3435438,2.41630845 47.0543284,2.23642417 C47.3041893,1.89894046 47.59582,1.60604597 47.9292206,1.35774069 C45.8678589,1.79407423 44.5454545,3.19252033 44.5454545,5.3030303 C44.5454545,6.94357437 45.1600961,8.000209 46.4676742,8.5708031 C46.2608791,8.0975033 46.116407,7.60321683 46.0342578,7.08794368 C45.4589908,6.68307419 45.0203269,6.18255419 44.718266,5.58638368 C45.1052198,5.9893063 45.5254761,6.34062007 45.979035,6.64032497 C45.9247562,6.02445453 45.9554996,5.37995366 46.0712653,4.70682236 Z M50.0084916,1.23828135 C49.8101959,1.22121713 49.6052512,1.21212121 49.3939394,1.21212121 C48.9805822,1.21212121 48.585968,1.24335954 48.2132365,1.30449057 C47.9534197,1.56947225 47.7205494,1.84849667 47.5146255,2.14156385 C48.2044294,2.03033273 48.9638353,2.04060617 49.7928432,2.17238416 C49.8792977,1.76519397 49.95227,1.45029022 50.0084916,1.23828135 Z M50.1238546,1.24917696 C50.1044764,1.46756006 50.0651189,1.79126018 50.0063614,2.20874354 C50.8721481,2.3661753 51.6209782,2.6305207 52.2528518,3.00177973 C52.1216062,2.54338542 51.9398588,2.08054588 51.7076093,1.61326111 C51.2462118,1.44182387 50.715694,1.31006441 50.1238546,1.24917696 Z M48.6004958,9.04983828 C48.6351927,8.78917579 48.6789294,8.48283172 48.7306725,8.13905922 C47.8182169,7.96513772 47.0441135,7.69434107 46.408362,7.32666929 C46.4675555,7.76481755 46.5594224,8.20872704 46.683963,8.65839776 C47.2174412,8.85863471 47.8547846,8.98723879 48.6004958,9.04983828 Z M48.7781652,9.06336632 C48.9760774,9.07692844 49.1813093,9.08607659 49.3939394,9.09090909 C50.1223463,9.10911926 50.7807171,9.01352075 51.3606343,8.84725294 C51.4848369,8.6152193 51.5995847,8.37997693 51.7048779,8.14152584 C50.9107366,8.34095219 49.9969245,8.35403923 48.9634415,8.18078695 C48.8960658,8.51370792 48.833731,8.81042331 48.7781652,9.06336632 Z M49.5841515,4.84848485 L52.508093,4.84848485 C52.514375,4.39659996 52.4688823,3.94015782 52.3716149,3.47915842 C51.6458799,3.04551442 50.8393617,2.74709309 49.9520603,2.58389445 C49.8615128,3.19419309 49.7384523,3.95750423 49.5841515,4.84848485 Z M51.8903325,1.68464447 C52.2527138,2.18835414 52.5166675,2.72134102 52.6821935,3.28360512 C53.25212,3.70072958 53.707728,4.22235615 54.0490175,4.84848485 L56.2121212,4.84848485 L56.2121212,5.98484848 L56.2121212,10.1515152 L54.8484848,10.1515152 L54.2675848,9.06232764 C53.1534065,9.7636194 51.5433784,10.3030303 49.3939394,10.3030303 C45.7575758,10.3030303 42.2727273,9.16666667 42.2727273,5.3030303 C42.2727273,1.43939394 45.7575758,0 49.3939394,0 C54.0909091,0 55.9090909,2.27272727 55.9090909,3.33333333 C55.3787879,3.33333333 54.6212121,3.33333333 53.7878788,3.33333333 C53.7878788,2.94455295 53.1020348,2.18167584 51.8903325,1.68464447 Z M51.7382353,8.72543981 C53.3366615,8.15066416 54.2424242,7.04985699 54.2424242,6.51515152 L54.2424242,6.06060606 L52.7537492,6.06060606 C52.6435795,6.62059127 52.4941909,7.13721025 52.3055835,7.61046301 C52.7795988,7.46483514 53.243529,7.26661086 53.6973741,7.01579018 C53.2513648,7.46657095 52.7292355,7.79882529 52.1309861,8.01255319 C52.0124055,8.26382301 51.8814886,8.50145188 51.7382353,8.72543981 Z M52.8903444,4.84848485 L54.0207938,4.84848485 C53.6453509,4.42939534 53.2372858,4.06491196 52.7965986,3.75503469 C52.8646222,4.10857938 52.8958708,4.47306277 52.8903444,4.84848485 Z M0,0.606060606 C4.94949495,0.606060606 7.57575758,0.606060606 7.87878788,0.606060606 C8.93939394,0.606060606 11.0606061,1.51515152 11.0606061,2.87878788 C11.0606061,3.93939394 10.3535354,4.62121212 8.93939394,4.92424242 C10.7575758,5.27777778 11.6666667,6.03535354 11.6666667,7.1969697 C11.6666667,9.55893483 8.63636364,10 7.57575758,10 C7.27272727,10 4.74747475,10 0,10 L0,0.606060606 Z M1.96969697,5.60606061 L1.96969697,8.93939394 C4.8989899,8.93939394 6.56565657,8.93939394 6.96969697,8.93939394 C7.57575758,8.93939394 9.54545455,8.81473935 9.54545455,7.1969697 C9.54545455,5.63292117 7.42424242,5.60606061 6.81818182,5.60606061 C6.41414141,5.60606061 4.7979798,5.60606061 1.96969697,5.60606061 Z M1.96969697,1.66666667 L1.96969697,4.54545455 C4.49494949,4.54545455 6.01010101,4.54545455 6.51515152,4.54545455 C7.27272727,4.54545455 8.78787879,4.49655753 8.78787879,3.03030303 C8.78787879,1.7692848 7.12121212,1.66666667 6.51515152,1.66666667 C6.11111111,1.66666667 4.5959596,1.66666667 1.96969697,1.66666667 Z M14.2424242,0.606060606 C19.1919192,0.606060606 21.8181818,0.606060606 22.1212121,0.606060606 C23.1818182,0.606060606 25.3030303,1.51515152 25.3030303,2.87878788 C25.3030303,3.93939394 24.5959596,4.62121212 23.1818182,4.92424242 C25,5.27777778 25.9090909,6.03535354 25.9090909,7.1969697 C25.9090909,9.55893483 22.8787879,10 21.8181818,10 C21.5151515,10 18.989899,10 14.2424242,10 L14.2424242,0.606060606 Z M16.2121212,5.60606061 L16.2121212,8.93939394 C19.1414141,8.93939394 20.8080808,8.93939394 21.2121212,8.93939394 C21.8181818,8.93939394 23.7878788,8.81473935 23.7878788,7.1969697 C23.7878788,5.63292117 21.6666667,5.60606061 21.0606061,5.60606061 C20.6565657,5.60606061 19.040404,5.60606061 16.2121212,5.60606061 Z M16.2121212,1.66666667 L16.2121212,4.54545455 C18.7373737,4.54545455 20.2525253,4.54545455 20.7575758,4.54545455 C21.5151515,4.54545455 23.030303,4.49655753 23.030303,3.03030303 C23.030303,1.7692848 21.3636364,1.66666667 20.7575758,1.66666667 C20.3535354,1.66666667 18.8383838,1.66666667 16.2121212,1.66666667 Z M27.7272727,5.3030303 C27.7272727,1.43939394 31.2121212,0.303030303 34.8484848,0.303030303 C39.5454545,0.303030303 41.0606061,2.42424242 41.0606061,3.48484848 C40.530303,3.48484848 39.7727273,3.48484848 38.9393939,3.48484848 C38.9393939,2.87878788 37.5757576,1.51515152 34.8484848,1.51515152 C31.969697,1.51515152 30,2.72727273 30,5.3030303 C30,7.87878788 31.5151515,9.01515152 34.8484848,9.09090909 C37.8787879,9.16666667 38.9393939,7.27272727 38.9393939,6.51515152 C39.6969697,6.51515152 40.530303,6.51515152 41.2121212,6.51515152 C41.2121212,7.72727273 39.5454545,10.3030303 34.8484848,10.3030303 C31.2121212,10.3030303 27.7272727,9.16666667 27.7272727,5.3030303 Z" id="Combined-Shape"></path>
                    <path d="M38.6233,6.43299227 C37.9162293,6.63501248 37.5626939,6.98854783 37.5626939,7.49359833 C37.5626939,9.00874985 42.1081485,11.7360226 48.9263303,11.7360226 C55.7445121,11.7360226 60.2899667,9.4632953 60.2899667,8.02390136 C60.2899667,7.46834581 59.9616838,7.03905288 59.3051182,6.73602258 C59.7596636,6.98854783 59.9869364,7.34208318 59.9869364,7.79662864 C59.9869364,8.78147712 55.9920251,10.3037872 48.9263303,10.3723862 C41.8606356,10.4409852 37.8657243,8.17541652 37.8657243,7.34208318 C37.8657243,6.88753773 38.1182495,6.58450742 38.6233,6.43299227 Z" id="Path-4" transform="translate(48.926330, 9.084507) rotate(10.000000) translate(-48.926330, -9.084507) "></path>
                </g>
            </g>
        </g>
    </g>
</svg>