<svg xmlns="http://www.w3.org/2000/svg" width="121" height="40" viewBox="0 0 121 40">
    <g fill="none" fill-rule="evenodd">
        <path fill="#231F20" d="M92.885 9.566a16.55 16.55 0 0 0-.168 4.183c1.46.84 3.08 1.433 4.859 1.78.221-1.427.5-3.112.82-4.936a212.641 212.641 0 0 1-5.511-1.027zm.091-.487a212.756 212.756 0 0 1 5.526.919c.347-1.954.663-3.611.929-4.91-1.695-.265-3.332-.272-4.91-.022a12.777 12.777 0 0 0-1.545 4.013zm6.115 1.634l-.098-.017a252.655 252.655 0 0 1-.917 4.922c1.965.324 3.858.269 5.678-.164.421-1.079.748-2.19.98-3.333h-5.643v-1.408zm-6.948-1.3c-1.812-.378-2.811-.64-2.796-.722.014-.083 1.044.013 2.878.277.287-1.424.744-2.666 1.372-3.725-1.119.253-2.208.64-3.266 1.16a9.313 9.313 0 0 1 3.778-1.93 8.44 8.44 0 0 1 1.75-1.758c-4.123.873-6.768 3.67-6.768 7.891 0 3.281 1.23 5.394 3.844 6.536a12.157 12.157 0 0 1-.866-2.966c-1.151-.81-2.028-1.81-2.632-3.003a14.812 14.812 0 0 0 2.521 2.108 15 15 0 0 1 .185-3.867zm7.874-6.936a14.333 14.333 0 0 0-1.23-.053c-.826 0-1.615.063-2.36.185a13.37 13.37 0 0 0-1.398 1.674c1.38-.222 2.899-.202 4.557.062a41.41 41.41 0 0 1 .431-1.868zm.23.021a40.818 40.818 0 0 1-.234 1.92c1.731.314 3.229.843 4.493 1.586a16.37 16.37 0 0 0-1.09-2.777 12.877 12.877 0 0 0-3.168-.729zM97.202 18.1c.07-.522.157-1.134.26-1.822-1.825-.348-3.373-.89-4.644-1.625.118.877.302 1.764.55 2.664 1.068.4 2.343.657 3.834.783zm.355.027c.396.027.807.045 1.232.055a13.05 13.05 0 0 0 3.933-.487c.249-.465.478-.935.689-1.412-1.589.399-3.416.425-5.483.079-.135.665-.26 1.259-.37 1.765zm1.612-8.43h5.848a12.398 12.398 0 0 0-.273-2.739c-1.451-.867-3.064-1.464-4.839-1.79a194.12 194.12 0 0 1-.736 4.529zm4.613-6.328a10.56 10.56 0 0 1 1.583 3.198 9.41 9.41 0 0 1 2.734 3.13h4.326v10.606h-2.727l-1.162-2.178c-2.228 1.402-5.448 2.481-9.747 2.481-7.273 0-14.243-2.273-14.243-10S91.515 0 98.788 0c9.394 0 13.03 4.545 13.03 6.667h-4.242c0-.778-1.372-2.304-3.795-3.298zm-.305 14.082c3.197-1.15 5.009-3.351 5.009-4.42v-.91h-2.978c-.22 1.12-.519 2.153-.896 3.1a14.63 14.63 0 0 0 2.784-1.19 8.263 8.263 0 0 1-3.133 1.994c-.237.503-.499.978-.786 1.426zm2.305-7.754h2.26a14.424 14.424 0 0 0-2.448-2.187c.136.707.199 1.436.188 2.187zM0 1.212h15.758c2.12 0 6.363 1.818 6.363 4.546 0 2.12-1.414 3.484-4.242 4.09 3.636.708 5.454 2.223 5.454 4.546 0 4.724-6.06 5.606-8.181 5.606H0V1.212zm3.94 10v6.667h10c1.212 0 5.15-.25 5.15-3.485 0-3.128-4.242-3.182-5.454-3.182H3.94zm0-7.879v5.758h9.09c1.515 0 4.546-.098 4.546-3.03 0-2.522-3.334-2.728-4.546-2.728H3.94zm24.545-2.12h15.757c2.122 0 6.364 1.817 6.364 4.545 0 2.12-1.414 3.484-4.242 4.09 3.636.708 5.454 2.223 5.454 4.546 0 4.724-6.06 5.606-8.182 5.606H28.485V1.212zm3.94 10v6.666h10c1.211 0 5.15-.25 5.15-3.485 0-3.128-4.242-3.182-5.454-3.182h-9.697zm0-7.88v5.758h9.09c1.515 0 4.546-.098 4.546-3.03 0-2.522-3.334-2.728-4.546-2.728h-9.09zm23.03 7.273c0-7.727 6.97-10 14.242-10 9.394 0 12.424 4.242 12.424 6.364H77.88c0-1.212-2.727-3.94-8.182-3.94C63.939 3.03 60 5.455 60 10.606c0 5.152 3.03 7.424 9.697 7.576 6.06.151 8.182-3.637 8.182-5.152h4.545c0 2.425-3.333 7.576-12.727 7.576-7.273 0-14.242-2.273-14.242-10z"/>
        <path fill="#F98134" d="M78.48 9.368c-1.462.153-2.281.726-2.457 1.721-.526 2.984 7.48 9.935 20.909 12.302 13.429 2.368 23.171-.53 23.671-3.364.193-1.095-.305-2.054-1.492-2.88.807.656 1.132 1.431.974 2.327-.342 1.94-8.74 3.55-22.68 1.232-13.94-2.32-21.022-8.169-20.732-9.81.158-.895.76-1.405 1.808-1.528z"/>
        <path fill="#241E20" d="M.71 29.98h3.017c.415 0 1.14 0 1.716.402.345.242.737.703.737 1.497 0 .772-.345 1.198-.61 1.417-.196.161-.495.3-.76.38v.023c.368.069.68.23.898.414.403.323.737.864.737 1.624 0 .783-.392 1.347-.76 1.635-.61.495-1.359.507-1.946.507H.71v-7.9zm.99.852v2.51H3.36c.449 0 .99-.023 1.405-.369.357-.3.426-.668.426-.944 0-.437-.162-.725-.46-.933-.37-.241-.795-.264-1.21-.264H1.7zm0 3.316v2.879h1.97c.265 0 .829-.023 1.22-.323.127-.092.495-.426.495-1.094 0-.472-.184-.806-.391-1.013-.438-.45-1.013-.45-1.462-.45H1.7zm12.86-4.169h3.016c.415 0 1.14 0 1.716.403.346.242.737.703.737 1.497 0 .772-.345 1.198-.61 1.417-.196.161-.495.3-.76.38v.023c.368.069.68.23.898.414.403.323.737.864.737 1.624 0 .783-.392 1.347-.76 1.635-.61.495-1.359.507-1.946.507h-3.029v-7.9zm.99.853v2.51h1.658c.449 0 .99-.023 1.405-.369.357-.3.426-.668.426-.944 0-.437-.161-.725-.46-.933-.37-.241-.795-.264-1.21-.264h-1.82zm0 3.316v2.879h1.969c.265 0 .829-.023 1.22-.323.127-.092.496-.426.496-1.094 0-.472-.185-.806-.392-1.013-.438-.45-1.013-.45-1.462-.45H15.55zm14.252-1.762a3.045 3.045 0 0 0-.898-1.82c-.634-.587-1.313-.702-1.946-.702-.53 0-1.566.092-2.384 1.048-.242.276-.898 1.163-.898 2.89 0 1.025.253 2.073.748 2.833.806 1.22 1.843 1.359 2.557 1.359.587 0 1.255-.104 1.934-.818.45-.472.76-1.105.887-1.761l-.898-.196a2.844 2.844 0 0 1-.657 1.336c-.357.391-.737.587-1.312.587-.98 0-1.532-.622-1.831-1.255-.277-.588-.369-1.36-.369-2.039 0-.564.058-1.427.438-2.084.46-.817 1.105-1.048 1.762-1.048.656 0 1.14.242 1.52.818.23.345.357.737.414 1.025l.933-.173zm.631 2.556c0-1.047.369-1.888.887-2.383.357-.334.944-.668 1.762-.668.817 0 1.405.334 1.762.668.518.495.886 1.336.886 2.383 0 1.048-.368 1.889-.886 2.384-.357.334-.945.668-1.762.668-.818 0-1.405-.334-1.762-.668-.518-.495-.887-1.336-.887-2.384zm2.649 2.292c.449 0 .817-.161 1.07-.415.542-.54.565-1.531.565-1.877 0-.345-.023-1.335-.564-1.877-.254-.253-.622-.414-1.071-.414-.45 0-.818.161-1.071.414-.541.542-.564 1.532-.564 1.877 0 .346.023 1.336.564 1.877.253.254.622.415 1.07.415zm4.765.645V34.78c0-.403.035-1.163.622-1.704a1.602 1.602 0 0 1 1.094-.426c.507 0 .772.219.898.38.242.322.242.771.242 1.209v3.639h.875V34.02c0-.53-.046-1.14-.449-1.589-.23-.253-.656-.541-1.382-.541-.91 0-1.6.472-1.946 1.22h-.023V32.03h-.806v5.85h.875zm8.243-7.934a4.612 4.612 0 0 0-.852-.08c-.334 0-.852.045-1.22.368-.484.426-.53 1.105-.53 1.612v.161h-1.036v.714h1.036v5.159h.875V32.72h1.382v-.714h-1.382v-.391c0-.23.035-.565.253-.795.208-.219.507-.242.726-.242.173 0 .414.012.748.08v-.713zm4.34 6.16l.852.173c-.161.507-.46.933-.956 1.278-.46.311-.944.438-1.508.438-.83 0-1.486-.276-1.993-.852-.518-.587-.713-1.336-.713-2.154 0-1.566.875-3.097 2.729-3.097 2.187 0 2.544 2.027 2.544 2.97v.208h-4.26c-.012.392.057.806.196 1.14.287.703.817 1.025 1.531 1.025.633 0 1.013-.276 1.22-.507.162-.172.289-.414.358-.622zm-3.26-1.75h3.202c-.011-.357-.104-.783-.276-1.07-.184-.3-.553-.68-1.244-.68-.576 0-1.013.276-1.278.599-.242.31-.392.737-.403 1.151zm5.4-2.349v5.873h.875V34.93c0-.645.092-1.083.426-1.509.472-.598 1.036-.656 1.37-.667h.184v-.853c-.115-.023-.218-.023-.333-.023-.415 0-.784.162-1.037.38-.3.254-.553.691-.656 1.14h-.023v-1.393h-.806zm7.494 4.1l.852.172c-.16.507-.46.933-.955 1.278-.461.311-.945.438-1.509.438-.829 0-1.485-.276-1.992-.852-.518-.587-.714-1.336-.714-2.154 0-1.566.875-3.097 2.73-3.097 2.187 0 2.544 2.027 2.544 2.97v.208h-4.26c-.012.392.057.806.195 1.14.288.703.818 1.025 1.532 1.025.633 0 1.013-.276 1.22-.507.161-.172.288-.414.357-.622zm-3.259-1.75h3.202c-.012-.358-.104-.784-.277-1.072-.184-.3-.552-.68-1.243-.68-.576 0-1.014.277-1.279.6-.241.31-.391.737-.403 1.151zm6.274 3.523V34.78c0-.403.035-1.163.622-1.704a1.602 1.602 0 0 1 1.094-.426c.507 0 .772.219.898.38.242.322.242.771.242 1.209v3.639h.875V34.02c0-.53-.046-1.14-.449-1.589-.23-.253-.656-.541-1.382-.541-.91 0-1.6.472-1.946 1.22h-.023V32.03h-.806v5.85h.875zm9.717-3.973c-.069-.426-.264-.967-.598-1.347-.415-.472-.956-.668-1.601-.668-.944 0-1.532.403-1.935.956-.437.61-.61 1.324-.61 2.107 0 .99.3 1.934.875 2.464.346.311.875.576 1.612.576.634 0 1.175-.196 1.59-.622.333-.345.587-.864.667-1.428l-.829-.15c-.046.334-.172.691-.38.956-.265.334-.587.484-1.025.484-.575 0-.92-.3-1.117-.587-.069-.092-.38-.576-.38-1.682 0-.472.058-1.14.38-1.658.254-.414.622-.656 1.129-.656.576 0 .91.288 1.07.518.15.219.277.564.323.887l.83-.15zm4.973 2.2l.852.172c-.161.507-.46.933-.956 1.278-.46.311-.944.438-1.508.438-.83 0-1.485-.276-1.992-.852-.518-.587-.714-1.336-.714-2.154 0-1.566.875-3.097 2.729-3.097 2.188 0 2.545 2.027 2.545 2.97v.208h-4.26c-.012.392.057.806.195 1.14.288.703.818 1.025 1.532 1.025.633 0 1.013-.276 1.22-.507.161-.172.288-.414.357-.622zm-3.259-1.75h3.202c-.012-.358-.104-.784-.277-1.072-.184-.3-.553-.68-1.243-.68-.576 0-1.014.277-1.279.6-.241.31-.391.737-.403 1.151zm13.86-.461h-2.982v.829h1.993v.437c0 .415-.081.933-.542 1.405a1.86 1.86 0 0 1-1.381.576c-.98 0-1.578-.553-1.912-1.117-.138-.242-.472-.875-.472-2.015 0-.472.058-1.497.46-2.2.277-.483.841-1.094 1.831-1.094.841 0 1.37.415 1.67.841.115.173.265.45.323.806l.932-.23a2.797 2.797 0 0 0-.783-1.52c-.391-.369-1.048-.749-2.003-.749a3.236 3.236 0 0 0-2.741 1.417c-.507.748-.748 1.854-.748 2.729 0 .944.241 2.06.863 2.844.83 1.048 1.866 1.14 2.372 1.14.495 0 1.014-.08 1.509-.357.403-.23.61-.495.737-.68l.265.98h.61v-4.042zm1.634-1.889v5.873h.875V34.93c0-.645.093-1.083.426-1.509.473-.598 1.037-.656 1.37-.667h.185v-.853c-.115-.023-.219-.023-.334-.023-.414 0-.783.162-1.036.38-.3.254-.553.691-.657 1.14h-.023v-1.393h-.806zm3.177 2.936c0-1.047.368-1.888.886-2.383.357-.334.945-.668 1.762-.668.818 0 1.405.334 1.762.668.518.495.887 1.336.887 2.383 0 1.048-.369 1.889-.887 2.384-.357.334-.944.668-1.762.668-.817 0-1.405-.334-1.762-.668-.518-.495-.886-1.336-.886-2.384zm2.648 2.292c.45 0 .818-.161 1.071-.415.541-.54.564-1.531.564-1.877 0-.345-.023-1.335-.564-1.877-.253-.253-.622-.414-1.07-.414-.45 0-.818.161-1.072.414-.541.542-.564 1.532-.564 1.877 0 .346.023 1.336.564 1.877.254.254.622.415 1.071.415zm8.45-5.228h-.875v3.12c0 1.406-.783 2.108-1.623 2.108-.334 0-.691-.127-.887-.369-.288-.345-.3-.978-.3-1.209v-3.65h-.875v3.65c0 .415.058 1.21.542 1.762.253.288.69.576 1.381.576.76 0 1.486-.415 1.808-1.278h.023v1.163h.806v-5.873zm2.59 7.784h-.876v-7.784h.806v1.106l.012-.012c.23-.553.783-1.21 1.75-1.21.726 0 1.255.266 1.624.68.507.565.737 1.497.737 2.338 0 .783-.196 1.635-.622 2.21-.31.427-.852.876-1.739.876-.933 0-1.416-.495-1.658-1.036h-.035v2.832zm0-5.47v1.233c0 .3.046.771.414 1.186.322.357.749.495 1.117.495.334 0 .818-.138 1.152-.691.276-.45.356-1.094.356-1.624 0-.978-.241-1.45-.345-1.612a1.298 1.298 0 0 0-1.151-.656c-.415 0-.76.15-1.06.46-.426.461-.484.933-.484 1.21z"/>
        <path fill="#F98134" d="M8.378 32.455c.034-.403.184-.725.345-.956.322-.449.864-.783 1.543-.783.507 0 .933.15 1.244.403.426.346.552.795.552 1.163 0 .91-.621 1.647-1.416 2.269l-3.19 2.51v.818h5.608v-.852H8.712l2.613-2.004c1.486-1.14 1.728-2.153 1.728-2.798 0-.564-.173-1.267-.887-1.808-.645-.495-1.301-.553-1.854-.553-.921 0-1.716.3-2.28 1.025a3.064 3.064 0 0 0-.576 1.29l.922.276z"/>
    </g>
</svg>
