<svg width="121px" height="25px" viewBox="0 0 121 25" version="1.1" xmlns="http://www.w3.org/2000/svg" xmlns:xlink="http://www.w3.org/1999/xlink">
    <g stroke="none" stroke-width="1" fill="none" fill-rule="evenodd">
        <g fill-rule="nonzero">
            <path d="M92.885,9.566 C92.6521644,10.947601 92.5957129,12.3531765 92.717,13.749 C94.177,14.589 95.797,15.182 97.576,15.529 C97.797,14.102 98.076,12.417 98.396,10.593 C96.5545671,10.2748971 94.7174075,9.93253402 92.885,9.566 L92.885,9.566 Z M92.976,9.079 C94.8219533,9.36106895 96.6641129,9.66742883 98.502,9.998 C98.849,8.044 99.165,6.387 99.431,5.088 C97.736,4.823 96.099,4.816 94.521,5.066 C93.7829839,6.30677573 93.2605872,7.66365474 92.976,9.079 L92.976,9.079 Z M99.091,10.713 L98.993,10.696 C98.7035972,12.3396551 98.3979156,13.9804023 98.076,15.618 C100.041,15.942 101.934,15.887 103.754,15.454 C104.175,14.375 104.502,13.264 104.734,12.121 L99.091,12.121 L99.091,10.713 L99.091,10.713 Z M92.143,9.413 C90.331,9.035 89.332,8.773 89.347,8.691 C89.361,8.608 90.391,8.704 92.225,8.968 C92.512,7.544 92.969,6.302 93.597,5.243 C92.478,5.496 91.389,5.883 90.331,6.403 C91.4250794,5.4775771 92.7179549,4.81710867 94.109,4.473 C94.6025662,3.80400884 95.1922669,3.21161235 95.859,2.715 C91.736,3.588 89.091,6.385 89.091,10.606 C89.091,13.887 90.321,16 92.935,17.142 C92.5213564,16.1941908 92.2303399,15.1974758 92.069,14.176 C90.918,13.366 90.041,12.366 89.437,11.173 C90.1965438,11.9669986 91.0420796,12.6740154 91.958,13.281 C91.8523673,11.9894203 91.9145517,10.689597 92.143,9.414 L92.143,9.413 Z M100.017,2.477 C99.6079483,2.44172477 99.1975699,2.42404179 98.787,2.424 C97.961,2.424 97.172,2.487 96.427,2.609 C95.9161898,3.12799733 95.4486346,3.68785956 95.029,4.283 C96.409,4.061 97.928,4.081 99.586,4.345 C99.7152323,3.71909079 99.8589375,3.09625727 100.017,2.477 L100.017,2.477 Z M100.247,2.498 C100.184177,3.13975848 100.106155,3.77993816 100.013,4.418 C101.744,4.732 103.242,5.261 104.506,6.004 C104.227946,5.04708694 103.863098,4.11756142 103.416,3.227 C102.395036,2.85114707 101.330556,2.60619567 100.248,2.498 L100.247,2.498 Z M97.202,18.1 C97.272,17.578 97.359,16.966 97.462,16.278 C95.637,15.93 94.089,15.388 92.818,14.653 C92.936,15.53 93.12,16.417 93.368,17.317 C94.436,17.717 95.711,17.974 97.202,18.1 L97.202,18.1 Z M97.557,18.127 C97.953,18.154 98.364,18.172 98.789,18.182 C100.117148,18.2208369 101.443437,18.0566104 102.722,17.695 C102.971,17.23 103.2,16.76 103.411,16.283 C101.822,16.682 99.995,16.708 97.928,16.362 C97.793,17.027 97.668,17.621 97.558,18.127 L97.557,18.127 Z M99.169,9.697 L105.017,9.697 C105.027947,8.77669707 104.936383,7.85803672 104.744,6.958 C103.293,6.091 101.68,5.494 99.905,5.168 C99.6775178,6.68051352 99.4321674,8.19028563 99.169,9.697 L99.169,9.697 Z M103.782,3.369 C104.487257,4.3374841 105.022565,5.41892027 105.365,6.567 C106.498217,7.39353445 107.432329,8.46294588 108.099,9.697 L112.425,9.697 L112.425,20.303 L109.698,20.303 L108.536,18.125 C106.308,19.527 103.088,20.606 98.789,20.606 C91.516,20.606 84.546,18.333 84.546,10.606 C84.546,2.879 91.515,0 98.788,0 C108.182,0 111.818,4.545 111.818,6.667 L107.576,6.667 C107.576,5.889 106.204,4.363 103.781,3.369 L103.782,3.369 Z M103.477,17.451 C106.674,16.301 108.486,14.1 108.486,13.031 L108.486,12.121 L105.508,12.121 C105.288,13.241 104.989,14.274 104.612,15.221 C105.578658,14.9216836 106.511653,14.522882 107.396,14.031 C106.516494,14.9247792 105.445104,15.606666 104.263,16.025 C104.026,16.528 103.764,17.003 103.477,17.451 L103.477,17.451 Z M105.782,9.697 L108.042,9.697 C107.311882,8.87721954 106.490565,8.14346908 105.594,7.51 C105.73,8.217 105.793,8.946 105.782,9.697 L105.782,9.697 Z M0,1.212 L15.758,1.212 C17.878,1.212 22.121,3.03 22.121,5.758 C22.121,7.878 20.707,9.242 17.879,9.848 C21.515,10.556 23.333,12.071 23.333,14.394 C23.333,19.118 17.273,20 15.152,20 L0,20 L0,1.212 Z M3.94,11.212 L3.94,17.879 L13.94,17.879 C15.152,17.879 19.09,17.629 19.09,14.394 C19.09,11.266 14.848,11.212 13.636,11.212 L3.94,11.212 L3.94,11.212 Z M3.94,3.333 L3.94,9.091 L13.03,9.091 C14.545,9.091 17.576,8.993 17.576,6.061 C17.576,3.539 14.242,3.333 13.03,3.333 L3.94,3.333 L3.94,3.333 Z M28.485,1.213 L44.242,1.213 C46.364,1.213 50.606,3.03 50.606,5.758 C50.606,7.878 49.192,9.242 46.364,9.848 C50,10.556 51.818,12.071 51.818,14.394 C51.818,19.118 45.758,20 43.636,20 L28.485,20 L28.485,1.212 L28.485,1.213 Z M32.425,11.213 L32.425,17.879 L42.425,17.879 C43.636,17.879 47.575,17.629 47.575,14.394 C47.575,11.266 43.333,11.212 42.121,11.212 L32.424,11.212 L32.425,11.213 Z M32.425,3.333 L32.425,9.091 L41.515,9.091 C43.03,9.091 46.061,8.993 46.061,6.061 C46.061,3.539 42.727,3.333 41.515,3.333 L32.425,3.333 L32.425,3.333 Z M55.455,10.606 C55.455,2.879 62.425,0.606 69.697,0.606 C79.091,0.606 82.121,4.848 82.121,6.97 L77.88,6.97 C77.88,5.758 75.153,3.03 69.698,3.03 C63.939,3.03 60,5.455 60,10.606 C60,15.758 63.03,18.03 69.697,18.182 C75.757,18.333 77.879,14.545 77.879,13.03 L82.424,13.03 C82.424,15.455 79.091,20.606 69.697,20.606 C62.424,20.606 55.455,18.333 55.455,10.606 L55.455,10.606 Z" fill="#231F20"></path>
            <path d="M78.48,9.368 C77.018,9.521 76.199,10.094 76.023,11.089 C75.497,14.073 83.503,21.024 96.932,23.391 C110.361,25.759 120.103,22.861 120.603,20.027 C120.796,18.932 120.298,17.973 119.111,17.147 C119.918,17.803 120.243,18.578 120.085,19.474 C119.743,21.414 111.345,23.024 97.405,20.706 C83.465,18.386 76.383,12.537 76.673,10.896 C76.831,10.001 77.433,9.491 78.481,9.368 L78.48,9.368 Z" fill="#F98134"></path>
        </g>
    </g>
</svg>