<svg width="398px" height="86px" viewBox="0 0 398 86" version="1.1" xmlns="http://www.w3.org/2000/svg" xmlns:xlink="http://www.w3.org/1999/xlink">
    <title>BBCG</title>
    <g stroke="none" stroke-width="1" fill="none" fill-rule="evenodd">
        <g>
            <path d="M188.142538,85.5579773 C164.8731,85.5579773 148,68.0742405 148,45.2789887 C148,22.4837368 164.8731,5 188.142538,5 C202.148314,5 214.499864,11.9713634 221.227048,22.9263631 L206.008174,31.7788881 C202.589441,25.8034337 195.972539,22.2624237 188.142538,22.2624237 C174.467608,22.2624237 165.645072,31.4469184 165.645072,45.2789887 C165.645072,59.1110589 174.467608,68.2955536 188.142538,68.2955536 C195.972539,68.2955536 202.699723,64.7545436 206.008174,58.7790893 L221.227048,67.6316142 C214.610146,78.5866139 202.258596,85.5579773 188.142538,85.5579773 Z M307.02621,40.8527262 L307.02621,47.4921199 C307.02621,71.1726242 290.594237,85.5579773 268.979024,85.5579773 C244.71705,85.5579773 227.292542,67.6316142 227.292542,45.3896452 C227.292542,22.9263631 245.047895,5 267.765925,5 C282.543673,5 295.005505,12.3033331 301.512125,22.70505 L286.513814,31.3362618 C283.315645,26.24606 276.367898,22.2624237 267.655643,22.2624237 C254.642403,22.2624237 244.937613,31.8895446 244.937613,45.5003018 C244.937613,58.6684327 254.201276,68.2955536 269.199587,68.2955536 C279.455785,68.2955536 286.182969,63.7586346 288.940011,56.3446449 L268.317334,56.3446449 L268.317334,40.8527262 L307.02621,40.8527262 Z M54.1122574,43.2912615 C59.8469057,46.942928 63.5964835,52.9183824 63.5964835,60.7749983 C63.5964835,74.496412 52.4580319,83.4595936 38.6728195,83.4595936 L0,83.4595936 L0,6 L36.4671855,6 C49.9215528,6 60.839441,14.7418684 60.839441,28.1313125 C60.839441,34.5493931 58.3029619,39.6395949 54.1122574,43.2912615 Z M36.4671855,22.5984843 L17.6450718,22.5984843 L17.6450718,36.3198981 L36.4671855,36.3198981 C40.4373267,36.3198981 43.1943692,33.4428274 43.1943692,29.4591912 C43.1943692,25.475555 40.5476084,22.5984843 36.4671855,22.5984843 Z M38.6728195,66.8611092 C43.0840875,66.8611092 45.9514116,63.7627255 45.9514116,59.4471196 C45.9514116,55.1315136 43.0840875,52.0331299 38.6728195,52.0331299 L17.6450718,52.0331299 L17.6450718,66.8611092 L38.6728195,66.8611092 Z M130.112257,43.2912615 C135.846906,46.942928 139.596483,52.9183824 139.596483,60.7749983 C139.596483,74.496412 128.458032,83.4595936 114.672819,83.4595936 L76,83.4595936 L76,6 L112.467186,6 C125.921553,6 136.839441,14.7418684 136.839441,28.1313125 C136.839441,34.5493931 134.302962,39.6395949 130.112257,43.2912615 Z M112.467186,22.5984843 L93.6450718,22.5984843 L93.6450718,36.3198981 L112.467186,36.3198981 C116.437327,36.3198981 119.194369,33.4428274 119.194369,29.4591912 C119.194369,25.475555 116.547608,22.5984843 112.467186,22.5984843 Z M114.672819,66.8611092 C119.084087,66.8611092 121.951412,63.7627255 121.951412,59.4471196 C121.951412,55.1315136 119.084087,52.0331299 114.672819,52.0331299 L93.6450718,52.0331299 L93.6450718,66.8611092 L114.672819,66.8611092 Z" fill="#ffffff"></path>
            <path d="M328.591065,21.8115738 L340.091065,21.8115738 C340.367207,21.8115738 340.591065,22.0354315 340.591065,22.3115738 L340.591065,43.1865738 C340.591065,43.4627162 340.367207,43.6865738 340.091065,43.6865738 L328.591065,43.6865738 C328.314922,43.6865738 328.091065,43.4627162 328.091065,43.1865738 L328.091065,22.3115738 C328.091065,22.0354315 328.314922,21.8115738 328.591065,21.8115738 Z M347.341065,6.18657383 L358.841065,6.18657383 C359.117207,6.18657383 359.341065,6.41043145 359.341065,6.68657383 L359.341065,27.5615738 C359.341065,27.8377162 359.117207,28.0615738 358.841065,28.0615738 L347.341065,28.0615738 C347.064922,28.0615738 346.841065,27.8377162 346.841065,27.5615738 L346.841065,6.68657383 C346.841065,6.41043145 347.064922,6.18657383 347.341065,6.18657383 Z M322,84.3232227 C325.931444,73.735203 327.897167,68.4411932 327.897167,68.4411932 C355.151112,65.9066613 373.40651,47.910976 377.272088,14.336132 L373.05131,13.7479199 L387.624049,0 L397.83618,17.2341123 L392.589571,16.5048813 C386.521622,61.2827718 358.243987,84.0739281 322,84.3232227 Z" fill="#ffffff"></path>
        </g>
    </g>
</svg>