<svg width="350" height="322" viewBox="0 0 350 322" version="1.1" xmlns="http://www.w3.org/2000/svg" xmlns:xlink="http://www.w3.org/1999/xlink">
<g id="Canvas" transform="translate(3905 3051)">
<g id="Group 98">
<g id="&#208;&#144;&#208;&#186;&#208;&#176;&#208;&#180;&#208;&#181;&#208;&#188;&#208;&#184;&#209;&#143; &#209;&#128;&#208;&#184;&#209;&#130;&#208;&#181;&#208;&#185;&#208;&#187;&#208;&#176;">
<use xlink:href="#path0_fill" transform="translate(-3905 -2765)" fill="#FFFFFF"/>
<use xlink:href="#path1_fill" transform="translate(-3905 -2765)" fill="#FFFFFF"/>
<use xlink:href="#path2_fill" transform="translate(-3905 -2765)" fill="#FFFFFF"/>
<use xlink:href="#path3_fill" transform="translate(-3905 -2765)" fill="#FFFFFF"/>
<use xlink:href="#path4_fill" transform="translate(-3905 -2765)" fill="#FFFFFF"/>
<use xlink:href="#path5_fill" transform="translate(-3905 -2765)" fill="#FFFFFF"/>
<use xlink:href="#path6_fill" transform="translate(-3905 -2765)" fill="#FFFFFF"/>
<use xlink:href="#path7_fill" transform="translate(-3905 -2765)" fill="#FFFFFF"/>
<use xlink:href="#path8_fill" transform="translate(-3905 -2765)" fill="#FFFFFF"/>
<use xlink:href="#path9_fill" transform="translate(-3905 -2765)" fill="#FFFFFF"/>
<use xlink:href="#path10_fill" transform="translate(-3905 -2765)" fill="#FFFFFF"/>
<use xlink:href="#path11_fill" transform="translate(-3905 -2765)" fill="#FFFFFF"/>
<use xlink:href="#path12_fill" transform="translate(-3905 -2765)" fill="#FFFFFF"/>
<use xlink:href="#path13_fill" transform="translate(-3905 -2765)" fill="#FFFFFF"/>
<use xlink:href="#path14_fill" transform="translate(-3905 -2765)" fill="#FFFFFF"/>
</g>
<g id="Group 97">
<g id="Combined Shape">
<g id="Page 1">
<g id="Combined Shape">
<use xlink:href="#path15_fill" transform="translate(-3894.74 -3051)" fill="url(#paint15_linear)"/>
</g>
</g>
</g>
<g id="Intersect">
<use xlink:href="#path16_fill" transform="translate(-3798.43 -2937.53)" fill="url(#paint16_linear)"/>
</g>
</g>
</g>
</g>
<defs>
<linearGradient id="paint15_linear" x1="0" y1="0" x2="1" y2="0" gradientUnits="userSpaceOnUse" gradientTransform="matrix(2.00506e-14 263.88 -327.451 1.6158e-14 327.451 1.3194)">
<stop offset="0" stop-color="#E8C64F"/>
<stop offset="1" stop-color="#BC8C04"/>
</linearGradient>
<linearGradient id="paint16_linear" x1="0" y1="0" x2="1" y2="0" gradientUnits="userSpaceOnUse" gradientTransform="matrix(29.6865 -126.662 100.891 23.6463 14.2049 139.908)">
<stop offset="0" stop-color="#775B0D"/>
<stop offset="1" stop-color="#D6B03D" stop-opacity="0"/>
</linearGradient>
<path id="path0_fill" d="M 17.7368 31.2238L 23.8832 31.2238L 15.5241 6.63813L 8.35913 6.63813L 0 31.2238L 6.14642 31.2238L 7.3757 27.3603L 16.5075 27.3603L 17.7368 31.2238ZM 9.06157 22.092L 11.9416 13.0655L 14.8216 22.092L 9.06157 22.092Z"/>
<path id="path1_fill" d="M 45.8589 31.2238L 37.2187 18.6149L 45.5076 6.63813L 39.1154 6.63813L 31.5992 17.3153L 31.5992 6.63813L 25.9796 6.63813L 25.9796 31.2238L 31.5992 31.2238L 31.5992 19.8441L 39.4666 31.2238L 45.8589 31.2238Z"/>
<path id="path2_fill" d="M 64.2808 31.2238L 70.4272 31.2238L 62.0681 6.63813L 54.9031 6.63813L 46.544 31.2238L 52.6904 31.2238L 53.9197 27.3603L 63.0515 27.3603L 64.2808 31.2238ZM 55.6056 22.092L 58.4856 13.0655L 61.3657 22.092L 55.6056 22.092Z"/>
<path id="path3_fill" d="M 92.0124 25.8149L 92.0124 6.63813L 75.54 6.63813L 75.54 17.6666C 75.54 21.8461 74.7322 24.1993 73.6083 25.8149L 71.1146 25.8149L 71.1146 35.9302L 76.7342 35.9302L 76.7342 31.2238L 89.027 31.2238L 89.027 35.9302L 94.6466 35.9302L 94.6466 25.8149L 92.0124 25.8149ZM 79.5791 25.8149C 80.4571 24.2344 81.1596 21.7759 81.1596 17.7368L 81.1596 11.9065L 86.3928 11.9065L 86.3928 25.8149L 79.5791 25.8149Z"/>
<path id="path4_fill" d="M 103.25 25.8149L 103.25 21.4598L 112.031 21.4598L 112.031 16.1212L 103.25 16.1212L 103.25 12.047L 112.909 12.047L 112.909 6.63813L 97.6306 6.63813L 97.6306 31.2238L 113.084 31.2238L 113.084 25.8149L 103.25 25.8149Z"/>
<path id="path5_fill" d="M 140.841 6.63813L 135.221 6.63813L 128.548 17.5612L 121.875 6.63813L 116.255 6.63813L 116.255 31.2238L 121.875 31.2238L 121.875 16.929L 128.232 27.3603L 128.864 27.3603L 135.221 16.929L 135.221 31.2238L 140.841 31.2238L 140.841 6.63813Z"/>
<path id="path6_fill" d="M 158.764 31.2238L 164.384 31.2238L 164.384 6.63813L 160.169 6.63813L 150.686 19.9846L 150.686 6.63813L 145.066 6.63813L 145.066 31.2238L 149.281 31.2238L 158.764 17.8773L 158.764 31.2238Z"/>
<path id="path7_fill" d="M 186.332 6.63813L 176.498 6.63813C 171.827 6.63813 168.069 10.3962 168.069 15.0675C 168.069 18.2636 170.141 21.1788 173.126 22.4432L 167.366 31.2238L 173.688 31.2238L 178.922 23.1456L 180.713 23.1456L 180.713 31.2238L 186.332 31.2238L 186.332 6.63813ZM 176.498 18.2285C 174.953 18.2285 173.688 16.8587 173.688 15.0675C 173.688 13.2763 174.953 11.9065 176.498 11.9065L 180.713 11.9065L 180.713 18.2285L 176.498 18.2285Z"/>
<path id="path8_fill" d="M 208.635 6.63813L 199.328 6.63813L 199.328 31.2238L 204.947 31.2238L 204.947 23.4969L 208.635 23.4969C 213.482 23.4969 217.24 19.7388 217.24 15.0675C 217.24 10.3962 213.482 6.63813 208.635 6.63813ZM 208.635 18.2285L 204.947 18.2285L 204.947 11.9065L 208.635 11.9065C 210.356 11.9065 211.621 13.2763 211.621 15.0675C 211.621 16.8587 210.356 18.2285 208.635 18.2285Z"/>
<path id="path9_fill" d="M 233.742 31.2238L 239.362 31.2238L 239.362 6.63813L 235.147 6.63813L 225.664 19.9846L 225.664 6.63813L 220.044 6.63813L 220.044 31.2238L 224.259 31.2238L 233.742 17.8773L 233.742 31.2238Z"/>
<path id="path10_fill" d="M 260.081 6.63813L 241.818 6.63813L 241.818 12.047L 248.14 12.047L 248.14 31.2238L 253.759 31.2238L 253.759 12.047L 260.081 12.047L 260.081 6.63813Z"/>
<path id="path11_fill" d="M 268.161 25.8149L 268.161 21.4598L 276.941 21.4598L 276.941 16.1212L 268.161 16.1212L 268.161 12.047L 277.819 12.047L 277.819 6.63813L 262.541 6.63813L 262.541 31.2238L 277.995 31.2238L 277.995 25.8149L 268.161 25.8149Z"/>
<path id="path12_fill" d="M 285.556 4.56591L 296.093 4.56591L 296.093 0L 285.556 0L 285.556 4.56591ZM 294.863 31.2238L 300.483 31.2238L 300.483 6.63813L 296.268 6.63813L 286.785 19.9846L 286.785 6.63813L 281.166 6.63813L 281.166 31.2238L 285.38 31.2238L 294.863 17.8773L 294.863 31.2238Z"/>
<path id="path13_fill" d="M 302.939 31.2238C 307.47 31.7155 312.633 30.0296 312.633 21.249L 312.633 12.047L 318.393 12.047L 318.393 31.2238L 324.012 31.2238L 324.012 6.63813L 307.013 6.63813L 307.013 21.4598C 307.013 25.5691 305.468 26.3418 302.939 25.9554L 302.939 31.2238Z"/>
<path id="path14_fill" d="M 343.854 31.2238L 350 31.2238L 341.641 6.63813L 334.476 6.63813L 326.117 31.2238L 332.263 31.2238L 333.492 27.3603L 342.624 27.3603L 343.854 31.2238ZM 335.178 22.092L 338.058 13.0655L 340.938 22.092L 335.178 22.092Z"/>
<path id="path15_fill" fill-rule="evenodd" d="M 171.522 136.858L 129.541 136.858L 129.541 265.199L 177.519 265.199L 214.702 265.199L 177.853 201.01C 192.708 198.066 203.907 184.962 203.907 169.243C 203.907 151.357 189.408 136.858 171.522 136.858ZM 163.605 0L 327.451 265.199L 0 265.199L 163.605 0Z"/>
<path id="path16_fill" fill-rule="evenodd" d="M 33.2251 23.3894L 75.2058 23.3894C 75.6672 23.3894 76.1267 23.3992 76.5835 23.4182L 0 0L 32.842 151.731L 33.2251 151.731L 33.2251 23.3894ZM 121.17 151.731L 97.605 79.1643C 93.2383 83.3472 87.7021 86.3193 81.5366 87.5413L 118.386 151.731L 121.17 151.731Z"/>
</defs>
</svg>
