<svg width="350" height="322" viewBox="0 0 350 322" version="1.1" xmlns="http://www.w3.org/2000/svg" xmlns:xlink="http://www.w3.org/1999/xlink">
<title>Group 99</title>
<desc>Created using Figma</desc>
<g id="Canvas" transform="translate(3909 3709)">
<g id="Group 99">
<g id="&#208;&#159;&#209;&#128;&#208;&#190;&#208;&#179;&#209;&#128;&#208;&#176;&#208;&#188;&#208;&#188;&#209;&#139; &#208;&#190;&#208;&#177;&#209;&#131;&#209;&#135;&#208;&#181;&#208;&#189;&#208;&#184;&#209;&#143;">
<use xlink:href="#path0_fill" transform="translate(-3909 -3418.99)" fill="#FFFFFF"/>
<use xlink:href="#path1_fill" transform="translate(-3909 -3418.99)" fill="#FFFFFF"/>
<use xlink:href="#path2_fill" transform="translate(-3909 -3418.99)" fill="#FFFFFF"/>
<use xlink:href="#path3_fill" transform="translate(-3909 -3418.99)" fill="#FFFFFF"/>
<use xlink:href="#path4_fill" transform="translate(-3909 -3418.99)" fill="#FFFFFF"/>
<use xlink:href="#path5_fill" transform="translate(-3909 -3418.99)" fill="#FFFFFF"/>
<use xlink:href="#path6_fill" transform="translate(-3909 -3418.99)" fill="#FFFFFF"/>
<use xlink:href="#path7_fill" transform="translate(-3909 -3418.99)" fill="#FFFFFF"/>
<use xlink:href="#path8_fill" transform="translate(-3909 -3418.99)" fill="#FFFFFF"/>
<use xlink:href="#path9_fill" transform="translate(-3909 -3418.99)" fill="#FFFFFF"/>
<use xlink:href="#path10_fill" transform="translate(-3909 -3418.99)" fill="#FFFFFF"/>
<use xlink:href="#path11_fill" transform="translate(-3909 -3418.99)" fill="#FFFFFF"/>
<use xlink:href="#path12_fill" transform="translate(-3909 -3418.99)" fill="#FFFFFF"/>
</g>
<g id="Group 98">
<g id="Group 97">
<g id="Combined Shape">
<g id="Page 1">
<g id="Combined Shape">
<use xlink:href="#path13_fill" transform="translate(-3898 -3709)" fill="url(#paint13_linear)"/>
</g>
</g>
</g>
<g id="Intersect">
<use xlink:href="#path14_fill" transform="translate(-3801.68 -3595.53)" fill="url(#paint14_linear)"/>
</g>
</g>
</g>
</g>
</g>
<defs>
<linearGradient id="paint13_linear" x1="0" y1="0" x2="1" y2="0" gradientUnits="userSpaceOnUse" gradientTransform="matrix(2.00506e-14 263.88 -327.451 1.6158e-14 327.451 1.3194)">
<stop offset="0" stop-color="#E8C64F"/>
<stop offset="1" stop-color="#BC8C04"/>
</linearGradient>
<linearGradient id="paint14_linear" x1="0" y1="0" x2="1" y2="0" gradientUnits="userSpaceOnUse" gradientTransform="matrix(29.6865 -126.662 100.891 23.6463 14.2049 139.908)">
<stop offset="0" stop-color="#775B0D"/>
<stop offset="1" stop-color="#D6B03D" stop-opacity="0"/>
</linearGradient>
<path id="path0_fill" d="M 16.1006 31.2387L 23.6259 31.2387L 17.1069 19.9945C 20.4758 18.2882 22.7509 14.8756 22.7509 11.1129C 22.7509 5.29396 18.0695 0.612524 12.2505 0.612524L 0 0.612524L 0 31.2387L 7.00027 31.2387L 7.00027 21.1758L 10.3254 21.1758L 16.1006 31.2387ZM 7.00027 7.17528L 12.2505 7.17528C 14.1756 7.17528 15.7506 8.8816 15.7506 11.1129C 15.7506 13.3443 14.1756 15.0506 12.2505 15.0506L 7.00027 15.0506L 7.00027 7.17528Z"/>
<path id="path1_fill" d="M 33.9178 24.501L 33.9178 19.0757L 44.8558 19.0757L 44.8558 12.4255L 33.9178 12.4255L 33.9178 7.35029L 45.9496 7.35029L 45.9496 0.612524L 26.9176 0.612524L 26.9176 31.2387L 46.1683 31.2387L 46.1683 24.501L 33.9178 24.501Z"/>
<path id="path2_fill" d="M 70.6812 0.612524L 47.9303 0.612524L 47.9303 7.35029L 55.8056 7.35029L 55.8056 31.2387L 62.8059 31.2387L 62.8059 7.35029L 70.6812 7.35029L 70.6812 0.612524Z"/>
<path id="path3_fill" d="M 91.036 31.2387L 98.6926 31.2387L 88.2797 0.612524L 79.3543 0.612524L 68.9414 31.2387L 76.598 31.2387L 78.1293 26.426L 89.5047 26.426L 91.036 31.2387ZM 80.2294 19.8633L 83.817 8.61909L 87.4046 19.8633L 80.2294 19.8633Z"/>
<path id="path4_fill" d="M 101.304 0.612524L 101.304 31.2387L 108.304 31.2387L 108.304 0.612524L 101.304 0.612524Z"/>
<path id="path5_fill" d="M 120.567 24.501L 120.567 0.612524L 113.566 0.612524L 113.566 31.2387L 131.505 31.2387L 131.505 24.501L 120.567 24.501Z"/>
<path id="path6_fill" d="M 164.995 31.2387L 172.652 31.2387L 162.239 0.612524L 153.314 0.612524L 142.901 31.2387L 150.557 31.2387L 152.088 26.426L 163.464 26.426L 164.995 31.2387ZM 154.189 19.8633L 157.776 8.61909L 161.364 19.8633L 154.189 19.8633Z"/>
<path id="path7_fill" d="M 188.765 31.8512C 194.366 31.8512 199.266 29.0949 201.891 24.7635L 195.853 21.2633C 194.541 23.6259 191.872 25.026 188.765 25.026C 183.34 25.026 179.84 21.3946 179.84 15.9256C 179.84 10.4567 183.34 6.82527 188.765 6.82527C 191.872 6.82527 194.497 8.22532 195.853 10.5879L 201.891 7.08778C 199.222 2.75636 194.322 0 188.765 0C 179.534 0 172.84 6.91277 172.84 15.9256C 172.84 24.9385 179.534 31.8512 188.765 31.8512Z"/>
<path id="path8_fill" d="M 224.641 31.2387L 232.298 31.2387L 221.885 0.612524L 212.959 0.612524L 202.546 31.2387L 210.203 31.2387L 211.734 26.426L 223.11 26.426L 224.641 31.2387ZM 213.834 19.8633L 217.422 8.61909L 221.01 19.8633L 213.834 19.8633Z"/>
<path id="path9_fill" d="M 247.16 0.612524L 234.909 0.612524L 234.909 31.2387L 247.16 31.2387C 255.604 31.2387 262.035 24.5885 262.035 15.9256C 262.035 7.26278 255.604 0.612524 247.16 0.612524ZM 247.16 24.501L 241.909 24.501L 241.909 7.35029L 247.16 7.35029C 251.972 7.35029 255.297 10.6754 255.297 15.9256C 255.297 21.1758 251.972 24.501 247.16 24.501Z"/>
<path id="path10_fill" d="M 272.971 24.501L 272.971 19.0757L 283.909 19.0757L 283.909 12.4255L 272.971 12.4255L 272.971 7.35029L 285.003 7.35029L 285.003 0.612524L 265.971 0.612524L 265.971 31.2387L 285.222 31.2387L 285.222 24.501L 272.971 24.501Z"/>
<path id="path11_fill" d="M 319.798 0.612524L 312.797 0.612524L 304.485 14.2193L 296.172 0.612524L 289.171 0.612524L 289.171 31.2387L 296.172 31.2387L 296.172 13.4318L 304.091 26.426L 304.878 26.426L 312.797 13.4318L 312.797 31.2387L 319.798 31.2387L 319.798 0.612524Z"/>
<path id="path12_fill" d="M 350 0.612524L 342.037 0.612524L 336.218 12.4255L 330.399 0.612524L 322.436 0.612524L 332.718 19.4695L 332.718 31.2387L 339.718 31.2387L 339.718 19.4695L 350 0.612524Z"/>
<path id="path13_fill" fill-rule="evenodd" d="M 171.522 136.858L 129.541 136.858L 129.541 265.199L 177.519 265.199L 214.702 265.199L 177.853 201.01C 192.708 198.066 203.907 184.962 203.907 169.243C 203.907 151.357 189.408 136.858 171.522 136.858ZM 163.605 0L 327.451 265.199L 0 265.199L 163.605 0Z"/>
<path id="path14_fill" fill-rule="evenodd" d="M 33.2251 23.3894L 75.2058 23.3894C 75.6672 23.3894 76.1267 23.3992 76.5835 23.4182L 0 0L 32.842 151.731L 33.2251 151.731L 33.2251 23.3894ZM 121.17 151.731L 97.605 79.1643C 93.2383 83.3472 87.7021 86.3193 81.5366 87.5413L 118.386 151.731L 121.17 151.731Z"/>
</defs>
</svg>
