<svg width="285px" height="19px" viewBox="0 0 285 19" version="1.1" xmlns="http://www.w3.org/2000/svg" xmlns:xlink="http://www.w3.org/1999/xlink">
    <title>Digital Technologies Forum</title>
    <g id="Icons" stroke="none" stroke-width="1" fill="none" fill-rule="evenodd">
        <g id="7-digitalTechnologiesForum/rect">
            <rect id="Rectangle-27" fill="#377AB0" x="0" y="0" width="218" height="19" rx="1"></rect>
            <path d="M8.25913043,2.85217391 C11.8841739,2.85217391 14.6452174,5.70713043 14.6452174,9.42608696 C14.6452174,13.1450435 11.8841739,16 8.25913043,16 L3,16 L3,2.85217391 L8.25913043,2.85217391 Z M8.25913043,13.1074783 C10.3252174,13.1074783 11.7526957,11.68 11.7526957,9.42608696 C11.7526957,7.17217391 10.3252174,5.74469565 8.25913043,5.74469565 L6.00521739,5.74469565 L6.00521739,13.1074783 L8.25913043,13.1074783 Z M16.3356522,2.85217391 L16.3356522,16 L19.3408696,16 L19.3408696,2.85217391 L16.3356522,2.85217391 Z M34.6111304,8.67478261 L28.0184348,8.67478261 L28.0184348,11.3043478 L31.5307826,11.3043478 C31.0612174,12.5627826 29.9154783,13.3328696 28.1686957,13.3328696 C25.6142609,13.3328696 24.0365217,11.6987826 24.0365217,9.46365217 C24.0365217,7.1533913 25.6893913,5.51930435 27.9057391,5.51930435 C29.3895652,5.51930435 30.5728696,6.19547826 31.1175652,7.05947826 L33.672,5.59443478 C32.5638261,3.82886957 30.4413913,2.58921739 27.9245217,2.58921739 C24.0553043,2.58921739 21.0313043,5.632 21.0313043,9.44486957 C21.0313043,13.2201739 23.9989565,16.2629565 28.1311304,16.2629565 C31.8125217,16.2629565 34.6111304,13.8212174 34.6111304,9.80173913 L34.6111304,8.67478261 Z M36.3015652,2.85217391 L36.3015652,16 L39.3067826,16 L39.3067826,2.85217391 L36.3015652,2.85217391 Z M50.3885217,2.85217391 L40.6215652,2.85217391 L40.6215652,5.74469565 L44.0024348,5.74469565 L44.0024348,16 L47.0076522,16 L47.0076522,5.74469565 L50.3885217,5.74469565 L50.3885217,2.85217391 Z M60.0615652,16 L59.4041739,13.933913 L54.5206957,13.933913 L53.8633043,16 L50.5763478,16 L55.0466087,2.85217391 L58.8782609,2.85217391 L63.3485217,16 L60.0615652,16 Z M55.4222609,11.1165217 L58.5026087,11.1165217 L56.9624348,6.2893913 L55.4222609,11.1165217 Z M67.4806957,13.1074783 L67.4806957,2.85217391 L64.4754783,2.85217391 L64.4754783,16 L72.1763478,16 L72.1763478,13.1074783 L67.4806957,13.1074783 Z M87.0146087,2.85217391 L77.2476522,2.85217391 L77.2476522,5.74469565 L80.6285217,5.74469565 L80.6285217,16 L83.6337391,16 L83.6337391,5.74469565 L87.0146087,5.74469565 L87.0146087,2.85217391 Z M91.3346087,13.1074783 L91.3346087,10.7784348 L96.0302609,10.7784348 L96.0302609,7.92347826 L91.3346087,7.92347826 L91.3346087,5.74469565 L96.4998261,5.74469565 L96.4998261,2.85217391 L88.3293913,2.85217391 L88.3293913,16 L96.5937391,16 L96.5937391,13.1074783 L91.3346087,13.1074783 Z M104.557565,16.2629565 C106.961739,16.2629565 109.065391,15.0796522 110.192348,13.2201739 L107.600348,11.7175652 C107.03687,12.7318261 105.89113,13.3328696 104.557565,13.3328696 C102.228522,13.3328696 100.725913,11.773913 100.725913,9.42608696 C100.725913,7.07826087 102.228522,5.51930435 104.557565,5.51930435 C105.89113,5.51930435 107.018087,6.12034783 107.600348,7.1346087 L110.192348,5.632 C109.046609,3.77252174 106.942957,2.58921739 104.557565,2.58921739 C100.594435,2.58921739 97.7206957,5.55686957 97.7206957,9.42608696 C97.7206957,13.2953043 100.594435,16.2629565 104.557565,16.2629565 Z M118.926261,2.85217391 L118.926261,7.88591304 L114.794087,7.88591304 L114.794087,2.85217391 L111.78887,2.85217391 L111.78887,16 L114.794087,16 L114.794087,10.7784348 L118.926261,10.7784348 L118.926261,16 L121.931478,16 L121.931478,2.85217391 L118.926261,2.85217391 Z M131.510609,2.85217391 L131.510609,9.98956522 L126.439304,2.85217391 L124.185391,2.85217391 L124.185391,16 L127.190609,16 L127.190609,8.8626087 L132.261913,16 L134.515826,16 L134.515826,2.85217391 L131.510609,2.85217391 Z M143.04313,16.2629565 C139.267826,16.2629565 136.206261,13.2953043 136.206261,9.42608696 C136.206261,5.55686957 139.267826,2.58921739 143.04313,2.58921739 C146.818435,2.58921739 149.88,5.55686957 149.88,9.42608696 C149.88,13.2953043 146.818435,16.2629565 143.04313,16.2629565 Z M143.04313,13.3328696 C145.184348,13.3328696 146.874783,11.773913 146.874783,9.42608696 C146.874783,7.07826087 145.184348,5.51930435 143.04313,5.51930435 C140.901913,5.51930435 139.211478,7.07826087 139.211478,9.42608696 C139.211478,11.773913 140.901913,13.3328696 143.04313,13.3328696 Z M154.575652,13.1074783 L154.575652,2.85217391 L151.570435,2.85217391 L151.570435,16 L159.271304,16 L159.271304,13.1074783 L154.575652,13.1074783 Z M166.859478,16.2629565 C163.084174,16.2629565 160.022609,13.2953043 160.022609,9.42608696 C160.022609,5.55686957 163.084174,2.58921739 166.859478,2.58921739 C170.634783,2.58921739 173.696348,5.55686957 173.696348,9.42608696 C173.696348,13.2953043 170.634783,16.2629565 166.859478,16.2629565 Z M166.859478,13.3328696 C169.000696,13.3328696 170.69113,11.773913 170.69113,9.42608696 C170.69113,7.07826087 169.000696,5.51930435 166.859478,5.51930435 C164.718261,5.51930435 163.027826,7.07826087 163.027826,9.42608696 C163.027826,11.773913 164.718261,13.3328696 166.859478,13.3328696 Z M188.40313,8.67478261 L181.810435,8.67478261 L181.810435,11.3043478 L185.322783,11.3043478 C184.853217,12.5627826 183.707478,13.3328696 181.960696,13.3328696 C179.406261,13.3328696 177.828522,11.6987826 177.828522,9.46365217 C177.828522,7.1533913 179.481391,5.51930435 181.697739,5.51930435 C183.181565,5.51930435 184.36487,6.19547826 184.909565,7.05947826 L187.464,5.59443478 C186.355826,3.82886957 184.233391,2.58921739 181.716522,2.58921739 C177.847304,2.58921739 174.823304,5.632 174.823304,9.44486957 C174.823304,13.2201739 177.790957,16.2629565 181.92313,16.2629565 C185.604522,16.2629565 188.40313,13.8212174 188.40313,9.80173913 L188.40313,8.67478261 Z M190.093565,2.85217391 L190.093565,16 L193.098783,16 L193.098783,2.85217391 L190.093565,2.85217391 Z M198.357913,13.1074783 L198.357913,10.7784348 L203.053565,10.7784348 L203.053565,7.92347826 L198.357913,7.92347826 L198.357913,5.74469565 L203.52313,5.74469565 L203.52313,2.85217391 L195.352696,2.85217391 L195.352696,16 L203.617043,16 L203.617043,13.1074783 L198.357913,13.1074783 Z M209.909217,16.2629565 C212.764174,16.2629565 214.792696,14.7603478 214.792696,12.2246957 C214.792696,9.44486957 212.557565,8.74991304 210.566609,8.14886957 C208.519304,7.52904348 208.2,7.11582609 208.2,6.51478261 C208.2,5.98886957 208.669565,5.51930435 209.608696,5.51930435 C210.810783,5.51930435 211.430609,6.10156522 211.881391,7.04069565 L214.417043,5.55686957 C213.45913,3.62226087 211.768696,2.58921739 209.608696,2.58921739 C207.336,2.58921739 205.194783,4.05426087 205.194783,6.58991304 C205.194783,9.10678261 207.110609,10.045913 209.064,10.5906087 C211.036174,11.1353043 211.787478,11.4546087 211.787478,12.2622609 C211.787478,12.7693913 211.430609,13.3328696 210.00313,13.3328696 C208.519304,13.3328696 207.711652,12.6003478 207.242087,11.5109565 L204.650087,13.0135652 C205.382609,14.9481739 207.148174,16.2629565 209.909217,16.2629565 Z" id="DIGITAL-TECHNOLOGIES" fill="#FFFFFF"></path>
            <path d="M230.982609,5.74469565 L230.982609,2.85217391 L223,2.85217391 L223,16 L226.005217,16 L226.005217,11.1728696 L230.888696,11.1728696 L230.888696,8.28034783 L226.005217,8.28034783 L226.005217,5.74469565 L230.982609,5.74469565 Z M239.040348,16.2629565 C235.265043,16.2629565 232.203478,13.2953043 232.203478,9.42608696 C232.203478,5.55686957 235.265043,2.58921739 239.040348,2.58921739 C242.815652,2.58921739 245.877217,5.55686957 245.877217,9.42608696 C245.877217,13.2953043 242.815652,16.2629565 239.040348,16.2629565 Z M239.040348,13.3328696 C241.181565,13.3328696 242.872,11.773913 242.872,9.42608696 C242.872,7.07826087 241.181565,5.51930435 239.040348,5.51930435 C236.89913,5.51930435 235.208696,7.07826087 235.208696,9.42608696 C235.208696,11.773913 236.89913,13.3328696 239.040348,13.3328696 Z M254.479652,16 L252.000348,11.68 L250.57287,11.68 L250.57287,16 L247.567652,16 L247.567652,2.85217391 L252.826783,2.85217391 C255.32487,2.85217391 257.334609,4.86191304 257.334609,7.36 C257.334609,8.97530435 256.357913,10.4403478 254.911652,11.1728696 L257.710261,16 L254.479652,16 Z M250.57287,5.66956522 L250.57287,9.05043478 L252.826783,9.05043478 C253.653217,9.05043478 254.329391,8.31791304 254.329391,7.36 C254.329391,6.40208696 253.653217,5.66956522 252.826783,5.66956522 L250.57287,5.66956522 Z M264.096348,16.2629565 C266.98887,16.2629565 269.167652,14.5725217 269.167652,11.7551304 L269.167652,2.85217391 L266.162435,2.85217391 L266.162435,11.4921739 C266.162435,12.4876522 265.69287,13.3328696 264.096348,13.3328696 C262.499826,13.3328696 262.030261,12.4876522 262.030261,11.4921739 L262.030261,2.85217391 L259.025043,2.85217391 L259.025043,11.7551304 C259.025043,14.5725217 261.203826,16.2629565 264.096348,16.2629565 Z M284.475478,2.85217391 L281.470261,2.85217391 L277.901565,8.69356522 L274.33287,2.85217391 L271.327652,2.85217391 L271.327652,16 L274.33287,16 L274.33287,8.35547826 L277.732522,13.933913 L278.070609,13.933913 L281.470261,8.35547826 L281.470261,16 L284.475478,16 L284.475478,2.85217391 Z" id="FORUM" fill="#2B2A29"></path>
        </g>
    </g>
</svg>