<?xml version="1.0" encoding="UTF-8"?>
<svg width="90px" height="85px" viewBox="0 0 90 85" version="1.1" xmlns="http://www.w3.org/2000/svg" xmlns:xlink="http://www.w3.org/1999/xlink">
    <!-- Generator: Sketch 47.1 (45422) - http://www.bohemiancoding.com/sketch -->
    <title>euroshop-dusseldorf</title>
    <desc>Created with Sketch.</desc>
    <defs></defs>
    <g id="Главная" stroke="none" stroke-width="1" fill="none" fill-rule="evenodd">
        <g id="Group-34" transform="translate(-220.000000, -105.000000)">
            <g id="euroshop-dusseldorf" transform="translate(220.000000, 105.000000)">
                <rect id="Rectangle-4-Copy-2" fill="#FFFFFF" x="0" y="0" width="90" height="85" rx="1.69811321"></rect>
                <rect id="Rectangle-11" fill="#DB363D" x="-8.57980353e-13" y="10" width="90" height="21"></rect>
                <path d="M8.3,23.69 L8.3,21.83 L12.05,21.83 L12.05,19.55 L8.3,19.55 L8.3,17.81 L12.425,17.81 L12.425,15.5 L5.9,15.5 L5.9,26 L12.5,26 L12.5,23.69 L8.3,23.69 Z M17.825,26.21 C20.135,26.21 21.875,24.86 21.875,22.61 L21.875,15.5 L19.475,15.5 L19.475,22.4 C19.475,23.195 19.1,23.87 17.825,23.87 C16.55,23.87 16.175,23.195 16.175,22.4 L16.175,15.5 L13.775,15.5 L13.775,22.61 C13.775,24.86 15.515,26.21 17.825,26.21 Z M29.12,26 L27.14,22.55 L26,22.55 L26,26 L23.6,26 L23.6,15.5 L27.8,15.5 C29.795,15.5 31.4,17.105 31.4,19.1 C31.4,20.39 30.62,21.56 29.465,22.145 L31.7,26 L29.12,26 Z M26,17.75 L26,20.45 L27.8,20.45 C28.46,20.45 29,19.865 29,19.1 C29,18.335 28.46,17.75 27.8,17.75 L26,17.75 Z M37.835,26.21 C34.82,26.21 32.375,23.84 32.375,20.75 C32.375,17.66 34.82,15.29 37.835,15.29 C40.85,15.29 43.295,17.66 43.295,20.75 C43.295,23.84 40.85,26.21 37.835,26.21 Z M37.835,23.87 C39.545,23.87 40.895,22.625 40.895,20.75 C40.895,18.875 39.545,17.63 37.835,17.63 C36.125,17.63 34.775,18.875 34.775,20.75 C34.775,22.625 36.125,23.87 37.835,23.87 Z M48.32,26.21 C50.6,26.21 52.22,25.01 52.22,22.985 C52.22,20.765 50.435,20.21 48.845,19.73 C47.21,19.235 46.955,18.905 46.955,18.425 C46.955,18.005 47.33,17.63 48.08,17.63 C49.04,17.63 49.535,18.095 49.895,18.845 L51.92,17.66 C51.155,16.115 49.805,15.29 48.08,15.29 C46.265,15.29 44.555,16.46 44.555,18.485 C44.555,20.495 46.085,21.245 47.645,21.68 C49.22,22.115 49.82,22.37 49.82,23.015 C49.82,23.42 49.535,23.87 48.395,23.87 C47.21,23.87 46.565,23.285 46.19,22.415 L44.12,23.615 C44.705,25.16 46.115,26.21 48.32,26.21 Z M59.12,15.5 L59.12,19.52 L55.82,19.52 L55.82,15.5 L53.42,15.5 L53.42,26 L55.82,26 L55.82,21.83 L59.12,21.83 L59.12,26 L61.52,26 L61.52,15.5 L59.12,15.5 Z M68.33,26.21 C65.315,26.21 62.87,23.84 62.87,20.75 C62.87,17.66 65.315,15.29 68.33,15.29 C71.345,15.29 73.79,17.66 73.79,20.75 C73.79,23.84 71.345,26.21 68.33,26.21 Z M68.33,23.87 C70.04,23.87 71.39,22.625 71.39,20.75 C71.39,18.875 70.04,17.63 68.33,17.63 C66.62,17.63 65.27,18.875 65.27,20.75 C65.27,22.625 66.62,23.87 68.33,23.87 Z M79.115,15.5 C81.185,15.5 82.79,17.105 82.79,19.1 C82.79,21.095 81.185,22.7 79.115,22.7 L77.54,22.7 L77.54,26 L75.14,26 L75.14,15.5 L79.115,15.5 Z M79.115,20.45 C79.85,20.45 80.39,19.865 80.39,19.1 C80.39,18.335 79.85,17.75 79.115,17.75 L77.54,17.75 L77.54,20.45 L79.115,20.45 Z" id="EUROSHOP" fill="#FFFFFF"></path>
                <path d="M6.07226562,38.5449219 L8.97265625,38.5449219 C10.2265688,38.5449219 11.2050746,38.9160119 11.9082031,39.6582031 C12.6113316,40.4003943 12.9628906,41.4374933 12.9628906,42.7695312 C12.9628906,44.1015692 12.6123082,45.1396447 11.9111328,45.8837891 C11.2099574,46.6279334 10.230475,47 8.97265625,47 L6.07226562,47 L6.07226562,38.5449219 Z M7.12695312,39.4941406 L7.12695312,46.0507812 L8.90234375,46.0507812 C9.84766098,46.0507812 10.5810521,45.7636747 11.1025391,45.1894531 C11.624026,44.6152315 11.8847656,43.8125052 11.8847656,42.78125 C11.8847656,41.7460886 11.6220729,40.939456 11.0966797,40.3613281 C10.5712864,39.7832002 9.83984844,39.4941406 8.90234375,39.4941406 L7.12695312,39.4941406 Z M15.8691406,38.5449219 L14.8144531,38.5449219 L14.8144531,44.09375 C14.8144531,44.9960983 15.1123017,45.7392549 15.7080078,46.3232422 C16.3037139,46.9072295 17.1249948,47.1992188 18.171875,47.1992188 C19.2226615,47.1992188 20.0449189,46.9072295 20.6386719,46.3232422 C21.2324248,45.7392549 21.5292969,44.9960983 21.5292969,44.09375 L21.5292969,38.5449219 L20.4746094,38.5449219 L20.4746094,44.0234375 C20.4746094,44.6601594 20.2744161,45.1865214 19.8740234,45.6025391 C19.4736308,46.0185568 18.9062537,46.2265625 18.171875,46.2265625 C17.4414026,46.2265625 16.875002,46.0185568 16.4726562,45.6025391 C16.0703105,45.1865214 15.8691406,44.6601594 15.8691406,44.0234375 L15.8691406,38.5449219 Z M23.3105469,44.7910156 C23.3652346,45.521488 23.6787081,46.1054666 24.2509766,46.5429688 C24.823245,46.9804709 25.5566362,47.1992188 26.4511719,47.1992188 C27.4199267,47.1992188 28.1884737,46.9697289 28.7568359,46.5107422 C29.3251982,46.0517555 29.609375,45.4335976 29.609375,44.65625 C29.609375,44.0351531 29.4189472,43.5410175 29.0380859,43.1738281 C28.6572247,42.8066388 28.0293012,42.513673 27.1542969,42.2949219 L26.2695312,42.0605469 C25.6874971,41.9121086 25.2705091,41.734376 25.0185547,41.5273438 C24.7666003,41.3203115 24.640625,41.0507829 24.640625,40.71875 C24.640625,40.2890604 24.8115217,39.9453138 25.1533203,39.6875 C25.4951189,39.4296862 25.9472628,39.3007812 26.5097656,39.3007812 C27.037112,39.3007812 27.4697249,39.4228503 27.8076172,39.6669922 C28.1455095,39.911134 28.3515621,40.2499978 28.4257812,40.6835938 L29.4863281,40.6835938 C29.4433592,39.9999966 29.1464871,39.4394553 28.5957031,39.0019531 C28.0449191,38.5644509 27.3613322,38.3457031 26.5449219,38.3457031 C25.6503862,38.3457031 24.9287137,38.5673806 24.3798828,39.0107422 C23.8310519,39.4541038 23.5566406,40.0351527 23.5566406,40.7539062 C23.5566406,41.3554718 23.730467,41.8369123 24.078125,42.1982422 C24.425783,42.5595721 24.982418,42.8378896 25.7480469,43.0332031 L26.8320312,43.3144531 C27.4140654,43.4589851 27.8417955,43.6503894 28.1152344,43.8886719 C28.3886732,44.1269543 28.5253906,44.4257795 28.5253906,44.7851562 C28.5253906,45.2031271 28.3388691,45.5498033 27.9658203,45.8251953 C27.5927716,46.1005873 27.1210966,46.2382812 26.5507812,46.2382812 C25.9492157,46.2382812 25.453127,46.1074232 25.0625,45.8457031 C24.671873,45.5839831 24.4433597,45.2324241 24.3769531,44.7910156 L23.3105469,44.7910156 Z M30.9570312,44.7910156 C31.011719,45.521488 31.3251925,46.1054666 31.8974609,46.5429688 C32.4697294,46.9804709 33.2031205,47.1992188 34.0976562,47.1992188 C35.0664111,47.1992188 35.8349581,46.9697289 36.4033203,46.5107422 C36.9716825,46.0517555 37.2558594,45.4335976 37.2558594,44.65625 C37.2558594,44.0351531 37.0654316,43.5410175 36.6845703,43.1738281 C36.303709,42.8066388 35.6757856,42.513673 34.8007812,42.2949219 L33.9160156,42.0605469 C33.3339815,41.9121086 32.9169934,41.734376 32.6650391,41.5273438 C32.4130847,41.3203115 32.2871094,41.0507829 32.2871094,40.71875 C32.2871094,40.2890604 32.4580061,39.9453138 32.7998047,39.6875 C33.1416033,39.4296862 33.5937472,39.3007812 34.15625,39.3007812 C34.6835964,39.3007812 35.1162092,39.4228503 35.4541016,39.6669922 C35.7919939,39.911134 35.9980465,40.2499978 36.0722656,40.6835938 L37.1328125,40.6835938 C37.0898435,39.9999966 36.7929715,39.4394553 36.2421875,39.0019531 C35.6914035,38.5644509 35.0078166,38.3457031 34.1914062,38.3457031 C33.2968705,38.3457031 32.5751981,38.5673806 32.0263672,39.0107422 C31.4775363,39.4541038 31.203125,40.0351527 31.203125,40.7539062 C31.203125,41.3554718 31.3769514,41.8369123 31.7246094,42.1982422 C32.0722674,42.5595721 32.6289024,42.8378896 33.3945312,43.0332031 L34.4785156,43.3144531 C35.0605498,43.4589851 35.4882799,43.6503894 35.7617188,43.8886719 C36.0351576,44.1269543 36.171875,44.4257795 36.171875,44.7851562 C36.171875,45.2031271 35.9853534,45.5498033 35.6123047,45.8251953 C35.2392559,46.1005873 34.767581,46.2382812 34.1972656,46.2382812 C33.5957001,46.2382812 33.0996113,46.1074232 32.7089844,45.8457031 C32.3183574,45.5839831 32.0898441,45.2324241 32.0234375,44.7910156 L30.9570312,44.7910156 Z M44.2460938,46.0507812 L40.0625,46.0507812 L40.0625,43.1445312 L44.0292969,43.1445312 L44.0292969,42.2070312 L40.0625,42.2070312 L40.0625,39.4941406 L44.2460938,39.4941406 L44.2460938,38.5449219 L39.0078125,38.5449219 L39.0078125,47 L44.2460938,47 L44.2460938,46.0507812 Z M51.2890625,46.0507812 L47.2109375,46.0507812 L47.2109375,38.5449219 L46.15625,38.5449219 L46.15625,47 L51.2890625,47 L51.2890625,46.0507812 Z M52.9707031,38.5449219 L55.8710938,38.5449219 C57.1250063,38.5449219 58.1035121,38.9160119 58.8066406,39.6582031 C59.5097691,40.4003943 59.8613281,41.4374933 59.8613281,42.7695312 C59.8613281,44.1015692 59.5107457,45.1396447 58.8095703,45.8837891 C58.1083949,46.6279334 57.1289125,47 55.8710938,47 L52.9707031,47 L52.9707031,38.5449219 Z M54.0253906,39.4941406 L54.0253906,46.0507812 L55.8007812,46.0507812 C56.7460985,46.0507812 57.4794896,45.7636747 58.0009766,45.1894531 C58.5224635,44.6152315 58.7832031,43.8125052 58.7832031,42.78125 C58.7832031,41.7460886 58.5205104,40.939456 57.9951172,40.3613281 C57.4697239,39.7832002 56.7382859,39.4941406 55.8007812,39.4941406 L54.0253906,39.4941406 Z M65.2402344,38.3457031 C66.4433654,38.3457031 67.3886684,38.7441366 68.0761719,39.5410156 C68.7636753,40.3378946 69.1074219,41.4140557 69.1074219,42.7695312 C69.1074219,44.1211005 68.7646519,45.1972616 68.0791016,45.9980469 C67.3935513,46.7988321 66.4472717,47.1992188 65.2402344,47.1992188 C64.0292908,47.1992188 63.079105,46.7988321 62.3896484,45.9980469 C61.7001919,45.1972616 61.3554688,44.1211005 61.3554688,42.7695312 C61.3554688,41.4101495 61.7040981,40.3330118 62.4013672,39.5380859 C63.0986363,38.7431601 64.0449159,38.3457031 65.2402344,38.3457031 Z M65.2402344,39.3183594 C64.3808551,39.3183594 63.6992213,39.6289031 63.1953125,40.25 C62.6914037,40.8710969 62.4394531,41.7109322 62.4394531,42.7695312 C62.4394531,43.8164115 62.686521,44.6542937 63.1806641,45.2832031 C63.6748072,45.9121125 64.3613237,46.2265625 65.2402344,46.2265625 C66.1074262,46.2265625 66.7880835,45.9121125 67.2822266,45.2832031 C67.7763697,44.6542937 68.0234375,43.8164115 68.0234375,42.7695312 C68.0234375,41.7109322 67.7753931,40.8710969 67.2792969,40.25 C66.7832006,39.6289031 66.1035199,39.3183594 65.2402344,39.3183594 Z M71.9902344,39.4824219 L71.9902344,42.7167969 L74.0703125,42.7167969 C74.613284,42.7167969 75.0322251,42.5771498 75.3271484,42.2978516 C75.6220718,42.0185533 75.7695312,41.6191432 75.7695312,41.0996094 C75.7695312,40.5917943 75.6152359,40.1953139 75.3066406,39.9101562 C74.9980453,39.6249986 74.5703152,39.4824219 74.0234375,39.4824219 L71.9902344,39.4824219 Z M71.9902344,43.6542969 L71.9902344,47 L70.9355469,47 L70.9355469,38.5449219 L74.1640625,38.5449219 C74.9804728,38.5449219 75.6337866,38.7744118 76.1240234,39.2333984 C76.6142603,39.6923851 76.859375,40.3027306 76.859375,41.0644531 C76.859375,41.6542998 76.7089859,42.1640604 76.4082031,42.59375 C76.1074204,43.0234396 75.6914089,43.3222648 75.1601562,43.4902344 L77.1171875,47 L75.8808594,47 L74.0703125,43.6542969 L71.9902344,43.6542969 Z M79.8300781,47 L79.8300781,43.3378906 L83.5742188,43.3378906 L83.5742188,42.4003906 L79.8300781,42.4003906 L79.8300781,39.4941406 L83.9082031,39.4941406 L83.9082031,38.5449219 L78.7753906,38.5449219 L78.7753906,47 L79.8300781,47 Z" id="DUSSELDORF" fill="#2B2A29" opacity="0.849999964"></path>
            </g>
        </g>
    </g>
</svg>