<?xml version="1.0" encoding="UTF-8"?>
<svg width="92px" height="87px" viewBox="0 0 92 87" version="1.1" xmlns="http://www.w3.org/2000/svg" xmlns:xlink="http://www.w3.org/1999/xlink">
    <!-- Generator: Sketch 46.2 (44496) - http://www.bohemiancoding.com/sketch -->
    <title>1 foodRetailRussia/square</title>
    <desc>Created with Sketch.</desc>
    <defs></defs>
    <g id="Icons" stroke="none" stroke-width="1" fill="none" fill-rule="evenodd">
        <g id="1-foodRetailRussia/square">
            <g id="Group-67">
                <g id="Group-24">
                    <rect id="Rectangle-4-Copy-2" fill="#FFFFFF" x="0" y="0" width="92" height="87" rx="2"></rect>
                    <path d="M2,0 L90,0 L90,0 C91.1045695,-2.02906125e-16 92,0.8954305 92,2 L92,32 L-8.52651283e-13,32 L-8.52651283e-13,2 L-8.52651283e-13,2 C-8.52786554e-13,0.8954305 0.8954305,2.02906125e-16 2,0 Z" id="Rectangle-11" fill="#AB2B30"></path>
                </g>
            </g>
            <path d="M14.3339844,23.1992188 L9.87109375,23.1992188 L9.87109375,29 L7,29 L7,14.78125 L14.8710938,14.78125 L14.8710938,17.1738281 L9.87109375,17.1738281 L9.87109375,20.8164062 L14.3339844,20.8164062 L14.3339844,23.1992188 Z M25.9127887,23.1699219 C25.9127887,25.0774835 25.4619469,26.5585885 24.5602497,27.6132812 C23.6585525,28.667974 22.4069374,29.1953125 20.8053669,29.1953125 C19.2103068,29.1953125 17.9570641,28.6728568 17.0456012,27.6279297 C16.1341384,26.5830026 15.6719034,25.1198011 15.6588825,23.2382812 L15.6588825,20.8066406 C15.6588825,18.8535059 16.1113519,17.328456 17.0163044,16.2314453 C17.9212568,15.1344346 19.1777547,14.5859375 20.7858356,14.5859375 C22.3678748,14.5859375 23.6146071,15.1246691 24.52607,16.2021484 C25.4375329,17.2796278 25.8997679,18.7916569 25.9127887,20.7382812 L25.9127887,23.1699219 Z M23.0319294,20.7871094 C23.0319294,19.5045509 22.8496395,18.5507844 22.4850544,17.9257812 C22.1204692,17.3007781 21.5540686,16.9882812 20.7858356,16.9882812 C20.0241131,16.9882812 19.4609677,17.289385 19.0963825,17.8916016 C18.7317973,18.4938181 18.5429971,19.4101501 18.5299762,20.640625 L18.5299762,23.1699219 C18.5299762,24.4134177 18.7155213,25.3297497 19.0866169,25.9189453 C19.4577125,26.508141 20.0306234,26.8027344 20.8053669,26.8027344 C21.5540685,26.8027344 22.1107036,26.5146513 22.4752887,25.9384766 C22.8398739,25.3623018 23.0254189,24.4687561 23.0319294,23.2578125 L23.0319294,20.7871094 Z M37.3744056,23.1699219 C37.3744056,25.0774835 36.9235638,26.5585885 36.0218666,27.6132812 C35.1201693,28.667974 33.8685543,29.1953125 32.2669837,29.1953125 C30.6719237,29.1953125 29.418681,28.6728568 28.5072181,27.6279297 C27.5957552,26.5830026 27.1335203,25.1198011 27.1204994,23.2382812 L27.1204994,20.8066406 C27.1204994,18.8535059 27.5729688,17.328456 28.4779212,16.2314453 C29.3828737,15.1344346 30.6393715,14.5859375 32.2474525,14.5859375 C33.8294917,14.5859375 35.076224,15.1246691 35.9876869,16.2021484 C36.8991498,17.2796278 37.3613847,18.7916569 37.3744056,20.7382812 L37.3744056,23.1699219 Z M34.4935462,20.7871094 C34.4935462,19.5045509 34.3112564,18.5507844 33.9466712,17.9257812 C33.5820861,17.3007781 33.0156855,16.9882812 32.2474525,16.9882812 C31.4857299,16.9882812 30.9225845,17.289385 30.5579994,17.8916016 C30.1934142,18.4938181 30.004614,19.4101501 29.9915931,20.640625 L29.9915931,23.1699219 C29.9915931,24.4134177 30.1771381,25.3297497 30.5482337,25.9189453 C30.9193294,26.508141 31.4922403,26.8027344 32.2669837,26.8027344 C33.0156854,26.8027344 33.5723205,26.5146513 33.9369056,25.9384766 C34.3014908,25.3623018 34.4870358,24.4687561 34.4935462,23.2578125 L34.4935462,20.7871094 Z M38.8262569,29 L38.8262569,14.78125 L42.5860225,14.78125 C44.246187,14.78125 45.569416,15.3085885 46.5557491,16.3632812 C47.5420821,17.417974 48.0450068,18.8632721 48.0645381,20.6992188 L48.0645381,23.0039062 C48.0645381,24.8724052 47.571379,26.3388619 46.5850459,27.4033203 C45.5987129,28.4677788 44.239677,29 42.5078975,29 L38.8262569,29 Z M41.6973506,17.1738281 L41.6973506,26.6171875 L42.5567256,26.6171875 C43.5137617,26.6171875 44.187583,26.3649114 44.57821,25.8603516 C44.9688369,25.3557917 45.173913,24.4850322 45.1934444,23.2480469 L45.1934444,20.7773438 C45.1934444,19.4492121 45.0078994,18.5231146 44.6368037,17.9990234 C44.2657081,17.4749323 43.634204,17.1998699 42.7422725,17.1738281 L41.6973506,17.1738281 Z" id="FOOD" fill="#FFFFFF"></path>
            <path d="M7,52 L7,37.78125 L11.3945312,37.78125 C12.8789137,37.78125 14.0068321,38.1116503 14.7783203,38.7724609 C15.5498085,39.4332715 15.9355469,40.4016863 15.9355469,41.6777344 C15.9355469,42.4003942 15.7760433,43.0221328 15.4570312,43.5429688 C15.1380192,44.0638047 14.7018257,44.4446603 14.1484375,44.6855469 C14.7864615,44.8678395 15.2779931,45.2340467 15.6230469,45.7841797 C15.9681007,46.3343126 16.140625,47.0130168 16.140625,47.8203125 C16.140625,49.2005277 15.761397,50.242184 15.0029297,50.9453125 C14.2444624,51.648441 13.1458405,52 11.7070312,52 L7,52 Z M9.87109375,45.8183594 L9.87109375,49.6171875 L11.7070312,49.6171875 C12.2213567,49.6171875 12.6119778,49.4576839 12.8789062,49.1386719 C13.1458347,48.8196599 13.2792969,48.3671904 13.2792969,47.78125 C13.2792969,46.505202 12.8170619,45.8509116 11.8925781,45.8183594 L9.87109375,45.8183594 Z M9.87109375,43.7285156 L11.3652344,43.7285156 C12.4915421,43.7285156 13.0546875,43.1458392 13.0546875,41.9804688 C13.0546875,41.3359343 12.9244805,40.8736993 12.6640625,40.59375 C12.4036445,40.3138007 11.9804717,40.1738281 11.3945312,40.1738281 L9.87109375,40.1738281 L9.87109375,43.7285156 Z M26.699519,37.78125 L26.699519,47.625 C26.6864981,49.102872 26.2796012,50.2340456 25.4788159,51.0185547 C24.6780307,51.8030638 23.5289536,52.1953125 22.0315503,52.1953125 C20.5081052,52.1953125 19.3443798,51.7981811 18.5403394,51.0039062 C17.7362989,50.2096314 17.3342847,49.0605544 17.3342847,47.5566406 L17.3342847,37.78125 L20.2249097,37.78125 L20.2249097,47.5664062 C20.2249097,48.373702 20.3551167,48.9498681 20.6155347,49.2949219 C20.8759526,49.6399757 21.3479531,49.8125 22.0315503,49.8125 C22.7151475,49.8125 23.1838928,49.6416033 23.4378003,49.2998047 C23.6917078,48.9580061 23.8219148,48.3964883 23.8284253,47.6152344 L23.8284253,37.78125 L26.699519,37.78125 Z M34.1138818,48.2695312 C34.1138818,47.6901013 33.9657713,47.2522801 33.6695459,46.9560547 C33.3733204,46.6598292 32.8345889,46.3522151 32.053335,46.0332031 C30.6275466,45.4928358 29.6021662,44.8597042 28.9771631,44.1337891 C28.35216,43.407874 28.0396631,42.5501352 28.0396631,41.5605469 C28.0396631,40.3626242 28.4644635,39.4007198 29.3140771,38.6748047 C30.1636908,37.9488896 31.2427815,37.5859375 32.5513818,37.5859375 C33.423782,37.5859375 34.201769,37.7698549 34.8853662,38.1376953 C35.5689634,38.5055357 36.0946743,39.0247362 36.4625146,39.6953125 C36.830355,40.3658888 37.0142725,41.1275999 37.0142725,41.9804688 L34.1529443,41.9804688 C34.1529443,41.3164029 34.0113442,40.8102231 33.7281396,40.4619141 C33.4449351,40.113605 33.0364105,39.9394531 32.5025537,39.9394531 C32.0012491,39.9394531 31.610628,40.0875636 31.3306787,40.3837891 C31.0507294,40.6800145 30.9107568,41.0787735 30.9107568,41.5800781 C30.9107568,41.9707051 31.0670053,42.3238917 31.3795068,42.6396484 C31.6920084,42.9554052 32.2453883,43.2825504 33.0396631,43.6210938 C34.4263888,44.1223983 35.4338657,44.7376266 36.062124,45.4667969 C36.6903824,46.1959672 37.0045068,47.1236923 37.0045068,48.25 C37.0045068,49.4869854 36.6106306,50.4537726 35.8228662,51.1503906 C35.0351018,51.8470087 33.964149,52.1953125 32.6099756,52.1953125 C31.6920022,52.1953125 30.8554221,52.0065123 30.10021,51.6289062 C29.3449978,51.2513002 28.7541834,50.710941 28.327749,50.0078125 C27.9013146,49.304684 27.6881006,48.4746142 27.6881006,47.5175781 L30.56896,47.5175781 C30.56896,48.3378947 30.7284636,48.9335919 31.0474756,49.3046875 C31.3664876,49.6757831 31.8873157,49.8613281 32.6099756,49.8613281 C33.6125848,49.8613281 34.1138818,49.3307345 34.1138818,48.2695312 Z M41.1376196,52 L38.2665259,52 L38.2665259,37.78125 L41.1376196,37.78125 L41.1376196,52 Z M52.7219043,52 L49.8508105,52 L45.6515918,42.6738281 L45.6515918,52 L42.780498,52 L42.780498,37.78125 L45.6515918,37.78125 L49.8605762,47.1171875 L49.8605762,37.78125 L52.7219043,37.78125 L52.7219043,52 Z M61.6011108,45.8476562 L57.1284546,45.8476562 L57.1284546,49.6171875 L62.4214233,49.6171875 L62.4214233,52 L54.2573608,52 L54.2573608,37.78125 L62.4018921,37.78125 L62.4018921,40.1738281 L57.1284546,40.1738281 L57.1284546,43.5332031 L61.6011108,43.5332031 L61.6011108,45.8476562 Z M69.3084424,48.2695312 C69.3084424,47.6901013 69.1603319,47.2522801 68.8641064,46.9560547 C68.567881,46.6598292 68.0291494,46.3522151 67.2478955,46.0332031 C65.8221071,45.4928358 64.7967267,44.8597042 64.1717236,44.1337891 C63.5467205,43.407874 63.2342236,42.5501352 63.2342236,41.5605469 C63.2342236,40.3626242 63.659024,39.4007198 64.5086377,38.6748047 C65.3582513,37.9488896 66.4373421,37.5859375 67.7459424,37.5859375 C68.6183425,37.5859375 69.3963296,37.7698549 70.0799267,38.1376953 C70.7635239,38.5055357 71.2892348,39.0247362 71.6570752,39.6953125 C72.0249155,40.3658888 72.208833,41.1275999 72.208833,41.9804688 L69.3475049,41.9804688 C69.3475049,41.3164029 69.2059047,40.8102231 68.9227002,40.4619141 C68.6394956,40.113605 68.2309711,39.9394531 67.6971142,39.9394531 C67.1958096,39.9394531 66.8051885,40.0875636 66.5252392,40.3837891 C66.2452899,40.6800145 66.1053174,41.0787735 66.1053174,41.5800781 C66.1053174,41.9707051 66.2615658,42.3238917 66.5740674,42.6396484 C66.8865689,42.9554052 67.4399488,43.2825504 68.2342236,43.6210938 C69.6209493,44.1223983 70.6284262,44.7376266 71.2566845,45.4667969 C71.8849429,46.1959672 72.1990674,47.1236923 72.1990674,48.25 C72.1990674,49.4869854 71.8051911,50.4537726 71.0174267,51.1503906 C70.2296624,51.8470087 69.1587095,52.1953125 67.8045361,52.1953125 C66.8865628,52.1953125 66.0499826,52.0065123 65.2947705,51.6289062 C64.5395584,51.2513002 63.948744,50.710941 63.5223095,50.0078125 C63.0958751,49.304684 62.8826611,48.4746142 62.8826611,47.5175781 L65.7635205,47.5175781 C65.7635205,48.3378947 65.9230241,48.9335919 66.2420361,49.3046875 C66.5610481,49.6757831 67.0818762,49.8613281 67.8045361,49.8613281 C68.8071453,49.8613281 69.3084424,49.3307345 69.3084424,48.2695312 Z M79.3399926,48.2695312 C79.3399926,47.6901013 79.1918821,47.2522801 78.8956567,46.9560547 C78.5994313,46.6598292 78.0606997,46.3522151 77.2794458,46.0332031 C75.8536574,45.4928358 74.828277,44.8597042 74.2032739,44.1337891 C73.5782708,43.407874 73.2657739,42.5501352 73.2657739,41.5605469 C73.2657739,40.3626242 73.6905743,39.4007198 74.540188,38.6748047 C75.3898016,37.9488896 76.4688923,37.5859375 77.7774926,37.5859375 C78.6498928,37.5859375 79.4278798,37.7698549 80.111477,38.1376953 C80.7950742,38.5055357 81.3207851,39.0247362 81.6886255,39.6953125 C82.0564658,40.3658888 82.2403833,41.1275999 82.2403833,41.9804688 L79.3790551,41.9804688 C79.3790551,41.3164029 79.237455,40.8102231 78.9542505,40.4619141 C78.6710459,40.113605 78.2625214,39.9394531 77.7286645,39.9394531 C77.2273599,39.9394531 76.8367388,40.0875636 76.5567895,40.3837891 C76.2768402,40.6800145 76.1368676,41.0787735 76.1368676,41.5800781 C76.1368676,41.9707051 76.2931161,42.3238917 76.6056176,42.6396484 C76.9181192,42.9554052 77.4714991,43.2825504 78.2657739,43.6210938 C79.6524996,44.1223983 80.6599765,44.7376266 81.2882348,45.4667969 C81.9164932,46.1959672 82.2306176,47.1236923 82.2306176,48.25 C82.2306176,49.4869854 81.8367414,50.4537726 81.048977,51.1503906 C80.2612127,51.8470087 79.1902598,52.1953125 77.8360864,52.1953125 C76.9181131,52.1953125 76.0815329,52.0065123 75.3263208,51.6289062 C74.5711087,51.2513002 73.9802943,50.710941 73.5538598,50.0078125 C73.1274254,49.304684 72.9142114,48.4746142 72.9142114,47.5175781 L75.7950708,47.5175781 C75.7950708,48.3378947 75.9545744,48.9335919 76.2735864,49.3046875 C76.5925984,49.6757831 77.1134265,49.8613281 77.8360864,49.8613281 C78.8386956,49.8613281 79.3399926,49.3307345 79.3399926,48.2695312 Z M11.3066406,67.8046875 L9.88085938,67.8046875 L9.88085938,73 L7.00976562,73 L7.00976562,58.78125 L11.5898438,58.78125 C13.028653,58.78125 14.1402956,59.1539676 14.9248047,59.8994141 C15.7093138,60.6448605 16.1015625,61.7044202 16.1015625,63.078125 C16.1015625,64.9661553 15.4147204,66.2877566 14.0410156,67.0429688 L16.53125,72.8632812 L16.53125,73 L13.4453125,73 L11.3066406,67.8046875 Z M9.88085938,65.4121094 L11.5117188,65.4121094 C12.0846383,65.4121094 12.5143215,65.2216816 12.8007812,64.8408203 C13.087241,64.459959 13.2304688,63.950524 13.2304688,63.3125 C13.2304688,61.8867116 12.6738337,61.1738281 11.5605469,61.1738281 L9.88085938,61.1738281 L9.88085938,65.4121094 Z M26.5530347,58.78125 L26.5530347,68.625 C26.5400138,70.102872 26.1331168,71.2340456 25.3323315,72.0185547 C24.5315463,72.8030638 23.3824692,73.1953125 21.8850659,73.1953125 C20.3616208,73.1953125 19.1978955,72.7981811 18.393855,72.0039062 C17.5898145,71.2096314 17.1878003,70.0605544 17.1878003,68.5566406 L17.1878003,58.78125 L20.0784253,58.78125 L20.0784253,68.5664062 C20.0784253,69.373702 20.2086323,69.9498681 20.4690503,70.2949219 C20.7294683,70.6399757 21.2014687,70.8125 21.8850659,70.8125 C22.5686631,70.8125 23.0374084,70.6416033 23.2913159,70.2998047 C23.5452234,69.9580061 23.6754305,69.3964883 23.6819409,68.6152344 L23.6819409,58.78125 L26.5530347,58.78125 Z M33.9673975,69.2695312 C33.9673975,68.6901013 33.819287,68.2522801 33.5230615,67.9560547 C33.2268361,67.6598292 32.6881045,67.3522151 31.9068506,67.0332031 C30.4810622,66.4928358 29.4556818,65.8597042 28.8306787,65.1337891 C28.2056756,64.407874 27.8931787,63.5501352 27.8931787,62.5605469 C27.8931787,61.3626242 28.3179791,60.4007198 29.1675928,59.6748047 C30.0172064,58.9488896 31.0962972,58.5859375 32.4048975,58.5859375 C33.2772976,58.5859375 34.0552847,58.7698549 34.7388818,59.1376953 C35.422479,59.5055357 35.9481899,60.0247362 36.3160303,60.6953125 C36.6838706,61.3658888 36.8677881,62.1275999 36.8677881,62.9804688 L34.00646,62.9804688 C34.00646,62.3164029 33.8648598,61.8102231 33.5816553,61.4619141 C33.2984507,61.113605 32.8899262,60.9394531 32.3560693,60.9394531 C31.8547647,60.9394531 31.4641436,61.0875636 31.1841943,61.3837891 C30.904245,61.6800145 30.7642725,62.0787735 30.7642725,62.5800781 C30.7642725,62.9707051 30.9205209,63.3238917 31.2330225,63.6396484 C31.545524,63.9554052 32.0989039,64.2825504 32.8931787,64.6210938 C34.2799044,65.1223983 35.2873813,65.7376266 35.9156396,66.4667969 C36.543898,67.1959672 36.8580225,68.1236923 36.8580225,69.25 C36.8580225,70.4869854 36.4641462,71.4537726 35.6763818,72.1503906 C34.8886175,72.8470087 33.8176646,73.1953125 32.4634912,73.1953125 C31.5455179,73.1953125 30.7089377,73.0065123 29.9537256,72.6289062 C29.1985135,72.2513002 28.6076991,71.710941 28.1812646,71.0078125 C27.7548302,70.304684 27.5416162,69.4746142 27.5416162,68.5175781 L30.4224756,68.5175781 C30.4224756,69.3378947 30.5819792,69.9335919 30.9009912,70.3046875 C31.2200032,70.6757831 31.7408313,70.8613281 32.4634912,70.8613281 C33.4661004,70.8613281 33.9673975,70.3307345 33.9673975,69.2695312 Z M43.9989477,69.2695312 C43.9989477,68.6901013 43.8508372,68.2522801 43.5546118,67.9560547 C43.2583864,67.6598292 42.7196548,67.3522151 41.9384009,67.0332031 C40.5126125,66.4928358 39.4872321,65.8597042 38.862229,65.1337891 C38.2372259,64.407874 37.924729,63.5501352 37.924729,62.5605469 C37.924729,61.3626242 38.3495294,60.4007198 39.1991431,59.6748047 C40.0487567,58.9488896 41.1278474,58.5859375 42.4364477,58.5859375 C43.3088479,58.5859375 44.0868349,58.7698549 44.7704321,59.1376953 C45.4540293,59.5055357 45.9797402,60.0247362 46.3475806,60.6953125 C46.7154209,61.3658888 46.8993384,62.1275999 46.8993384,62.9804688 L44.0380102,62.9804688 C44.0380102,62.3164029 43.8964101,61.8102231 43.6132056,61.4619141 C43.330001,61.113605 42.9214765,60.9394531 42.3876196,60.9394531 C41.886315,60.9394531 41.4956939,61.0875636 41.2157446,61.3837891 C40.9357953,61.6800145 40.7958227,62.0787735 40.7958227,62.5800781 C40.7958227,62.9707051 40.9520712,63.3238917 41.2645727,63.6396484 C41.5770743,63.9554052 42.1304542,64.2825504 42.924729,64.6210938 C44.3114547,65.1223983 45.3189316,65.7376266 45.9471899,66.4667969 C46.5754483,67.1959672 46.8895727,68.1236923 46.8895727,69.25 C46.8895727,70.4869854 46.4956965,71.4537726 45.7079321,72.1503906 C44.9201678,72.8470087 43.8492149,73.1953125 42.4950415,73.1953125 C41.5770681,73.1953125 40.740488,73.0065123 39.9852759,72.6289062 C39.2300638,72.2513002 38.6392494,71.710941 38.2128149,71.0078125 C37.7863805,70.304684 37.5731665,69.4746142 37.5731665,68.5175781 L40.4540259,68.5175781 C40.4540259,69.3378947 40.6135295,69.9335919 40.9325415,70.3046875 C41.2515535,70.6757831 41.7723816,70.8613281 42.4950415,70.8613281 C43.4976507,70.8613281 43.9989477,70.3307345 43.9989477,69.2695312 Z M51.0226855,73 L48.1515918,73 L48.1515918,58.78125 L51.0226855,58.78125 L51.0226855,73 Z M59.6284546,70.0898438 L55.7124389,70.0898438 L54.9507202,73 L51.9136108,73 L56.3569702,58.78125 L58.9839233,58.78125 L63.4565796,73 L60.3901733,73 L59.6284546,70.0898438 Z M56.3374389,67.6972656 L58.9936889,67.6972656 L57.6655639,62.6289062 L56.3374389,67.6972656 Z" id="BUSINESS-RUSSIA" fill="#2B2A29"></path>
        </g>
    </g>
</svg>