<?xml version="1.0" encoding="UTF-8"?>
<svg width="90px" height="85px" viewBox="0 0 90 85" version="1.1" xmlns="http://www.w3.org/2000/svg" xmlns:xlink="http://www.w3.org/1999/xlink">
    <!-- Generator: Sketch 47.1 (45422) - http://www.bohemiancoding.com/sketch -->
    <title>modern-bakery-moscow</title>
    <desc>Created with Sketch.</desc>
    <defs></defs>
    <g id="Главная" stroke="none" stroke-width="1" fill="none" fill-rule="evenodd">
        <g id="Group-34" transform="translate(-330.000000, -105.000000)">
            <g id="modern-bakery-moscow" transform="translate(330.000000, 105.000000)">
                <rect id="Rectangle-4-Copy-2" fill="#FFFFFF" x="0" y="0" width="90" height="85" rx="1.69811321"></rect>
                <rect id="Rectangle-11" fill="#EE623D" x="-8.5975671e-13" y="10" width="90" height="21"></rect>
                <path d="M17.92,14.1 L15.2,14.1 L11.97,19.387 L8.74,14.1 L6.02,14.1 L6.02,26 L8.74,26 L8.74,19.081 L11.817,24.13 L12.123,24.13 L15.2,19.081 L15.2,26 L17.92,26 L17.92,14.1 Z M25.638,26.238 C22.221,26.238 19.45,23.552 19.45,20.05 C19.45,16.548 22.221,13.862 25.638,13.862 C29.055,13.862 31.826,16.548 31.826,20.05 C31.826,23.552 29.055,26.238 25.638,26.238 Z M25.638,23.586 C27.576,23.586 29.106,22.175 29.106,20.05 C29.106,17.925 27.576,16.514 25.638,16.514 C23.7,16.514 22.17,17.925 22.17,20.05 C22.17,22.175 23.7,23.586 25.638,23.586 Z M38.116,14.1 C41.397,14.1 43.896,16.684 43.896,20.05 C43.896,23.416 41.397,26 38.116,26 L33.356,26 L33.356,14.1 L38.116,14.1 Z M38.116,23.382 C39.986,23.382 41.278,22.09 41.278,20.05 C41.278,18.01 39.986,16.718 38.116,16.718 L36.076,16.718 L36.076,23.382 L38.116,23.382 Z M48.146,23.382 L48.146,21.274 L52.396,21.274 L52.396,18.69 L48.146,18.69 L48.146,16.718 L52.821,16.718 L52.821,14.1 L45.426,14.1 L45.426,26 L52.906,26 L52.906,23.382 L48.146,23.382 Z M60.692,26 L58.448,22.09 L57.156,22.09 L57.156,26 L54.436,26 L54.436,14.1 L59.196,14.1 C61.457,14.1 63.276,15.919 63.276,18.18 C63.276,19.642 62.392,20.968 61.083,21.631 L63.616,26 L60.692,26 Z M57.156,16.65 L57.156,19.71 L59.196,19.71 C59.944,19.71 60.556,19.047 60.556,18.18 C60.556,17.313 59.944,16.65 59.196,16.65 L57.156,16.65 Z M71.521,14.1 L71.521,20.56 L66.931,14.1 L64.891,14.1 L64.891,26 L67.611,26 L67.611,19.54 L72.201,26 L74.241,26 L74.241,14.1 L71.521,14.1 Z" id="MODERN" fill="#FFFFFF"></path>
                <path d="M10.828125,50 L6.4296875,50 L6.4296875,38.7265625 L10.7421875,38.7265625 C11.778651,38.7265625 12.593747,38.9791641 13.1875,39.484375 C13.781253,39.9895859 14.078125,40.6744748 14.078125,41.5390625 C14.078125,42.1223988 13.8893248,42.6484352 13.5117188,43.1171875 C13.1341127,43.5859398 12.6744819,43.8697912 12.1328125,43.96875 L12.1328125,44.09375 C12.9036497,44.1927088 13.5156227,44.4882788 13.96875,44.9804688 C14.4218773,45.4726587 14.6484375,46.0911421 14.6484375,46.8359375 C14.6484375,47.8255258 14.3112013,48.6002576 13.6367188,49.1601562 C12.9622362,49.7200549 12.0260477,50 10.828125,50 Z M7.8359375,39.96875 L7.8359375,43.5859375 L10.0859375,43.5859375 C10.9401084,43.5859375 11.5820291,43.4348973 12.0117188,43.1328125 C12.4414084,42.8307277 12.65625,42.3802113 12.65625,41.78125 C12.65625,41.2083305 12.4622415,40.7630224 12.0742188,40.4453125 C11.686196,40.1276026 11.1432327,39.96875 10.4453125,39.96875 L7.8359375,39.96875 Z M7.8359375,48.7578125 L10.6171875,48.7578125 C11.4661501,48.7578125 12.1093728,48.5885434 12.546875,48.25 C12.9843772,47.9114566 13.203125,47.4166699 13.203125,46.765625 C13.203125,46.1145801 12.9752627,45.6236996 12.5195312,45.2929688 C12.0637998,44.9622379 11.3854212,44.796875 10.484375,44.796875 L7.8359375,44.796875 L7.8359375,48.7578125 Z M23.9609375,50 L23.7890625,49.5117188 C23.6744786,49.1861963 23.5429695,48.8112 23.3945312,48.3867188 C23.246093,47.9622375 23.1145839,47.5872412 23,47.2617188 L22.828125,46.7734375 L18.34375,46.7734375 L17.2109375,50 L15.734375,50 L19.890625,38.7265625 L21.28125,38.7265625 L25.4375,50 L23.9609375,50 Z M20.5234375,40.546875 L20.34375,41.0546875 C20.2239577,41.3932309 20.0768238,41.8124975 19.9023438,42.3125 L19.3789062,43.8125 C19.2044262,44.3125025 19.0572923,44.7317691 18.9375,45.0703125 L18.7578125,45.578125 L22.4140625,45.578125 L20.6484375,40.546875 L20.5234375,40.546875 Z M28.5078125,50 L28.5078125,46.0625 L29.859375,44.5703125 L33.9296875,50 L35.75,50 L30.828125,43.59375 L35.3359375,38.7265625 L33.5703125,38.7265625 L28.6328125,44.203125 L28.5078125,44.203125 L28.5078125,38.7265625 L27.1015625,38.7265625 L27.1015625,50 L28.5078125,50 Z M44.3125,48.734375 L38.734375,48.734375 L38.734375,44.859375 L44.0234375,44.859375 L44.0234375,43.609375 L38.734375,43.609375 L38.734375,39.9921875 L44.3125,39.9921875 L44.3125,38.7265625 L37.328125,38.7265625 L37.328125,50 L44.3125,50 L44.3125,48.734375 Z M47.953125,39.9765625 L47.953125,44.2890625 L50.7265625,44.2890625 C51.4505245,44.2890625 52.0091126,44.1028664 52.4023438,43.7304688 C52.7955749,43.3580711 52.9921875,42.8255243 52.9921875,42.1328125 C52.9921875,41.4557258 52.7864604,40.9270852 52.375,40.546875 C51.9635396,40.1666648 51.3932328,39.9765625 50.6640625,39.9765625 L47.953125,39.9765625 Z M47.953125,45.5390625 L47.953125,50 L46.546875,50 L46.546875,38.7265625 L50.8515625,38.7265625 C51.9401096,38.7265625 52.8111946,39.032549 53.4648438,39.6445312 C54.1184929,40.2565135 54.4453125,41.0703074 54.4453125,42.0859375 C54.4453125,42.8723998 54.2447937,43.5520805 53.84375,44.125 C53.4427063,44.6979195 52.8880244,45.096353 52.1796875,45.3203125 L54.7890625,50 L53.140625,50 L50.7265625,45.5390625 L47.953125,45.5390625 Z M61.203125,50 L61.203125,45.1484375 L65.203125,38.7265625 L63.6015625,38.7265625 L60.5625,43.734375 L60.4375,43.734375 L57.3984375,38.7265625 L55.796875,38.7265625 L59.796875,45.1484375 L59.796875,50 L61.203125,50 Z M17.5390625,69 L17.5390625,57.7265625 L15.90625,57.7265625 L12.046875,67.0546875 L11.921875,67.0546875 L8.0625,57.7265625 L6.4296875,57.7265625 L6.4296875,69 L7.7421875,69 L7.7421875,60.390625 L7.8359375,60.390625 L11.390625,68.921875 L12.578125,68.921875 L16.1328125,60.390625 L16.2265625,60.390625 L16.2265625,69 L17.5390625,69 Z M24.84375,57.4609375 C26.4479247,57.4609375 27.7083287,57.9921822 28.625,59.0546875 C29.5416713,60.1171928 30,61.5520743 30,63.359375 C30,65.1614673 29.5429733,66.5963488 28.6289062,67.6640625 C27.7148392,68.7317762 26.453133,69.265625 24.84375,69.265625 C23.2291586,69.265625 21.9622442,68.7317762 21.0429688,67.6640625 C20.1236933,66.5963488 19.6640625,65.1614673 19.6640625,63.359375 C19.6640625,61.5468659 20.1289016,60.1106824 21.0585938,59.0507812 C21.9882859,57.9908801 23.249992,57.4609375 24.84375,57.4609375 Z M24.84375,58.7578125 C23.6979109,58.7578125 22.7890659,59.1718709 22.1171875,60 C21.4453091,60.8281291 21.109375,61.9479096 21.109375,63.359375 C21.109375,64.7552153 21.4387988,65.8723916 22.0976562,66.7109375 C22.7565137,67.5494834 23.6718691,67.96875 24.84375,67.96875 C26.0000058,67.96875 26.9075488,67.5494834 27.5664062,66.7109375 C28.2252637,65.8723916 28.5546875,64.7552153 28.5546875,63.359375 C28.5546875,61.9479096 28.2239616,60.8281291 27.5625,60 C26.9010384,59.1718709 25.9947974,58.7578125 24.84375,58.7578125 Z M31.5859375,66.0546875 C31.6588545,67.0286507 32.0768191,67.8072887 32.8398438,68.390625 C33.6028684,68.9739613 34.5807232,69.265625 35.7734375,69.265625 C37.0651106,69.265625 38.08984,68.9596385 38.8476562,68.3476562 C39.6054725,67.735674 39.984375,66.9114635 39.984375,65.875 C39.984375,65.0468709 39.7304713,64.3880233 39.2226562,63.8984375 C38.7148412,63.4088517 37.87761,63.0182306 36.7109375,62.7265625 L35.53125,62.4140625 C34.7552045,62.2161448 34.1992204,61.979168 33.8632812,61.703125 C33.5273421,61.427082 33.359375,61.0677105 33.359375,60.625 C33.359375,60.0520805 33.5872373,59.5937517 34.0429688,59.25 C34.4987002,58.9062483 35.1015587,58.734375 35.8515625,58.734375 C36.554691,58.734375 37.1315082,58.8971338 37.5820312,59.2226562 C38.0325543,59.5481787 38.3072912,59.9999971 38.40625,60.578125 L39.8203125,60.578125 C39.7630205,59.6666621 39.3671912,58.9192738 38.6328125,58.3359375 C37.8984338,57.7526012 36.9869846,57.4609375 35.8984375,57.4609375 C34.7057232,57.4609375 33.7434932,57.7565075 33.0117188,58.3476562 C32.2799443,58.938805 31.9140625,59.7135369 31.9140625,60.671875 C31.9140625,61.4739623 32.145831,62.115883 32.609375,62.5976562 C33.072919,63.0794295 33.8150991,63.4505195 34.8359375,63.7109375 L36.28125,64.0859375 C37.0572955,64.2786468 37.6276023,64.5338526 37.9921875,64.8515625 C38.3567727,65.1692724 38.5390625,65.5677059 38.5390625,66.046875 C38.5390625,66.6041695 38.2903671,67.0664044 37.7929688,67.4335938 C37.2955704,67.8007831 36.6666705,67.984375 35.90625,67.984375 C35.1041627,67.984375 34.4427109,67.8098976 33.921875,67.4609375 C33.4010391,67.1119774 33.0963546,66.6432321 33.0078125,66.0546875 L31.5859375,66.0546875 Z M46.546875,69.265625 C47.7447977,69.265625 48.7565063,68.9570343 49.5820312,68.3398438 C50.4075562,67.7226532 50.9140616,66.8958385 51.1015625,65.859375 L49.671875,65.859375 C49.4947908,66.5104199 49.1263049,67.0247377 48.5664062,67.4023438 C48.0065076,67.7799498 47.3333373,67.96875 46.546875,67.96875 C45.4635363,67.96875 44.6041698,67.5546916 43.96875,66.7265625 C43.3333302,65.8984334 43.015625,64.7786529 43.015625,63.3671875 C43.015625,61.9505137 43.3320281,60.8281291 43.9648438,60 C44.5976594,59.1718709 45.4557238,58.7578125 46.5390625,58.7578125 C47.315108,58.7578125 47.9843722,58.97005 48.546875,59.3945312 C49.1093778,59.8190125 49.4843741,60.3958297 49.671875,61.125 L51.1015625,61.125 C50.934895,60.0364529 50.4296917,59.1536492 49.5859375,58.4765625 C48.7421833,57.7994758 47.7265684,57.4609375 46.5390625,57.4609375 C45.0078048,57.4609375 43.7968795,57.989578 42.90625,59.046875 C42.0156205,60.104172 41.5703125,61.5442617 41.5703125,63.3671875 C41.5703125,65.1849049 42.0169226,66.6223905 42.9101562,67.6796875 C43.8033899,68.7369845 45.0156173,69.265625 46.546875,69.265625 Z M57.890625,57.4609375 C59.4947997,57.4609375 60.7552038,57.9921822 61.671875,59.0546875 C62.5885462,60.1171928 63.046875,61.5520743 63.046875,63.359375 C63.046875,65.1614673 62.5898483,66.5963488 61.6757812,67.6640625 C60.7617142,68.7317762 59.500008,69.265625 57.890625,69.265625 C56.2760336,69.265625 55.0091192,68.7317762 54.0898438,67.6640625 C53.1705683,66.5963488 52.7109375,65.1614673 52.7109375,63.359375 C52.7109375,61.5468659 53.1757766,60.1106824 54.1054688,59.0507812 C55.0351609,57.9908801 56.296867,57.4609375 57.890625,57.4609375 Z M57.890625,58.7578125 C56.7447859,58.7578125 55.8359409,59.1718709 55.1640625,60 C54.4921841,60.8281291 54.15625,61.9479096 54.15625,63.359375 C54.15625,64.7552153 54.4856738,65.8723916 55.1445312,66.7109375 C55.8033887,67.5494834 56.7187441,67.96875 57.890625,67.96875 C59.0468808,67.96875 59.9544238,67.5494834 60.6132812,66.7109375 C61.2721387,65.8723916 61.6015625,64.7552153 61.6015625,63.359375 C61.6015625,61.9479096 61.2708366,60.8281291 60.609375,60 C59.9479134,59.1718709 59.0416724,58.7578125 57.890625,58.7578125 Z M71.4296875,60.1015625 L71.5234375,60.1015625 L74.1171875,69 L75.4453125,69 L78.515625,57.7265625 L77.046875,57.7265625 L74.8046875,66.890625 L74.7109375,66.890625 L72.1875,57.7265625 L70.765625,57.7265625 L68.2421875,66.890625 L68.1484375,66.890625 L65.90625,57.7265625 L64.4375,57.7265625 L67.5078125,69 L68.8359375,69 L69.0234375,68.3554688 C69.1484381,67.9257791 69.3098948,67.3737013 69.5078125,66.6992188 C69.7057302,66.0247362 69.9140614,65.3085975 70.1328125,64.5507812 C70.3515636,63.792965 70.5598948,63.0768263 70.7578125,62.4023438 C70.9557302,61.7278612 71.1171869,61.1757834 71.2421875,60.7460938 L71.4296875,60.1015625 Z" id="BAKERY-MOSCOW" fill="#2B2A29" opacity="0.849999964"></path>
            </g>
        </g>
    </g>
</svg>