<?xml version="1.0" encoding="UTF-8"?>
<svg width="92px" height="87px" viewBox="0 0 92 87" version="1.1" xmlns="http://www.w3.org/2000/svg" xmlns:xlink="http://www.w3.org/1999/xlink">
    <!-- Generator: Sketch 46.2 (44496) - http://www.bohemiancoding.com/sketch -->
    <title>3 onlineRetailRussia/square</title>
    <desc>Created with Sketch.</desc>
    <defs></defs>
    <g id="Icons" stroke="none" stroke-width="1" fill="none" fill-rule="evenodd">
        <g id="3-onlineRetailRussia/square">
            <g id="Group-67">
                <g id="Group-24">
                    <rect id="Rectangle-4-Copy-2" fill="#FFFFFF" x="0" y="0" width="92" height="87" rx="2"></rect>
                    <path d="M2,0 L90,0 L90,0 C91.1045695,-2.02906125e-16 92,0.8954305 92,2 L92,32 L0,32 L0,2 L0,2 C-1.3527075e-16,0.8954305 0.8954305,2.02906125e-16 2,0 Z" id="Rectangle-11" fill="#49B5E8"></path>
                </g>
                <g id="Group-13" transform="translate(6.094340, 20.339623)">
                    <g id="Bitmap"></g>
                </g>
            </g>
            <path d="M17.2539062,23.1699219 C17.2539062,25.0774835 16.8030644,26.5585885 15.9013672,27.6132812 C14.99967,28.667974 13.7480549,29.1953125 12.1464844,29.1953125 C10.5514243,29.1953125 9.29818164,28.6728568 8.38671875,27.6279297 C7.47525586,26.5830026 7.0130209,25.1198011 7,23.2382812 L7,20.8066406 C7,18.8535059 7.45246943,17.328456 8.35742188,16.2314453 C9.26237432,15.1344346 10.5188722,14.5859375 12.1269531,14.5859375 C13.7089923,14.5859375 14.9557246,15.1246691 15.8671875,16.2021484 C16.7786504,17.2796278 17.2408854,18.7916569 17.2539062,20.7382812 L17.2539062,23.1699219 Z M14.3730469,20.7871094 C14.3730469,19.5045509 14.190757,18.5507844 13.8261719,17.9257812 C13.4615867,17.3007781 12.8951861,16.9882812 12.1269531,16.9882812 C11.3652306,16.9882812 10.8020852,17.289385 10.4375,17.8916016 C10.0729148,18.4938181 9.88411465,19.4101501 9.87109375,20.640625 L9.87109375,23.1699219 C9.87109375,24.4134177 10.0566388,25.3297497 10.4277344,25.9189453 C10.79883,26.508141 11.3717409,26.8027344 12.1464844,26.8027344 C12.895186,26.8027344 13.4518211,26.5146513 13.8164062,25.9384766 C14.1809914,25.3623018 14.3665364,24.4687561 14.3730469,23.2578125 L14.3730469,20.7871094 Z M28.5558594,29 L25.6847656,29 L21.4855469,19.6738281 L21.4855469,29 L18.6144531,29 L18.6144531,14.78125 L21.4855469,14.78125 L25.6945313,24.1171875 L25.6945313,14.78125 L28.5558594,14.78125 L28.5558594,29 Z M33.0316406,26.6171875 L38.0707031,26.6171875 L38.0707031,29 L30.1605469,29 L30.1605469,14.78125 L33.0316406,14.78125 L33.0316406,26.6171875 Z M42.0289063,29 L39.1578125,29 L39.1578125,14.78125 L42.0289063,14.78125 L42.0289063,29 Z M53.6824219,29 L50.8113282,29 L46.6121094,19.6738281 L46.6121094,29 L43.7410157,29 L43.7410157,14.78125 L46.6121094,14.78125 L50.8210938,24.1171875 L50.8210938,14.78125 L53.6824219,14.78125 L53.6824219,29 Z M62.6308594,22.8476562 L58.1582032,22.8476562 L58.1582032,26.6171875 L63.4511719,26.6171875 L63.4511719,29 L55.2871094,29 L55.2871094,14.78125 L63.4316407,14.78125 L63.4316407,17.1738281 L58.1582032,17.1738281 L58.1582032,20.5332031 L62.6308594,20.5332031 L62.6308594,22.8476562 Z" id="ONLINE" fill="#FFFFFF"></path>
            <path d="M11.296875,46.8046875 L9.87109375,46.8046875 L9.87109375,52 L7,52 L7,37.78125 L11.5800781,37.78125 C13.0188874,37.78125 14.1305299,38.1539676 14.9150391,38.8994141 C15.6995482,39.6448605 16.0917969,40.7044202 16.0917969,42.078125 C16.0917969,43.9661553 15.4049548,45.2877566 14.03125,46.0429688 L16.5214844,51.8632812 L16.5214844,52 L13.4355469,52 L11.296875,46.8046875 Z M9.87109375,44.4121094 L11.5019531,44.4121094 C12.0748727,44.4121094 12.5045559,44.2216816 12.7910156,43.8408203 C13.0774754,43.459959 13.2207031,42.950524 13.2207031,42.3125 C13.2207031,40.8867116 12.6640681,40.1738281 11.5507812,40.1738281 L9.87109375,40.1738281 L9.87109375,44.4121094 Z M24.7082031,45.8476562 L20.2355469,45.8476562 L20.2355469,49.6171875 L25.5285156,49.6171875 L25.5285156,52 L17.3644531,52 L17.3644531,37.78125 L25.5089844,37.78125 L25.5089844,40.1738281 L20.2355469,40.1738281 L20.2355469,43.5332031 L24.7082031,43.5332031 L24.7082031,45.8476562 Z M35.8832031,40.1738281 L32.3675781,40.1738281 L32.3675781,52 L29.4867188,52 L29.4867188,40.1738281 L26.0296875,40.1738281 L26.0296875,37.78125 L35.8832031,37.78125 L35.8832031,40.1738281 Z M42.4488282,49.0898438 L38.5328125,49.0898438 L37.7710938,52 L34.7339844,52 L39.1773438,37.78125 L41.8042969,37.78125 L46.2769532,52 L43.2105469,52 L42.4488282,49.0898438 Z M39.1578125,46.6972656 L41.8140625,46.6972656 L40.4859375,41.6289062 L39.1578125,46.6972656 Z M49.903125,52 L47.0320313,52 L47.0320313,37.78125 L49.903125,37.78125 L49.903125,52 Z M54.4863282,49.6171875 L59.5253907,49.6171875 L59.5253907,52 L51.6152344,52 L51.6152344,37.78125 L54.4863282,37.78125 L54.4863282,49.6171875 Z M11.296875,67.8046875 L9.87109375,67.8046875 L9.87109375,73 L7,73 L7,58.78125 L11.5800781,58.78125 C13.0188874,58.78125 14.1305299,59.1539676 14.9150391,59.8994141 C15.6995482,60.6448605 16.0917969,61.7044202 16.0917969,63.078125 C16.0917969,64.9661553 15.4049548,66.2877566 14.03125,67.0429688 L16.5214844,72.8632812 L16.5214844,73 L13.4355469,73 L11.296875,67.8046875 Z M9.87109375,65.4121094 L11.5019531,65.4121094 C12.0748727,65.4121094 12.5045559,65.2216816 12.7910156,64.8408203 C13.0774754,64.459959 13.2207031,63.950524 13.2207031,63.3125 C13.2207031,61.8867116 12.6640681,61.1738281 11.5507812,61.1738281 L9.87109375,61.1738281 L9.87109375,65.4121094 Z M26.6125,58.78125 L26.6125,68.625 C26.5994791,70.102872 26.1925821,71.2340456 25.3917969,72.0185547 C24.5910116,72.8030638 23.4419346,73.1953125 21.9445313,73.1953125 C20.4210861,73.1953125 19.2573608,72.7981811 18.4533203,72.0039062 C17.6492798,71.2096314 17.2472656,70.0605544 17.2472656,68.5566406 L17.2472656,58.78125 L20.1378906,58.78125 L20.1378906,68.5664062 C20.1378906,69.373702 20.2680977,69.9498681 20.5285156,70.2949219 C20.7889336,70.6399757 21.2609341,70.8125 21.9445313,70.8125 C22.6281284,70.8125 23.0968737,70.6416033 23.3507813,70.2998047 C23.6046888,69.9580061 23.7348958,69.3964883 23.7414063,68.6152344 L23.7414063,58.78125 L26.6125,58.78125 Z M34.0960938,69.2695312 C34.0960938,68.6901013 33.9479833,68.2522801 33.6517578,67.9560547 C33.3555324,67.6598292 32.8168008,67.3522151 32.0355469,67.0332031 C30.6097585,66.4928358 29.5843781,65.8597042 28.959375,65.1337891 C28.3343719,64.407874 28.021875,63.5501352 28.021875,62.5605469 C28.021875,61.3626242 28.4466755,60.4007198 29.2962891,59.6748047 C30.1459027,58.9488896 31.2249935,58.5859375 32.5335938,58.5859375 C33.405994,58.5859375 34.183981,58.7698549 34.8675781,59.1376953 C35.5511753,59.5055357 36.0768862,60.0247362 36.4447266,60.6953125 C36.812567,61.3658888 36.9964844,62.1275999 36.9964844,62.9804688 L34.1351563,62.9804688 C34.1351563,62.3164029 33.9935561,61.8102231 33.7103516,61.4619141 C33.427147,61.113605 33.0186225,60.9394531 32.4847656,60.9394531 C31.9834611,60.9394531 31.59284,61.0875636 31.3128906,61.3837891 C31.0329413,61.6800145 30.8929688,62.0787735 30.8929688,62.5800781 C30.8929688,62.9707051 31.0492172,63.3238917 31.3617188,63.6396484 C31.6742203,63.9554052 32.2276002,64.2825504 33.021875,64.6210938 C34.4086007,65.1223983 35.4160776,65.7376266 36.044336,66.4667969 C36.6725943,67.1959672 36.9867188,68.1236923 36.9867188,69.25 C36.9867188,70.4869854 36.5928425,71.4537726 35.8050781,72.1503906 C35.0173138,72.8470087 33.946361,73.1953125 32.5921875,73.1953125 C31.6742142,73.1953125 30.837634,73.0065123 30.0824219,72.6289062 C29.3272098,72.2513002 28.7363954,71.710941 28.309961,71.0078125 C27.8835265,70.304684 27.6703125,69.4746142 27.6703125,68.5175781 L30.5511719,68.5175781 C30.5511719,69.3378947 30.7106755,69.9335919 31.0296875,70.3046875 C31.3486995,70.6757831 31.8695277,70.8613281 32.5921875,70.8613281 C33.5947967,70.8613281 34.0960938,70.3307345 34.0960938,69.2695312 Z M44.196875,69.2695312 C44.196875,68.6901013 44.0487645,68.2522801 43.7525391,67.9560547 C43.4563137,67.6598292 42.9175821,67.3522151 42.1363282,67.0332031 C40.7105398,66.4928358 39.6851594,65.8597042 39.0601563,65.1337891 C38.4351532,64.407874 38.1226563,63.5501352 38.1226563,62.5605469 C38.1226563,61.3626242 38.5474567,60.4007198 39.3970703,59.6748047 C40.246684,58.9488896 41.3257747,58.5859375 42.634375,58.5859375 C43.5067752,58.5859375 44.2847622,58.7698549 44.9683594,59.1376953 C45.6519566,59.5055357 46.1776675,60.0247362 46.5455078,60.6953125 C46.9133482,61.3658888 47.0972657,62.1275999 47.0972657,62.9804688 L44.2359375,62.9804688 C44.2359375,62.3164029 44.0943374,61.8102231 43.8111328,61.4619141 C43.5279283,61.113605 43.1194037,60.9394531 42.5855469,60.9394531 C42.0842423,60.9394531 41.6936212,61.0875636 41.4136719,61.3837891 C41.1337226,61.6800145 40.99375,62.0787735 40.99375,62.5800781 C40.99375,62.9707051 41.1499985,63.3238917 41.4625,63.6396484 C41.7750016,63.9554052 42.3283815,64.2825504 43.1226563,64.6210938 C44.509382,65.1223983 45.5168589,65.7376266 46.1451172,66.4667969 C46.7733756,67.1959672 47.0875,68.1236923 47.0875,69.25 C47.0875,70.4869854 46.6936238,71.4537726 45.9058594,72.1503906 C45.1180951,72.8470087 44.0471422,73.1953125 42.6929688,73.1953125 C41.7749954,73.1953125 40.9384153,73.0065123 40.1832032,72.6289062 C39.4279911,72.2513002 38.8371766,71.710941 38.4107422,71.0078125 C37.9843078,70.304684 37.7710938,69.4746142 37.7710938,68.5175781 L40.6519532,68.5175781 C40.6519532,69.3378947 40.8114568,69.9335919 41.1304688,70.3046875 C41.4494808,70.6757831 41.9703089,70.8613281 42.6929688,70.8613281 C43.695578,70.8613281 44.196875,70.3307345 44.196875,69.2695312 Z M51.2898438,73 L48.41875,73 L48.41875,58.78125 L51.2898438,58.78125 L51.2898438,73 Z M59.7890626,70.0898438 L55.8730469,70.0898438 L55.1113282,73 L52.0742188,73 L56.5175782,58.78125 L59.1445313,58.78125 L63.6171876,73 L60.5507813,73 L59.7890626,70.0898438 Z M56.4980469,67.6972656 L59.1542969,67.6972656 L57.8261719,62.6289062 L56.4980469,67.6972656 Z" id="RETAIL-RUSSIA" fill="#2B2A29"></path>
        </g>
    </g>
</svg>