<?xml version="1.0" encoding="UTF-8"?>
<svg width="92px" height="87px" viewBox="0 0 92 87" version="1.1" xmlns="http://www.w3.org/2000/svg" xmlns:xlink="http://www.w3.org/1999/xlink">
    <!-- Generator: Sketch 46.2 (44496) - http://www.bohemiancoding.com/sketch -->
    <title>9 privateLavelsReload/square</title>
    <desc>Created with Sketch.</desc>
    <defs></defs>
    <g id="Icons" stroke="none" stroke-width="1" fill="none" fill-rule="evenodd">
        <g id="9-privateLavelsReload/square">
            <g id="Group-67">
                <g id="Group-24">
                    <rect id="Rectangle-4-Copy-2" fill="#FFFFFF" x="0" y="0" width="92" height="87" rx="2"></rect>
                    <path d="M2,0 L90,0 L90,0 C91.1045695,7.64553222e-15 92,0.8954305 92,2 L92,32 L-9.09494702e-13,32 L-9.09494702e-13,2 L-9.09494702e-13,2 C-9.09629973e-13,0.8954305 0.8954305,2.02906125e-16 2,0 Z" id="Rectangle-11" fill="#85AE61"></path>
                </g>
                <g id="Group-13" transform="translate(6.094340, 20.339623)">
                    <g id="Bitmap"></g>
                </g>
            </g>
            <path d="M9.87109375,24 L9.87109375,29 L7,29 L7,14.78125 L11.84375,14.78125 C13.250007,14.78125 14.3714151,15.2174436 15.2080078,16.0898438 C16.0446005,16.9622439 16.4628906,18.0950451 16.4628906,19.4882812 C16.4628906,20.8815174 16.0494833,21.9817668 15.2226562,22.7890625 C14.3958292,23.5963582 13.2500073,24 11.7851562,24 L9.87109375,24 Z M9.87109375,21.6074219 L11.84375,21.6074219 C12.3906277,21.6074219 12.8138006,21.4283872 13.1132812,21.0703125 C13.4127619,20.7122378 13.5625,20.1914097 13.5625,19.5078125 C13.5625,18.7981735 13.4095067,18.2334005 13.1035156,17.8134766 C12.7975245,17.3935526 12.3873724,17.1803386 11.8730469,17.1738281 L9.87109375,17.1738281 L9.87109375,21.6074219 Z M21.9835938,23.8046875 L20.5578125,23.8046875 L20.5578125,29 L17.6867188,29 L17.6867188,14.78125 L22.2667969,14.78125 C23.7056062,14.78125 24.8172487,15.1539676 25.6017578,15.8994141 C26.386267,16.6448605 26.7785156,17.7044202 26.7785156,19.078125 C26.7785156,20.9661553 26.0916735,22.2877566 24.7179688,23.0429688 L27.2082031,28.8632812 L27.2082031,29 L24.1222656,29 L21.9835938,23.8046875 Z M20.5578125,21.4121094 L22.1886719,21.4121094 C22.7615914,21.4121094 23.1912746,21.2216816 23.4777344,20.8408203 C23.7641942,20.459959 23.9074219,19.950524 23.9074219,19.3125 C23.9074219,17.8867116 23.3507868,17.1738281 22.2375,17.1738281 L20.5578125,17.1738281 L20.5578125,21.4121094 Z M31.0492188,29 L28.178125,29 L28.178125,14.78125 L31.0492188,14.78125 L31.0492188,29 Z M37.3902344,25.09375 L39.7828125,14.78125 L42.9859375,14.78125 L38.884375,29 L35.8960938,29 L31.8238282,14.78125 L35.0074219,14.78125 L37.3902344,25.09375 Z M49.6785157,26.0898438 L45.7625,26.0898438 L45.0007813,29 L41.9636719,29 L46.4070313,14.78125 L49.0339844,14.78125 L53.5066407,29 L50.4402344,29 L49.6785157,26.0898438 Z M46.3875,23.6972656 L49.04375,23.6972656 L47.715625,18.6289062 L46.3875,23.6972656 Z M62.1718751,17.1738281 L58.6562501,17.1738281 L58.6562501,29 L55.7753907,29 L55.7753907,17.1738281 L52.3183594,17.1738281 L52.3183594,14.78125 L62.1718751,14.78125 L62.1718751,17.1738281 Z M70.4660157,22.8476562 L65.9933594,22.8476562 L65.9933594,26.6171875 L71.2863282,26.6171875 L71.2863282,29 L63.1222657,29 L63.1222657,14.78125 L71.2667969,14.78125 L71.2667969,17.1738281 L65.9933594,17.1738281 L65.9933594,20.5332031 L70.4660157,20.5332031 L70.4660157,22.8476562 Z" id="PRIVATE" fill="#FFFFFF"></path>
            <path d="M9.87109375,49.6171875 L14.9101562,49.6171875 L14.9101562,52 L7,52 L7,37.78125 L9.87109375,37.78125 L9.87109375,49.6171875 Z M22.8429688,49.0898438 L18.9269531,49.0898438 L18.1652344,52 L15.128125,52 L19.5714844,37.78125 L22.1984375,37.78125 L26.6710938,52 L23.6046875,52 L22.8429688,49.0898438 Z M19.5519531,46.6972656 L22.2082031,46.6972656 L20.8800781,41.6289062 L19.5519531,46.6972656 Z M27.2992188,52 L27.2992188,37.78125 L31.69375,37.78125 C33.1781324,37.78125 34.3060509,38.1116503 35.0775391,38.7724609 C35.8490273,39.4332715 36.2347656,40.4016863 36.2347656,41.6777344 C36.2347656,42.4003942 36.075262,43.0221328 35.75625,43.5429688 C35.437238,44.0638047 35.0010445,44.4446603 34.4476563,44.6855469 C35.0856803,44.8678395 35.5772118,45.2340467 35.9222656,45.7841797 C36.2673195,46.3343126 36.4398438,47.0130168 36.4398438,47.8203125 C36.4398438,49.2005277 36.0606158,50.242184 35.3021485,50.9453125 C34.5436811,51.648441 33.4450593,52 32.00625,52 L27.2992188,52 Z M30.1703125,45.8183594 L30.1703125,49.6171875 L32.00625,49.6171875 C32.5205755,49.6171875 32.9111966,49.4576839 33.178125,49.1386719 C33.4450534,48.8196599 33.5785156,48.3671904 33.5785156,47.78125 C33.5785156,46.505202 33.1162807,45.8509116 32.1917969,45.8183594 L30.1703125,45.8183594 Z M30.1703125,43.7285156 L31.6644531,43.7285156 C32.7907609,43.7285156 33.3539063,43.1458392 33.3539063,41.9804688 C33.3539063,41.3359343 33.2236992,40.8736993 32.9632813,40.59375 C32.7028633,40.3138007 32.2796905,40.1738281 31.69375,40.1738281 L30.1703125,40.1738281 L30.1703125,43.7285156 Z M45.1636719,45.8476562 L40.6910157,45.8476562 L40.6910157,49.6171875 L45.9839844,49.6171875 L45.9839844,52 L37.8199219,52 L37.8199219,37.78125 L45.9644532,37.78125 L45.9644532,40.1738281 L40.6910157,40.1738281 L40.6910157,43.5332031 L45.1636719,43.5332031 L45.1636719,45.8476562 Z M49.8054688,49.6171875 L54.8445313,49.6171875 L54.8445313,52 L46.934375,52 L46.934375,37.78125 L49.8054688,37.78125 L49.8054688,49.6171875 Z M61.8105469,48.2695312 C61.8105469,47.6901013 61.6624364,47.2522801 61.366211,46.9560547 C61.0699856,46.6598292 60.531254,46.3522151 59.7500001,46.0332031 C58.3242117,45.4928358 57.2988313,44.8597042 56.6738282,44.1337891 C56.0488251,43.407874 55.7363282,42.5501352 55.7363282,41.5605469 C55.7363282,40.3626242 56.1611286,39.4007198 57.0107422,38.6748047 C57.8603559,37.9488896 58.9394466,37.5859375 60.2480469,37.5859375 C61.1204471,37.5859375 61.8984341,37.7698549 62.5820313,38.1376953 C63.2656285,38.5055357 63.7913394,39.0247362 64.1591797,39.6953125 C64.5270201,40.3658888 64.7109376,41.1275999 64.7109376,41.9804688 L61.8496094,41.9804688 C61.8496094,41.3164029 61.7080093,40.8102231 61.4248047,40.4619141 C61.1416002,40.113605 60.7330756,39.9394531 60.1992188,39.9394531 C59.6979142,39.9394531 59.3072931,40.0875636 59.0273438,40.3837891 C58.7473945,40.6800145 58.6074219,41.0787735 58.6074219,41.5800781 C58.6074219,41.9707051 58.7636704,42.3238917 59.0761719,42.6396484 C59.3886735,42.9554052 59.9420534,43.2825504 60.7363282,43.6210938 C62.1230539,44.1223983 63.1305308,44.7376266 63.7587891,45.4667969 C64.3870475,46.1959672 64.7011719,47.1236923 64.7011719,48.25 C64.7011719,49.4869854 64.3072957,50.4537726 63.5195313,51.1503906 C62.731767,51.8470087 61.6608141,52.1953125 60.3066407,52.1953125 C59.3886673,52.1953125 58.5520872,52.0065123 57.7968751,51.6289062 C57.041663,51.2513002 56.4508485,50.710941 56.0244141,50.0078125 C55.5979797,49.304684 55.3847657,48.4746142 55.3847657,47.5175781 L58.2656251,47.5175781 C58.2656251,48.3378947 58.4251287,48.9335919 58.7441407,49.3046875 C59.0631527,49.6757831 59.5839808,49.8613281 60.3066407,49.8613281 C61.3092499,49.8613281 61.8105469,49.3307345 61.8105469,48.2695312 Z" id="LABELS" fill="#2B2A29"></path>
            <path d="M13.4746094,67 L11.6083984,67 L11.6083984,59.3129883 L8.86621094,59.3129883 L8.86621094,67 L7,67 L7,57.7578125 L13.4746094,57.7578125 L13.4746094,67 Z M19.2524414,63.0009766 L16.3452148,63.0009766 L16.3452148,65.4511719 L19.7856445,65.4511719 L19.7856445,67 L14.4790039,67 L14.4790039,57.7578125 L19.7729492,57.7578125 L19.7729492,59.3129883 L16.3452148,59.3129883 L16.3452148,61.496582 L19.2524414,61.496582 L19.2524414,63.0009766 Z M22.2246094,63.75 L22.2246094,67 L20.3583984,67 L20.3583984,57.7578125 L23.5068359,57.7578125 C24.420903,57.7578125 25.1498182,58.0413383 25.6936035,58.6083984 C26.2373888,59.1754586 26.5092773,59.9117793 26.5092773,60.8173828 C26.5092773,61.7229863 26.2405626,62.4381484 25.703125,62.9628906 C25.1656874,63.4876328 24.4209032,63.75 23.46875,63.75 L22.2246094,63.75 Z M22.2246094,62.1948242 L23.5068359,62.1948242 C23.8623065,62.1948242 24.1373688,62.0784517 24.3320312,61.8457031 C24.5266937,61.6129546 24.6240234,61.2744163 24.6240234,60.8300781 C24.6240234,60.3688128 24.5245778,60.0017103 24.3256836,59.7287598 C24.1267894,59.4558092 23.8601905,59.3172201 23.5258789,59.3129883 L22.2246094,59.3129883 L22.2246094,62.1948242 Z M32.0268555,63.0009766 L29.1196289,63.0009766 L29.1196289,65.4511719 L32.5600586,65.4511719 L32.5600586,67 L27.253418,67 L27.253418,57.7578125 L32.5473633,57.7578125 L32.5473633,59.3129883 L29.1196289,59.3129883 L29.1196289,61.496582 L32.0268555,61.496582 L32.0268555,63.0009766 Z M36.8334961,60.3032227 C36.8334961,59.9646793 36.7393401,59.6938487 36.5510254,59.4907227 C36.3627106,59.2875966 36.107749,59.1860352 35.7861328,59.1860352 C35.5026027,59.1860352 35.2709156,59.2844228 35.0910645,59.4812012 C34.9112133,59.6779795 34.8212891,59.9392887 34.8212891,60.2651367 L32.9550781,60.2651367 C32.9550781,59.7530899 33.0788562,59.2971211 33.326416,58.8972168 C33.5739758,58.4973125 33.9156879,58.1873383 34.3515625,57.9672852 C34.7874371,57.747232 35.2656224,57.637207 35.7861328,57.637207 C36.7044317,57.637207 37.4206517,57.8667783 37.9348145,58.3259277 C38.4489772,58.7850772 38.7060547,59.4314737 38.7060547,60.2651367 C38.7060547,60.6883159 38.5992035,61.0744611 38.385498,61.423584 C38.1717926,61.7727068 37.8787454,62.0488271 37.5063477,62.2519531 C37.9295269,62.4296884 38.25537,62.6994611 38.4838867,63.0612793 C38.7124035,63.4230975 38.8266602,63.8727187 38.8266602,64.4101562 C38.8266602,65.2438193 38.5494819,65.9039689 37.9951172,66.390625 C37.4407524,66.8772811 36.7044317,67.1206055 35.7861328,67.1206055 C35.2275363,67.1206055 34.7229026,67.0126964 34.2722168,66.796875 C33.8215309,66.5810536 33.4702975,66.2721374 33.2185059,65.8701172 C32.9667142,65.4680969 32.8408203,64.9899116 32.8408203,64.4355469 L34.7133789,64.4355469 C34.7133789,64.7529313 34.8128245,65.0237619 35.0117188,65.2480469 C35.210613,65.4723319 35.4687484,65.5844727 35.7861328,65.5844727 C36.1416033,65.5844727 36.4251292,65.4723319 36.6367188,65.2480469 C36.8483083,65.0237619 36.9541016,64.7338885 36.9541016,64.378418 C36.9541016,63.9002255 36.8631194,63.5574555 36.6811523,63.3500977 C36.4991853,63.1427398 36.2347023,63.0390625 35.8876953,63.0390625 L34.9418945,63.0390625 L34.9418945,61.534668 L35.894043,61.534668 C36.5203482,61.5304362 36.8334961,61.1199585 36.8334961,60.3032227 Z M44.0839844,65.1083984 L41.5385742,65.1083984 L41.043457,67 L39.0693359,67 L41.9575195,57.7578125 L43.6650391,57.7578125 L46.5722656,67 L44.5791016,67 L44.0839844,65.1083984 Z M41.9448242,63.5532227 L43.6713867,63.5532227 L42.8081055,60.2587891 L41.9448242,63.5532227 Z M52.140625,59.3129883 L48.8208008,59.3129883 L48.8208008,67 L46.9545898,67 L46.9545898,57.7578125 L52.140625,57.7578125 L52.140625,59.3129883 Z M54.6557617,63.75 L54.6557617,67 L52.7895508,67 L52.7895508,57.7578125 L55.9379883,57.7578125 C56.8520554,57.7578125 57.5809706,58.0413383 58.1247559,58.6083984 C58.6685411,59.1754586 58.9404297,59.9117793 58.9404297,60.8173828 C58.9404297,61.7229863 58.6717149,62.4381484 58.1342773,62.9628906 C57.5968398,63.4876328 56.8520555,63.75 55.8999023,63.75 L54.6557617,63.75 Z M54.6557617,62.1948242 L55.9379883,62.1948242 C56.2934588,62.1948242 56.5685212,62.0784517 56.7631836,61.8457031 C56.957846,61.6129546 57.0551758,61.2744163 57.0551758,60.8300781 C57.0551758,60.3688128 56.9557302,60.0017103 56.7568359,59.7287598 C56.5579417,59.4558092 56.2913428,59.3172201 55.9570312,59.3129883 L54.6557617,59.3129883 L54.6557617,62.1948242 Z M62.6044922,61.8647461 L63.8486328,57.7578125 L65.8544922,57.7578125 L63.3217773,65.1845703 C63.0340155,65.9209021 62.7240414,66.4265937 62.3918457,66.7016602 C62.05965,66.9767266 61.6608096,67.1206054 61.1953125,67.1333008 L60.9921875,67.1333008 L60.5478516,67.1079102 L60.5161133,65.559082 C60.5584312,65.5760092 60.6959624,65.5844727 60.9287109,65.5844727 C61.1656913,65.5844727 61.3444818,65.531576 61.4650879,65.4257812 C61.585694,65.3199865 61.6904292,65.0830097 61.7792969,64.7148438 L61.8681641,64.378418 L59.2275391,57.7578125 L61.2270508,57.7578125 L62.6044922,61.8647461 Z M70.0454102,60.3032227 C70.0454102,59.9646793 69.9512542,59.6938487 69.7629395,59.4907227 C69.5746247,59.2875966 69.3196631,59.1860352 68.9980469,59.1860352 C68.7145168,59.1860352 68.4828297,59.2844228 68.3029785,59.4812012 C68.1231274,59.6779795 68.0332031,59.9392887 68.0332031,60.2651367 L66.1669922,60.2651367 C66.1669922,59.7530899 66.2907702,59.2971211 66.5383301,58.8972168 C66.7858899,58.4973125 67.127602,58.1873383 67.5634766,57.9672852 C67.9993511,57.747232 68.4775365,57.637207 68.9980469,57.637207 C69.9163457,57.637207 70.6325658,57.8667783 71.1467285,58.3259277 C71.6608912,58.7850772 71.9179688,59.4314737 71.9179688,60.2651367 C71.9179688,60.6883159 71.8111176,61.0744611 71.5974121,61.423584 C71.3837066,61.7727068 71.0906594,62.0488271 70.7182617,62.2519531 C71.1414409,62.4296884 71.467284,62.6994611 71.6958008,63.0612793 C71.9243175,63.4230975 72.0385742,63.8727187 72.0385742,64.4101562 C72.0385742,65.2438193 71.761396,65.9039689 71.2070312,66.390625 C70.6526665,66.8772811 69.9163457,67.1206055 68.9980469,67.1206055 C68.4394503,67.1206055 67.9348167,67.0126964 67.4841309,66.796875 C67.033445,66.5810536 66.6822115,66.2721374 66.4304199,65.8701172 C66.1786283,65.4680969 66.0527344,64.9899116 66.0527344,64.4355469 L67.925293,64.4355469 C67.925293,64.7529313 68.0247386,65.0237619 68.2236328,65.2480469 C68.422527,65.4723319 68.6806625,65.5844727 68.9980469,65.5844727 C69.3535174,65.5844727 69.6370432,65.4723319 69.8486328,65.2480469 C70.0602224,65.0237619 70.1660156,64.7338885 70.1660156,64.378418 C70.1660156,63.9002255 70.0750335,63.5574555 69.8930664,63.3500977 C69.7110994,63.1427398 69.4466163,63.0390625 69.0996094,63.0390625 L68.1538086,63.0390625 L68.1538086,61.534668 L69.105957,61.534668 C69.7322622,61.5304362 70.0454102,61.1199585 70.0454102,60.3032227 Z M75.5756836,63.2294922 L74.7631836,63.2294922 L74.7631836,67 L72.8969727,67 L72.8969727,57.7578125 L74.7631836,57.7578125 L74.7631836,61.4521484 L75.3916016,61.4521484 L76.9975586,57.7578125 L79.2700195,57.7578125 L77.0102539,62.0615234 L79.5239258,67 L77.3022461,67 L75.5756836,63.2294922 Z M84.1274414,65.1083984 L81.5820312,65.1083984 L81.0869141,67 L79.112793,67 L82.0009766,57.7578125 L83.7084961,57.7578125 L86.6157227,67 L84.6225586,67 L84.1274414,65.1083984 Z M81.9882812,63.5532227 L83.7148438,63.5532227 L82.8515625,60.2587891 L81.9882812,63.5532227 Z" id="ПЕРЕЗАГРУЗКА" fill="#85AE61"></path>
        </g>
    </g>
</svg>