<?xml version="1.0" encoding="UTF-8"?>
<svg width="92px" height="87px" viewBox="0 0 92 87" version="1.1" xmlns="http://www.w3.org/2000/svg" xmlns:xlink="http://www.w3.org/1999/xlink">
    <!-- Generator: Sketch 46.2 (44496) - http://www.bohemiancoding.com/sketch -->
    <title>8 retailBussinessRussia/square</title>
    <desc>Created with Sketch.</desc>
    <defs></defs>
    <g id="Icons" stroke="none" stroke-width="1" fill="none" fill-rule="evenodd">
        <g id="8-retailBussinessRussia/square">
            <rect id="Rectangle-4-Copy-2" fill="#FFFFFF" x="0" y="0" width="92" height="87" rx="2"></rect>
            <path d="M2,0 L90,0 L90,0 C91.1045695,-2.02906125e-16 92,0.8954305 92,2 L92,32 L0,32 L0,2 L0,2 C-1.3527075e-16,0.8954305 0.8954305,2.02906125e-16 2,0 Z" id="Rectangle-11" fill="#A21418"></path>
            <path d="M11.296875,23.8046875 L9.87109375,23.8046875 L9.87109375,29 L7,29 L7,14.78125 L11.5800781,14.78125 C13.0188874,14.78125 14.1305299,15.1539676 14.9150391,15.8994141 C15.6995482,16.6448605 16.0917969,17.7044202 16.0917969,19.078125 C16.0917969,20.9661553 15.4049548,22.2877566 14.03125,23.0429688 L16.5214844,28.8632812 L16.5214844,29 L13.4355469,29 L11.296875,23.8046875 Z M9.87109375,21.4121094 L11.5019531,21.4121094 C12.0748727,21.4121094 12.5045559,21.2216816 12.7910156,20.8408203 C13.0774754,20.459959 13.2207031,19.950524 13.2207031,19.3125 C13.2207031,17.8867116 12.6640681,17.1738281 11.5507812,17.1738281 L9.87109375,17.1738281 L9.87109375,21.4121094 Z M24.7082031,22.8476562 L20.2355469,22.8476562 L20.2355469,26.6171875 L25.5285156,26.6171875 L25.5285156,29 L17.3644531,29 L17.3644531,14.78125 L25.5089844,14.78125 L25.5089844,17.1738281 L20.2355469,17.1738281 L20.2355469,20.5332031 L24.7082031,20.5332031 L24.7082031,22.8476562 Z M35.8832031,17.1738281 L32.3675781,17.1738281 L32.3675781,29 L29.4867188,29 L29.4867188,17.1738281 L26.0296875,17.1738281 L26.0296875,14.78125 L35.8832031,14.78125 L35.8832031,17.1738281 Z M42.4488282,26.0898438 L38.5328125,26.0898438 L37.7710938,29 L34.7339844,29 L39.1773438,14.78125 L41.8042969,14.78125 L46.2769532,29 L43.2105469,29 L42.4488282,26.0898438 Z M39.1578125,23.6972656 L41.8140625,23.6972656 L40.4859375,18.6289062 L39.1578125,23.6972656 Z M49.903125,29 L47.0320313,29 L47.0320313,14.78125 L49.903125,14.78125 L49.903125,29 Z M54.4863282,26.6171875 L59.5253907,26.6171875 L59.5253907,29 L51.6152344,29 L51.6152344,14.78125 L54.4863282,14.78125 L54.4863282,26.6171875 Z" id="RETAIL" fill="#FFFFFF"></path>
            <path d="M7,52 L7,37.78125 L11.3945312,37.78125 C12.8789137,37.78125 14.0068321,38.1116503 14.7783203,38.7724609 C15.5498085,39.4332715 15.9355469,40.4016863 15.9355469,41.6777344 C15.9355469,42.4003942 15.7760433,43.0221328 15.4570312,43.5429688 C15.1380192,44.0638047 14.7018257,44.4446603 14.1484375,44.6855469 C14.7864615,44.8678395 15.2779931,45.2340467 15.6230469,45.7841797 C15.9681007,46.3343126 16.140625,47.0130168 16.140625,47.8203125 C16.140625,49.2005277 15.761397,50.242184 15.0029297,50.9453125 C14.2444624,51.648441 13.1458405,52 11.7070312,52 L7,52 Z M9.87109375,45.8183594 L9.87109375,49.6171875 L11.7070312,49.6171875 C12.2213567,49.6171875 12.6119778,49.4576839 12.8789062,49.1386719 C13.1458347,48.8196599 13.2792969,48.3671904 13.2792969,47.78125 C13.2792969,46.505202 12.8170619,45.8509116 11.8925781,45.8183594 L9.87109375,45.8183594 Z M9.87109375,43.7285156 L11.3652344,43.7285156 C12.4915421,43.7285156 13.0546875,43.1458392 13.0546875,41.9804688 C13.0546875,41.3359343 12.9244805,40.8736993 12.6640625,40.59375 C12.4036445,40.3138007 11.9804717,40.1738281 11.3945312,40.1738281 L9.87109375,40.1738281 L9.87109375,43.7285156 Z M26.76875,37.78125 L26.76875,47.625 C26.7557291,49.102872 26.3488321,50.2340456 25.5480469,51.0185547 C24.7472616,51.8030638 23.5981846,52.1953125 22.1007813,52.1953125 C20.5773361,52.1953125 19.4136108,51.7981811 18.6095703,51.0039062 C17.8055298,50.2096314 17.4035156,49.0605544 17.4035156,47.5566406 L17.4035156,37.78125 L20.2941406,37.78125 L20.2941406,47.5664062 C20.2941406,48.373702 20.4243477,48.9498681 20.6847656,49.2949219 C20.9451836,49.6399757 21.4171841,49.8125 22.1007813,49.8125 C22.7843784,49.8125 23.2531237,49.6416033 23.5070313,49.2998047 C23.7609388,48.9580061 23.8911458,48.3964883 23.8976563,47.6152344 L23.8976563,37.78125 L26.76875,37.78125 Z M34.2523438,48.2695312 C34.2523438,47.6901013 34.1042333,47.2522801 33.8080078,46.9560547 C33.5117824,46.6598292 32.9730508,46.3522151 32.1917969,46.0332031 C30.7660085,45.4928358 29.7406281,44.8597042 29.115625,44.1337891 C28.4906219,43.407874 28.178125,42.5501352 28.178125,41.5605469 C28.178125,40.3626242 28.6029255,39.4007198 29.4525391,38.6748047 C30.3021527,37.9488896 31.3812435,37.5859375 32.6898438,37.5859375 C33.562244,37.5859375 34.340231,37.7698549 35.0238281,38.1376953 C35.7074253,38.5055357 36.2331362,39.0247362 36.6009766,39.6953125 C36.968817,40.3658888 37.1527344,41.1275999 37.1527344,41.9804688 L34.2914063,41.9804688 C34.2914063,41.3164029 34.1498061,40.8102231 33.8666016,40.4619141 C33.583397,40.113605 33.1748725,39.9394531 32.6410156,39.9394531 C32.1397111,39.9394531 31.74909,40.0875636 31.4691406,40.3837891 C31.1891913,40.6800145 31.0492188,41.0787735 31.0492188,41.5800781 C31.0492188,41.9707051 31.2054672,42.3238917 31.5179688,42.6396484 C31.8304703,42.9554052 32.3838502,43.2825504 33.178125,43.6210938 C34.5648507,44.1223983 35.5723276,44.7376266 36.200586,45.4667969 C36.8288443,46.1959672 37.1429688,47.1236923 37.1429688,48.25 C37.1429688,49.4869854 36.7490925,50.4537726 35.9613281,51.1503906 C35.1735638,51.8470087 34.102611,52.1953125 32.7484375,52.1953125 C31.8304642,52.1953125 30.993884,52.0065123 30.2386719,51.6289062 C29.4834598,51.2513002 28.8926454,50.710941 28.466211,50.0078125 C28.0397765,49.304684 27.8265625,48.4746142 27.8265625,47.5175781 L30.7074219,47.5175781 C30.7074219,48.3378947 30.8669255,48.9335919 31.1859375,49.3046875 C31.5049495,49.6757831 32.0257777,49.8613281 32.7484375,49.8613281 C33.7510467,49.8613281 34.2523438,49.3307345 34.2523438,48.2695312 Z M41.3453125,52 L38.4742188,52 L38.4742188,37.78125 L41.3453125,37.78125 L41.3453125,52 Z M52.9988282,52 L50.1277344,52 L45.9285157,42.6738281 L45.9285157,52 L43.0574219,52 L43.0574219,37.78125 L45.9285157,37.78125 L50.1375,47.1171875 L50.1375,37.78125 L52.9988282,37.78125 L52.9988282,52 Z M61.9472657,45.8476562 L57.4746094,45.8476562 L57.4746094,49.6171875 L62.7675782,49.6171875 L62.7675782,52 L54.6035157,52 L54.6035157,37.78125 L62.7480469,37.78125 L62.7480469,40.1738281 L57.4746094,40.1738281 L57.4746094,43.5332031 L61.9472657,43.5332031 L61.9472657,45.8476562 Z M69.7238282,48.2695312 C69.7238282,47.6901013 69.5757177,47.2522801 69.2794923,46.9560547 C68.9832668,46.6598292 68.4445352,46.3522151 67.6632813,46.0332031 C66.2374929,45.4928358 65.2121126,44.8597042 64.5871094,44.1337891 C63.9621063,43.407874 63.6496094,42.5501352 63.6496094,41.5605469 C63.6496094,40.3626242 64.0744099,39.4007198 64.9240235,38.6748047 C65.7736371,37.9488896 66.8527279,37.5859375 68.1613282,37.5859375 C69.0337284,37.5859375 69.8117154,37.7698549 70.4953126,38.1376953 C71.1789097,38.5055357 71.7046206,39.0247362 72.072461,39.6953125 C72.4403014,40.3658888 72.6242188,41.1275999 72.6242188,41.9804688 L69.7628907,41.9804688 C69.7628907,41.3164029 69.6212906,40.8102231 69.338086,40.4619141 C69.0548815,40.113605 68.6463569,39.9394531 68.1125001,39.9394531 C67.6111955,39.9394531 67.2205744,40.0875636 66.9406251,40.3837891 C66.6606758,40.6800145 66.5207032,41.0787735 66.5207032,41.5800781 C66.5207032,41.9707051 66.6769516,42.3238917 66.9894532,42.6396484 C67.3019548,42.9554052 67.8553346,43.2825504 68.6496094,43.6210938 C70.0363351,44.1223983 71.043812,44.7376266 71.6720704,45.4667969 C72.3003287,46.1959672 72.6144532,47.1236923 72.6144532,48.25 C72.6144532,49.4869854 72.2205769,50.4537726 71.4328126,51.1503906 C70.6450482,51.8470087 69.5740954,52.1953125 68.2199219,52.1953125 C67.3019486,52.1953125 66.4653684,52.0065123 65.7101563,51.6289062 C64.9549442,51.2513002 64.3641298,50.710941 63.9376954,50.0078125 C63.511261,49.304684 63.2980469,48.4746142 63.2980469,47.5175781 L66.1789063,47.5175781 C66.1789063,48.3378947 66.3384099,48.9335919 66.6574219,49.3046875 C66.976434,49.6757831 67.4972621,49.8613281 68.2199219,49.8613281 C69.2225311,49.8613281 69.7238282,49.3307345 69.7238282,48.2695312 Z M79.8246095,48.2695312 C79.8246095,47.6901013 79.676499,47.2522801 79.3802735,46.9560547 C79.0840481,46.6598292 78.5453165,46.3522151 77.7640626,46.0332031 C76.3382742,45.4928358 75.3128938,44.8597042 74.6878907,44.1337891 C74.0628876,43.407874 73.7503907,42.5501352 73.7503907,41.5605469 C73.7503907,40.3626242 74.1751911,39.4007198 75.0248048,38.6748047 C75.8744184,37.9488896 76.9535092,37.5859375 78.2621095,37.5859375 C79.1345097,37.5859375 79.9124967,37.7698549 80.5960938,38.1376953 C81.279691,38.5055357 81.8054019,39.0247362 82.1732423,39.6953125 C82.5410827,40.3658888 82.7250001,41.1275999 82.7250001,41.9804688 L79.863672,41.9804688 C79.863672,41.3164029 79.7220718,40.8102231 79.4388673,40.4619141 C79.1556627,40.113605 78.7471382,39.9394531 78.2132813,39.9394531 C77.7119767,39.9394531 77.3213556,40.0875636 77.0414063,40.3837891 C76.761457,40.6800145 76.6214845,41.0787735 76.6214845,41.5800781 C76.6214845,41.9707051 76.7777329,42.3238917 77.0902345,42.6396484 C77.402736,42.9554052 77.9561159,43.2825504 78.7503907,43.6210938 C80.1371164,44.1223983 81.1445933,44.7376266 81.7728516,45.4667969 C82.40111,46.1959672 82.7152345,47.1236923 82.7152345,48.25 C82.7152345,49.4869854 82.3213582,50.4537726 81.5335938,51.1503906 C80.7458295,51.8470087 79.6748766,52.1953125 78.3207032,52.1953125 C77.4027299,52.1953125 76.5661497,52.0065123 75.8109376,51.6289062 C75.0557255,51.2513002 74.4649111,50.710941 74.0384766,50.0078125 C73.6120422,49.304684 73.3988282,48.4746142 73.3988282,47.5175781 L76.2796876,47.5175781 C76.2796876,48.3378947 76.4391912,48.9335919 76.7582032,49.3046875 C77.0772152,49.6757831 77.5980433,49.8613281 78.3207032,49.8613281 C79.3233124,49.8613281 79.8246095,49.3307345 79.8246095,48.2695312 Z M11.3066406,67.8046875 L9.88085938,67.8046875 L9.88085938,73 L7.00976562,73 L7.00976562,58.78125 L11.5898438,58.78125 C13.028653,58.78125 14.1402956,59.1539676 14.9248047,59.8994141 C15.7093138,60.6448605 16.1015625,61.7044202 16.1015625,63.078125 C16.1015625,64.9661553 15.4147204,66.2877566 14.0410156,67.0429688 L16.53125,72.8632812 L16.53125,73 L13.4453125,73 L11.3066406,67.8046875 Z M9.88085938,65.4121094 L11.5117188,65.4121094 C12.0846383,65.4121094 12.5143215,65.2216816 12.8007812,64.8408203 C13.087241,64.459959 13.2304688,63.950524 13.2304688,63.3125 C13.2304688,61.8867116 12.6738337,61.1738281 11.5605469,61.1738281 L9.88085938,61.1738281 L9.88085938,65.4121094 Z M26.6222656,58.78125 L26.6222656,68.625 C26.6092447,70.102872 26.2023478,71.2340456 25.4015625,72.0185547 C24.6007773,72.8030638 23.4517002,73.1953125 21.9542969,73.1953125 C20.4308518,73.1953125 19.2671264,72.7981811 18.4630859,72.0039062 C17.6590455,71.2096314 17.2570313,70.0605544 17.2570313,68.5566406 L17.2570313,58.78125 L20.1476563,58.78125 L20.1476563,68.5664062 C20.1476563,69.373702 20.2778633,69.9498681 20.5382813,70.2949219 C20.7986992,70.6399757 21.2706997,70.8125 21.9542969,70.8125 C22.6378941,70.8125 23.1066394,70.6416033 23.3605469,70.2998047 C23.6144544,69.9580061 23.7446614,69.3964883 23.7511719,68.6152344 L23.7511719,58.78125 L26.6222656,58.78125 Z M34.1058594,69.2695312 C34.1058594,68.6901013 33.9577489,68.2522801 33.6615235,67.9560547 C33.365298,67.6598292 32.8265664,67.3522151 32.0453125,67.0332031 C30.6195241,66.4928358 29.5941438,65.8597042 28.9691406,65.1337891 C28.3441375,64.407874 28.0316406,63.5501352 28.0316406,62.5605469 C28.0316406,61.3626242 28.4564411,60.4007198 29.3060547,59.6748047 C30.1556683,58.9488896 31.2347591,58.5859375 32.5433594,58.5859375 C33.4157596,58.5859375 34.1937466,58.7698549 34.8773438,59.1376953 C35.5609409,59.5055357 36.0866518,60.0247362 36.4544922,60.6953125 C36.8223326,61.3658888 37.00625,62.1275999 37.00625,62.9804688 L34.1449219,62.9804688 C34.1449219,62.3164029 34.0033218,61.8102231 33.7201172,61.4619141 C33.4369127,61.113605 33.0283881,60.9394531 32.4945313,60.9394531 C31.9932267,60.9394531 31.6026056,61.0875636 31.3226563,61.3837891 C31.042707,61.6800145 30.9027344,62.0787735 30.9027344,62.5800781 C30.9027344,62.9707051 31.0589828,63.3238917 31.3714844,63.6396484 C31.683986,63.9554052 32.2373658,64.2825504 33.0316406,64.6210938 C34.4183663,65.1223983 35.4258432,65.7376266 36.0541016,66.4667969 C36.6823599,67.1959672 36.9964844,68.1236923 36.9964844,69.25 C36.9964844,70.4869854 36.6026081,71.4537726 35.8148438,72.1503906 C35.0270794,72.8470087 33.9561266,73.1953125 32.6019531,73.1953125 C31.6839798,73.1953125 30.8473996,73.0065123 30.0921875,72.6289062 C29.3369754,72.2513002 28.746161,71.710941 28.3197266,71.0078125 C27.8932922,70.304684 27.6800781,69.4746142 27.6800781,68.5175781 L30.5609375,68.5175781 C30.5609375,69.3378947 30.7204411,69.9335919 31.0394531,70.3046875 C31.3584652,70.6757831 31.8792933,70.8613281 32.6019531,70.8613281 C33.6045623,70.8613281 34.1058594,70.3307345 34.1058594,69.2695312 Z M44.2066407,69.2695312 C44.2066407,68.6901013 44.0585302,68.2522801 43.7623047,67.9560547 C43.4660793,67.6598292 42.9273477,67.3522151 42.1460938,67.0332031 C40.7203054,66.4928358 39.694925,65.8597042 39.0699219,65.1337891 C38.4449188,64.407874 38.1324219,63.5501352 38.1324219,62.5605469 C38.1324219,61.3626242 38.5572224,60.4007198 39.406836,59.6748047 C40.2564496,58.9488896 41.3355404,58.5859375 42.6441407,58.5859375 C43.5165409,58.5859375 44.2945279,58.7698549 44.978125,59.1376953 C45.6617222,59.5055357 46.1874331,60.0247362 46.5552735,60.6953125 C46.9231139,61.3658888 47.1070313,62.1275999 47.1070313,62.9804688 L44.2457032,62.9804688 C44.2457032,62.3164029 44.104103,61.8102231 43.8208985,61.4619141 C43.5376939,61.113605 43.1291694,60.9394531 42.5953125,60.9394531 C42.0940079,60.9394531 41.7033869,61.0875636 41.4234375,61.3837891 C41.1434882,61.6800145 41.0035157,62.0787735 41.0035157,62.5800781 C41.0035157,62.9707051 41.1597641,63.3238917 41.4722657,63.6396484 C41.7847672,63.9554052 42.3381471,64.2825504 43.1324219,64.6210938 C44.5191476,65.1223983 45.5266245,65.7376266 46.1548828,66.4667969 C46.7831412,67.1959672 47.0972657,68.1236923 47.0972657,69.25 C47.0972657,70.4869854 46.7033894,71.4537726 45.915625,72.1503906 C45.1278607,72.8470087 44.0569078,73.1953125 42.7027344,73.1953125 C41.7847611,73.1953125 40.9481809,73.0065123 40.1929688,72.6289062 C39.4377567,72.2513002 38.8469423,71.710941 38.4205078,71.0078125 C37.9940734,70.304684 37.7808594,69.4746142 37.7808594,68.5175781 L40.6617188,68.5175781 C40.6617188,69.3378947 40.8212224,69.9335919 41.1402344,70.3046875 C41.4592464,70.6757831 41.9800745,70.8613281 42.7027344,70.8613281 C43.7053436,70.8613281 44.2066407,70.3307345 44.2066407,69.2695312 Z M51.2996094,73 L48.4285157,73 L48.4285157,58.78125 L51.2996094,58.78125 L51.2996094,73 Z M59.7988282,70.0898438 L55.8828126,70.0898438 L55.1210938,73 L52.0839844,73 L56.5273438,58.78125 L59.1542969,58.78125 L63.6269532,73 L60.5605469,73 L59.7988282,70.0898438 Z M56.5078126,67.6972656 L59.1640626,67.6972656 L57.8359376,62.6289062 L56.5078126,67.6972656 Z" id="BUSINESS-RUSSIA" fill="#2B2A29"></path>
        </g>
    </g>
</svg>