<svg width="219px" height="19px" viewBox="0 0 219 19" version="1.1" xmlns="http://www.w3.org/2000/svg" xmlns:xlink="http://www.w3.org/1999/xlink">
    <title>Retail Business Russia</title>
    <g id="Icons" stroke="none" stroke-width="1" fill="none" fill-rule="evenodd">
        <g id="8-retailBussinessRussia/rect">
            <rect id="Rectangle-27" fill="#A21418" x="0" y="0" width="63" height="19" rx="1"></rect>
            <path d="M9.86612111,15.9127304 L7.40327332,11.6214047 L5.98527005,11.6214047 L5.98527005,15.9127304 L3,15.9127304 L3,2.85217391 L8.22422259,2.85217391 C10.7057283,2.85217391 12.7021277,4.84857326 12.7021277,7.33007899 C12.7021277,8.93466164 11.7319149,10.3899808 10.2952537,11.1176404 L13.0752864,15.9127304 L9.86612111,15.9127304 Z M5.98527005,5.65086458 L5.98527005,9.00929339 L8.22422259,9.00929339 C9.04517185,9.00929339 9.71685761,8.28163381 9.71685761,7.33007899 C9.71685761,6.37852416 9.04517185,5.65086458 8.22422259,5.65086458 L5.98527005,5.65086458 Z M17.4599018,13.039408 L17.4599018,10.7258237 L22.1243863,10.7258237 L22.1243863,7.88981712 L17.4599018,7.88981712 L17.4599018,5.72549634 L22.5908347,5.72549634 L22.5908347,2.85217391 L14.4746318,2.85217391 L14.4746318,15.9127304 L22.6841244,15.9127304 L22.6841244,13.039408 L17.4599018,13.039408 Z M33.1325696,2.85217391 L23.4304419,2.85217391 L23.4304419,5.72549634 L26.7888707,5.72549634 L26.7888707,15.9127304 L29.7741408,15.9127304 L29.7741408,5.72549634 L33.1325696,5.72549634 L33.1325696,2.85217391 Z M42.7414075,15.9127304 L42.0883797,13.8603572 L37.2373159,13.8603572 L36.5842881,15.9127304 L33.3191489,15.9127304 L37.7597381,2.85217391 L41.5659574,2.85217391 L46.0065466,15.9127304 L42.7414075,15.9127304 Z M38.1328969,11.0616665 L41.1927987,11.0616665 L39.6628478,6.26657653 L38.1328969,11.0616665 Z M47.1260229,2.85217391 L47.1260229,15.9127304 L50.111293,15.9127304 L50.111293,2.85217391 L47.1260229,2.85217391 Z M55.3355155,13.039408 L55.3355155,2.85217391 L52.3502455,2.85217391 L52.3502455,15.9127304 L60,15.9127304 L60,13.039408 L55.3355155,13.039408 Z" id="RETAIL" fill="#FFFFFF"></path>
            <path d="M76.1206939,9.15687538 C77.0936803,9.7743475 77.7298637,10.7847564 77.7298637,12.113257 C77.7298637,14.4334553 75.8400248,15.9490687 73.5011152,15.9490687 L68,15.9490687 L68,2.85117526 L73.1268897,2.85117526 C75.4096654,2.85117526 77.2620818,4.32936609 77.2620818,6.59343053 C77.2620818,7.67868455 76.8317224,8.53940326 76.1206939,9.15687538 Z M73.1268897,5.65786671 L70.9938042,5.65786671 L70.9938042,7.97806497 L73.1268897,7.97806497 C73.8004957,7.97806497 74.2682776,7.49157179 74.2682776,6.81796584 C74.2682776,6.14435989 73.8192069,5.65786671 73.1268897,5.65786671 Z M73.5011152,13.1423772 C74.2495663,13.1423772 74.7360595,12.6184615 74.7360595,11.8887217 C74.7360595,11.158982 74.2495663,10.6350662 73.5011152,10.6350662 L70.9938042,10.6350662 L70.9938042,13.1423772 L73.5011152,13.1423772 Z M84.185254,16.2110266 C87.0667906,16.2110266 89.2372986,14.5270117 89.2372986,11.7203202 L89.2372986,2.85117526 L86.2434944,2.85117526 L86.2434944,11.4583624 C86.2434944,12.45006 85.7757125,13.2920675 84.185254,13.2920675 C82.5947955,13.2920675 82.1270136,12.45006 82.1270136,11.4583624 L82.1270136,2.85117526 L79.1332094,2.85117526 L79.1332094,11.7203202 C79.1332094,14.5270117 81.3037175,16.2110266 84.185254,16.2110266 Z M95.9733581,16.2110266 C98.8174721,16.2110266 100.83829,14.7141245 100.83829,12.1881021 C100.83829,9.41883325 98.6116481,8.72651603 96.6282528,8.12775519 C94.5887237,7.51028307 94.270632,7.09863499 94.270632,6.49987414 C94.270632,5.97595841 94.7384139,5.5081765 95.6739777,5.5081765 C96.8714994,5.5081765 97.4889715,6.08822607 97.9380421,7.02378988 L100.464064,5.54559905 C99.5097893,3.61833759 97.8257745,2.58921739 95.6739777,2.58921739 C93.4099133,2.58921739 91.2768278,4.04869695 91.2768278,6.57471925 C91.2768278,9.08203028 93.1853779,10.0175941 95.1313507,10.5602211 C97.0960347,11.1028481 97.8444857,11.4209398 97.8444857,12.2255247 C97.8444857,12.7307292 97.4889715,13.2920675 96.0669145,13.2920675 C94.5887237,13.2920675 93.7841388,12.5623277 93.3163569,11.4770736 L90.7342007,12.9739758 C91.4639405,14.9012372 93.2228005,16.2110266 95.9733581,16.2110266 Z M102.335192,2.85117526 L102.335192,15.9490687 L105.328996,15.9490687 L105.328996,2.85117526 L102.335192,2.85117526 Z M114.871747,2.85117526 L114.871747,9.96146027 L109.819703,2.85117526 L107.574349,2.85117526 L107.574349,15.9490687 L110.568154,15.9490687 L110.568154,8.83878369 L115.620198,15.9490687 L117.865551,15.9490687 L117.865551,2.85117526 L114.871747,2.85117526 Z M123.104709,13.0675321 L123.104709,10.7473339 L127.782528,10.7473339 L127.782528,7.90321987 L123.104709,7.90321987 L123.104709,5.73271182 L128.25031,5.73271182 L128.25031,2.85117526 L120.110905,2.85117526 L120.110905,15.9490687 L128.343866,15.9490687 L128.343866,13.0675321 L123.104709,13.0675321 Z M134.612144,16.2110266 C137.456258,16.2110266 139.477076,14.7141245 139.477076,12.1881021 C139.477076,9.41883325 137.250434,8.72651603 135.267038,8.12775519 C133.227509,7.51028307 132.909418,7.09863499 132.909418,6.49987414 C132.909418,5.97595841 133.3772,5.5081765 134.312763,5.5081765 C135.510285,5.5081765 136.127757,6.08822607 136.576828,7.02378988 L139.10285,5.54559905 C138.148575,3.61833759 136.46456,2.58921739 134.312763,2.58921739 C132.048699,2.58921739 129.915613,4.04869695 129.915613,6.57471925 C129.915613,9.08203028 131.824164,10.0175941 133.770136,10.5602211 C135.73482,11.1028481 136.483271,11.4209398 136.483271,12.2255247 C136.483271,12.7307292 136.127757,13.2920675 134.7057,13.2920675 C133.227509,13.2920675 132.422924,12.5623277 131.955143,11.4770736 L129.372986,12.9739758 C130.102726,14.9012372 131.861586,16.2110266 134.612144,16.2110266 Z M145.55824,16.2110266 C148.402354,16.2110266 150.423172,14.7141245 150.423172,12.1881021 C150.423172,9.41883325 148.19653,8.72651603 146.213135,8.12775519 C144.173606,7.51028307 143.855514,7.09863499 143.855514,6.49987414 C143.855514,5.97595841 144.323296,5.5081765 145.25886,5.5081765 C146.456382,5.5081765 147.073854,6.08822607 147.522924,7.02378988 L150.048947,5.54559905 C149.094672,3.61833759 147.410657,2.58921739 145.25886,2.58921739 C142.994796,2.58921739 140.86171,4.04869695 140.86171,6.57471925 C140.86171,9.08203028 142.77026,10.0175941 144.716233,10.5602211 C146.680917,11.1028481 147.429368,11.4209398 147.429368,12.2255247 C147.429368,12.7307292 147.073854,13.2920675 145.651797,13.2920675 C144.173606,13.2920675 143.369021,12.5623277 142.901239,11.4770736 L140.319083,12.9739758 C141.048823,14.9012372 142.807683,16.2110266 145.55824,16.2110266 Z M163.483643,15.9490687 L161.013755,11.6454751 L159.591698,11.6454751 L159.591698,15.9490687 L156.597893,15.9490687 L156.597893,2.85117526 L161.837051,2.85117526 C164.325651,2.85117526 166.327757,4.85328183 166.327757,7.34188158 C166.327757,8.95105134 165.354771,10.4105309 163.914002,11.1402707 L166.701983,15.9490687 L163.483643,15.9490687 Z M159.591698,5.65786671 L159.591698,9.02589645 L161.837051,9.02589645 C162.660347,9.02589645 163.333953,8.29615667 163.333953,7.34188158 C163.333953,6.38760649 162.660347,5.65786671 161.837051,5.65786671 L159.591698,5.65786671 Z M173.063817,16.2110266 C175.945353,16.2110266 178.115861,14.5270117 178.115861,11.7203202 L178.115861,2.85117526 L175.122057,2.85117526 L175.122057,11.4583624 C175.122057,12.45006 174.654275,13.2920675 173.063817,13.2920675 C171.473358,13.2920675 171.005576,12.45006 171.005576,11.4583624 L171.005576,2.85117526 L168.011772,2.85117526 L168.011772,11.7203202 C168.011772,14.5270117 170.18228,16.2110266 173.063817,16.2110266 Z M184.851921,16.2110266 C187.696035,16.2110266 189.716853,14.7141245 189.716853,12.1881021 C189.716853,9.41883325 187.490211,8.72651603 185.506815,8.12775519 C183.467286,7.51028307 183.149195,7.09863499 183.149195,6.49987414 C183.149195,5.97595841 183.616976,5.5081765 184.55254,5.5081765 C185.750062,5.5081765 186.367534,6.08822607 186.816605,7.02378988 L189.342627,5.54559905 C188.388352,3.61833759 186.704337,2.58921739 184.55254,2.58921739 C182.288476,2.58921739 180.15539,4.04869695 180.15539,6.57471925 C180.15539,9.08203028 182.063941,10.0175941 184.009913,10.5602211 C185.974597,11.1028481 186.723048,11.4209398 186.723048,12.2255247 C186.723048,12.7307292 186.367534,13.2920675 184.945477,13.2920675 C183.467286,13.2920675 182.662701,12.5623277 182.194919,11.4770736 L179.612763,12.9739758 C180.342503,14.9012372 182.101363,16.2110266 184.851921,16.2110266 Z M195.798017,16.2110266 C198.642131,16.2110266 200.662949,14.7141245 200.662949,12.1881021 C200.662949,9.41883325 198.436307,8.72651603 196.452912,8.12775519 C194.413383,7.51028307 194.095291,7.09863499 194.095291,6.49987414 C194.095291,5.97595841 194.563073,5.5081765 195.498637,5.5081765 C196.696159,5.5081765 197.313631,6.08822607 197.762701,7.02378988 L200.288724,5.54559905 C199.334449,3.61833759 197.650434,2.58921739 195.498637,2.58921739 C193.234572,2.58921739 191.101487,4.04869695 191.101487,6.57471925 C191.101487,9.08203028 193.010037,10.0175941 194.95601,10.5602211 C196.920694,11.1028481 197.669145,11.4209398 197.669145,12.2255247 C197.669145,12.7307292 197.313631,13.2920675 195.891574,13.2920675 C194.413383,13.2920675 193.608798,12.5623277 193.141016,11.4770736 L190.55886,12.9739758 C191.2886,14.9012372 193.04746,16.2110266 195.798017,16.2110266 Z M202.159851,2.85117526 L202.159851,15.9490687 L205.153656,15.9490687 L205.153656,2.85117526 L202.159851,2.85117526 Z M215.725527,15.9490687 L215.070632,13.8908283 L210.2057,13.8908283 L209.550805,15.9490687 L206.276332,15.9490687 L210.729616,2.85117526 L214.546716,2.85117526 L219,15.9490687 L215.725527,15.9490687 Z M211.103841,11.0841368 L214.172491,11.0841368 L212.638166,6.27533883 L211.103841,11.0841368 Z" id="BUSINESS-RUSSIA" fill="#2B2A29"></path>
        </g>
    </g>
</svg>