<svg width="90" height="85" viewBox="0 0 90 85" version="1.1" xmlns="http://www.w3.org/2000/svg" xmlns:xlink="http://www.w3.org/1999/xlink">
<title>10</title>
<desc>Created using Figma</desc>
<g id="Canvas" transform="translate(-15169 1287)">
<g id="10">
<g id="Group 67">
<g id="Group 24">
<g id="Rectangle 4 Copy 2">
<use xlink:href="#path0_fill" transform="translate(15169 -1287)" fill="#FFFFFF"/>
</g>
<g id="Rectangle 11">
<use xlink:href="#path1_fill" transform="translate(15169 -1277)" fill="#85233D"/>
</g>
</g>
</g>
<g id="RETAIL">
<use xlink:href="#path2_fill" transform="translate(15175 -1272.9)" fill="#FFFFFF"/>
<use xlink:href="#path3_fill" transform="translate(15175 -1272.9)" fill="#FFFFFF"/>
<use xlink:href="#path4_fill" transform="translate(15175 -1272.9)" fill="#FFFFFF"/>
<use xlink:href="#path5_fill" transform="translate(15175 -1272.9)" fill="#FFFFFF"/>
<use xlink:href="#path6_fill" transform="translate(15175 -1272.9)" fill="#FFFFFF"/>
<use xlink:href="#path7_fill" transform="translate(15175 -1272.9)" fill="#FFFFFF"/>
</g>
<g id="BUSINESS URAL">
<use xlink:href="#path8_fill" transform="translate(15174.8 -1249.53)" fill="#4C4B4A"/>
<use xlink:href="#path9_fill" transform="translate(15174.8 -1249.53)" fill="#4C4B4A"/>
<use xlink:href="#path10_fill" transform="translate(15174.8 -1249.53)" fill="#4C4B4A"/>
<use xlink:href="#path11_fill" transform="translate(15174.8 -1249.53)" fill="#4C4B4A"/>
<use xlink:href="#path12_fill" transform="translate(15174.8 -1249.53)" fill="#4C4B4A"/>
<use xlink:href="#path13_fill" transform="translate(15174.8 -1249.53)" fill="#4C4B4A"/>
<use xlink:href="#path14_fill" transform="translate(15174.8 -1249.53)" fill="#4C4B4A"/>
<use xlink:href="#path15_fill" transform="translate(15174.8 -1249.53)" fill="#4C4B4A"/>
<use xlink:href="#path16_fill" transform="translate(15174.8 -1249.53)" fill="#4C4B4A"/>
<use xlink:href="#path17_fill" transform="translate(15174.8 -1249.53)" fill="#4C4B4A"/>
<use xlink:href="#path18_fill" transform="translate(15174.8 -1249.53)" fill="#4C4B4A"/>
<use xlink:href="#path19_fill" transform="translate(15174.8 -1249.53)" fill="#4C4B4A"/>
</g>
</g>
</g>
<defs>
<path id="path0_fill" fill-rule="evenodd" d="M 0 1.69811C 0 0.760271 0.760271 0 1.69811 0L 88.3019 0C 89.2397 0 90 0.760271 90 1.69811L 90 83.3019C 90 84.2397 89.2397 85 88.3019 85L 1.69811 85C 0.760271 85 0 84.2397 0 83.3019L 0 1.69811Z"/>
<path id="path1_fill" fill-rule="evenodd" d="M 0 0L 90 0L 90 21L 0 21L 0 0Z"/>
<path id="path2_fill" d="M 6.256 11.9L 9.18 11.9L 6.647 7.531C 7.956 6.868 8.84 5.542 8.84 4.08C 8.84 1.819 7.021 0 4.76 0L 0 0L 0 11.9L 2.72 11.9L 2.72 7.99L 4.012 7.99L 6.256 11.9ZM 2.72 2.55L 4.76 2.55C 5.508 2.55 6.12 3.213 6.12 4.08C 6.12 4.947 5.508 5.61 4.76 5.61L 2.72 5.61L 2.72 2.55Z"/>
<path id="path3_fill" d="M 13.179 9.282L 13.179 7.174L 17.429 7.174L 17.429 4.59L 13.179 4.59L 13.179 2.618L 17.854 2.618L 17.854 0L 10.459 0L 10.459 11.9L 17.939 11.9L 17.939 9.282L 13.179 9.282Z"/>
<path id="path4_fill" d="M 27.4636 0L 18.6236 0L 18.6236 2.618L 21.6836 2.618L 21.6836 11.9L 24.4036 11.9L 24.4036 2.618L 27.4636 2.618L 27.4636 0Z"/>
<path id="path5_fill" d="M 35.3726 11.9L 38.3476 11.9L 34.3016 0L 30.8336 0L 26.7876 11.9L 29.7626 11.9L 30.3576 10.03L 34.7776 10.03L 35.3726 11.9ZM 31.1736 7.48L 32.5676 3.111L 33.9616 7.48L 31.1736 7.48Z"/>
<path id="path6_fill" d="M 39.3623 0L 39.3623 11.9L 42.0823 11.9L 42.0823 0L 39.3623 0Z"/>
<path id="path7_fill" d="M 46.847 9.282L 46.847 0L 44.127 0L 44.127 11.9L 51.097 11.9L 51.097 9.282L 46.847 9.282Z"/>
<path id="path8_fill" d="M 0.0390625 11.5312L 0.0390625 0.15625L 4.125 0.15625C 5.58854 0.15625 6.70052 0.424479 7.46094 0.960938C 8.22656 1.4974 8.60938 2.27604 8.60938 3.29688C 8.60938 3.88542 8.47396 4.38802 8.20312 4.80469C 7.93229 5.22135 7.53385 5.52865 7.00781 5.72656C 7.60156 5.88281 8.05729 6.17448 8.375 6.60156C 8.69271 7.02865 8.85156 7.54948 8.85156 8.16406C 8.85156 9.27865 8.4974 10.1172 7.78906 10.6797C 7.08594 11.237 6.04167 11.5208 4.65625 11.5312L 0.0390625 11.5312ZM 2.78125 6.69531L 2.78125 9.42188L 4.57812 9.42188C 5.07292 9.42188 5.45312 9.3099 5.71875 9.08594C 5.98438 8.85677 6.11719 8.53646 6.11719 8.125C 6.11719 7.17708 5.64583 6.70052 4.70312 6.69531L 2.78125 6.69531ZM 2.78125 4.89844L 4.21094 4.89844C 4.8099 4.89323 5.23698 4.78385 5.49219 4.57031C 5.7474 4.35677 5.875 4.04167 5.875 3.625C 5.875 3.14583 5.73698 2.80208 5.46094 2.59375C 5.1849 2.38021 4.73958 2.27344 4.125 2.27344L 2.78125 2.27344L 2.78125 4.89844Z"/>
<path id="path9_fill" d="M 19.2891 0.15625L 19.2891 7.60156C 19.2891 8.44531 19.1094 9.17708 18.75 9.79688C 18.3906 10.4115 17.875 10.8802 17.2031 11.2031C 16.5312 11.526 15.737 11.6875 14.8203 11.6875C 13.4349 11.6875 12.3438 11.3281 11.5469 10.6094C 10.75 9.89062 10.3438 8.90625 10.3281 7.65625L 10.3281 0.15625L 13.0859 0.15625L 13.0859 7.71094C 13.1172 8.95573 13.6953 9.57812 14.8203 9.57812C 15.388 9.57812 15.8177 9.42188 16.1094 9.10938C 16.401 8.79688 16.5469 8.28906 16.5469 7.58594L 16.5469 0.15625L 19.2891 0.15625Z"/>
<path id="path10_fill" d="M 26.875 8.50781C 26.875 8.10677 26.7318 7.79427 26.4453 7.57031C 26.1641 7.34635 25.6667 7.11458 24.9531 6.875C 24.2396 6.63542 23.6562 6.40365 23.2031 6.17969C 21.7292 5.45573 20.9922 4.46094 20.9922 3.19531C 20.9922 2.5651 21.1745 2.01042 21.5391 1.53125C 21.9089 1.04688 22.4297 0.671875 23.1016 0.40625C 23.7734 0.135417 24.5286 0 25.3672 0C 26.1849 0 26.9167 0.145833 27.5625 0.4375C 28.2135 0.729167 28.7188 1.14583 29.0781 1.6875C 29.4375 2.22396 29.6172 2.83854 29.6172 3.53125L 26.8828 3.53125C 26.8828 3.06771 26.7396 2.70833 26.4531 2.45312C 26.1719 2.19792 25.7891 2.07031 25.3047 2.07031C 24.8151 2.07031 24.4271 2.17969 24.1406 2.39844C 23.8594 2.61198 23.7188 2.88542 23.7188 3.21875C 23.7188 3.51042 23.875 3.77604 24.1875 4.01562C 24.5 4.25 25.0495 4.49479 25.8359 4.75C 26.6224 5 27.2682 5.27083 27.7734 5.5625C 29.0026 6.27083 29.6172 7.2474 29.6172 8.49219C 29.6172 9.48698 29.2422 10.2682 28.4922 10.8359C 27.7422 11.4036 26.7135 11.6875 25.4062 11.6875C 24.4844 11.6875 23.6484 11.5234 22.8984 11.1953C 22.1536 10.862 21.5911 10.4089 21.2109 9.83594C 20.8359 9.25781 20.6484 8.59375 20.6484 7.84375L 23.3984 7.84375C 23.3984 8.45312 23.5547 8.90365 23.8672 9.19531C 24.1849 9.48177 24.6979 9.625 25.4062 9.625C 25.8594 9.625 26.2161 9.52865 26.4766 9.33594C 26.7422 9.13802 26.875 8.86198 26.875 8.50781Z"/>
<path id="path11_fill" d="M 33.9453 11.5312L 31.2109 11.5312L 31.2109 0.15625L 33.9453 0.15625L 33.9453 11.5312Z"/>
<path id="path12_fill" d="M 45.3516 11.5312L 42.625 11.5312L 38.5938 4.45312L 38.5938 11.5312L 35.8516 11.5312L 35.8516 0.15625L 38.5938 0.15625L 42.6172 7.23438L 42.6172 0.15625L 45.3516 0.15625L 45.3516 11.5312Z"/>
<path id="path13_fill" d="M 54.1406 6.71094L 49.8281 6.71094L 49.8281 9.42188L 54.9219 9.42188L 54.9219 11.5312L 47.0859 11.5312L 47.0859 0.15625L 54.9375 0.15625L 54.9375 2.27344L 49.8281 2.27344L 49.8281 4.67188L 54.1406 4.67188L 54.1406 6.71094Z"/>
<path id="path14_fill" d="M 61.9062 8.50781C 61.9062 8.10677 61.763 7.79427 61.4766 7.57031C 61.1953 7.34635 60.6979 7.11458 59.9844 6.875C 59.2708 6.63542 58.6875 6.40365 58.2344 6.17969C 56.7604 5.45573 56.0234 4.46094 56.0234 3.19531C 56.0234 2.5651 56.2057 2.01042 56.5703 1.53125C 56.9401 1.04688 57.4609 0.671875 58.1328 0.40625C 58.8047 0.135417 59.5599 0 60.3984 0C 61.2161 0 61.9479 0.145833 62.5938 0.4375C 63.2448 0.729167 63.75 1.14583 64.1094 1.6875C 64.4688 2.22396 64.6484 2.83854 64.6484 3.53125L 61.9141 3.53125C 61.9141 3.06771 61.7708 2.70833 61.4844 2.45312C 61.2031 2.19792 60.8203 2.07031 60.3359 2.07031C 59.8464 2.07031 59.4583 2.17969 59.1719 2.39844C 58.8906 2.61198 58.75 2.88542 58.75 3.21875C 58.75 3.51042 58.9062 3.77604 59.2188 4.01562C 59.5312 4.25 60.0807 4.49479 60.8672 4.75C 61.6536 5 62.2995 5.27083 62.8047 5.5625C 64.0339 6.27083 64.6484 7.2474 64.6484 8.49219C 64.6484 9.48698 64.2734 10.2682 63.5234 10.8359C 62.7734 11.4036 61.7448 11.6875 60.4375 11.6875C 59.5156 11.6875 58.6797 11.5234 57.9297 11.1953C 57.1849 10.862 56.6224 10.4089 56.2422 9.83594C 55.8672 9.25781 55.6797 8.59375 55.6797 7.84375L 58.4297 7.84375C 58.4297 8.45312 58.5859 8.90365 58.8984 9.19531C 59.2161 9.48177 59.7292 9.625 60.4375 9.625C 60.8906 9.625 61.2474 9.52865 61.5078 9.33594C 61.7734 9.13802 61.9062 8.86198 61.9062 8.50781Z"/>
<path id="path15_fill" d="M 71.9219 8.50781C 71.9219 8.10677 71.7786 7.79427 71.4922 7.57031C 71.2109 7.34635 70.7135 7.11458 70 6.875C 69.2865 6.63542 68.7031 6.40365 68.25 6.17969C 66.776 5.45573 66.0391 4.46094 66.0391 3.19531C 66.0391 2.5651 66.2214 2.01042 66.5859 1.53125C 66.9557 1.04688 67.4766 0.671875 68.1484 0.40625C 68.8203 0.135417 69.5755 0 70.4141 0C 71.2318 0 71.9635 0.145833 72.6094 0.4375C 73.2604 0.729167 73.7656 1.14583 74.125 1.6875C 74.4844 2.22396 74.6641 2.83854 74.6641 3.53125L 71.9297 3.53125C 71.9297 3.06771 71.7865 2.70833 71.5 2.45312C 71.2188 2.19792 70.8359 2.07031 70.3516 2.07031C 69.862 2.07031 69.474 2.17969 69.1875 2.39844C 68.9062 2.61198 68.7656 2.88542 68.7656 3.21875C 68.7656 3.51042 68.9219 3.77604 69.2344 4.01562C 69.5469 4.25 70.0964 4.49479 70.8828 4.75C 71.6693 5 72.3151 5.27083 72.8203 5.5625C 74.0495 6.27083 74.6641 7.2474 74.6641 8.49219C 74.6641 9.48698 74.2891 10.2682 73.5391 10.8359C 72.7891 11.4036 71.7604 11.6875 70.4531 11.6875C 69.5312 11.6875 68.6953 11.5234 67.9453 11.1953C 67.2005 10.862 66.638 10.4089 66.2578 9.83594C 65.8828 9.25781 65.6953 8.59375 65.6953 7.84375L 68.4453 7.84375C 68.4453 8.45312 68.6016 8.90365 68.9141 9.19531C 69.2318 9.48177 69.7448 9.625 70.4531 9.625C 70.9062 9.625 71.263 9.52865 71.5234 9.33594C 71.7891 9.13802 71.9219 8.86198 71.9219 8.50781Z"/>
<path id="path16_fill" d="M 8.96094 19.1562L 8.96094 26.6016C 8.96094 27.4453 8.78125 28.1771 8.42188 28.7969C 8.0625 29.4115 7.54688 29.8802 6.875 30.2031C 6.20312 30.526 5.40885 30.6875 4.49219 30.6875C 3.10677 30.6875 2.01562 30.3281 1.21875 29.6094C 0.421875 28.8906 0.015625 27.9062 0 26.6562L 0 19.1562L 2.75781 19.1562L 2.75781 26.7109C 2.78906 27.9557 3.36719 28.5781 4.49219 28.5781C 5.0599 28.5781 5.48958 28.4219 5.78125 28.1094C 6.07292 27.7969 6.21875 27.2891 6.21875 26.5859L 6.21875 19.1562L 8.96094 19.1562Z"/>
<path id="path17_fill" d="M 14.9062 26.5156L 13.4219 26.5156L 13.4219 30.5312L 10.6797 30.5312L 10.6797 19.1562L 15.1562 19.1562C 16.5052 19.1562 17.5599 19.4557 18.3203 20.0547C 19.0807 20.6536 19.4609 21.5 19.4609 22.5938C 19.4609 23.3854 19.2995 24.0417 18.9766 24.5625C 18.6589 25.0833 18.1589 25.5052 17.4766 25.8281L 19.8516 30.4141L 19.8516 30.5312L 16.9141 30.5312L 14.9062 26.5156ZM 13.4219 24.3984L 15.1562 24.3984C 15.6771 24.3984 16.0677 24.263 16.3281 23.9922C 16.5938 23.7161 16.7266 23.3333 16.7266 22.8438C 16.7266 22.3542 16.5938 21.9714 16.3281 21.6953C 16.0625 21.4141 15.6719 21.2734 15.1562 21.2734L 13.4219 21.2734L 13.4219 24.3984Z"/>
<path id="path18_fill" d="M 27.5781 28.4062L 23.8203 28.4062L 23.1641 30.5312L 20.2344 30.5312L 24.4062 19.1562L 26.9844 19.1562L 31.1875 30.5312L 28.2422 30.5312L 27.5781 28.4062ZM 24.4766 26.2891L 26.9219 26.2891L 25.6953 22.3438L 24.4766 26.2891Z"/>
<path id="path19_fill" d="M 34.7656 28.4219L 39.5391 28.4219L 39.5391 30.5312L 32.0234 30.5312L 32.0234 19.1562L 34.7656 19.1562L 34.7656 28.4219Z"/>
</defs>
</svg>
