<?xml version="1.0" encoding="UTF-8"?>
<svg width="92px" height="87px" viewBox="0 0 92 87" version="1.1" xmlns="http://www.w3.org/2000/svg" xmlns:xlink="http://www.w3.org/1999/xlink">
    <!-- Generator: Sketch 46.2 (44496) - http://www.bohemiancoding.com/sketch -->
    <title>2 staffOnlyForum/square</title>
    <desc>Created with Sketch.</desc>
    <defs></defs>
    <g id="Icons" stroke="none" stroke-width="1" fill="none" fill-rule="evenodd">
        <g id="2-staffOnlyForum/square">
            <g id="Group-67">
                <g id="Group-24">
                    <rect id="Rectangle-4-Copy-2" fill="#FFFFFF" x="0" y="0" width="92" height="87" rx="2"></rect>
                    <path d="M2,0 L90,0 L90,0 C91.1045695,-2.02906125e-16 92,0.8954305 92,2 L92,32 L0,32 L0,2 L0,2 C-1.3527075e-16,0.8954305 0.8954305,2.02906125e-16 2,0 Z" id="Rectangle-11" fill="#354168"></path>
                </g>
                <g id="Group-13" transform="translate(6.094340, 20.339623)">
                    <g id="Bitmap"></g>
                </g>
            </g>
            <path d="M13.4257812,25.2695312 C13.4257812,24.6901013 13.2776708,24.2522801 12.9814453,23.9560547 C12.6852199,23.6598292 12.1464883,23.3522151 11.3652344,23.0332031 C9.939446,22.4928358 8.91406562,21.8597042 8.2890625,21.1337891 C7.66405937,20.407874 7.3515625,19.5501352 7.3515625,18.5605469 C7.3515625,17.3626242 7.77636294,16.4007198 8.62597656,15.6748047 C9.47559019,14.9488896 10.554681,14.5859375 11.8632812,14.5859375 C12.7356814,14.5859375 13.5136685,14.7698549 14.1972656,15.1376953 C14.8808628,15.5055357 15.4065737,16.0247362 15.7744141,16.6953125 C16.1422544,17.3658888 16.3261719,18.1275999 16.3261719,18.9804688 L13.4648438,18.9804688 C13.4648438,18.3164029 13.3232436,17.8102231 13.0400391,17.4619141 C12.7568345,17.113605 12.34831,16.9394531 11.8144531,16.9394531 C11.3131485,16.9394531 10.9225274,17.0875636 10.6425781,17.3837891 C10.3626288,17.6800145 10.2226562,18.0787735 10.2226562,18.5800781 C10.2226562,18.9707051 10.3789047,19.3238917 10.6914062,19.6396484 C11.0039078,19.9554052 11.5572877,20.2825504 12.3515625,20.6210938 C13.7382882,21.1223983 14.7457651,21.7376266 15.3740234,22.4667969 C16.0022818,23.1959672 16.3164062,24.1236923 16.3164062,25.25 C16.3164062,26.4869854 15.92253,27.4537726 15.1347656,28.1503906 C14.3470013,28.8470087 13.2760484,29.1953125 11.921875,29.1953125 C11.0039017,29.1953125 10.1673215,29.0065123 9.41210938,28.6289062 C8.65689727,28.2513002 8.06608286,27.710941 7.63964844,27.0078125 C7.21321401,26.304684 7,25.4746142 7,24.5175781 L9.88085938,24.5175781 C9.88085938,25.3378947 10.040363,25.9335919 10.359375,26.3046875 C10.678387,26.6757831 11.1992151,26.8613281 11.921875,26.8613281 C12.9244842,26.8613281 13.4257812,26.3307345 13.4257812,25.2695312 Z M26.7296875,17.1738281 L23.2140625,17.1738281 L23.2140625,29 L20.3332031,29 L20.3332031,17.1738281 L16.8761719,17.1738281 L16.8761719,14.78125 L26.7296875,14.78125 L26.7296875,17.1738281 Z M33.2953125,26.0898438 L29.3792969,26.0898438 L28.6175781,29 L25.5804688,29 L30.0238281,14.78125 L32.6507813,14.78125 L37.1234375,29 L34.0570313,29 L33.2953125,26.0898438 Z M30.0042969,23.6972656 L32.6605469,23.6972656 L31.3324219,18.6289062 L30.0042969,23.6972656 Z M45.0855469,23.1992188 L40.6226563,23.1992188 L40.6226563,29 L37.7515625,29 L37.7515625,14.78125 L45.6226563,14.78125 L45.6226563,17.1738281 L40.6226563,17.1738281 L40.6226563,20.8164062 L45.0855469,20.8164062 L45.0855469,23.1992188 Z M53.8972657,23.1992188 L49.434375,23.1992188 L49.434375,29 L46.5632813,29 L46.5632813,14.78125 L54.434375,14.78125 L54.434375,17.1738281 L49.434375,17.1738281 L49.434375,20.8164062 L53.8972657,20.8164062 L53.8972657,23.1992188 Z" id="STAFF" fill="#FFFFFF"></path>
            <path d="M17.2539062,46.1699219 C17.2539062,48.0774835 16.8030644,49.5585885 15.9013672,50.6132812 C14.99967,51.667974 13.7480549,52.1953125 12.1464844,52.1953125 C10.5514243,52.1953125 9.29818164,51.6728568 8.38671875,50.6279297 C7.47525586,49.5830026 7.0130209,48.1198011 7,46.2382812 L7,43.8066406 C7,41.8535059 7.45246943,40.328456 8.35742188,39.2314453 C9.26237432,38.1344346 10.5188722,37.5859375 12.1269531,37.5859375 C13.7089923,37.5859375 14.9557246,38.1246691 15.8671875,39.2021484 C16.7786504,40.2796278 17.2408854,41.7916569 17.2539062,43.7382812 L17.2539062,46.1699219 Z M14.3730469,43.7871094 C14.3730469,42.5045509 14.190757,41.5507844 13.8261719,40.9257812 C13.4615867,40.3007781 12.8951861,39.9882812 12.1269531,39.9882812 C11.3652306,39.9882812 10.8020852,40.289385 10.4375,40.8916016 C10.0729148,41.4938181 9.88411465,42.4101501 9.87109375,43.640625 L9.87109375,46.1699219 C9.87109375,47.4134177 10.0566388,48.3297497 10.4277344,48.9189453 C10.79883,49.508141 11.3717409,49.8027344 12.1464844,49.8027344 C12.895186,49.8027344 13.4518211,49.5146513 13.8164062,48.9384766 C14.1809914,48.3623018 14.3665364,47.4687561 14.3730469,46.2578125 L14.3730469,43.7871094 Z M28.5558594,52 L25.6847656,52 L21.4855469,42.6738281 L21.4855469,52 L18.6144531,52 L18.6144531,37.78125 L21.4855469,37.78125 L25.6945313,47.1171875 L25.6945313,37.78125 L28.5558594,37.78125 L28.5558594,52 Z M33.0316406,49.6171875 L38.0707031,49.6171875 L38.0707031,52 L30.1605469,52 L30.1605469,37.78125 L33.0316406,37.78125 L33.0316406,49.6171875 Z M40.5933594,44.1679688 L42.7320313,37.78125 L45.8570313,37.78125 L42.0484375,46.84375 L42.0484375,52 L39.1382813,52 L39.1382813,46.84375 L35.3199219,37.78125 L38.4449219,37.78125 L40.5933594,44.1679688 Z M14.578125,67.1992188 L10.1152344,67.1992188 L10.1152344,73 L7.24414062,73 L7.24414062,58.78125 L15.1152344,58.78125 L15.1152344,61.1738281 L10.1152344,61.1738281 L10.1152344,64.8164062 L14.578125,64.8164062 L14.578125,67.1992188 Z M26.065625,67.1699219 C26.065625,69.0774835 25.6147832,70.5585885 24.7130859,71.6132812 C23.8113887,72.667974 22.5597736,73.1953125 20.9582031,73.1953125 C19.3631431,73.1953125 18.1099004,72.6728568 17.1984375,71.6279297 C16.2869746,70.5830026 15.8247397,69.1198011 15.8117188,67.2382812 L15.8117188,64.8066406 C15.8117188,62.8535059 16.2641882,61.328456 17.1691406,60.2314453 C18.0740931,59.1344346 19.3305909,58.5859375 20.9386719,58.5859375 C22.520711,58.5859375 23.7674434,59.1246691 24.6789063,60.2021484 C25.5903692,61.2796278 26.0526041,62.7916569 26.065625,64.7382812 L26.065625,67.1699219 Z M23.1847656,64.7871094 C23.1847656,63.5045509 23.0024758,62.5507844 22.6378906,61.9257812 C22.2733055,61.3007781 21.7069049,60.9882812 20.9386719,60.9882812 C20.1769493,60.9882812 19.6138039,61.289385 19.2492188,61.8916016 C18.8846336,62.4938181 18.6958334,63.4101501 18.6828125,64.640625 L18.6828125,67.1699219 C18.6828125,68.4134177 18.8683575,69.3297497 19.2394531,69.9189453 C19.6105487,70.508141 20.1834597,70.8027344 20.9582031,70.8027344 C21.7069048,70.8027344 22.2635399,70.5146513 22.628125,69.9384766 C22.9927102,69.3623018 23.1782552,68.4687561 23.1847656,67.2578125 L23.1847656,64.7871094 Z M31.7328125,67.8046875 L30.3070313,67.8046875 L30.3070313,73 L27.4359375,73 L27.4359375,58.78125 L32.0160156,58.78125 C33.4548249,58.78125 34.5664675,59.1539676 35.3509766,59.8994141 C36.1354857,60.6448605 36.5277344,61.7044202 36.5277344,63.078125 C36.5277344,64.9661553 35.8408923,66.2877566 34.4671875,67.0429688 L36.9574219,72.8632812 L36.9574219,73 L33.8714844,73 L31.7328125,67.8046875 Z M30.3070313,65.4121094 L31.9378906,65.4121094 C32.5108102,65.4121094 32.9404934,65.2216816 33.2269531,64.8408203 C33.5134129,64.459959 33.6566406,63.950524 33.6566406,63.3125 C33.6566406,61.8867116 33.1000056,61.1738281 31.9867188,61.1738281 L30.3070313,61.1738281 L30.3070313,65.4121094 Z M47.0484375,58.78125 L47.0484375,68.625 C47.0354166,70.102872 46.6285197,71.2340456 45.8277344,72.0185547 C45.0269492,72.8030638 43.8778721,73.1953125 42.3804688,73.1953125 C40.8570237,73.1953125 39.6932983,72.7981811 38.8892578,72.0039062 C38.0852174,71.2096314 37.6832032,70.0605544 37.6832032,68.5566406 L37.6832032,58.78125 L40.5738282,58.78125 L40.5738282,68.5664062 C40.5738282,69.373702 40.7040352,69.9498681 40.9644532,70.2949219 C41.2248711,70.6399757 41.6968716,70.8125 42.3804688,70.8125 C43.064066,70.8125 43.5328113,70.6416033 43.7867188,70.2998047 C44.0406263,69.9580061 44.1708333,69.3964883 44.1773438,68.6152344 L44.1773438,58.78125 L47.0484375,58.78125 Z M52.2761719,58.78125 L54.9617188,69.0644531 L57.6375,58.78125 L61.3875,58.78125 L61.3875,73 L58.5066407,73 L58.5066407,69.1523438 L58.7703125,63.2246094 L55.9285157,73 L53.9753907,73 L51.1335938,63.2246094 L51.3972657,69.1523438 L51.3972657,73 L48.5261719,73 L48.5261719,58.78125 L52.2761719,58.78125 Z" id="ONLY-FORUM" fill="#2B2A29"></path>
        </g>
    </g>
</svg>