<svg width="90" height="72" viewBox="0 0 90 72" version="1.1" xmlns="http://www.w3.org/2000/svg" xmlns:xlink="http://www.w3.org/1999/xlink">
<title>room</title>
<desc>Created using Figma</desc>
<g id="Canvas" transform="translate(-329 3267)">
<g id="room">
<g id="Fill 1">
<use xlink:href="#path0_fill" transform="translate(403.193 -3216.42)" fill="#67C3D0"/>
</g>
<g id="Fill 2">
<use xlink:href="#path1_fill" transform="translate(401.204 -3201.27)" fill="#EC9867"/>
</g>
<g id="Fill 3">
<use xlink:href="#path2_fill" transform="translate(415.276 -3201.27)" fill="#EC9867"/>
</g>
<g id="Fill 4">
<use xlink:href="#path3_fill" transform="translate(401.203 -3205.24)" fill="#C96C4F"/>
</g>
<g id="Fill 5">
<use xlink:href="#path4_fill" transform="translate(401.204 -3213.13)" fill="#AA4A3D"/>
</g>
<g id="Fill 6">
<use xlink:href="#path5_fill" transform="translate(406.855 -3209.62)" fill="#C96C4F"/>
</g>
<g id="Fill 7">
<use xlink:href="#path6_fill" transform="translate(335.018 -3238.83)" fill="#29314E"/>
</g>
<g id="Fill 8">
<use xlink:href="#path7_fill" transform="translate(330.367 -3200.15)" fill="#00AFC4"/>
</g>
<g id="Fill 9">
<use xlink:href="#path8_fill" transform="translate(330.367 -3196.79)" fill="#DEDBD6"/>
</g>
<g id="Group 14">
<mask id="mask0_outline" mask-type="alpha">
<g id="Clip 11">
<use xlink:href="#path9_fill" transform="translate(329 -3253.3)" fill="#FFFFFF"/>
</g>
</mask>
<g id="Fill 10" mask="url(#mask0_outline)">
<use xlink:href="#path10_fill" transform="translate(330.367 -3200.15)" fill="#00A2B6"/>
</g>
<g id="Fill 12" mask="url(#mask0_outline)">
<use xlink:href="#path11_fill" transform="translate(328.989 -3253.3)" fill="#DCAA24"/>
</g>
<g id="Fill 13" mask="url(#mask0_outline)">
<use xlink:href="#path12_fill" transform="translate(328.989 -3253.3)" fill="#E88042"/>
</g>
</g>
<g id="Fill 15">
<use xlink:href="#path13_fill" transform="translate(347.765 -3229.26)" fill="#F9B90C"/>
</g>
<g id="Fill 16">
<use xlink:href="#path14_fill" transform="translate(347.765 -3229.26)" fill="#DCAA24"/>
</g>
<g id="Fill 17">
<use xlink:href="#path15_fill" transform="translate(369.981 -3229.26)" fill="#C7940A"/>
</g>
<g id="Fill 18">
<use xlink:href="#path16_fill" transform="translate(354.935 -3219.1)" fill="#00A280"/>
</g>
<g id="Fill 19">
<use xlink:href="#path17_fill" transform="translate(378.466 -3219.1)" fill="#00A280"/>
</g>
<g id="Fill 20">
<use xlink:href="#path18_fill" transform="translate(347.765 -3209.83)" fill="#C7940A"/>
</g>
<g id="Fill 21">
<use xlink:href="#path19_fill" transform="translate(341.33 -3216.63)" fill="#F9B90C"/>
</g>
<g id="Fill 22">
<use xlink:href="#path20_fill" transform="translate(342.498 -3195.9)" fill="#DEDBD6"/>
</g>
<g id="Fill 23">
<use xlink:href="#path21_fill" transform="translate(341.33 -3196.82)" fill="#00A2B6"/>
</g>
<g id="Fill 24">
<use xlink:href="#path22_fill" transform="translate(341.33 -3216.63)" fill="#DCAA24"/>
</g>
<g id="Fill 25">
<use xlink:href="#path23_fill" transform="translate(393.174 -3216.63)" fill="#F9B90C"/>
</g>
<g id="Fill 26">
<use xlink:href="#path24_fill" transform="translate(393.444 -3196.17)" fill="#DEDBD6"/>
</g>
<g id="Fill 27">
<use xlink:href="#path25_fill" transform="translate(393.174 -3216.63)" fill="#DCAA24"/>
</g>
<g id="Fill 28">
<use xlink:href="#path26_fill" transform="translate(350.029 -3262.84)" fill="#AA4A3D"/>
</g>
<g id="Fill 29">
<use xlink:href="#path27_fill" transform="translate(353.861 -3259)" fill="#83CCDA"/>
</g>
<g id="Fill 30">
<use xlink:href="#path28_fill" transform="translate(397.216 -3238.36)" fill="#C7940A"/>
</g>
<g id="Fill 31">
<use xlink:href="#path29_fill" transform="translate(403.359 -3258.67)" fill="#F9B90C"/>
</g>
<g id="Fill 32">
<use xlink:href="#path30_fill" transform="translate(337.836 -3267)" fill="#F9B90C"/>
</g>
<g id="Fill 33">
<use xlink:href="#path31_fill" transform="translate(376.206 -3251.22)" fill="#4AB69A"/>
</g>
<g id="Fill 34">
<use xlink:href="#path32_fill" transform="translate(362.439 -3255.48)" fill="#00A280"/>
</g>
<g id="Fill 35">
<use xlink:href="#path33_fill" transform="translate(354.387 -3251.41)" fill="#4AB69A"/>
</g>
<g id="Fill 36">
<use xlink:href="#path34_fill" transform="translate(353.861 -3259)" fill="#74C6CC"/>
</g>
<g id="Fill 37">
<use xlink:href="#path35_fill" transform="translate(354.387 -3246.18)" fill="#38B293"/>
</g>
<g id="Fill 38">
<use xlink:href="#path36_fill" transform="translate(403.193 -3220.39)" fill="#00AFC4"/>
</g>
</g>
</g>
<defs>
<path id="path0_fill" fill-rule="evenodd" d="M 13.6333 3.86386L 13.6333 0.930877C 13.6333 0.418947 13.2144 0 12.7026 0L 0.930702 0C 0.418772 0 0 0.418947 0 0.930877L 0 3.86386L 13.6333 3.86386Z"/>
<path id="path1_fill" fill-rule="evenodd" d="M 0 0L 0 4.43614C 0 4.94807 0.418947 5.36702 0.930877 5.36702L 2.60737 5.36702C 3.1193 5.36702 3.53807 4.94807 3.53807 4.43614L 3.53807 0L 0 0Z"/>
<path id="path2_fill" fill-rule="evenodd" d="M 0 4.43614C 0 4.94807 0.418772 5.36702 0.930702 5.36702L 2.60737 5.36702C 3.11912 5.36702 3.53807 4.94807 3.53807 4.43614L 3.53807 0L 0.000175439 0L 0.000175439 4.43614L 0 4.43614Z"/>
<path id="path3_fill" fill-rule="evenodd" d="M 0 4.54368L 17.6088 4.54368L 17.6088 0L 0 0L 0 4.54368Z"/>
<path id="path4_fill" fill-rule="evenodd" d="M 16.663 0L 0.946842 0C 0.42614 0 0 0.42614 0 0.947193L 0 8.48421L 17.6098 8.48421L 17.6098 0.947193C 17.6098 0.425965 17.1839 0 16.663 0Z"/>
<path id="path5_fill" fill-rule="evenodd" d="M 4.95281 2.71053L 1.35526 2.71053C 0.606667 2.71053 0 2.10386 0 1.35526C 0 0.606491 0.606667 0 1.35526 0L 4.95281 0C 5.70158 0 6.30807 0.606491 6.30807 1.35526C 6.30807 2.10386 5.70158 2.71053 4.95281 2.71053Z"/>
<path id="path6_fill" fill-rule="evenodd" d="M 2.63158 39.266L 2.63158 1.31579C 2.63158 0.588947 2.04263 0 1.31579 0C 0.588947 0 0 0.588947 0 1.31579L 0 39.266L 2.63158 39.266Z"/>
<path id="path7_fill" fill-rule="evenodd" d="M 12.1316 0L 0.903684 0C 0.406667 0 0 0.406667 0 0.903509L 0 3.35386C 0 3.8507 0.406667 4.25737 0.903684 4.25737L 12.1316 4.25737L 12.1316 0Z"/>
<path id="path8_fill" fill-rule="evenodd" d="M 4.85807 0.903684L 0.903684 0.903684C 0.406667 0.903684 0 0.497018 0 0.000175439L 0 0C 0 0.496842 0.406667 0.903509 0.903684 0.903509L 4.84123 0.903509C 4.84684 0.903684 4.85246 0.903684 4.85807 0.903684Z"/>
<path id="path9_fill" fill-rule="evenodd" d="M 2.21558e-16 57.4091L 2.21558e-16 0L 14.6777 9.97253e-15L 14.6777 57.4091L 2.21558e-16 57.4091Z"/>
<path id="path10_fill" fill-rule="evenodd" d="M 4.84123 4.25719L 0.903684 4.25719C 0.406667 4.25719 0 3.85053 0 3.35368L 0 0.903509C 0 0.406667 0.406667 0 0.903684 0L 4.85807 0C 4.36105 0 3.95456 0.406667 3.95456 0.903509L 3.95456 3.35386C 3.95456 3.84509 4.35193 4.24807 4.84123 4.25719Z"/>
<path id="path11_fill" fill-rule="evenodd" d="M 14.6882 17.3084C 14.6882 17.8054 14.2816 18.2119 13.7846 18.2119L 0.903509 18.2119C 0.406667 18.2119 0 17.8054 0 17.3084L 0 0.903684C 0 0.406491 0.406667 0 0.903509 0L 13.7844 0C 14.2814 0 14.6881 0.406491 14.6881 0.903684L 14.6881 17.3084L 14.6882 17.3084Z"/>
<path id="path12_fill" fill-rule="evenodd" d="M 4.78947 18.2119L 0.903509 18.2119C 0.406667 18.2119 0 17.8054 0 17.3084L 0 0.903684C 0 0.406491 0.406667 0 0.903509 0L 4.7893 0C 4.29228 0 3.88561 0.406491 3.88561 0.903684L 3.88561 17.3084C 3.88561 17.8054 4.29246 18.2119 4.78947 18.2119Z"/>
<path id="path13_fill" fill-rule="evenodd" d="M 45.2563 0L 1.80737 0C 0.813333 0 0 0.813333 0 1.80737L 0 20.0919L 47.0635 20.0919L 47.0635 1.80719C 47.0635 0.813158 46.2505 0 45.2563 0Z"/>
<path id="path14_fill" fill-rule="evenodd" d="M 3.15456 19.4237L 1.65456 19.4237L 1.65456 14.4688C 1.65474 13.5193 0.925614 12.7318 0 12.6386L 0 1.80737C 0 0.813333 0.813333 0 1.80737 0L 4.96193 0C 3.96789 0 3.15456 0.813158 3.15456 1.80719L 3.15456 19.4237Z"/>
<path id="path15_fill" fill-rule="evenodd" d="M 0 20.0912L 2.63158 20.0912L 2.63158 0L 0 0L 0 20.0912Z"/>
<path id="path16_fill" fill-rule="evenodd" d="M 9.92719 9.03018C 9.92719 9.52719 9.5207 9.93386 9.02368 9.93386L 0.903509 9.93386C 0.406491 9.93386 0 9.52719 0 9.03018L 0 0.903509C 0 0.406667 0.406491 0 0.903509 0L 9.02368 0C 9.5207 0 9.92719 0.406667 9.92719 0.903509L 9.92719 9.03018Z"/>
<path id="path17_fill" fill-rule="evenodd" d="M 9.92737 9.03018C 9.92737 9.52719 9.52088 9.93386 9.02386 9.93386L 0.903684 9.93386C 0.406667 9.93386 0 9.52719 0 9.03018L 0 0.903509C 0 0.406667 0.406667 0 0.903684 0L 9.02386 0C 9.52088 0 9.92737 0.406667 9.92737 0.903509L 9.92737 9.03018Z"/>
<path id="path18_fill" fill-rule="evenodd" d="M 0 9.29825L 47.0632 9.29825L 47.0632 0L 0 0L 0 9.29825Z"/>
<path id="path19_fill" fill-rule="evenodd" d="M 6.2507 0L 1.8386 0C 0.827368 0 0 0.827719 0 1.8393L 0 19.8042C 0 20.3102 0.413509 20.7242 0.919123 20.7242L 7.16982 20.7242C 7.67544 20.7242 8.08912 20.3102 8.08912 19.8042L 8.08912 1.8393C 8.0893 0.827719 7.26175 0 6.2507 0Z"/>
<path id="path20_fill" fill-rule="evenodd" d="M 3.62982 0.0005L 0 0.0005L 0 0L 3.61158 0C 3.61772 0.0005 3.62368 0.0005 3.62982 0.0005Z"/>
<path id="path21_fill" fill-rule="evenodd" d="M 1.16807 0.92L 0.919123 0.92C 0.413509 0.92 0 0.505965 0 0C 0 0.505789 0.413509 0.919825 0.919123 0.919825L 1.16807 0.919825L 1.16807 0.92Z"/>
<path id="path22_fill" fill-rule="evenodd" d="M 4.77965 20.724L 0.919123 20.724C 0.413509 20.724 0 20.31 0 19.804L 0 1.8393C 0 0.827719 0.827368 0 1.8386 0L 5.71737 0C 4.70614 0 3.87895 0.827544 3.87895 1.8393L 3.87895 19.8042C 3.87895 20.3039 4.28263 20.7142 4.77965 20.724Z"/>
<path id="path23_fill" fill-rule="evenodd" d="M 6.25053 0L 1.83842 0C 0.827193 0 0 0.827719 0 1.8393L 0 19.8042C 0 20.3102 0.413684 20.7242 0.919298 20.7242L 7.17 20.7242C 7.67544 20.7242 8.08912 20.3102 8.08912 19.8042L 8.08912 1.8393C 8.08912 0.827719 7.26175 0 6.25053 0Z"/>
<path id="path24_fill" fill-rule="evenodd" d="M 3.60737 0.5L 0.649298 0.5C 0.396491 0.5 0.166667 0.308566 0 0C 0.166667 0.308241 0.396316 0.499676 0.649123 0.499676L 3.58912 0.499676C 3.59526 0.5 3.60123 0.5 3.60737 0.5Z"/>
<path id="path25_fill" fill-rule="evenodd" d="M 3.85912 20.724L 0.919123 20.724C 0.666316 20.724 0.436667 20.6205 0.27 20.4539C 0.103333 20.2872 0 20.0572 0 19.8042L 0 1.8393C 0 0.827719 0.827193 0 1.83842 0L 4.79667 0C 3.78544 0 2.95825 0.827544 2.95825 1.8393L 2.95825 19.8042C 2.95825 20.3039 3.36193 20.7142 3.85912 20.724Z"/>
<path id="path26_fill" fill-rule="evenodd" d="M 41.5768 0L 0.95807 0C 0.431053 0 0 0.431404 0 0.958772L 0 23.3905C 0 23.9179 0.431053 24.3493 0.95807 24.3493L 41.5768 24.3493C 42.1039 24.3493 42.5349 23.9179 42.5349 23.3905L 42.5349 0.958772C 42.5349 0.431404 42.1039 0 41.5768 0Z"/>
<path id="path27_fill" fill-rule="evenodd" d="M 0.526316 16.6796C 0.236842 16.6796 0 16.4428 0 16.1533L 0 0.526316C 0 0.236842 0.236842 0 0.526316 0L 34.3449 0C 34.6344 0 34.8712 0.236842 34.8712 0.526316L 34.8712 16.1533C 34.8712 16.4428 34.6344 16.6796 34.3449 16.6796L 0.526316 16.6796Z"/>
<path id="path28_fill" fill-rule="evenodd" d="M 4.4893 9.08333C 4.27825 9.08333 4.0921 8.94491 4.03018 8.74123C 3.27649 6.29298 2.7586 5.76912 0.33807 5.00649C 0.136842 4.94316 0 4.75509 0 4.5414C 0 4.32877 0.136842 4.14018 0.33807 4.07684C 2.7586 3.31456 3.27649 2.79105 4.03018 0.34193C 4.09228 0.138947 4.27825 0 4.4893 0C 4.70035 0 4.88614 0.138947 4.94895 0.34193C 5.70298 2.79105 6.21965 3.31456 8.64035 4.07684C 8.84158 4.14018 8.97842 4.32877 8.97842 4.5414C 8.97842 4.75526 8.84175 4.94316 8.64035 5.00649C 6.21965 5.76912 5.70298 6.29298 4.94895 8.74123C 4.88614 8.94491 4.70035 9.08333 4.4893 9.08333Z"/>
<path id="path29_fill" fill-rule="evenodd" d="M 4.9714 10.0593C 4.7379 10.0593 4.53193 9.90614 4.46316 9.68035C 3.6286 6.96895 3.05509 6.38877 0.374211 5.54421C 0.151404 5.47421 0 5.26614 0 5.02947C 0 4.79403 0.151404 4.58509 0.374211 4.51491C 3.05491 3.67088 3.6286 3.09088 4.46316 0.378596C 4.53193 0.153684 4.73772 0 4.9714 0C 5.20544 0 5.41088 0.153684 5.48035 0.378596C 6.31579 3.09088 6.88825 3.67088 9.56895 4.51491C 9.79175 4.58491 9.94316 4.79403 9.94316 5.02947C 9.94316 5.26614 9.79175 5.47403 9.56895 5.54421C 6.88842 6.38877 6.31579 6.96895 5.48035 9.68035C 5.41088 9.90614 5.20544 10.0593 4.9714 10.0593Z"/>
<path id="path30_fill" fill-rule="evenodd" d="M 3.71491 7.51632C 3.54035 7.51632 3.38649 7.40175 3.33491 7.23333C 2.71123 5.20702 2.28281 4.77351 0.279474 4.14246C 0.113333 4.09035 0 3.93456 0 3.75772C 0 3.58193 0.113333 3.42561 0.279474 3.37351C 2.28281 2.74263 2.71123 2.30965 3.33491 0.282632C 3.38649 0.114737 3.54035 0 3.71491 0C 3.88947 0 4.04316 0.114737 4.09526 0.282632C 4.7193 2.30965 5.14702 2.74263 7.15 3.37351C 7.31649 3.42579 7.42947 3.58193 7.42947 3.75772C 7.42947 3.93474 7.31649 4.09035 7.15 4.14246C 5.14702 4.77368 4.7193 5.20702 4.09526 7.23333C 4.04316 7.40158 3.88947 7.51632 3.71491 7.51632Z"/>
<path id="path31_fill" fill-rule="evenodd" d="M 5.68667 0.197105L 0 8.89395L 11.9991 8.89395L 6.31211 0.197105C 6.14018 -0.0657018 5.85842 -0.0657018 5.68667 0.197105Z"/>
<path id="path32_fill" fill-rule="evenodd" d="M 8.47596 0.197237L 0 13.159L 17.5772 13.159L 9.1014 0.197237C 8.9293 -0.0657456 8.64789 -0.0657456 8.47596 0.197237Z"/>
<path id="path33_fill" fill-rule="evenodd" d="M 5.81403 0.197237L 0 9.08794L 12.253 9.08794L 6.4393 0.197237C 6.26737 -0.0657456 5.98614 -0.0657456 5.81403 0.197237Z"/>
<path id="path34_fill" fill-rule="evenodd" d="M 0.52614 16.6796C 0.236667 16.6796 0 16.4428 0 16.1533L 0 0.526316C 0 0.236842 0.236842 0 0.526316 0L 3.05193 0L 3.05193 12.8172L 0.52614 16.6796Z"/>
<path id="path35_fill" fill-rule="evenodd" d="M 2.52579 3.86246L 0 3.86246C 0.000175439 3.86246 0 3.86246 0 3.86246L 2.52579 0L 2.52579 3.86246Z"/>
<path id="path36_fill" fill-rule="evenodd" d="M 13.6333 3.04807C 13.6333 3.56 13.2144 3.97912 12.7026 3.97912L 0.930702 3.97912C 0.418772 3.97912 0 3.56 0 3.04807L 0 0.930877C 0 0.418772 0.418772 0 0.930702 0L 12.7026 0C 13.2144 0 13.6333 0.418772 13.6333 0.930877L 13.6333 3.04807Z"/>
</defs>
</svg>
