<svg width="75" height="78" viewBox="0 0 75 78" version="1.1" xmlns="http://www.w3.org/2000/svg" xmlns:xlink="http://www.w3.org/1999/xlink">
<title>waiter</title>
<desc>Created using Figma</desc>
<g id="Canvas" transform="translate(-735 3740)">
<g id="waiter">
<g id="Fill 1">
<use xlink:href="#path0_fill" transform="translate(735 -3696.69)" fill="#F9C959"/>
</g>
<g id="Fill 2">
<use xlink:href="#path1_fill" transform="translate(754.499 -3686.84)" fill="#C8414E"/>
</g>
<g id="Fill 3">
<use xlink:href="#path2_fill" transform="translate(754.609 -3691.04)" fill="#E6E9E8"/>
</g>
<g id="Fill 4">
<use xlink:href="#path3_fill" transform="translate(769.003 -3691.25)" fill="#E6E9E8"/>
</g>
<g id="Fill 5">
<use xlink:href="#path4_fill" transform="translate(748.046 -3733.49)" fill="#E5C2B3"/>
</g>
<g id="Fill 6">
<use xlink:href="#path5_fill" transform="translate(754.609 -3740)" fill="#E36851"/>
</g>
<g id="Fill 7">
<use xlink:href="#path6_fill" transform="translate(743.124 -3737.54)" fill="#D95240"/>
</g>
<g id="Fill 8">
<use xlink:href="#path7_fill" transform="translate(751.25 -3675)" fill="#DC515D"/>
</g>
<g id="Fill 9">
<use xlink:href="#path8_fill" transform="translate(780.501 -3684.75)" fill="#0A0B09"/>
</g>
<g id="Fill 10">
<use xlink:href="#path9_fill" transform="translate(791.583 -3686.38)" fill="#44B7AC"/>
</g>
<g id="Fill 11">
<use xlink:href="#path10_fill" transform="translate(775.626 -3691.25)" fill="#44B7AC"/>
</g>
</g>
</g>
<defs>
<path id="path0_fill" fill-rule="evenodd" d="M 57.2069 15.8457L 56.6975 15.6934C 52.6652 14.6104 56.188 13.3417 54.3933 12.6585C 48.0285 10.2329 46.3718 8.48341 45.9479 7.65756C 45.9289 7.62892 45.9193 7.59571 45.9051 7.56707L 45.8527 0.168949L 34.0025 0L 22.1509 0.168949L 22.0962 7.56707C 22.0844 7.59571 22.0725 7.62892 22.0557 7.65756C 21.6321 8.48341 19.9755 10.2329 13.6081 12.6585C 11.8133 13.3417 10.4496 14.3819 6.41733 15.4649L 6.14128 15.5435C 2.47071 16.7575 0 20.1613 0 24.003L 0 34.6833L 55.8358 34.6833L 55.1265 24.003C 55.1263 20.1612 60.8772 17.0573 57.2069 15.8457Z"/>
<path id="path1_fill" fill-rule="evenodd" d="M 0 14.0004L 3.24904 14.0004L 3.24904 0L 0 0L 0 14.0004Z"/>
<path id="path2_fill" fill-rule="evenodd" d="M 9.60207 10.9637L 14.3936 4.61541L 2.50164 0L 0 4.20591L 9.60207 10.9637Z"/>
<path id="path3_fill" fill-rule="evenodd" d="M 0 4.82488L 4.78923 11.1732L 13.1166 5.2129L 7.68955 0L 0 4.82488Z"/>
<path id="path4_fill" fill-rule="evenodd" d="M 41.9087 22.5985C 41.9087 36.2138 28.9313 48.7438 20.9563 48.7438C 12.98 48.7438 0 36.2138 0 22.5985C 0 8.98325 9.38316 0 20.9563 0C 32.5304 0 41.9087 8.98325 41.9087 22.5985Z"/>
<path id="path5_fill" fill-rule="evenodd" d="M 38.9214 17.8404C 37.7074 13.4631 35.6698 9.58303 33.0373 6.62208C 30.1476 3.37289 26.5962 1.32829 22.7781 0.709312C 19.8659 0.237961 17.1356 0 14.6602 0C 4.5534 0 1.43051 3.89177 1.10678 4.33692L 0.82357 4.72494L 0 20.0969L 1.99936 19.7588C 4.38933 19.3589 6.66016 19.1542 8.74758 19.1542C 15.2648 19.1542 20.3029 21.1252 23.7208 25.0145C 30.519 32.7506 28.9385 45.678 28.9241 45.8089L 28.3766 49.9672L 31.5804 47.2586C 35.5317 43.9213 38.2549 39.2011 39.464 33.605C 40.5448 28.5969 40.3496 22.9984 38.9214 17.8404Z"/>
<path id="path6_fill" fill-rule="evenodd" d="M 15.5744 0L 13.4392 0.933105C 13.3013 0.994957 10.0306 2.44222 6.74822 5.51286C 2.33512 9.64031 0 14.7486 0 20.2873C 0 33.8145 4.78207 41.3552 4.98438 41.6695L 7.93132 46.2231L 7.97413 40.8007C 8.04786 31.2533 10.1877 25.1908 11.9683 21.7845C 13.8319 18.2237 15.6981 16.7574 15.8101 16.6716L 16.5313 16.1695L 15.5744 0Z"/>
<path id="path7_fill" fill-rule="evenodd" d="M 35.7484 3.24431C 35.7484 3.24431 34.5583 0 17.7522 0C 0.9424 0 0 3.24431 0 3.24431L 0 12.994L 35.7484 12.994L 35.7484 3.24431Z"/>
<path id="path8_fill" fill-rule="evenodd" d="M 0 11.7472L 3.24675 11.7472L 3.24675 0L 0 0L 0 11.7472Z"/>
<path id="path9_fill" fill-rule="evenodd" d="M 3.24658 16.2504L 14.9147 16.2504L 14.9147 3.25163L 3.24658 3.25163L 3.24658 16.2504ZM 16.5381 0L 1.62338 0C 0.723633 0 0 0.728356 0 1.62581L 0 17.8762C 0 18.7735 0.723633 19.4994 1.62338 19.4994L 16.5381 19.4994C 17.4379 19.4994 18.1664 18.7733 18.1664 17.8762L 18.1664 1.62581C 18.1662 0.728356 17.4379 0 16.5381 0Z"/>
<path id="path10_fill" fill-rule="evenodd" d="M 25.9975 27.6259C 25.9975 28.5232 25.2691 29.2491 24.3741 29.2491L 1.62322 29.2491C 0.728203 29.2491 0 28.523 0 27.6259L 0 0L 25.9975 0L 25.9975 27.6259Z"/>
</defs>
</svg>
