<svg width="90" height="85" viewBox="0 0 90 85" version="1.1" xmlns="http://www.w3.org/2000/svg" xmlns:xlink="http://www.w3.org/1999/xlink">
<title>9</title>
<desc>Created using Figma</desc>
<g id="Canvas" transform="translate(-16050 1392)">
<g id="9">
<g id="Rectangle 4 Copy 2">
<use xlink:href="#path0_fill" transform="translate(16050 -1392)" fill="#FFFFFF"/>
</g>
<g id="Rectangle 11">
<use xlink:href="#path1_fill" transform="translate(16050 -1382)" fill="#1C6EB0"/>
</g>
<g id="DIGITAL">
<use xlink:href="#path2_fill" transform="translate(16056 -1378.14)" fill="#FFFFFF"/>
<use xlink:href="#path3_fill" transform="translate(16056 -1378.14)" fill="#FFFFFF"/>
<use xlink:href="#path4_fill" transform="translate(16056 -1378.14)" fill="#FFFFFF"/>
<use xlink:href="#path5_fill" transform="translate(16056 -1378.14)" fill="#FFFFFF"/>
<use xlink:href="#path6_fill" transform="translate(16056 -1378.14)" fill="#FFFFFF"/>
<use xlink:href="#path7_fill" transform="translate(16056 -1378.14)" fill="#FFFFFF"/>
<use xlink:href="#path8_fill" transform="translate(16056 -1378.14)" fill="#FFFFFF"/>
</g>
<g id="TECHNOLOGIES FORUM">
<use xlink:href="#path9_fill" transform="translate(16055.2 -1354.93)" fill="#4C4B4A"/>
<use xlink:href="#path10_fill" transform="translate(16055.2 -1354.93)" fill="#4C4B4A"/>
<use xlink:href="#path11_fill" transform="translate(16055.2 -1354.93)" fill="#4C4B4A"/>
<use xlink:href="#path12_fill" transform="translate(16055.2 -1354.93)" fill="#4C4B4A"/>
<use xlink:href="#path13_fill" transform="translate(16055.2 -1354.93)" fill="#4C4B4A"/>
<use xlink:href="#path14_fill" transform="translate(16055.2 -1354.93)" fill="#4C4B4A"/>
<use xlink:href="#path15_fill" transform="translate(16055.2 -1354.93)" fill="#4C4B4A"/>
<use xlink:href="#path16_fill" transform="translate(16055.2 -1354.93)" fill="#4C4B4A"/>
<use xlink:href="#path17_fill" transform="translate(16055.2 -1354.93)" fill="#4C4B4A"/>
<use xlink:href="#path18_fill" transform="translate(16055.2 -1354.93)" fill="#4C4B4A"/>
<use xlink:href="#path19_fill" transform="translate(16055.2 -1354.93)" fill="#4C4B4A"/>
<use xlink:href="#path20_fill" transform="translate(16055.2 -1354.93)" fill="#4C4B4A"/>
<use xlink:href="#path21_fill" transform="translate(16055.2 -1354.93)" fill="#4C4B4A"/>
<use xlink:href="#path22_fill" transform="translate(16055.2 -1354.93)" fill="#4C4B4A"/>
<use xlink:href="#path23_fill" transform="translate(16055.2 -1354.93)" fill="#4C4B4A"/>
<use xlink:href="#path24_fill" transform="translate(16055.2 -1354.93)" fill="#4C4B4A"/>
<use xlink:href="#path25_fill" transform="translate(16055.2 -1354.93)" fill="#4C4B4A"/>
</g>
</g>
</g>
<defs>
<path id="path0_fill" fill-rule="evenodd" d="M 0 1.69811C 0 0.760271 0.760271 0 1.69811 0L 88.3019 0C 89.2397 0 90 0.760271 90 1.69811L 90 83.3019C 90 84.2397 89.2397 85 88.3019 85L 1.69811 85C 0.760271 85 0 84.2397 0 83.3019L 0 1.69811Z"/>
<path id="path1_fill" fill-rule="evenodd" d="M 0 0L 90 0L 90 21L 0 21L 0 0Z"/>
<path id="path2_fill" d="M 4.76 0.238L 0 0.238L 0 12.138L 4.76 12.138C 8.041 12.138 10.54 9.554 10.54 6.188C 10.54 2.822 8.041 0.238 4.76 0.238ZM 4.76 9.52L 2.72 9.52L 2.72 2.856L 4.76 2.856C 6.63 2.856 7.922 4.148 7.922 6.188C 7.922 8.228 6.63 9.52 4.76 9.52Z"/>
<path id="path3_fill" d="M 12.0693 0.238L 12.0693 12.138L 14.7893 12.138L 14.7893 0.238L 12.0693 0.238Z"/>
<path id="path4_fill" d="M 28.615 5.508L 22.648 5.508L 22.648 7.888L 25.827 7.888C 25.402 9.027 24.365 9.724 22.784 9.724C 20.472 9.724 19.044 8.245 19.044 6.222C 19.044 4.131 20.54 2.652 22.546 2.652C 23.889 2.652 24.96 3.264 25.453 4.046L 27.765 2.72C 26.762 1.122 24.841 0 22.563 0C 19.061 0 16.324 2.754 16.324 6.205C 16.324 9.622 19.01 12.376 22.75 12.376C 26.082 12.376 28.615 10.166 28.615 6.528L 28.615 5.508Z"/>
<path id="path5_fill" d="M 30.1484 0.238L 30.1484 12.138L 32.8684 12.138L 32.8684 0.238L 30.1484 0.238Z"/>
<path id="path6_fill" d="M 42.9031 0.238L 34.0631 0.238L 34.0631 2.856L 37.1231 2.856L 37.1231 12.138L 39.8431 12.138L 39.8431 2.856L 42.9031 2.856L 42.9031 0.238Z"/>
<path id="path7_fill" d="M 50.8121 12.138L 53.7871 12.138L 49.7411 0.238L 46.2731 0.238L 42.2271 12.138L 45.2021 12.138L 45.7971 10.268L 50.2171 10.268L 50.8121 12.138ZM 46.6131 7.718L 48.0071 3.349L 49.4011 7.718L 46.6131 7.718Z"/>
<path id="path8_fill" d="M 57.5218 9.52L 57.5218 0.238L 54.8018 0.238L 54.8018 12.138L 61.7718 12.138L 61.7718 9.52L 57.5218 9.52Z"/>
<path id="path9_fill" d="M 6.53662 1.56836L 4.18945 1.56836L 4.18945 7.93311L 2.3042 7.93311L 2.3042 1.56836L 0 1.56836L 0 0.112793L 6.53662 0.112793L 6.53662 1.56836Z"/>
<path id="path10_fill" d="M 12.187 4.61914L 9.22217 4.61914L 9.22217 6.48291L 12.7241 6.48291L 12.7241 7.93311L 7.33691 7.93311L 7.33691 0.112793L 12.7349 0.112793L 12.7349 1.56836L 9.22217 1.56836L 9.22217 3.21729L 12.187 3.21729L 12.187 4.61914Z"/>
<path id="path11_fill" d="M 19.8193 5.28516C 19.7943 5.82943 19.6475 6.31104 19.3789 6.72998C 19.1104 7.14535 18.7326 7.46761 18.2456 7.69678C 17.7622 7.92594 17.209 8.04053 16.5859 8.04053C 15.5583 8.04053 14.749 7.70573 14.1582 7.03613C 13.5674 6.36654 13.272 5.42122 13.272 4.2002L 13.272 3.81348C 13.272 3.0472 13.4045 2.3776 13.6694 1.80469C 13.938 1.22819 14.3229 0.78418 14.8242 0.472656C 15.3255 0.157552 15.9056 0 16.5645 0C 17.5133 0 18.276 0.250651 18.8525 0.751953C 19.429 1.24967 19.7567 1.93717 19.8354 2.81445L 17.9556 2.81445C 17.9412 2.33822 17.8213 1.99626 17.5957 1.78857C 17.3701 1.58089 17.0264 1.47705 16.5645 1.47705C 16.0954 1.47705 15.7516 1.65251 15.5332 2.00342C 15.3148 2.35433 15.2002 2.91471 15.1895 3.68457L 15.1895 4.23779C 15.1895 5.0721 15.2933 5.66829 15.501 6.02637C 15.7122 6.38444 16.0739 6.56348 16.5859 6.56348C 17.0192 6.56348 17.3504 6.46143 17.5796 6.25732C 17.8088 6.05322 17.9305 5.72917 17.9448 5.28516L 19.8193 5.28516Z"/>
<path id="path12_fill" d="M 27.2476 7.93311L 25.373 7.93311L 25.373 4.66748L 22.5962 4.66748L 22.5962 7.93311L 20.7109 7.93311L 20.7109 0.112793L 22.5962 0.112793L 22.5962 3.21729L 25.373 3.21729L 25.373 0.112793L 27.2476 0.112793L 27.2476 7.93311Z"/>
<path id="path13_fill" d="M 34.9766 7.93311L 33.1021 7.93311L 30.3306 3.06689L 30.3306 7.93311L 28.4453 7.93311L 28.4453 0.112793L 30.3306 0.112793L 33.0967 4.979L 33.0967 0.112793L 34.9766 0.112793L 34.9766 7.93311Z"/>
<path id="path14_fill" d="M 42.7915 4.18408C 42.7915 4.94678 42.6501 5.62174 42.3672 6.20898C 42.0843 6.79622 41.6815 7.24919 41.1587 7.56787C 40.6395 7.88298 40.0469 8.04053 39.3809 8.04053C 38.7148 8.04053 38.124 7.88835 37.6084 7.58398C 37.0928 7.27604 36.6899 6.8374 36.3999 6.26807C 36.1134 5.69873 35.9631 5.04525 35.9487 4.30762L 35.9487 3.86719C 35.9487 3.10091 36.0884 2.42594 36.3677 1.84229C 36.6506 1.25505 37.0534 0.802084 37.5762 0.483398C 38.1025 0.164713 38.7005 0.00537109 39.3701 0.00537109C 40.0326 0.00537109 40.6234 0.162923 41.1426 0.478027C 41.6618 0.793131 42.0646 1.24251 42.3511 1.82617C 42.6411 2.40625 42.7879 3.07227 42.7915 3.82422L 42.7915 4.18408ZM 40.874 3.85645C 40.874 3.07943 40.7433 2.4904 40.4819 2.08936C 40.2241 1.68473 39.8535 1.48242 39.3701 1.48242C 38.4248 1.48242 37.9253 2.19141 37.8716 3.60938L 37.8662 4.18408C 37.8662 4.95036 37.9933 5.53939 38.2476 5.95117C 38.5018 6.36296 38.8796 6.56885 39.3809 6.56885C 39.8571 6.56885 40.2241 6.36654 40.4819 5.96191C 40.7397 5.55729 40.8704 4.97542 40.874 4.21631L 40.874 3.85645Z"/>
<path id="path15_fill" d="M 45.6489 6.48291L 48.9307 6.48291L 48.9307 7.93311L 43.7637 7.93311L 43.7637 0.112793L 45.6489 0.112793L 45.6489 6.48291Z"/>
<path id="path16_fill" d="M 56.0044 4.18408C 56.0044 4.94678 55.863 5.62174 55.5801 6.20898C 55.2972 6.79622 54.8944 7.24919 54.3716 7.56787C 53.8524 7.88298 53.2598 8.04053 52.5938 8.04053C 51.9277 8.04053 51.3369 7.88835 50.8213 7.58398C 50.3057 7.27604 49.9028 6.8374 49.6128 6.26807C 49.3263 5.69873 49.1759 5.04525 49.1616 4.30762L 49.1616 3.86719C 49.1616 3.10091 49.3013 2.42594 49.5806 1.84229C 49.8634 1.25505 50.2663 0.802084 50.7891 0.483398C 51.3154 0.164713 51.9134 0.00537109 52.583 0.00537109C 53.2454 0.00537109 53.8363 0.162923 54.3555 0.478027C 54.8747 0.793131 55.2775 1.24251 55.564 1.82617C 55.854 2.40625 56.0008 3.07227 56.0044 3.82422L 56.0044 4.18408ZM 54.0869 3.85645C 54.0869 3.07943 53.9562 2.4904 53.6948 2.08936C 53.437 1.68473 53.0664 1.48242 52.583 1.48242C 51.6377 1.48242 51.1382 2.19141 51.0845 3.60938L 51.0791 4.18408C 51.0791 4.95036 51.2062 5.53939 51.4604 5.95117C 51.7147 6.36296 52.0924 6.56885 52.5938 6.56885C 53.07 6.56885 53.437 6.36654 53.6948 5.96191C 53.9526 5.55729 54.0833 4.97542 54.0869 4.21631L 54.0869 3.85645Z"/>
<path id="path17_fill" d="M 63.3789 6.96631C 63.0889 7.28857 62.6646 7.54818 62.106 7.74512C 61.5474 7.94206 60.9351 8.04053 60.269 8.04053C 59.245 8.04053 58.4268 7.72721 57.8145 7.10059C 57.2021 6.47396 56.8745 5.60205 56.8315 4.48486L 56.8262 3.80811C 56.8262 3.03825 56.9622 2.36686 57.2344 1.79395C 57.5065 1.21745 57.895 0.775228 58.3999 0.467285C 58.9084 0.155762 59.4956 0 60.1616 0C 61.1356 0 61.8911 0.223795 62.4282 0.671387C 62.9689 1.1154 63.284 1.77962 63.3735 2.66406L 61.5581 2.66406C 61.4937 2.22721 61.354 1.91569 61.1392 1.72949C 60.9243 1.54329 60.62 1.4502 60.2261 1.4502C 59.7534 1.4502 59.3882 1.65072 59.1304 2.05176C 58.8726 2.4528 58.7419 3.02572 58.7383 3.77051L 58.7383 4.24316C 58.7383 5.02376 58.8708 5.611 59.1357 6.00488C 59.4043 6.39518 59.825 6.59033 60.3979 6.59033C 60.8885 6.59033 61.2537 6.48112 61.4937 6.2627L 61.4937 5.04883L 60.1831 5.04883L 60.1831 3.75439L 63.3789 3.75439L 63.3789 6.96631Z"/>
<path id="path18_fill" d="M 66.4834 7.93311L 64.6035 7.93311L 64.6035 0.112793L 66.4834 0.112793L 66.4834 7.93311Z"/>
<path id="path19_fill" d="M 72.644 4.61914L 69.6792 4.61914L 69.6792 6.48291L 73.1812 6.48291L 73.1812 7.93311L 67.7939 7.93311L 67.7939 0.112793L 73.1919 0.112793L 73.1919 1.56836L 69.6792 1.56836L 69.6792 3.21729L 72.644 3.21729L 72.644 4.61914Z"/>
<path id="path20_fill" d="M 77.9829 5.85449C 77.9829 5.57878 77.8844 5.36393 77.6875 5.20996C 77.4941 5.05599 77.1522 4.89665 76.6616 4.73193C 76.1711 4.56722 75.77 4.40788 75.4585 4.25391C 74.4452 3.75618 73.9385 3.07227 73.9385 2.20215C 73.9385 1.76888 74.0638 1.38753 74.3145 1.05811C 74.5687 0.725098 74.9268 0.467285 75.3887 0.284668C 75.8506 0.0984703 76.3698 0.00537109 76.9463 0.00537109C 77.5085 0.00537109 78.0116 0.105631 78.4556 0.306152C 78.9032 0.506673 79.2505 0.793131 79.4976 1.16553C 79.7446 1.53434 79.8682 1.95687 79.8682 2.43311L 77.9883 2.43311C 77.9883 2.11442 77.8898 1.86735 77.6929 1.69189C 77.4995 1.51644 77.2363 1.42871 76.9033 1.42871C 76.5667 1.42871 76.3 1.50391 76.103 1.6543C 75.9097 1.80111 75.813 1.9891 75.813 2.21826C 75.813 2.41878 75.9204 2.6014 76.1353 2.76611C 76.3501 2.92725 76.7279 3.09554 77.2686 3.271C 77.8092 3.44287 78.2533 3.62907 78.6006 3.82959C 79.4456 4.31657 79.8682 4.98796 79.8682 5.84375C 79.8682 6.52767 79.6104 7.06478 79.0947 7.45508C 78.5791 7.84538 77.8719 8.04053 76.9731 8.04053C 76.3394 8.04053 75.7646 7.92773 75.249 7.70215C 74.737 7.47298 74.3503 7.16146 74.0889 6.76758C 73.8311 6.37012 73.7021 5.91357 73.7021 5.39795L 75.5928 5.39795C 75.5928 5.81689 75.7002 6.12663 75.915 6.32715C 76.1335 6.52409 76.4862 6.62256 76.9731 6.62256C 77.2847 6.62256 77.5299 6.55631 77.709 6.42383C 77.8916 6.28776 77.9829 6.09798 77.9829 5.85449Z"/>
<path id="path21_fill" d="M 5.32275 17.8179L 2.28271 17.8179L 2.28271 20.9331L 0.397461 20.9331L 0.397461 13.1128L 5.62891 13.1128L 5.62891 14.5684L 2.28271 14.5684L 2.28271 16.3677L 5.32275 16.3677L 5.32275 17.8179Z"/>
<path id="path22_fill" d="M 13.0356 17.1841C 13.0356 17.9468 12.8942 18.6217 12.6113 19.209C 12.3285 19.7962 11.9256 20.2492 11.4028 20.5679C 10.8836 20.883 10.291 21.0405 9.625 21.0405C 8.95898 21.0405 8.36816 20.8883 7.85254 20.584C 7.33691 20.276 6.93408 19.8374 6.64404 19.2681C 6.35758 18.6987 6.20719 18.0452 6.19287 17.3076L 6.19287 16.8672C 6.19287 16.1009 6.33252 15.4259 6.61182 14.8423C 6.89469 14.255 7.29753 13.8021 7.82031 13.4834C 8.34668 13.1647 8.94466 13.0054 9.61426 13.0054C 10.2767 13.0054 10.8675 13.1629 11.3867 13.478C 11.9059 13.7931 12.3088 14.2425 12.5952 14.8262C 12.8853 15.4062 13.0321 16.0723 13.0356 16.8242L 13.0356 17.1841ZM 11.1182 16.8564C 11.1182 16.0794 10.9875 15.4904 10.7261 15.0894C 10.4683 14.6847 10.0977 14.4824 9.61426 14.4824C 8.66895 14.4824 8.16943 15.1914 8.11572 16.6094L 8.11035 17.1841C 8.11035 17.9504 8.23747 18.5394 8.4917 18.9512C 8.74593 19.363 9.1237 19.5688 9.625 19.5688C 10.1012 19.5688 10.4683 19.3665 10.7261 18.9619C 10.9839 18.5573 11.1146 17.9754 11.1182 17.2163L 11.1182 16.8564Z"/>
<path id="path23_fill" d="M 16.9136 18.1724L 15.8931 18.1724L 15.8931 20.9331L 14.0078 20.9331L 14.0078 13.1128L 17.0854 13.1128C 18.0129 13.1128 18.738 13.3187 19.2607 13.7305C 19.7835 14.1423 20.0449 14.7241 20.0449 15.4761C 20.0449 16.0203 19.9339 16.4715 19.7119 16.8296C 19.4935 17.1877 19.1497 17.4777 18.6807 17.6997L 20.3135 20.8525L 20.3135 20.9331L 18.2939 20.9331L 16.9136 18.1724ZM 15.8931 16.7168L 17.0854 16.7168C 17.4435 16.7168 17.7121 16.6237 17.8911 16.4375C 18.0737 16.2477 18.165 15.9845 18.165 15.6479C 18.165 15.3114 18.0737 15.0482 17.8911 14.8584C 17.7085 14.665 17.4399 14.5684 17.0854 14.5684L 15.8931 14.5684L 15.8931 16.7168Z"/>
<path id="path24_fill" d="M 27.3174 13.1128L 27.3174 18.2314C 27.3174 18.8115 27.1938 19.3146 26.9468 19.7407C 26.6997 20.1632 26.3452 20.4855 25.8833 20.7075C 25.4214 20.9295 24.8753 21.0405 24.2451 21.0405C 23.2926 21.0405 22.5425 20.7935 21.9946 20.2993C 21.4468 19.8052 21.1675 19.1284 21.1567 18.269L 21.1567 13.1128L 23.0527 13.1128L 23.0527 18.3066C 23.0742 19.1624 23.4717 19.5903 24.2451 19.5903C 24.6354 19.5903 24.9308 19.4829 25.1313 19.2681C 25.3319 19.0532 25.4321 18.7041 25.4321 18.2207L 25.4321 13.1128L 27.3174 13.1128Z"/>
<path id="path25_fill" d="M 30.9751 13.1128L 32.7207 18.5537L 34.4609 13.1128L 36.9424 13.1128L 36.9424 20.9331L 35.0518 20.9331L 35.0518 19.1069L 35.2344 15.3687L 33.3438 20.9331L 32.0977 20.9331L 30.2017 15.3633L 30.3843 19.1069L 30.3843 20.9331L 28.499 20.9331L 28.499 13.1128L 30.9751 13.1128Z"/>
</defs>
</svg>
