<?xml version="1.0" encoding="UTF-8"?>
<svg width="92px" height="87px" viewBox="0 0 92 87" version="1.1" xmlns="http://www.w3.org/2000/svg" xmlns:xlink="http://www.w3.org/1999/xlink">
    <!-- Generator: Sketch 46.2 (44496) - http://www.bohemiancoding.com/sketch -->
    <title>7 digitalTechnologiesForum/square</title>
    <desc>Created with Sketch.</desc>
    <defs></defs>
    <g id="Icons" stroke="none" stroke-width="1" fill="none" fill-rule="evenodd">
        <g id="7-digitalTechnologiesForum/square">
            <rect id="Rectangle-4-Copy-2" fill="#FFFFFF" x="0" y="0" width="92" height="87" rx="2"></rect>
            <path d="M2,0 L90,0 L90,0 C91.1045695,7.64553222e-15 92,0.8954305 92,2 L92,32 L0,32 L0,2 L0,2 C-1.3527075e-16,0.8954305 0.8954305,2.02906125e-16 2,0 Z" id="Rectangle-11" fill="#377AB0"></path>
            <path d="M7,29 L7,14.78125 L10.7597656,14.78125 C12.4199302,14.78125 13.7431591,15.3085885 14.7294922,16.3632812 C15.7158252,17.417974 16.2187499,18.8632721 16.2382812,20.6992188 L16.2382812,23.0039062 C16.2382812,24.8724052 15.7451221,26.3388619 14.7587891,27.4033203 C13.772456,28.4677788 12.4134201,29 10.6816406,29 L7,29 Z M9.87109375,17.1738281 L9.87109375,26.6171875 L10.7304688,26.6171875 C11.6875048,26.6171875 12.3613262,26.3649114 12.7519531,25.8603516 C13.1425801,25.3557917 13.3476562,24.4850322 13.3671875,23.2480469 L13.3671875,20.7773438 C13.3671875,19.4492121 13.1816425,18.5231146 12.8105469,17.9990234 C12.4394513,17.4749323 11.8079472,17.1998699 10.9160156,17.1738281 L9.87109375,17.1738281 Z M20.596875,29 L17.7257813,29 L17.7257813,14.78125 L20.596875,14.78125 L20.596875,29 Z M31.9769531,27.3886719 C31.423565,27.9876332 30.7448608,28.438475 29.9408203,28.7412109 C29.1367799,29.0439468 28.2562548,29.1953125 27.2992188,29.1953125 C25.665096,29.1953125 24.3955775,28.6891327 23.490625,27.6767578 C22.5856726,26.664383 22.1201824,25.1914159 22.0941406,23.2578125 L22.0941406,20.6992188 C22.0941406,18.7395735 22.5221963,17.2307996 23.3783203,16.1728516 C24.2344444,15.1149036 25.4828043,14.5859375 27.1234375,14.5859375 C28.666414,14.5859375 29.8301393,14.9667931 30.6146485,15.7285156 C31.3991576,16.4902382 31.8532546,17.6848877 31.9769531,19.3125 L29.1839844,19.3125 C29.105859,18.4075476 28.9170588,17.7906917 28.6175781,17.4619141 C28.3180975,17.1331364 27.8493522,16.96875 27.2113281,16.96875 C26.4365847,16.96875 25.8734393,17.2519503 25.521875,17.8183594 C25.1703108,18.3847685 24.9880209,19.2864521 24.975,20.5234375 L24.975,23.1015625 C24.975,24.3971419 25.168683,25.3395153 25.5560547,25.9287109 C25.9434264,26.5179066 26.5798133,26.8125 27.4652344,26.8125 C28.0316435,26.8125 28.4906233,26.6985688 28.8421875,26.4707031 L29.0960938,26.2949219 L29.0960938,23.6875 L27.084375,23.6875 L27.084375,21.5195312 L31.9769531,21.5195312 L31.9769531,27.3886719 Z M36.30625,29 L33.4351563,29 L33.4351563,14.78125 L36.30625,14.78125 L36.30625,29 Z M46.9441407,17.1738281 L43.4285157,17.1738281 L43.4285157,29 L40.5476563,29 L40.5476563,17.1738281 L37.090625,17.1738281 L37.090625,14.78125 L46.9441407,14.78125 L46.9441407,17.1738281 Z M53.5097657,26.0898438 L49.5937501,26.0898438 L48.8320313,29 L45.7949219,29 L50.2382813,14.78125 L52.8652344,14.78125 L57.3378907,29 L54.2714844,29 L53.5097657,26.0898438 Z M50.2187501,23.6972656 L52.8750001,23.6972656 L51.5468751,18.6289062 L50.2187501,23.6972656 Z M60.8371094,26.6171875 L65.8761719,26.6171875 L65.8761719,29 L57.9660157,29 L57.9660157,14.78125 L60.8371094,14.78125 L60.8371094,26.6171875 Z" id="DIGITAL" fill="#FFFFFF"></path>
            <path d="M13.4047852,39.3129883 L11.1196289,39.3129883 L11.1196289,47 L9.24707031,47 L9.24707031,39.3129883 L7,39.3129883 L7,37.7578125 L13.4047852,37.7578125 L13.4047852,39.3129883 Z M18.5509766,43.0009766 L15.64375,43.0009766 L15.64375,45.4511719 L19.0841797,45.4511719 L19.0841797,47 L13.7775391,47 L13.7775391,37.7578125 L19.0714844,37.7578125 L19.0714844,39.3129883 L15.64375,39.3129883 L15.64375,41.496582 L18.5509766,41.496582 L18.5509766,43.0009766 Z M25.7220703,43.9213867 C25.6755206,44.9751029 25.3792996,45.7727838 24.8333985,46.3144531 C24.2874973,46.8561225 23.5173227,47.1269531 22.5228516,47.1269531 C21.477599,47.1269531 20.6767443,46.7831252 20.1202637,46.095459 C19.563783,45.4077928 19.2855469,44.4270897 19.2855469,43.1533203 L19.2855469,41.5981445 C19.2855469,40.3286069 19.5733044,39.3500197 20.1488281,38.6623535 C20.7243519,37.9746873 21.5241485,37.6308594 22.5482422,37.6308594 C23.5554087,37.6308594 24.3202936,37.9122693 24.8429199,38.4750977 C25.3655463,39.037926 25.6628252,39.8461861 25.7347656,40.8999023 L23.8622071,40.8999023 C23.8452799,40.2482064 23.7447763,39.7985852 23.5606934,39.5510254 C23.3766104,39.3034656 23.0391301,39.1796875 22.5482422,39.1796875 C22.0488908,39.1796875 21.6955414,39.3542463 21.4881836,39.7033691 C21.2808258,40.052492 21.1708009,40.6269491 21.1581055,41.4267578 L21.1581055,43.1723633 C21.1581055,44.0906621 21.2607249,44.7211897 21.4659668,45.0639648 C21.6712087,45.40674 22.0235001,45.578125 22.5228516,45.578125 C23.0137395,45.578125 23.3522777,45.4585787 23.5384766,45.2194824 C23.7246754,44.9803862 23.8304686,44.5476919 23.8558594,43.9213867 L25.7220703,43.9213867 Z M32.6519532,47 L30.7920899,47 L30.7920899,43.0454102 L28.0372071,43.0454102 L28.0372071,47 L26.1709961,47 L26.1709961,37.7578125 L28.0372071,37.7578125 L28.0372071,41.496582 L30.7920899,41.496582 L30.7920899,37.7578125 L32.6519532,37.7578125 L32.6519532,47 Z M39.9119141,47 L38.0457032,47 L35.316211,40.9379883 L35.316211,47 L33.45,47 L33.45,37.7578125 L35.316211,37.7578125 L38.0520508,43.8261719 L38.0520508,37.7578125 L39.9119141,37.7578125 L39.9119141,47 Z M47.2163087,43.2104492 C47.2163087,44.4503643 46.9232615,45.4130825 46.3371583,46.0986328 C45.7510551,46.7841831 44.9375053,47.1269531 43.8964844,47.1269531 C42.8596954,47.1269531 42.0450877,46.7873569 41.4526368,46.1081543 C40.8601859,45.4289517 40.5597332,44.4778707 40.5512696,43.2548828 L40.5512696,41.6743164 C40.5512696,40.4047788 40.8453747,39.4134964 41.4335938,38.7004395 C42.0218129,37.9873825 42.8385365,37.6308594 43.8837891,37.6308594 C44.9121146,37.6308594 45.7224906,37.9810349 46.3149415,38.6813965 C46.9073923,39.3817581 47.2078451,40.364577 47.2163087,41.6298828 L47.2163087,43.2104492 Z M45.3437501,41.6616211 C45.3437501,40.8279581 45.2252617,40.2080098 44.9882813,39.8017578 C44.751301,39.3955058 44.3831406,39.1923828 43.8837891,39.1923828 C43.3886695,39.1923828 43.0226249,39.3881003 42.7856446,39.779541 C42.5486642,40.1709818 42.4259441,40.7665976 42.4174805,41.5664062 L42.4174805,43.2104492 C42.4174805,44.0187215 42.5380848,44.6143373 42.7792969,44.9973145 C43.0205091,45.3802916 43.3929012,45.5717773 43.8964844,45.5717773 C44.3831405,45.5717773 44.7449533,45.3845234 44.9819337,45.0100098 C45.218914,44.6354962 45.3395183,44.0546914 45.3437501,43.2675781 L45.3437501,41.6616211 Z M49.7218751,45.4511719 L52.9972657,45.4511719 L52.9972657,47 L47.8556641,47 L47.8556641,37.7578125 L49.7218751,37.7578125 L49.7218751,45.4511719 Z M59.4764649,43.2104492 C59.4764649,44.4503643 59.1834177,45.4130825 58.5973145,46.0986328 C58.0112113,46.7841831 57.1976615,47.1269531 56.1566407,47.1269531 C55.1198517,47.1269531 54.3052439,46.7873569 53.7127931,46.1081543 C53.1203422,45.4289517 52.8198894,44.4778707 52.8114259,43.2548828 L52.8114259,41.6743164 C52.8114259,40.4047788 53.105531,39.4134964 53.6937501,38.7004395 C54.2819692,37.9873825 55.0986928,37.6308594 56.1439454,37.6308594 C57.1722709,37.6308594 57.9826469,37.9810349 58.5750977,38.6813965 C59.1675486,39.3817581 59.4680013,40.364577 59.4764649,41.6298828 L59.4764649,43.2104492 Z M57.6039063,41.6616211 C57.6039063,40.8279581 57.4854179,40.2080098 57.2484376,39.8017578 C57.0114572,39.3955058 56.6432969,39.1923828 56.1439454,39.1923828 C55.6488257,39.1923828 55.2827812,39.3881003 55.0458009,39.779541 C54.8088205,40.1709818 54.6861004,40.7665976 54.6776368,41.5664062 L54.6776368,43.2104492 C54.6776368,44.0187215 54.7982411,44.6143373 55.0394532,44.9973145 C55.2806654,45.3802916 55.6530575,45.5717773 56.1566407,45.5717773 C56.6432968,45.5717773 57.0051096,45.3845234 57.2420899,45.0100098 C57.4790703,44.6354962 57.5996745,44.0546914 57.6039063,43.2675781 L57.6039063,41.6616211 Z M66.4000001,45.9526367 C66.0402978,46.3419616 65.5991401,46.6350088 65.0765138,46.8317871 C64.5538875,47.0285654 63.9815462,47.1269531 63.3594728,47.1269531 C62.297293,47.1269531 61.4721059,46.7979362 60.8838868,46.1398926 C60.2956677,45.4818489 59.9930991,44.5244203 59.976172,43.2675781 L59.976172,41.6044922 C59.976172,40.3307228 60.2544081,39.3500197 60.8108888,38.6623535 C61.3673694,37.9746873 62.1788034,37.6308594 63.2452149,37.6308594 C64.2481496,37.6308594 65.0045711,37.8784155 65.514502,38.3735352 C66.024433,38.8686548 66.319596,39.645177 66.4000001,40.703125 L64.5845704,40.703125 C64.5337889,40.1149059 64.4110688,39.7139496 64.2164063,39.5002441 C64.0217439,39.2865386 63.7170595,39.1796875 63.3023438,39.1796875 C62.7987606,39.1796875 62.4327161,39.3637677 62.2041993,39.7319336 C61.9756825,40.1000995 61.8571941,40.6861939 61.8487306,41.4902344 L61.8487306,43.1660156 C61.8487306,44.0081422 61.9746245,44.6206849 62.2264161,45.0036621 C62.4782077,45.3866393 62.8918592,45.578125 63.4673829,45.578125 C63.8355488,45.578125 64.1338857,45.5040698 64.3624024,45.355957 L64.5274415,45.2416992 L64.5274415,43.546875 L63.2198243,43.546875 L63.2198243,42.1376953 L66.4000001,42.1376953 L66.4000001,45.9526367 Z M68.9690431,47 L67.1028321,47 L67.1028321,37.7578125 L68.9690431,37.7578125 L68.9690431,47 Z M74.6103517,43.0009766 L71.7031251,43.0009766 L71.7031251,45.4511719 L75.1435548,45.4511719 L75.1435548,47 L69.8369142,47 L69.8369142,37.7578125 L75.1308595,37.7578125 L75.1308595,39.3129883 L71.7031251,39.3129883 L71.7031251,41.496582 L74.6103517,41.496582 L74.6103517,43.0009766 Z M79.4201173,44.5751953 C79.4201173,44.1985658 79.3238455,43.9139821 79.131299,43.7214355 C78.9387524,43.528889 78.5885769,43.3289398 78.0807618,43.121582 C77.1539994,42.7703433 76.4875022,42.3588077 76.0812501,41.8869629 C75.6749981,41.4151181 75.4718751,40.8575879 75.4718751,40.2143555 C75.4718751,39.4357057 75.7479954,38.8104679 76.3002443,38.338623 C76.8524931,37.8667782 77.5539021,37.6308594 78.4044923,37.6308594 C78.9715524,37.6308594 79.477244,37.7504057 79.9215822,37.989502 C80.3659203,38.2285982 80.7076324,38.5660785 80.9467286,39.0019531 C81.1858249,39.4378277 81.3053712,39.9329399 81.3053712,40.4873047 L79.4455079,40.4873047 C79.4455079,40.0556619 79.3534678,39.726645 79.1693849,39.5002441 C78.9853019,39.2738433 78.719761,39.1606445 78.372754,39.1606445 C78.0469061,39.1606445 77.7930023,39.2569164 77.6110353,39.4494629 C77.4290682,39.6420094 77.3380861,39.9012028 77.3380861,40.2270508 C77.3380861,40.4809583 77.4396476,40.7105296 77.6427736,40.9157715 C77.8458996,41.1210134 78.2055965,41.3336578 78.7218751,41.5537109 C79.6232468,41.8795589 80.2781068,42.2794573 80.6864747,42.753418 C81.0948427,43.2273787 81.2990236,43.8304 81.2990236,44.5625 C81.2990236,45.3665405 81.043004,45.9949522 80.5309572,46.4477539 C80.0189103,46.9005556 79.322791,47.1269531 78.4425783,47.1269531 C77.8458956,47.1269531 77.3021185,47.004233 76.8112306,46.7587891 C76.3203427,46.5133451 75.9363134,46.1621117 75.659131,45.7050781 C75.3819486,45.2480446 75.2433595,44.7084992 75.2433595,44.0864258 L77.1159181,44.0864258 C77.1159181,44.6196316 77.2195954,45.0068347 77.4269533,45.2480469 C77.6343111,45.489259 77.9728493,45.6098633 78.4425783,45.6098633 C79.0942742,45.6098633 79.4201173,45.2649774 79.4201173,44.5751953 Z M12.1860352,56.2294922 L9.28515625,56.2294922 L9.28515625,60 L7.41894531,60 L7.41894531,50.7578125 L12.5351562,50.7578125 L12.5351562,52.3129883 L9.28515625,52.3129883 L9.28515625,54.6806641 L12.1860352,54.6806641 L12.1860352,56.2294922 Z M19.4079102,56.2104492 C19.4079102,57.4503643 19.114863,58.4130825 18.5287598,59.0986328 C17.9426566,59.7841831 17.1291068,60.1269531 16.0880859,60.1269531 C15.0512969,60.1269531 14.2366892,59.7873569 13.6442383,59.1081543 C13.0517874,58.4289517 12.7513347,57.4778707 12.7428711,56.2548828 L12.7428711,54.6743164 C12.7428711,53.4047788 13.0369762,52.4134964 13.6251953,51.7004395 C14.2134144,50.9873825 15.030138,50.6308594 16.0753906,50.6308594 C17.1037161,50.6308594 17.9140921,50.9810349 18.506543,51.6813965 C19.0989939,52.3817581 19.3994466,53.364577 19.4079102,54.6298828 L19.4079102,56.2104492 Z M17.5353516,54.6616211 C17.5353516,53.8279581 17.4168632,53.2080098 17.1798828,52.8017578 C16.9429025,52.3955058 16.5747421,52.1923828 16.0753906,52.1923828 C15.580271,52.1923828 15.2142265,52.3881003 14.9772461,52.779541 C14.7402658,53.1709818 14.6175456,53.7665976 14.609082,54.5664062 L14.609082,56.2104492 C14.609082,57.0187215 14.7296863,57.6143373 14.9708984,57.9973145 C15.2121106,58.3802916 15.5845027,58.5717773 16.0880859,58.5717773 C16.574742,58.5717773 16.9365548,58.3845234 17.1735352,58.0100098 C17.4105155,57.6354962 17.5311198,57.0546914 17.5353516,56.2675781 L17.5353516,54.6616211 Z M22.8465821,56.6230469 L21.9198242,56.6230469 L21.9198242,60 L20.0536133,60 L20.0536133,50.7578125 L23.0306641,50.7578125 C23.9658901,50.7578125 24.6884578,51.000079 25.1983887,51.4846191 C25.7083196,51.9691593 25.9632813,52.6578731 25.9632813,53.5507812 C25.9632813,54.7780009 25.5168339,55.6370418 24.6239258,56.1279297 L26.2425781,59.9111328 L26.2425781,60 L24.2367188,60 L22.8465821,56.6230469 Z M21.9198242,55.0678711 L22.9798828,55.0678711 C23.3522805,55.0678711 23.6315746,54.944093 23.8177735,54.6965332 C24.0039723,54.4489734 24.0970703,54.1178406 24.0970703,53.703125 C24.0970703,52.7763626 23.7352575,52.3129883 23.0116211,52.3129883 L21.9198242,52.3129883 L21.9198242,55.0678711 Z M32.5567383,50.7578125 L32.5567383,57.15625 C32.5482747,58.1168668 32.2837917,58.8521296 31.7632813,59.3620605 C31.2427709,59.8719915 30.4958708,60.1269531 29.5225586,60.1269531 C28.5323193,60.1269531 27.7758978,59.8688177 27.2532715,59.3525391 C26.7306452,58.8362604 26.469336,58.0893604 26.469336,57.1118164 L26.469336,50.7578125 L28.3482422,50.7578125 L28.3482422,57.1181641 C28.3482422,57.6429063 28.4328768,58.0174142 28.6021485,58.2416992 C28.7714202,58.4659842 29.0782205,58.578125 29.5225586,58.578125 C29.9668968,58.578125 30.2715812,58.4670421 30.4366211,58.244873 C30.601661,58.022704 30.6862956,57.6577174 30.6905274,57.1499023 L30.6905274,50.7578125 L32.5567383,50.7578125 Z M35.7097657,50.7578125 L37.4553711,57.4418945 L39.194629,50.7578125 L41.632129,50.7578125 L41.632129,60 L39.7595704,60 L39.7595704,57.4990234 L39.9309571,53.6459961 L38.0837891,60 L36.8142579,60 L34.9670899,53.6459961 L35.1384766,57.4990234 L35.1384766,60 L33.2722657,60 L33.2722657,50.7578125 L35.7097657,50.7578125 Z" id="TECHNOLOGIES-FORUM" fill="#2B2A29"></path>
        </g>
    </g>
</svg>