<svg width="90" height="85" viewBox="0 0 90 85" version="1.1" xmlns="http://www.w3.org/2000/svg" xmlns:xlink="http://www.w3.org/1999/xlink">
<title>5</title>
<desc>Created using Figma</desc>
<g id="Canvas" transform="translate(-15610 1392)">
<g id="5">
<g id="Rectangle 4 Copy 2">
<use xlink:href="#path0_fill" transform="translate(15610 -1392)" fill="#FFFFFF"/>
</g>
<g id="Rectangle 11">
<use xlink:href="#path1_fill" transform="translate(15610 -1382)" fill="#E17F38"/>
</g>
<g id="DIY">
<use xlink:href="#path2_fill" transform="translate(15616 -1377.9)" fill="#FFFFFF"/>
<use xlink:href="#path3_fill" transform="translate(15616 -1377.9)" fill="#FFFFFF"/>
<use xlink:href="#path4_fill" transform="translate(15616 -1377.9)" fill="#FFFFFF"/>
</g>
<g id="HOUSEHOLD">
<use xlink:href="#path5_fill" transform="translate(15615.8 -1355.09)" fill="#4C4B4A"/>
<use xlink:href="#path6_fill" transform="translate(15615.8 -1355.09)" fill="#4C4B4A"/>
<use xlink:href="#path7_fill" transform="translate(15615.8 -1355.09)" fill="#4C4B4A"/>
<use xlink:href="#path8_fill" transform="translate(15615.8 -1355.09)" fill="#4C4B4A"/>
<use xlink:href="#path9_fill" transform="translate(15615.8 -1355.09)" fill="#4C4B4A"/>
<use xlink:href="#path10_fill" transform="translate(15615.8 -1355.09)" fill="#4C4B4A"/>
<use xlink:href="#path11_fill" transform="translate(15615.8 -1355.09)" fill="#4C4B4A"/>
<use xlink:href="#path12_fill" transform="translate(15615.8 -1355.09)" fill="#4C4B4A"/>
<use xlink:href="#path13_fill" transform="translate(15615.8 -1355.09)" fill="#4C4B4A"/>
</g>
<g id="&#38;">
<use xlink:href="#path14_fill" transform="translate(15615.2 -1336.81)" fill="#F79B58"/>
</g>
<g id="FURNITURE RETAIL">
<use xlink:href="#path15_fill" transform="translate(15635.6 -1337.24)" fill="#4C4B4A"/>
<use xlink:href="#path16_fill" transform="translate(15635.6 -1337.24)" fill="#4C4B4A"/>
<use xlink:href="#path17_fill" transform="translate(15635.6 -1337.24)" fill="#4C4B4A"/>
<use xlink:href="#path18_fill" transform="translate(15635.6 -1337.24)" fill="#4C4B4A"/>
<use xlink:href="#path19_fill" transform="translate(15635.6 -1337.24)" fill="#4C4B4A"/>
<use xlink:href="#path20_fill" transform="translate(15635.6 -1337.24)" fill="#4C4B4A"/>
<use xlink:href="#path21_fill" transform="translate(15635.6 -1337.24)" fill="#4C4B4A"/>
<use xlink:href="#path22_fill" transform="translate(15635.6 -1337.24)" fill="#4C4B4A"/>
<use xlink:href="#path23_fill" transform="translate(15635.6 -1337.24)" fill="#4C4B4A"/>
<use xlink:href="#path24_fill" transform="translate(15635.6 -1337.24)" fill="#4C4B4A"/>
<use xlink:href="#path25_fill" transform="translate(15635.6 -1337.24)" fill="#4C4B4A"/>
<use xlink:href="#path26_fill" transform="translate(15635.6 -1337.24)" fill="#4C4B4A"/>
<use xlink:href="#path27_fill" transform="translate(15635.6 -1337.24)" fill="#4C4B4A"/>
<use xlink:href="#path28_fill" transform="translate(15635.6 -1337.24)" fill="#4C4B4A"/>
<use xlink:href="#path29_fill" transform="translate(15635.6 -1337.24)" fill="#4C4B4A"/>
</g>
</g>
</g>
<defs>
<path id="path0_fill" fill-rule="evenodd" d="M 0 1.69811C 0 0.760271 0.760271 0 1.69811 0L 88.3019 0C 89.2397 0 90 0.760271 90 1.69811L 90 83.3019C 90 84.2397 89.2397 85 88.3019 85L 1.69811 85C 0.760271 85 0 84.2397 0 83.3019L 0 1.69811Z"/>
<path id="path1_fill" fill-rule="evenodd" d="M 0 0L 90 0L 90 21L 0 21L 0 0Z"/>
<path id="path2_fill" d="M 4.76 0L 0 0L 0 11.9L 4.76 11.9C 8.041 11.9 10.54 9.316 10.54 5.95C 10.54 2.584 8.041 0 4.76 0ZM 4.76 9.282L 2.72 9.282L 2.72 2.618L 4.76 2.618C 6.63 2.618 7.922 3.91 7.922 5.95C 7.922 7.99 6.63 9.282 4.76 9.282Z"/>
<path id="path3_fill" d="M 12.0693 0L 12.0693 11.9L 14.7893 11.9L 14.7893 0L 12.0693 0Z"/>
<path id="path4_fill" d="M 26.524 0L 23.43 0L 21.169 4.59L 18.908 0L 15.814 0L 19.809 7.327L 19.809 11.9L 22.529 11.9L 22.529 7.327L 26.524 0Z"/>
<path id="path5_fill" d="M 8.31934 10.0898L 5.93359 10.0898L 5.93359 5.93359L 2.39941 5.93359L 2.39941 10.0898L 0 10.0898L 0 0.136719L 2.39941 0.136719L 2.39941 4.08789L 5.93359 4.08789L 5.93359 0.136719L 8.31934 0.136719L 8.31934 10.0898Z"/>
<path id="path6_fill" d="M 18.0725 5.31836C 18.0725 6.28906 17.8924 7.14811 17.5324 7.89551C 17.1724 8.6429 16.6597 9.2194 15.9943 9.625C 15.3335 10.026 14.5793 10.2266 13.7316 10.2266C 12.884 10.2266 12.132 10.0329 11.4758 9.64551C 10.8195 9.25358 10.3068 8.69531 9.9377 7.9707C 9.57311 7.24609 9.38171 6.41439 9.36348 5.47559L 9.36348 4.91504C 9.36348 3.93978 9.54121 3.08073 9.89668 2.33789C 10.2567 1.59049 10.7694 1.014 11.4348 0.608398C 12.1047 0.202799 12.8658 0 13.718 0C 14.5611 0 15.313 0.200521 15.9738 0.601562C 16.6346 1.0026 17.1473 1.57454 17.5119 2.31738C 17.8811 3.05566 18.0679 3.90332 18.0725 4.86035L 18.0725 5.31836ZM 15.632 4.90137C 15.632 3.91243 15.4657 3.16276 15.133 2.65234C 14.8049 2.13737 14.3332 1.87988 13.718 1.87988C 12.5148 1.87988 11.8791 2.78223 11.8107 4.58691L 11.8039 5.31836C 11.8039 6.29362 11.9657 7.04329 12.2893 7.56738C 12.6128 8.09147 13.0936 8.35352 13.7316 8.35352C 14.3378 8.35352 14.8049 8.09603 15.133 7.58105C 15.4611 7.06608 15.6275 6.32552 15.632 5.35938L 15.632 4.90137Z"/>
<path id="path7_fill" d="M 26.9164 0.136719L 26.9164 6.65137C 26.9164 7.38965 26.7592 8.02995 26.4447 8.57227C 26.1303 9.11003 25.6791 9.52018 25.0912 9.80273C 24.5033 10.0853 23.8083 10.2266 23.0063 10.2266C 21.794 10.2266 20.8393 9.91211 20.142 9.2832C 19.4447 8.6543 19.0893 7.79297 19.0756 6.69922L 19.0756 0.136719L 21.4887 0.136719L 21.4887 6.74707C 21.516 7.83626 22.0219 8.38086 23.0063 8.38086C 23.503 8.38086 23.879 8.24414 24.1342 7.9707C 24.3894 7.69727 24.517 7.25293 24.517 6.6377L 24.517 0.136719L 26.9164 0.136719Z"/>
<path id="path8_fill" d="M 33.3541 7.44434C 33.3541 7.09342 33.2288 6.81999 32.9781 6.62402C 32.732 6.42806 32.2968 6.22526 31.6725 6.01562C 31.0481 5.80599 30.5377 5.60319 30.1412 5.40723C 28.8515 4.77376 28.2066 3.90332 28.2066 2.7959C 28.2066 2.24447 28.3661 1.75911 28.6852 1.33984C 29.0087 0.916016 29.4645 0.587891 30.0523 0.355469C 30.6402 0.11849 31.301 0 32.0348 0C 32.7503 0 33.3906 0.127604 33.9557 0.382812C 34.5253 0.638021 34.9674 1.0026 35.2818 1.47656C 35.5963 1.94596 35.7535 2.48372 35.7535 3.08984L 33.3609 3.08984C 33.3609 2.68424 33.2356 2.36979 32.985 2.14648C 32.7389 1.92318 32.4039 1.81152 31.9801 1.81152C 31.5517 1.81152 31.2122 1.90723 30.9615 2.09863C 30.7154 2.28548 30.5924 2.52474 30.5924 2.81641C 30.5924 3.07161 30.7291 3.30404 31.0025 3.51367C 31.276 3.71875 31.7568 3.93294 32.4449 4.15625C 33.1331 4.375 33.6982 4.61198 34.1402 4.86719C 35.2158 5.48698 35.7535 6.34147 35.7535 7.43066C 35.7535 8.30111 35.4254 8.9847 34.7691 9.48145C 34.1129 9.97819 33.2128 10.2266 32.0689 10.2266C 31.2623 10.2266 30.5309 10.083 29.8746 9.7959C 29.2229 9.50423 28.7307 9.10775 28.398 8.60645C 28.0699 8.10059 27.9059 7.51953 27.9059 6.86328L 30.3121 6.86328C 30.3121 7.39648 30.4488 7.79069 30.7223 8.0459C 31.0003 8.29655 31.4492 8.42188 32.0689 8.42188C 32.4654 8.42188 32.7776 8.33757 33.0055 8.16895C 33.2379 7.99577 33.3541 7.75423 33.3541 7.44434Z"/>
<path id="path9_fill" d="M 42.9568 5.87207L 39.1834 5.87207L 39.1834 8.24414L 43.6404 8.24414L 43.6404 10.0898L 36.784 10.0898L 36.784 0.136719L 43.6541 0.136719L 43.6541 1.98926L 39.1834 1.98926L 39.1834 4.08789L 42.9568 4.08789L 42.9568 5.87207Z"/>
<path id="path10_fill" d="M 52.7373 10.0898L 50.3516 10.0898L 50.3516 5.93359L 46.8174 5.93359L 46.8174 10.0898L 44.418 10.0898L 44.418 0.136719L 46.8174 0.136719L 46.8174 4.08789L 50.3516 4.08789L 50.3516 0.136719L 52.7373 0.136719L 52.7373 10.0898Z"/>
<path id="path11_fill" d="M 62.4904 5.31836C 62.4904 6.28906 62.3104 7.14811 61.9504 7.89551C 61.5904 8.6429 61.0777 9.2194 60.4123 9.625C 59.7515 10.026 58.9973 10.2266 58.1496 10.2266C 57.302 10.2266 56.55 10.0329 55.8938 9.64551C 55.2375 9.25358 54.7248 8.69531 54.3557 7.9707C 53.9911 7.24609 53.7997 6.41439 53.7814 5.47559L 53.7814 4.91504C 53.7814 3.93978 53.9592 3.08073 54.3147 2.33789C 54.6747 1.59049 55.1874 1.014 55.8527 0.608398C 56.5227 0.202799 57.2837 0 58.1359 0C 58.979 0 59.731 0.200521 60.3918 0.601562C 61.0526 1.0026 61.5653 1.57454 61.9299 2.31738C 62.299 3.05566 62.4859 3.90332 62.4904 4.86035L 62.4904 5.31836ZM 60.05 4.90137C 60.05 3.91243 59.8837 3.16276 59.551 2.65234C 59.2229 2.13737 58.7512 1.87988 58.1359 1.87988C 56.9328 1.87988 56.2971 2.78223 56.2287 4.58691L 56.2219 5.31836C 56.2219 6.29362 56.3837 7.04329 56.7072 7.56738C 57.0308 8.09147 57.5116 8.35352 58.1496 8.35352C 58.7557 8.35352 59.2229 8.09603 59.551 7.58105C 59.8791 7.06608 60.0454 6.32552 60.05 5.35938L 60.05 4.90137Z"/>
<path id="path12_fill" d="M 65.9272 8.24414L 70.1039 8.24414L 70.1039 10.0898L 63.5277 10.0898L 63.5277 0.136719L 65.9272 0.136719L 65.9272 8.24414Z"/>
<path id="path13_fill" d="M 70.9156 10.0898L 70.9156 0.136719L 74.1217 0.136719C 75.0012 0.136719 75.7919 0.33724 76.4938 0.738281C 77.1956 1.13477 77.7424 1.69759 78.1344 2.42676C 78.5309 3.15137 78.7314 3.96484 78.7359 4.86719L 78.7359 5.3252C 78.7359 6.23665 78.5423 7.05469 78.1549 7.7793C 77.7721 8.49935 77.2298 9.06445 76.5279 9.47461C 75.8307 9.88021 75.0514 10.0853 74.19 10.0898L 70.9156 10.0898ZM 73.315 1.98926L 73.315 8.24414L 74.149 8.24414C 74.8372 8.24414 75.3658 8.00033 75.735 7.5127C 76.1041 7.02051 76.2887 6.29134 76.2887 5.3252L 76.2887 4.89453C 76.2887 3.93294 76.1041 3.20833 75.735 2.7207C 75.3658 2.23307 74.8281 1.98926 74.1217 1.98926L 73.315 1.98926Z"/>
<path id="path14_fill" d="M 0 14.8203C 0 13.8997 0.255208 13.0475 0.765625 12.2637C 1.28516 11.4798 2.23307 10.6094 3.60938 9.65234C 3.01693 8.85938 2.55208 8.11654 2.21484 7.42383C 1.8776 6.72201 1.70898 5.99284 1.70898 5.23633C 1.70898 3.68685 2.19661 2.42904 3.17188 1.46289C 4.15625 0.48763 5.47786 0 7.13672 0C 8.6224 0 9.83919 0.442058 10.7871 1.32617C 11.7441 2.21029 12.2227 3.31315 12.2227 4.63477C 12.2227 6.2207 11.4206 7.61979 9.81641 8.83203L 8.28516 9.93945L 11.7168 13.9316C 12.2546 12.8743 12.5234 11.7077 12.5234 10.4316L 15.8867 10.4316C 15.8867 13.0202 15.2897 15.1165 14.0957 16.7207L 17.0762 20.1797L 12.5918 20.1797L 11.5664 19.0039C 10.099 19.9701 8.41276 20.4531 6.50781 20.4531C 4.53906 20.4531 2.96224 19.9382 1.77734 18.9082C 0.592448 17.8691 0 16.5065 0 14.8203ZM 6.69922 17.2812C 7.64714 17.2812 8.54492 17.0169 9.39258 16.4883L 5.46875 11.9492L 5.18164 12.1543C 4.37044 12.847 3.96484 13.6628 3.96484 14.6016C 3.96484 15.3945 4.2155 16.0417 4.7168 16.543C 5.22721 17.0352 5.88802 17.2812 6.69922 17.2812ZM 5.25 5.18164C 5.25 5.86523 5.65104 6.72656 6.45312 7.76562L 7.50586 7.06836C 8.04362 6.72201 8.41276 6.38477 8.61328 6.05664C 8.82292 5.72852 8.92773 5.33659 8.92773 4.88086C 8.92773 4.42513 8.75912 4.02865 8.42188 3.69141C 8.08463 3.35417 7.65169 3.18555 7.12305 3.18555C 6.55794 3.18555 6.10221 3.36784 5.75586 3.73242C 5.41862 4.097 5.25 4.58008 5.25 5.18164Z"/>
<path id="path15_fill" d="M 4.92529 4.70508L 1.88525 4.70508L 1.88525 7.82031L 0 7.82031L 0 0L 5.23145 0L 5.23145 1.45557L 1.88525 1.45557L 1.88525 3.25488L 4.92529 3.25488L 4.92529 4.70508Z"/>
<path id="path16_fill" d="M 12.1494 0L 12.1494 5.11865C 12.1494 5.69873 12.0259 6.20182 11.7788 6.62793C 11.5317 7.05046 11.1772 7.37272 10.7153 7.59473C 10.2534 7.81673 9.70736 7.92773 9.07715 7.92773C 8.12467 7.92773 7.37451 7.68066 6.82666 7.18652C 6.27881 6.69238 5.99951 6.01562 5.98877 5.15625L 5.98877 0L 7.88477 0L 7.88477 5.19385C 7.90625 6.04964 8.30371 6.47754 9.07715 6.47754C 9.46745 6.47754 9.76286 6.37012 9.96338 6.15527C 10.1639 5.94043 10.2642 5.59131 10.2642 5.10791L 10.2642 0L 12.1494 0Z"/>
<path id="path17_fill" d="M 16.2368 5.05957L 15.2163 5.05957L 15.2163 7.82031L 13.3311 7.82031L 13.3311 0L 16.4087 0C 17.3361 0 18.0612 0.205892 18.584 0.617676C 19.1068 1.02946 19.3682 1.61133 19.3682 2.36328C 19.3682 2.90755 19.2572 3.35872 19.0352 3.7168C 18.8167 4.07487 18.473 4.36491 18.0039 4.58691L 19.6367 7.73975L 19.6367 7.82031L 17.6172 7.82031L 16.2368 5.05957ZM 15.2163 3.604L 16.4087 3.604C 16.7668 3.604 17.0353 3.51091 17.2144 3.32471C 17.397 3.13493 17.4883 2.87174 17.4883 2.53516C 17.4883 2.19857 17.397 1.93538 17.2144 1.74561C 17.0317 1.55225 16.7632 1.45557 16.4087 1.45557L 15.2163 1.45557L 15.2163 3.604Z"/>
<path id="path18_fill" d="M 27.0381 7.82031L 25.1636 7.82031L 22.3921 2.9541L 22.3921 7.82031L 20.5068 7.82031L 20.5068 0L 22.3921 0L 25.1582 4.86621L 25.1582 0L 27.0381 0L 27.0381 7.82031Z"/>
<path id="path19_fill" d="M 30.2393 7.82031L 28.3594 7.82031L 28.3594 0L 30.2393 0L 30.2393 7.82031Z"/>
<path id="path20_fill" d="M 37.5278 1.45557L 35.1807 1.45557L 35.1807 7.82031L 33.2954 7.82031L 33.2954 1.45557L 30.9912 1.45557L 30.9912 0L 37.5278 0L 37.5278 1.45557Z"/>
<path id="path21_fill" d="M 44.4619 0L 44.4619 5.11865C 44.4619 5.69873 44.3384 6.20182 44.0913 6.62793C 43.8442 7.05046 43.4897 7.37272 43.0278 7.59473C 42.5659 7.81673 42.0199 7.92773 41.3896 7.92773C 40.4372 7.92773 39.687 7.68066 39.1392 7.18652C 38.5913 6.69238 38.312 6.01562 38.3013 5.15625L 38.3013 0L 40.1973 0L 40.1973 5.19385C 40.2188 6.04964 40.6162 6.47754 41.3896 6.47754C 41.7799 6.47754 42.0754 6.37012 42.2759 6.15527C 42.4764 5.94043 42.5767 5.59131 42.5767 5.10791L 42.5767 0L 44.4619 0Z"/>
<path id="path22_fill" d="M 48.5493 5.05957L 47.5288 5.05957L 47.5288 7.82031L 45.6436 7.82031L 45.6436 0L 48.7212 0C 49.6486 0 50.3737 0.205892 50.8965 0.617676C 51.4193 1.02946 51.6807 1.61133 51.6807 2.36328C 51.6807 2.90755 51.5697 3.35872 51.3477 3.7168C 51.1292 4.07487 50.7855 4.36491 50.3164 4.58691L 51.9492 7.73975L 51.9492 7.82031L 49.9297 7.82031L 48.5493 5.05957ZM 47.5288 3.604L 48.7212 3.604C 49.0793 3.604 49.3478 3.51091 49.5269 3.32471C 49.7095 3.13493 49.8008 2.87174 49.8008 2.53516C 49.8008 2.19857 49.7095 1.93538 49.5269 1.74561C 49.3442 1.55225 49.0757 1.45557 48.7212 1.45557L 47.5288 1.45557L 47.5288 3.604Z"/>
<path id="path23_fill" d="M 57.6694 4.50635L 54.7046 4.50635L 54.7046 6.37012L 58.2065 6.37012L 58.2065 7.82031L 52.8193 7.82031L 52.8193 0L 58.2173 0L 58.2173 1.45557L 54.7046 1.45557L 54.7046 3.10449L 57.6694 3.10449L 57.6694 4.50635Z"/>
<path id="path24_fill" d="M 2.90576 18.0596L 1.88525 18.0596L 1.88525 20.8203L 0 20.8203L 0 13L 3.07764 13C 4.00505 13 4.73014 13.2059 5.25293 13.6177C 5.77572 14.0295 6.03711 14.6113 6.03711 15.3633C 6.03711 15.9076 5.92611 16.3587 5.7041 16.7168C 5.48568 17.0749 5.14193 17.3649 4.67285 17.5869L 6.30566 20.7397L 6.30566 20.8203L 4.28613 20.8203L 2.90576 18.0596ZM 1.88525 16.604L 3.07764 16.604C 3.43571 16.604 3.70426 16.5109 3.8833 16.3247C 4.06592 16.1349 4.15723 15.8717 4.15723 15.5352C 4.15723 15.1986 4.06592 14.9354 3.8833 14.7456C 3.70068 14.5522 3.43213 14.4556 3.07764 14.4556L 1.88525 14.4556L 1.88525 16.604Z"/>
<path id="path25_fill" d="M 12.0259 17.5063L 9.06104 17.5063L 9.06104 19.3701L 12.563 19.3701L 12.563 20.8203L 7.17578 20.8203L 7.17578 13L 12.5737 13L 12.5737 14.4556L 9.06104 14.4556L 9.06104 16.1045L 12.0259 16.1045L 12.0259 17.5063Z"/>
<path id="path26_fill" d="M 19.5776 14.4556L 17.2305 14.4556L 17.2305 20.8203L 15.3452 20.8203L 15.3452 14.4556L 13.041 14.4556L 13.041 13L 19.5776 13L 19.5776 14.4556Z"/>
<path id="path27_fill" d="M 24.1753 19.3594L 21.5918 19.3594L 21.1406 20.8203L 19.1265 20.8203L 21.9946 13L 23.7671 13L 26.6567 20.8203L 24.6318 20.8203L 24.1753 19.3594ZM 22.043 17.9038L 23.7241 17.9038L 22.8809 15.1914L 22.043 17.9038Z"/>
<path id="path28_fill" d="M 29.2402 20.8203L 27.3604 20.8203L 27.3604 13L 29.2402 13L 29.2402 20.8203Z"/>
<path id="path29_fill" d="M 32.436 19.3701L 35.7178 19.3701L 35.7178 20.8203L 30.5508 20.8203L 30.5508 13L 32.436 13L 32.436 19.3701Z"/>
</defs>
</svg>
