<svg width="212px" height="19px" viewBox="0 0 212 19" version="1.1" xmlns="http://www.w3.org/2000/svg" xmlns:xlink="http://www.w3.org/1999/xlink">
    <title>DIY Household Furniture Retail</title>
    <g id="Icons" stroke="none" stroke-width="1" fill="none" fill-rule="evenodd">
        <g id="4-diyHousehold&amp;FurnitureRetail/rect">
            <rect id="Rectangle-27" fill="#FDBF47" x="0" y="0" width="149" height="19" rx="1"></rect>
            <path d="M8.25913043,2.85217391 C11.8841739,2.85217391 14.6452174,5.70713043 14.6452174,9.42608696 C14.6452174,13.1450435 11.8841739,16 8.25913043,16 L3,16 L3,2.85217391 L8.25913043,2.85217391 Z M8.25913043,13.1074783 C10.3252174,13.1074783 11.7526957,11.68 11.7526957,9.42608696 C11.7526957,7.17217391 10.3252174,5.74469565 8.25913043,5.74469565 L6.00521739,5.74469565 L6.00521739,13.1074783 L8.25913043,13.1074783 Z M16.3356522,2.85217391 L16.3356522,16 L19.3408696,16 L19.3408696,2.85217391 L16.3356522,2.85217391 Z M32.3008696,2.85217391 L28.8824348,2.85217391 L26.3843478,7.92347826 L23.8862609,2.85217391 L20.4678261,2.85217391 L24.8817391,10.9474783 L24.8817391,16 L27.8869565,16 L27.8869565,10.9474783 L32.3008696,2.85217391 Z M45.2608696,2.85217391 L45.2608696,7.88591304 L41.1286957,7.88591304 L41.1286957,2.85217391 L38.1234783,2.85217391 L38.1234783,16 L41.1286957,16 L41.1286957,10.7784348 L45.2608696,10.7784348 L45.2608696,16 L48.266087,16 L48.266087,2.85217391 L45.2608696,2.85217391 Z M56.7933913,16.2629565 C53.018087,16.2629565 49.9565217,13.2953043 49.9565217,9.42608696 C49.9565217,5.55686957 53.018087,2.58921739 56.7933913,2.58921739 C60.5686957,2.58921739 63.6302609,5.55686957 63.6302609,9.42608696 C63.6302609,13.2953043 60.5686957,16.2629565 56.7933913,16.2629565 Z M56.7933913,13.3328696 C58.9346087,13.3328696 60.6250435,11.773913 60.6250435,9.42608696 C60.6250435,7.07826087 58.9346087,5.51930435 56.7933913,5.51930435 C54.6521739,5.51930435 52.9617391,7.07826087 52.9617391,9.42608696 C52.9617391,11.773913 54.6521739,13.3328696 56.7933913,13.3328696 Z M70.298087,16.2629565 C73.1906087,16.2629565 75.3693913,14.5725217 75.3693913,11.7551304 L75.3693913,2.85217391 L72.3641739,2.85217391 L72.3641739,11.4921739 C72.3641739,12.4876522 71.8946087,13.3328696 70.298087,13.3328696 C68.7015652,13.3328696 68.232,12.4876522 68.232,11.4921739 L68.232,2.85217391 L65.2267826,2.85217391 L65.2267826,11.7551304 C65.2267826,14.5725217 67.4055652,16.2629565 70.298087,16.2629565 Z M82.1311304,16.2629565 C84.986087,16.2629565 87.0146087,14.7603478 87.0146087,12.2246957 C87.0146087,9.44486957 84.7794783,8.74991304 82.7885217,8.14886957 C80.7412174,7.52904348 80.421913,7.11582609 80.421913,6.51478261 C80.421913,5.98886957 80.8914783,5.51930435 81.8306087,5.51930435 C83.0326957,5.51930435 83.6525217,6.10156522 84.1033043,7.04069565 L86.6389565,5.55686957 C85.6810435,3.62226087 83.9906087,2.58921739 81.8306087,2.58921739 C79.557913,2.58921739 77.4166957,4.05426087 77.4166957,6.58991304 C77.4166957,9.10678261 79.3325217,10.045913 81.285913,10.5906087 C83.258087,11.1353043 84.0093913,11.4546087 84.0093913,12.2622609 C84.0093913,12.7693913 83.6525217,13.3328696 82.2250435,13.3328696 C80.7412174,13.3328696 79.9335652,12.6003478 79.464,11.5109565 L76.872,13.0135652 C77.6045217,14.9481739 79.370087,16.2629565 82.1311304,16.2629565 Z M91.5224348,13.1074783 L91.5224348,10.7784348 L96.218087,10.7784348 L96.218087,7.92347826 L91.5224348,7.92347826 L91.5224348,5.74469565 L96.6876522,5.74469565 L96.6876522,2.85217391 L88.5172174,2.85217391 L88.5172174,16 L96.7815652,16 L96.7815652,13.1074783 L91.5224348,13.1074783 Z M105.609391,2.85217391 L105.609391,7.88591304 L101.477217,7.88591304 L101.477217,2.85217391 L98.472,2.85217391 L98.472,16 L101.477217,16 L101.477217,10.7784348 L105.609391,10.7784348 L105.609391,16 L108.614609,16 L108.614609,2.85217391 L105.609391,2.85217391 Z M117.141913,16.2629565 C113.366609,16.2629565 110.305043,13.2953043 110.305043,9.42608696 C110.305043,5.55686957 113.366609,2.58921739 117.141913,2.58921739 C120.917217,2.58921739 123.978783,5.55686957 123.978783,9.42608696 C123.978783,13.2953043 120.917217,16.2629565 117.141913,16.2629565 Z M117.141913,13.3328696 C119.28313,13.3328696 120.973565,11.773913 120.973565,9.42608696 C120.973565,7.07826087 119.28313,5.51930435 117.141913,5.51930435 C115.000696,5.51930435 113.310261,7.07826087 113.310261,9.42608696 C113.310261,11.773913 115.000696,13.3328696 117.141913,13.3328696 Z M128.674435,13.1074783 L128.674435,2.85217391 L125.669217,2.85217391 L125.669217,16 L133.370087,16 L133.370087,13.1074783 L128.674435,13.1074783 Z M139.944,2.85217391 C143.569043,2.85217391 146.330087,5.70713043 146.330087,9.42608696 C146.330087,13.1450435 143.569043,16 139.944,16 L134.68487,16 L134.68487,2.85217391 L139.944,2.85217391 Z M139.944,13.1074783 C142.010087,13.1074783 143.437565,11.68 143.437565,9.42608696 C143.437565,7.17217391 142.010087,5.74469565 139.944,5.74469565 L137.690087,5.74469565 L137.690087,13.1074783 L139.944,13.1074783 Z" id="DIY-HOUSEHOLD" fill="#FFFFFF"></path>
            <path d="M160.912,16 L158.432696,11.68 L157.005217,11.68 L157.005217,16 L154,16 L154,2.85217391 L159.25913,2.85217391 C161.757217,2.85217391 163.766957,4.86191304 163.766957,7.36 C163.766957,8.97530435 162.790261,10.4403478 161.344,11.1728696 L164.142609,16 L160.912,16 Z M157.005217,5.66956522 L157.005217,9.05043478 L159.25913,9.05043478 C160.085565,9.05043478 160.761739,8.31791304 160.761739,7.36 C160.761739,6.40208696 160.085565,5.66956522 159.25913,5.66956522 L157.005217,5.66956522 Z M168.556522,13.1074783 L168.556522,10.7784348 L173.252174,10.7784348 L173.252174,7.92347826 L168.556522,7.92347826 L168.556522,5.74469565 L173.721739,5.74469565 L173.721739,2.85217391 L165.551304,2.85217391 L165.551304,16 L173.815652,16 L173.815652,13.1074783 L168.556522,13.1074783 Z M184.333913,2.85217391 L174.566957,2.85217391 L174.566957,5.74469565 L177.947826,5.74469565 L177.947826,16 L180.953043,16 L180.953043,5.74469565 L184.333913,5.74469565 L184.333913,2.85217391 Z M194.006957,16 L193.349565,13.933913 L188.466087,13.933913 L187.808696,16 L184.521739,16 L188.992,2.85217391 L192.823652,2.85217391 L197.293913,16 L194.006957,16 Z M189.367652,11.1165217 L192.448,11.1165217 L190.907826,6.2893913 L189.367652,11.1165217 Z M198.42087,2.85217391 L198.42087,16 L201.426087,16 L201.426087,2.85217391 L198.42087,2.85217391 Z M206.685217,13.1074783 L206.685217,2.85217391 L203.68,2.85217391 L203.68,16 L211.38087,16 L211.38087,13.1074783 L206.685217,13.1074783 Z" id="RETAIL" fill="#2B2A29"></path>
        </g>
    </g>
</svg>