<svg width="92px" height="87px" viewBox="0 0 92 87" version="1.1" xmlns="http://www.w3.org/2000/svg" xmlns:xlink="http://www.w3.org/1999/xlink">
    <title>4 diyHousehold&amp;FurnitureRetail/square</title>
    <g id="Icons" stroke="none" stroke-width="1" fill="none" fill-rule="evenodd">
        <g id="4-diyHousehold&amp;FurnitureRetail/square">
            <rect id="Rectangle-4-Copy-2" fill="#FFFFFF" x="0" y="0" width="92" height="87" rx="2"></rect>
            <path d="M15.4750977,50 L13.0429688,50 L13.0429688,44.8286133 L9.44042969,44.8286133 L9.44042969,50 L7,50 L7,37.9140625 L9.44042969,37.9140625 L9.44042969,42.8032227 L13.0429688,42.8032227 L13.0429688,37.9140625 L15.4750977,37.9140625 L15.4750977,50 Z M25.2151606,45.0444336 C25.2151606,46.665861 24.831945,47.9248002 24.0655024,48.8212891 C23.2990598,49.7177779 22.2351869,50.1660156 20.873852,50.1660156 C19.518051,50.1660156 18.4527947,49.7219283 17.6780512,48.8337402 C16.9033078,47.9455522 16.5104081,46.7018309 16.4993403,45.1025391 L16.4993403,43.0356445 C16.4993403,41.37548 16.8839393,40.0791876 17.6531489,39.1467285 C18.4223585,38.2142694 19.4903816,37.7480469 20.8572505,37.7480469 C22.2019837,37.7480469 23.2617062,38.2059687 24.0364497,39.1218262 C24.8111931,40.0376836 25.2040928,41.3229084 25.2151606,42.9775391 L25.2151606,45.0444336 Z M22.7664301,43.019043 C22.7664301,41.9288682 22.6114838,41.1181667 22.3015864,40.5869141 C21.991689,40.0556614 21.5102485,39.7900391 20.8572505,39.7900391 C20.2097863,39.7900391 19.7311127,40.0459773 19.4212153,40.5578613 C19.1113179,41.0697454 18.9508377,41.8486276 18.93977,42.8945312 L18.93977,45.0444336 C18.93977,46.101405 19.0974832,46.8802872 19.4129145,47.3811035 C19.7283458,47.8819198 20.2153201,48.1323242 20.873852,48.1323242 C21.5102484,48.1323242 21.9833882,47.8874536 22.2932856,47.3977051 C22.603183,46.9079565 22.7608963,46.1484426 22.7664301,45.1191406 L22.7664301,43.019043 Z M34.1002431,37.9140625 L34.1002431,46.28125 C34.0891753,47.5374412 33.7433129,48.4989387 33.0626454,49.1657715 C32.381978,49.8326042 31.4052625,50.1660156 30.1324697,50.1660156 C28.8375413,50.1660156 27.8483748,49.8284539 27.1649404,49.1533203 C26.481506,48.4781867 26.1397939,47.5014712 26.1397939,46.2231445 L26.1397939,37.9140625 L28.5968251,37.9140625 L28.5968251,46.2314453 C28.5968251,46.9176467 28.7075011,47.4073879 28.9288564,47.7006836 C29.1502116,47.9939793 29.5514121,48.140625 30.1324697,48.140625 C30.7135272,48.140625 31.1119608,47.9953628 31.3277822,47.704834 C31.5436035,47.4143052 31.6542795,46.937015 31.6598134,46.2729492 L31.6598134,37.9140625 L34.1002431,37.9140625 Z M40.3290756,46.8291016 C40.3290756,46.3365861 40.2031817,45.9644381 39.95139,45.7126465 C39.6995984,45.4608549 39.2416766,45.1993829 38.5776107,44.9282227 C37.3656906,44.4689105 36.4941173,43.9307485 35.9628646,43.3137207 C35.431612,42.6966929 35.1659896,41.9676149 35.1659896,41.1264648 C35.1659896,40.1082306 35.52707,39.2906118 36.2492416,38.673584 C36.9714132,38.0565562 37.8886403,37.7480469 39.0009506,37.7480469 C39.7424907,37.7480469 40.4037797,37.9043767 40.9848373,38.217041 C41.5658949,38.5297053 42.0127491,38.9710258 42.3254135,39.5410156 C42.6380778,40.1110055 42.7944076,40.7584599 42.7944076,41.4833984 L40.3622787,41.4833984 C40.3622787,40.9189425 40.2419186,40.4886896 40.0011947,40.192627 C39.7604709,39.8965643 39.413225,39.7485352 38.9594467,39.7485352 C38.5333378,39.7485352 38.2013098,39.8744291 37.9633529,40.1262207 C37.725396,40.3780123 37.6064193,40.7169575 37.6064193,41.1430664 C37.6064193,41.4750993 37.7392305,41.7753079 38.0048568,42.0437012 C38.2704832,42.3120944 38.7408561,42.5901678 39.4159896,42.8779297 C40.5947065,43.3040386 41.4510618,43.8269826 41.9850814,44.4467773 C42.519101,45.0665721 42.7861068,45.8551384 42.7861068,46.8125 C42.7861068,47.8639375 42.451312,48.6857067 41.7817123,49.277832 C41.1121126,49.8699574 40.2018027,50.1660156 39.0507553,50.1660156 C38.2704779,50.1660156 37.5593848,50.0055355 36.9174545,49.6845703 C36.2755242,49.3636052 35.7733319,48.9042999 35.4108627,48.3066406 C35.0483934,47.7089814 34.8671615,47.003422 34.8671615,46.1899414 L37.315892,46.1899414 C37.315892,46.8872105 37.4514701,47.3935531 37.7226303,47.7089844 C37.9937905,48.0244156 38.4364944,48.1821289 39.0507553,48.1821289 C39.9029731,48.1821289 40.3290756,47.7311243 40.3290756,46.8291016 Z M49.9197245,44.7705078 L46.1179667,44.7705078 L46.1179667,47.9746094 L50.6169901,47.9746094 L50.6169901,50 L43.677537,50 L43.677537,37.9140625 L50.6003885,37.9140625 L50.6003885,39.9477539 L46.1179667,39.9477539 L46.1179667,42.8032227 L49.9197245,42.8032227 L49.9197245,44.7705078 Z M59.7676976,50 L57.3355687,50 L57.3355687,44.8286133 L53.7330296,44.8286133 L53.7330296,50 L51.2925999,50 L51.2925999,37.9140625 L53.7330296,37.9140625 L53.7330296,42.8032227 L57.3355687,42.8032227 L57.3355687,37.9140625 L59.7676976,37.9140625 L59.7676976,50 Z M69.5077605,45.0444336 C69.5077605,46.665861 69.124545,47.9248002 68.3581023,48.8212891 C67.5916597,49.7177779 66.5277869,50.1660156 65.1664519,50.1660156 C63.8106509,50.1660156 62.7453946,49.7219283 61.9706511,48.8337402 C61.1959077,47.9455522 60.803008,46.7018309 60.7919402,45.1025391 L60.7919402,43.0356445 C60.7919402,41.37548 61.1765392,40.0791876 61.9457488,39.1467285 C62.7149584,38.2142694 63.7829816,37.7480469 65.1498504,37.7480469 C66.4945837,37.7480469 67.5543061,38.2059687 68.3290496,39.1218262 C69.103793,40.0376836 69.4966928,41.3229084 69.5077605,42.9775391 L69.5077605,45.0444336 Z M67.0590301,43.019043 C67.0590301,41.9288682 66.9040837,41.1181667 66.5941863,40.5869141 C66.2842889,40.0556614 65.8028484,39.7900391 65.1498504,39.7900391 C64.5023862,39.7900391 64.0237126,40.0459773 63.7138152,40.5578613 C63.4039178,41.0697454 63.2434377,41.8486276 63.2323699,42.8945312 L63.2323699,45.0444336 C63.2323699,46.101405 63.3900832,46.8802872 63.7055144,47.3811035 C64.0209457,47.8819198 64.50792,48.1323242 65.1664519,48.1323242 C65.8028483,48.1323242 66.2759881,47.8874536 66.5858855,47.3977051 C66.8957829,46.9079565 67.0534962,46.1484426 67.0590301,45.1191406 L67.0590301,43.019043 Z M72.9724329,47.9746094 L77.255636,47.9746094 L77.255636,50 L70.5320032,50 L70.5320032,37.9140625 L72.9724329,37.9140625 L72.9724329,47.9746094 Z M77.9395466,50 L77.9395466,37.9140625 L81.1353474,37.9140625 C82.5464872,37.9140625 83.6712318,38.3623002 84.5096149,39.2587891 C85.347998,40.1552779 85.775484,41.3837813 85.7920856,42.9443359 L85.7920856,44.9033203 C85.7920856,46.4915444 85.3729004,47.7380326 84.5345173,48.6428223 C83.6961342,49.5476119 82.5409537,50 81.0689411,50 L77.9395466,50 Z M80.3799763,39.9477539 L80.3799763,47.9746094 L81.110445,47.9746094 C81.9239257,47.9746094 82.4966738,47.7601747 82.8287067,47.3312988 C83.1607397,46.902423 83.3350543,46.1622774 83.351656,45.1108398 L83.351656,43.0107422 C83.351656,41.8818303 83.1939427,41.0946474 82.8785114,40.6491699 C82.5630802,40.2036924 82.0263017,39.9698894 81.2681599,39.9477539 L80.3799763,39.9477539 Z M10.6606445,63.5839844 L9.44873047,63.5839844 L9.44873047,68 L7.00830078,68 L7.00830078,55.9140625 L10.9013672,55.9140625 C12.1243551,55.9140625 13.0692512,56.2308725 13.736084,56.864502 C14.4029167,57.4981314 14.7363281,58.3987572 14.7363281,59.5664062 C14.7363281,61.171232 14.1525123,62.2945931 12.9848633,62.9365234 L15.1015625,67.8837891 L15.1015625,68 L12.4785156,68 L10.6606445,63.5839844 Z M9.44873047,61.550293 L10.8349609,61.550293 C11.3219425,61.550293 11.6871733,61.3884294 11.9306641,61.0646973 C12.1741549,60.7409652 12.2958984,60.3079454 12.2958984,59.765625 C12.2958984,58.5537049 11.8227586,57.9477539 10.8764648,57.9477539 L9.44873047,57.9477539 L9.44873047,61.550293 Z M21.9280512,62.7705078 L18.1262934,62.7705078 L18.1262934,65.9746094 L22.6253169,65.9746094 L22.6253169,68 L15.6858637,68 L15.6858637,55.9140625 L22.6087153,55.9140625 L22.6087153,57.9477539 L18.1262934,57.9477539 L18.1262934,60.8032227 L21.9280512,60.8032227 L21.9280512,62.7705078 Z M31.294579,57.9477539 L28.3062978,57.9477539 L28.3062978,68 L25.8575673,68 L25.8575673,57.9477539 L22.9190907,57.9477539 L22.9190907,55.9140625 L31.294579,55.9140625 L31.294579,57.9477539 Z M36.7431381,65.5263672 L33.4145248,65.5263672 L32.7670639,68 L30.1855209,68 L33.9623764,55.9140625 L36.1952865,55.9140625 L39.9970443,68 L37.390599,68 L36.7431381,65.5263672 Z M33.9457748,63.4926758 L36.2035873,63.4926758 L35.074681,59.1845703 L33.9457748,63.4926758 Z M42.9470682,68 L40.5066385,68 L40.5066385,55.9140625 L42.9470682,55.9140625 L42.9470682,68 Z M46.7105687,65.9746094 L50.9937718,65.9746094 L50.9937718,68 L44.270139,68 L44.270139,55.9140625 L46.7105687,55.9140625 L46.7105687,65.9746094 Z" id="HOUSEHOLD-RETAIL" fill="#2B2A29"></path>
            <path d="M2,0 L90,0 L90,0 C91.1045695,-2.02906125e-16 92,0.8954305 92,2 L92,32 L0,32 L0,2 L0,2 C-1.3527075e-16,0.8954305 0.8954305,2.02906125e-16 2,0 Z" id="Rectangle-11" fill="#FDBF47"></path>
            <path d="M7,29 L7,14.78125 L10.7597656,14.78125 C12.4199302,14.78125 13.7431591,15.3085885 14.7294922,16.3632812 C15.7158252,17.417974 16.2187499,18.8632721 16.2382812,20.6992188 L16.2382812,23.0039062 C16.2382812,24.8724052 15.7451221,26.3388619 14.7587891,27.4033203 C13.772456,28.4677788 12.4134201,29 10.6816406,29 L7,29 Z M9.87109375,17.1738281 L9.87109375,26.6171875 L10.7304688,26.6171875 C11.6875048,26.6171875 12.3613262,26.3649114 12.7519531,25.8603516 C13.1425801,25.3557917 13.3476562,24.4850322 13.3671875,23.2480469 L13.3671875,20.7773438 C13.3671875,19.4492121 13.1816425,18.5231146 12.8105469,17.9990234 C12.4394513,17.4749323 11.8079472,17.1998699 10.9160156,17.1738281 L9.87109375,17.1738281 Z M20.596875,29 L17.7257813,29 L17.7257813,14.78125 L20.596875,14.78125 L20.596875,29 Z M26.5960938,21.1679688 L28.7347656,14.78125 L31.8597656,14.78125 L28.0511719,23.84375 L28.0511719,29 L25.1410156,29 L25.1410156,23.84375 L21.3226563,14.78125 L24.4476563,14.78125 L26.5960938,21.1679688 Z" id="DIY" fill="#FFFFFF"></path>
        </g>
    </g>
</svg>