<svg width="234px" height="19px" viewBox="0 0 234 19" version="1.1" xmlns="http://www.w3.org/2000/svg" xmlns:xlink="http://www.w3.org/1999/xlink">
    <title>Fashion Retail Business</title>
    <g id="Icons" stroke="none" stroke-width="1" fill="none" fill-rule="evenodd">
        <g id="5-fashionRetailBusiness/rect">
            <rect id="Rectangle-27" fill="#B957AB" x="0" y="0" width="82" height="19" rx="1"></rect>
            <path d="M10.9826087,5.74469565 L10.9826087,2.85217391 L3,2.85217391 L3,16 L6.00521739,16 L6.00521739,11.1728696 L10.8886957,11.1728696 L10.8886957,8.28034783 L6.00521739,8.28034783 L6.00521739,5.74469565 L10.9826087,5.74469565 Z M21.1252174,16 L20.4678261,13.933913 L15.5843478,13.933913 L14.9269565,16 L11.64,16 L16.1102609,2.85217391 L19.941913,2.85217391 L24.4121739,16 L21.1252174,16 Z M16.485913,11.1165217 L19.5662609,11.1165217 L18.026087,6.2893913 L16.485913,11.1165217 Z M30.1408696,16.2629565 C32.9958261,16.2629565 35.0243478,14.7603478 35.0243478,12.2246957 C35.0243478,9.44486957 32.7892174,8.74991304 30.7982609,8.14886957 C28.7509565,7.52904348 28.4316522,7.11582609 28.4316522,6.51478261 C28.4316522,5.98886957 28.9012174,5.51930435 29.8403478,5.51930435 C31.0424348,5.51930435 31.6622609,6.10156522 32.1130435,7.04069565 L34.6486957,5.55686957 C33.6907826,3.62226087 32.0003478,2.58921739 29.8403478,2.58921739 C27.5676522,2.58921739 25.4264348,4.05426087 25.4264348,6.58991304 C25.4264348,9.10678261 27.3422609,10.045913 29.2956522,10.5906087 C31.2678261,11.1353043 32.0191304,11.4546087 32.0191304,12.2622609 C32.0191304,12.7693913 31.6622609,13.3328696 30.2347826,13.3328696 C28.7509565,13.3328696 27.9433043,12.6003478 27.4737391,11.5109565 L24.8817391,13.0135652 C25.6142609,14.9481739 27.3798261,16.2629565 30.1408696,16.2629565 Z M43.6643478,2.85217391 L43.6643478,7.88591304 L39.5321739,7.88591304 L39.5321739,2.85217391 L36.5269565,2.85217391 L36.5269565,16 L39.5321739,16 L39.5321739,10.7784348 L43.6643478,10.7784348 L43.6643478,16 L46.6695652,16 L46.6695652,2.85217391 L43.6643478,2.85217391 Z M48.9234783,2.85217391 L48.9234783,16 L51.9286957,16 L51.9286957,2.85217391 L48.9234783,2.85217391 Z M60.456,16.2629565 C56.6806957,16.2629565 53.6191304,13.2953043 53.6191304,9.42608696 C53.6191304,5.55686957 56.6806957,2.58921739 60.456,2.58921739 C64.2313043,2.58921739 67.2928696,5.55686957 67.2928696,9.42608696 C67.2928696,13.2953043 64.2313043,16.2629565 60.456,16.2629565 Z M60.456,13.3328696 C62.5972174,13.3328696 64.2876522,11.773913 64.2876522,9.42608696 C64.2876522,7.07826087 62.5972174,5.51930435 60.456,5.51930435 C58.3147826,5.51930435 56.6243478,7.07826087 56.6243478,9.42608696 C56.6243478,11.773913 58.3147826,13.3328696 60.456,13.3328696 Z M76.3085217,2.85217391 L76.3085217,9.98956522 L71.2372174,2.85217391 L68.9833043,2.85217391 L68.9833043,16 L71.9885217,16 L71.9885217,8.8626087 L77.0598261,16 L79.3137391,16 L79.3137391,2.85217391 L76.3085217,2.85217391 Z" id="FASHION" fill="#FFFFFF"></path>
            <path d="M93.912,16 L91.4326957,11.68 L90.0052174,11.68 L90.0052174,16 L87,16 L87,2.85217391 L92.2591304,2.85217391 C94.7572174,2.85217391 96.7669565,4.86191304 96.7669565,7.36 C96.7669565,8.97530435 95.7902609,10.4403478 94.344,11.1728696 L97.1426087,16 L93.912,16 Z M90.0052174,5.66956522 L90.0052174,9.05043478 L92.2591304,9.05043478 C93.0855652,9.05043478 93.7617391,8.31791304 93.7617391,7.36 C93.7617391,6.40208696 93.0855652,5.66956522 92.2591304,5.66956522 L90.0052174,5.66956522 Z M101.556522,13.1074783 L101.556522,10.7784348 L106.252174,10.7784348 L106.252174,7.92347826 L101.556522,7.92347826 L101.556522,5.74469565 L106.721739,5.74469565 L106.721739,2.85217391 L98.5513043,2.85217391 L98.5513043,16 L106.815652,16 L106.815652,13.1074783 L101.556522,13.1074783 Z M117.333913,2.85217391 L107.566957,2.85217391 L107.566957,5.74469565 L110.947826,5.74469565 L110.947826,16 L113.953043,16 L113.953043,5.74469565 L117.333913,5.74469565 L117.333913,2.85217391 Z M127.006957,16 L126.349565,13.933913 L121.466087,13.933913 L120.808696,16 L117.521739,16 L121.992,2.85217391 L125.823652,2.85217391 L130.293913,16 L127.006957,16 Z M122.367652,11.1165217 L125.448,11.1165217 L123.907826,6.2893913 L122.367652,11.1165217 Z M131.42087,2.85217391 L131.42087,16 L134.426087,16 L134.426087,2.85217391 L131.42087,2.85217391 Z M139.685217,13.1074783 L139.685217,2.85217391 L136.68,2.85217391 L136.68,16 L144.38087,16 L144.38087,13.1074783 L139.685217,13.1074783 Z M158.542957,9.18191304 C159.519652,9.80173913 160.158261,10.816 160.158261,12.1495652 C160.158261,14.4786087 158.261217,16 155.913391,16 L150.391304,16 L150.391304,2.85217391 L155.537739,2.85217391 C157.829217,2.85217391 159.688696,4.336 159.688696,6.60869565 C159.688696,7.69808696 159.256696,8.56208696 158.542957,9.18191304 Z M155.537739,5.66956522 L153.396522,5.66956522 L153.396522,7.9986087 L155.537739,7.9986087 C156.213913,7.9986087 156.683478,7.51026087 156.683478,6.83408696 C156.683478,6.15791304 156.232696,5.66956522 155.537739,5.66956522 Z M155.913391,13.1826087 C156.664696,13.1826087 157.153043,12.6566957 157.153043,11.9241739 C157.153043,11.1916522 156.664696,10.6657391 155.913391,10.6657391 L153.396522,10.6657391 L153.396522,13.1826087 L155.913391,13.1826087 Z M166.638261,16.2629565 C169.530783,16.2629565 171.709565,14.5725217 171.709565,11.7551304 L171.709565,2.85217391 L168.704348,2.85217391 L168.704348,11.4921739 C168.704348,12.4876522 168.234783,13.3328696 166.638261,13.3328696 C165.041739,13.3328696 164.572174,12.4876522 164.572174,11.4921739 L164.572174,2.85217391 L161.566957,2.85217391 L161.566957,11.7551304 C161.566957,14.5725217 163.745739,16.2629565 166.638261,16.2629565 Z M178.471304,16.2629565 C181.326261,16.2629565 183.354783,14.7603478 183.354783,12.2246957 C183.354783,9.44486957 181.119652,8.74991304 179.128696,8.14886957 C177.081391,7.52904348 176.762087,7.11582609 176.762087,6.51478261 C176.762087,5.98886957 177.231652,5.51930435 178.170783,5.51930435 C179.37287,5.51930435 179.992696,6.10156522 180.443478,7.04069565 L182.97913,5.55686957 C182.021217,3.62226087 180.330783,2.58921739 178.170783,2.58921739 C175.898087,2.58921739 173.75687,4.05426087 173.75687,6.58991304 C173.75687,9.10678261 175.672696,10.045913 177.626087,10.5906087 C179.598261,11.1353043 180.349565,11.4546087 180.349565,12.2622609 C180.349565,12.7693913 179.992696,13.3328696 178.565217,13.3328696 C177.081391,13.3328696 176.273739,12.6003478 175.804174,11.5109565 L173.212174,13.0135652 C173.944696,14.9481739 175.710261,16.2629565 178.471304,16.2629565 Z M184.857391,2.85217391 L184.857391,16 L187.862609,16 L187.862609,2.85217391 L184.857391,2.85217391 Z M197.441739,2.85217391 L197.441739,9.98956522 L192.370435,2.85217391 L190.116522,2.85217391 L190.116522,16 L193.121739,16 L193.121739,8.8626087 L198.193043,16 L200.446957,16 L200.446957,2.85217391 L197.441739,2.85217391 Z M205.706087,13.1074783 L205.706087,10.7784348 L210.401739,10.7784348 L210.401739,7.92347826 L205.706087,7.92347826 L205.706087,5.74469565 L210.871304,5.74469565 L210.871304,2.85217391 L202.70087,2.85217391 L202.70087,16 L210.965217,16 L210.965217,13.1074783 L205.706087,13.1074783 Z M217.257391,16.2629565 C220.112348,16.2629565 222.14087,14.7603478 222.14087,12.2246957 C222.14087,9.44486957 219.905739,8.74991304 217.914783,8.14886957 C215.867478,7.52904348 215.548174,7.11582609 215.548174,6.51478261 C215.548174,5.98886957 216.017739,5.51930435 216.95687,5.51930435 C218.158957,5.51930435 218.778783,6.10156522 219.229565,7.04069565 L221.765217,5.55686957 C220.807304,3.62226087 219.11687,2.58921739 216.95687,2.58921739 C214.684174,2.58921739 212.542957,4.05426087 212.542957,6.58991304 C212.542957,9.10678261 214.458783,10.045913 216.412174,10.5906087 C218.384348,11.1353043 219.135652,11.4546087 219.135652,12.2622609 C219.135652,12.7693913 218.778783,13.3328696 217.351304,13.3328696 C215.867478,13.3328696 215.059826,12.6003478 214.590261,11.5109565 L211.998261,13.0135652 C212.730783,14.9481739 214.496348,16.2629565 217.257391,16.2629565 Z M228.245217,16.2629565 C231.100174,16.2629565 233.128696,14.7603478 233.128696,12.2246957 C233.128696,9.44486957 230.893565,8.74991304 228.902609,8.14886957 C226.855304,7.52904348 226.536,7.11582609 226.536,6.51478261 C226.536,5.98886957 227.005565,5.51930435 227.944696,5.51930435 C229.146783,5.51930435 229.766609,6.10156522 230.217391,7.04069565 L232.753043,5.55686957 C231.79513,3.62226087 230.104696,2.58921739 227.944696,2.58921739 C225.672,2.58921739 223.530783,4.05426087 223.530783,6.58991304 C223.530783,9.10678261 225.446609,10.045913 227.4,10.5906087 C229.372174,11.1353043 230.123478,11.4546087 230.123478,12.2622609 C230.123478,12.7693913 229.766609,13.3328696 228.33913,13.3328696 C226.855304,13.3328696 226.047652,12.6003478 225.578087,11.5109565 L222.986087,13.0135652 C223.718609,14.9481739 225.484174,16.2629565 228.245217,16.2629565 Z" id="RETAIL-BUSINESS" fill="#2B2A29"></path>
        </g>
    </g>
</svg>