<svg width="90" height="85" viewBox="0 0 90 85" version="1.1" xmlns="http://www.w3.org/2000/svg" xmlns:xlink="http://www.w3.org/1999/xlink">
<title>7</title>
<desc>Created using Figma</desc>
<g id="Canvas" transform="translate(-15830 1392)">
<g id="7">
<g id="Rectangle 4 Copy 2">
<use xlink:href="#path0_fill" transform="translate(15830 -1392)" fill="#FFFFFF"/>
</g>
<g id="Rectangle 11">
<use xlink:href="#path1_fill" transform="translate(15830 -1382)" fill="#9E1BAD"/>
</g>
<g id="FASHION">
<use xlink:href="#path2_fill" transform="translate(15836 -1378.14)" fill="#FFFFFF"/>
<use xlink:href="#path3_fill" transform="translate(15836 -1378.14)" fill="#FFFFFF"/>
<use xlink:href="#path4_fill" transform="translate(15836 -1378.14)" fill="#FFFFFF"/>
<use xlink:href="#path5_fill" transform="translate(15836 -1378.14)" fill="#FFFFFF"/>
<use xlink:href="#path6_fill" transform="translate(15836 -1378.14)" fill="#FFFFFF"/>
<use xlink:href="#path7_fill" transform="translate(15836 -1378.14)" fill="#FFFFFF"/>
<use xlink:href="#path8_fill" transform="translate(15836 -1378.14)" fill="#FFFFFF"/>
</g>
<g id="RETAIL RUSSIA">
<use xlink:href="#path9_fill" transform="translate(15835.9 -1354.38)" fill="#4C4B4A"/>
<use xlink:href="#path10_fill" transform="translate(15835.9 -1354.38)" fill="#4C4B4A"/>
<use xlink:href="#path11_fill" transform="translate(15835.9 -1354.38)" fill="#4C4B4A"/>
<use xlink:href="#path12_fill" transform="translate(15835.9 -1354.38)" fill="#4C4B4A"/>
<use xlink:href="#path13_fill" transform="translate(15835.9 -1354.38)" fill="#4C4B4A"/>
<use xlink:href="#path14_fill" transform="translate(15835.9 -1354.38)" fill="#4C4B4A"/>
<use xlink:href="#path15_fill" transform="translate(15835.9 -1354.38)" fill="#4C4B4A"/>
<use xlink:href="#path16_fill" transform="translate(15835.9 -1354.38)" fill="#4C4B4A"/>
<use xlink:href="#path17_fill" transform="translate(15835.9 -1354.38)" fill="#4C4B4A"/>
<use xlink:href="#path18_fill" transform="translate(15835.9 -1354.38)" fill="#4C4B4A"/>
<use xlink:href="#path19_fill" transform="translate(15835.9 -1354.38)" fill="#4C4B4A"/>
<use xlink:href="#path20_fill" transform="translate(15835.9 -1354.38)" fill="#4C4B4A"/>
</g>
</g>
</g>
<defs>
<path id="path0_fill" fill-rule="evenodd" d="M 0 1.69811C 0 0.760271 0.760271 0 1.69811 0L 88.3019 0C 89.2397 0 90 0.760271 90 1.69811L 90 83.3019C 90 84.2397 89.2397 85 88.3019 85L 1.69811 85C 0.760271 85 0 84.2397 0 83.3019L 0 1.69811Z"/>
<path id="path1_fill" fill-rule="evenodd" d="M 0 0L 90 0L 90 21L 0 21L 0 0Z"/>
<path id="path2_fill" d="M 7.225 2.856L 7.225 0.238L 0 0.238L 0 12.138L 2.72 12.138L 2.72 7.769L 7.14 7.769L 7.14 5.151L 2.72 5.151L 2.72 2.856L 7.225 2.856Z"/>
<path id="path3_fill" d="M 15.8824 12.138L 18.8574 12.138L 14.8114 0.238L 11.3434 0.238L 7.29738 12.138L 10.2724 12.138L 10.8674 10.268L 15.2874 10.268L 15.8824 12.138ZM 11.6834 7.718L 13.0774 3.349L 14.4714 7.718L 11.6834 7.718Z"/>
<path id="path4_fill" d="M 23.788 12.376C 26.372 12.376 28.208 11.016 28.208 8.721C 28.208 6.205 26.185 5.576 24.383 5.032C 22.53 4.471 22.241 4.097 22.241 3.553C 22.241 3.077 22.666 2.652 23.516 2.652C 24.604 2.652 25.165 3.179 25.573 4.029L 27.868 2.686C 27.001 0.935 25.471 0 23.516 0C 21.459 0 19.521 1.326 19.521 3.621C 19.521 5.899 21.255 6.749 23.023 7.242C 24.808 7.735 25.488 8.024 25.488 8.755C 25.488 9.214 25.165 9.724 23.873 9.724C 22.53 9.724 21.799 9.061 21.374 8.075L 19.028 9.435C 19.691 11.186 21.289 12.376 23.788 12.376Z"/>
<path id="path5_fill" d="M 35.9444 0.238L 35.9444 4.794L 32.2044 4.794L 32.2044 0.238L 29.4844 0.238L 29.4844 12.138L 32.2044 12.138L 32.2044 7.412L 35.9444 7.412L 35.9444 12.138L 38.6644 12.138L 38.6644 0.238L 35.9444 0.238Z"/>
<path id="path6_fill" d="M 40.707 0.238L 40.707 12.138L 43.427 12.138L 43.427 0.238L 40.707 0.238Z"/>
<path id="path7_fill" d="M 51.1497 12.376C 54.5667 12.376 57.3377 9.69 57.3377 6.188C 57.3377 2.686 54.5667 0 51.1497 0C 47.7327 0 44.9617 2.686 44.9617 6.188C 44.9617 9.69 47.7327 12.376 51.1497 12.376ZM 51.1497 9.724C 49.2117 9.724 47.6817 8.313 47.6817 6.188C 47.6817 4.063 49.2117 2.652 51.1497 2.652C 53.0877 2.652 54.6177 4.063 54.6177 6.188C 54.6177 8.313 53.0877 9.724 51.1497 9.724Z"/>
<path id="path8_fill" d="M 65.4991 0.238L 65.4991 6.698L 60.9091 0.238L 58.8691 0.238L 58.8691 12.138L 61.5891 12.138L 61.5891 5.678L 66.1791 12.138L 68.2191 12.138L 68.2191 0.238L 65.4991 0.238Z"/>
<path id="path9_fill" d="M 4.22656 7.35938L 2.74219 7.35938L 2.74219 11.375L 0 11.375L 0 0L 4.47656 0C 5.82552 0 6.88021 0.299479 7.64062 0.898438C 8.40104 1.4974 8.78125 2.34375 8.78125 3.4375C 8.78125 4.22917 8.61979 4.88542 8.29688 5.40625C 7.97917 5.92708 7.47917 6.34896 6.79688 6.67188L 9.17188 11.2578L 9.17188 11.375L 6.23438 11.375L 4.22656 7.35938ZM 2.74219 5.24219L 4.47656 5.24219C 4.9974 5.24219 5.38802 5.10677 5.64844 4.83594C 5.91406 4.5599 6.04688 4.17708 6.04688 3.6875C 6.04688 3.19792 5.91406 2.8151 5.64844 2.53906C 5.38281 2.25781 4.99219 2.11719 4.47656 2.11719L 2.74219 2.11719L 2.74219 5.24219Z"/>
<path id="path10_fill" d="M 17.4922 6.55469L 13.1797 6.55469L 13.1797 9.26562L 18.2734 9.26562L 18.2734 11.375L 10.4375 11.375L 10.4375 0L 18.2891 0L 18.2891 2.11719L 13.1797 2.11719L 13.1797 4.51562L 17.4922 4.51562L 17.4922 6.55469Z"/>
<path id="path11_fill" d="M 28.4766 2.11719L 25.0625 2.11719L 25.0625 11.375L 22.3203 11.375L 22.3203 2.11719L 18.9688 2.11719L 18.9688 0L 28.4766 0L 28.4766 2.11719Z"/>
<path id="path12_fill" d="M 35.1641 9.25L 31.4062 9.25L 30.75 11.375L 27.8203 11.375L 31.9922 0L 34.5703 0L 38.7734 11.375L 35.8281 11.375L 35.1641 9.25ZM 32.0625 7.13281L 34.5078 7.13281L 33.2812 3.1875L 32.0625 7.13281Z"/>
<path id="path13_fill" d="M 42.5312 11.375L 39.7969 11.375L 39.7969 0L 42.5312 0L 42.5312 11.375Z"/>
<path id="path14_fill" d="M 47.1797 9.26562L 51.9531 9.26562L 51.9531 11.375L 44.4375 11.375L 44.4375 0L 47.1797 0L 47.1797 9.26562Z"/>
<path id="path15_fill" d="M 4.22656 26.3594L 2.74219 26.3594L 2.74219 30.375L 0 30.375L 0 19L 4.47656 19C 5.82552 19 6.88021 19.2995 7.64062 19.8984C 8.40104 20.4974 8.78125 21.3438 8.78125 22.4375C 8.78125 23.2292 8.61979 23.8854 8.29688 24.4062C 7.97917 24.9271 7.47917 25.349 6.79688 25.6719L 9.17188 30.2578L 9.17188 30.375L 6.23438 30.375L 4.22656 26.3594ZM 2.74219 24.2422L 4.47656 24.2422C 4.9974 24.2422 5.38802 24.1068 5.64844 23.8359C 5.91406 23.5599 6.04688 23.1771 6.04688 22.6875C 6.04688 22.1979 5.91406 21.8151 5.64844 21.5391C 5.38281 21.2578 4.99219 21.1172 4.47656 21.1172L 2.74219 21.1172L 2.74219 24.2422Z"/>
<path id="path16_fill" d="M 19.3594 19L 19.3594 26.4453C 19.3594 27.2891 19.1797 28.0208 18.8203 28.6406C 18.4609 29.2552 17.9453 29.724 17.2734 30.0469C 16.6016 30.3698 15.8073 30.5312 14.8906 30.5312C 13.5052 30.5312 12.4141 30.1719 11.6172 29.4531C 10.8203 28.7344 10.4141 27.75 10.3984 26.5L 10.3984 19L 13.1562 19L 13.1562 26.5547C 13.1875 27.7995 13.7656 28.4219 14.8906 28.4219C 15.4583 28.4219 15.888 28.2656 16.1797 27.9531C 16.4714 27.6406 16.6172 27.1328 16.6172 26.4297L 16.6172 19L 19.3594 19Z"/>
<path id="path17_fill" d="M 26.9453 27.3516C 26.9453 26.9505 26.8021 26.638 26.5156 26.4141C 26.2344 26.1901 25.737 25.9583 25.0234 25.7188C 24.3099 25.4792 23.7266 25.2474 23.2734 25.0234C 21.7995 24.2995 21.0625 23.3047 21.0625 22.0391C 21.0625 21.4089 21.2448 20.8542 21.6094 20.375C 21.9792 19.8906 22.5 19.5156 23.1719 19.25C 23.8438 18.9792 24.599 18.8438 25.4375 18.8438C 26.2552 18.8438 26.987 18.9896 27.6328 19.2812C 28.2839 19.5729 28.7891 19.9896 29.1484 20.5312C 29.5078 21.0677 29.6875 21.6823 29.6875 22.375L 26.9531 22.375C 26.9531 21.9115 26.8099 21.5521 26.5234 21.2969C 26.2422 21.0417 25.8594 20.9141 25.375 20.9141C 24.8854 20.9141 24.4974 21.0234 24.2109 21.2422C 23.9297 21.4557 23.7891 21.7292 23.7891 22.0625C 23.7891 22.3542 23.9453 22.6198 24.2578 22.8594C 24.5703 23.0938 25.1198 23.3385 25.9062 23.5938C 26.6927 23.8438 27.3385 24.1146 27.8438 24.4062C 29.0729 25.1146 29.6875 26.0911 29.6875 27.3359C 29.6875 28.3307 29.3125 29.112 28.5625 29.6797C 27.8125 30.2474 26.7839 30.5312 25.4766 30.5312C 24.5547 30.5312 23.7188 30.3672 22.9688 30.0391C 22.224 29.7057 21.6615 29.2526 21.2812 28.6797C 20.9062 28.1016 20.7188 27.4375 20.7188 26.6875L 23.4688 26.6875C 23.4688 27.2969 23.625 27.7474 23.9375 28.0391C 24.2552 28.3255 24.7682 28.4688 25.4766 28.4688C 25.9297 28.4688 26.2865 28.3724 26.5469 28.1797C 26.8125 27.9818 26.9453 27.7057 26.9453 27.3516Z"/>
<path id="path18_fill" d="M 36.9609 27.3516C 36.9609 26.9505 36.8177 26.638 36.5312 26.4141C 36.25 26.1901 35.7526 25.9583 35.0391 25.7188C 34.3255 25.4792 33.7422 25.2474 33.2891 25.0234C 31.8151 24.2995 31.0781 23.3047 31.0781 22.0391C 31.0781 21.4089 31.2604 20.8542 31.625 20.375C 31.9948 19.8906 32.5156 19.5156 33.1875 19.25C 33.8594 18.9792 34.6146 18.8438 35.4531 18.8438C 36.2708 18.8438 37.0026 18.9896 37.6484 19.2812C 38.2995 19.5729 38.8047 19.9896 39.1641 20.5312C 39.5234 21.0677 39.7031 21.6823 39.7031 22.375L 36.9688 22.375C 36.9688 21.9115 36.8255 21.5521 36.5391 21.2969C 36.2578 21.0417 35.875 20.9141 35.3906 20.9141C 34.901 20.9141 34.513 21.0234 34.2266 21.2422C 33.9453 21.4557 33.8047 21.7292 33.8047 22.0625C 33.8047 22.3542 33.9609 22.6198 34.2734 22.8594C 34.5859 23.0938 35.1354 23.3385 35.9219 23.5938C 36.7083 23.8438 37.3542 24.1146 37.8594 24.4062C 39.0885 25.1146 39.7031 26.0911 39.7031 27.3359C 39.7031 28.3307 39.3281 29.112 38.5781 29.6797C 37.8281 30.2474 36.7995 30.5312 35.4922 30.5312C 34.5703 30.5312 33.7344 30.3672 32.9844 30.0391C 32.2396 29.7057 31.6771 29.2526 31.2969 28.6797C 30.9219 28.1016 30.7344 27.4375 30.7344 26.6875L 33.4844 26.6875C 33.4844 27.2969 33.6406 27.7474 33.9531 28.0391C 34.2708 28.3255 34.7839 28.4688 35.4922 28.4688C 35.9453 28.4688 36.3021 28.3724 36.5625 28.1797C 36.8281 27.9818 36.9609 27.7057 36.9609 27.3516Z"/>
<path id="path19_fill" d="M 44.0312 30.375L 41.2969 30.375L 41.2969 19L 44.0312 19L 44.0312 30.375Z"/>
<path id="path20_fill" d="M 52.5391 28.25L 48.7812 28.25L 48.125 30.375L 45.1953 30.375L 49.3672 19L 51.9453 19L 56.1484 30.375L 53.2031 30.375L 52.5391 28.25ZM 49.4375 26.1328L 51.8828 26.1328L 50.6562 22.1875L 49.4375 26.1328Z"/>
</defs>
</svg>
