<svg width="214px" height="19px" viewBox="0 0 214 19" version="1.1" xmlns="http://www.w3.org/2000/svg" xmlns:xlink="http://www.w3.org/1999/xlink">
    <title>Food Business Russia</title>
    <g id="Icons" stroke="none" stroke-width="1" fill="none" fill-rule="evenodd">
        <g id="1-foodRetailRussia/rect">
            <rect id="Rectangle-27" fill="#AB2B30" x="0" y="0" width="57" height="19" rx="1"></rect>
            <path d="M10.9826087,5.74469565 L10.9826087,2.85217391 L3,2.85217391 L3,16 L6.00521739,16 L6.00521739,11.1728696 L10.8886957,11.1728696 L10.8886957,8.28034783 L6.00521739,8.28034783 L6.00521739,5.74469565 L10.9826087,5.74469565 Z M19.0403478,16.2629565 C15.2650435,16.2629565 12.2034783,13.2953043 12.2034783,9.42608696 C12.2034783,5.55686957 15.2650435,2.58921739 19.0403478,2.58921739 C22.8156522,2.58921739 25.8772174,5.55686957 25.8772174,9.42608696 C25.8772174,13.2953043 22.8156522,16.2629565 19.0403478,16.2629565 Z M19.0403478,13.3328696 C21.1815652,13.3328696 22.872,11.773913 22.872,9.42608696 C22.872,7.07826087 21.1815652,5.51930435 19.0403478,5.51930435 C16.8991304,5.51930435 15.2086957,7.07826087 15.2086957,9.42608696 C15.2086957,11.773913 16.8991304,13.3328696 19.0403478,13.3328696 Z M33.8410435,16.2629565 C30.0657391,16.2629565 27.0041739,13.2953043 27.0041739,9.42608696 C27.0041739,5.55686957 30.0657391,2.58921739 33.8410435,2.58921739 C37.6163478,2.58921739 40.677913,5.55686957 40.677913,9.42608696 C40.677913,13.2953043 37.6163478,16.2629565 33.8410435,16.2629565 Z M33.8410435,13.3328696 C35.9822609,13.3328696 37.6726957,11.773913 37.6726957,9.42608696 C37.6726957,7.07826087 35.9822609,5.51930435 33.8410435,5.51930435 C31.6998261,5.51930435 30.0093913,7.07826087 30.0093913,9.42608696 C30.0093913,11.773913 31.6998261,13.3328696 33.8410435,13.3328696 Z M47.6274783,2.85217391 C51.2525217,2.85217391 54.0135652,5.70713043 54.0135652,9.42608696 C54.0135652,13.1450435 51.2525217,16 47.6274783,16 L42.3683478,16 L42.3683478,2.85217391 L47.6274783,2.85217391 Z M47.6274783,13.1074783 C49.6935652,13.1074783 51.1210435,11.68 51.1210435,9.42608696 C51.1210435,7.17217391 49.6935652,5.74469565 47.6274783,5.74469565 L45.3735652,5.74469565 L45.3735652,13.1074783 L47.6274783,13.1074783 Z" id="FOOD" fill="#FFFFFF"></path>
            <path d="M70.1516522,9.18191304 C71.1283478,9.80173913 71.7669565,10.816 71.7669565,12.1495652 C71.7669565,14.4786087 69.869913,16 67.522087,16 L62,16 L62,2.85217391 L67.1464348,2.85217391 C69.437913,2.85217391 71.2973913,4.336 71.2973913,6.60869565 C71.2973913,7.69808696 70.8653913,8.56208696 70.1516522,9.18191304 Z M67.1464348,5.66956522 L65.0052174,5.66956522 L65.0052174,7.9986087 L67.1464348,7.9986087 C67.8226087,7.9986087 68.2921739,7.51026087 68.2921739,6.83408696 C68.2921739,6.15791304 67.8413913,5.66956522 67.1464348,5.66956522 Z M67.522087,13.1826087 C68.2733913,13.1826087 68.7617391,12.6566957 68.7617391,11.9241739 C68.7617391,11.1916522 68.2733913,10.6657391 67.522087,10.6657391 L65.0052174,10.6657391 L65.0052174,13.1826087 L67.522087,13.1826087 Z M78.2469565,16.2629565 C81.1394783,16.2629565 83.3182609,14.5725217 83.3182609,11.7551304 L83.3182609,2.85217391 L80.3130435,2.85217391 L80.3130435,11.4921739 C80.3130435,12.4876522 79.8434783,13.3328696 78.2469565,13.3328696 C76.6504348,13.3328696 76.1808696,12.4876522 76.1808696,11.4921739 L76.1808696,2.85217391 L73.1756522,2.85217391 L73.1756522,11.7551304 C73.1756522,14.5725217 75.3544348,16.2629565 78.2469565,16.2629565 Z M90.08,16.2629565 C92.9349565,16.2629565 94.9634783,14.7603478 94.9634783,12.2246957 C94.9634783,9.44486957 92.7283478,8.74991304 90.7373913,8.14886957 C88.690087,7.52904348 88.3707826,7.11582609 88.3707826,6.51478261 C88.3707826,5.98886957 88.8403478,5.51930435 89.7794783,5.51930435 C90.9815652,5.51930435 91.6013913,6.10156522 92.0521739,7.04069565 L94.5878261,5.55686957 C93.629913,3.62226087 91.9394783,2.58921739 89.7794783,2.58921739 C87.5067826,2.58921739 85.3655652,4.05426087 85.3655652,6.58991304 C85.3655652,9.10678261 87.2813913,10.045913 89.2347826,10.5906087 C91.2069565,11.1353043 91.9582609,11.4546087 91.9582609,12.2622609 C91.9582609,12.7693913 91.6013913,13.3328696 90.173913,13.3328696 C88.690087,13.3328696 87.8824348,12.6003478 87.4128696,11.5109565 L84.8208696,13.0135652 C85.5533913,14.9481739 87.3189565,16.2629565 90.08,16.2629565 Z M96.466087,2.85217391 L96.466087,16 L99.4713043,16 L99.4713043,2.85217391 L96.466087,2.85217391 Z M109.050435,2.85217391 L109.050435,9.98956522 L103.97913,2.85217391 L101.725217,2.85217391 L101.725217,16 L104.730435,16 L104.730435,8.8626087 L109.801739,16 L112.055652,16 L112.055652,2.85217391 L109.050435,2.85217391 Z M117.314783,13.1074783 L117.314783,10.7784348 L122.010435,10.7784348 L122.010435,7.92347826 L117.314783,7.92347826 L117.314783,5.74469565 L122.48,5.74469565 L122.48,2.85217391 L114.309565,2.85217391 L114.309565,16 L122.573913,16 L122.573913,13.1074783 L117.314783,13.1074783 Z M128.866087,16.2629565 C131.721043,16.2629565 133.749565,14.7603478 133.749565,12.2246957 C133.749565,9.44486957 131.514435,8.74991304 129.523478,8.14886957 C127.476174,7.52904348 127.15687,7.11582609 127.15687,6.51478261 C127.15687,5.98886957 127.626435,5.51930435 128.565565,5.51930435 C129.767652,5.51930435 130.387478,6.10156522 130.838261,7.04069565 L133.373913,5.55686957 C132.416,3.62226087 130.725565,2.58921739 128.565565,2.58921739 C126.29287,2.58921739 124.151652,4.05426087 124.151652,6.58991304 C124.151652,9.10678261 126.067478,10.045913 128.02087,10.5906087 C129.993043,11.1353043 130.744348,11.4546087 130.744348,12.2622609 C130.744348,12.7693913 130.387478,13.3328696 128.96,13.3328696 C127.476174,13.3328696 126.668522,12.6003478 126.198957,11.5109565 L123.606957,13.0135652 C124.339478,14.9481739 126.105043,16.2629565 128.866087,16.2629565 Z M139.853913,16.2629565 C142.70887,16.2629565 144.737391,14.7603478 144.737391,12.2246957 C144.737391,9.44486957 142.502261,8.74991304 140.511304,8.14886957 C138.464,7.52904348 138.144696,7.11582609 138.144696,6.51478261 C138.144696,5.98886957 138.614261,5.51930435 139.553391,5.51930435 C140.755478,5.51930435 141.375304,6.10156522 141.826087,7.04069565 L144.361739,5.55686957 C143.403826,3.62226087 141.713391,2.58921739 139.553391,2.58921739 C137.280696,2.58921739 135.139478,4.05426087 135.139478,6.58991304 C135.139478,9.10678261 137.055304,10.045913 139.008696,10.5906087 C140.98087,11.1353043 141.732174,11.4546087 141.732174,12.2622609 C141.732174,12.7693913 141.375304,13.3328696 139.947826,13.3328696 C138.464,13.3328696 137.656348,12.6003478 137.186783,11.5109565 L134.594783,13.0135652 C135.327304,14.9481739 137.09287,16.2629565 139.853913,16.2629565 Z M157.847652,16 L155.368348,11.68 L153.94087,11.68 L153.94087,16 L150.935652,16 L150.935652,2.85217391 L156.194783,2.85217391 C158.69287,2.85217391 160.702609,4.86191304 160.702609,7.36 C160.702609,8.97530435 159.725913,10.4403478 158.279652,11.1728696 L161.078261,16 L157.847652,16 Z M153.94087,5.66956522 L153.94087,9.05043478 L156.194783,9.05043478 C157.021217,9.05043478 157.697391,8.31791304 157.697391,7.36 C157.697391,6.40208696 157.021217,5.66956522 156.194783,5.66956522 L153.94087,5.66956522 Z M167.464348,16.2629565 C170.35687,16.2629565 172.535652,14.5725217 172.535652,11.7551304 L172.535652,2.85217391 L169.530435,2.85217391 L169.530435,11.4921739 C169.530435,12.4876522 169.06087,13.3328696 167.464348,13.3328696 C165.867826,13.3328696 165.398261,12.4876522 165.398261,11.4921739 L165.398261,2.85217391 L162.393043,2.85217391 L162.393043,11.7551304 C162.393043,14.5725217 164.571826,16.2629565 167.464348,16.2629565 Z M179.297391,16.2629565 C182.152348,16.2629565 184.18087,14.7603478 184.18087,12.2246957 C184.18087,9.44486957 181.945739,8.74991304 179.954783,8.14886957 C177.907478,7.52904348 177.588174,7.11582609 177.588174,6.51478261 C177.588174,5.98886957 178.057739,5.51930435 178.99687,5.51930435 C180.198957,5.51930435 180.818783,6.10156522 181.269565,7.04069565 L183.805217,5.55686957 C182.847304,3.62226087 181.15687,2.58921739 178.99687,2.58921739 C176.724174,2.58921739 174.582957,4.05426087 174.582957,6.58991304 C174.582957,9.10678261 176.498783,10.045913 178.452174,10.5906087 C180.424348,11.1353043 181.175652,11.4546087 181.175652,12.2622609 C181.175652,12.7693913 180.818783,13.3328696 179.391304,13.3328696 C177.907478,13.3328696 177.099826,12.6003478 176.630261,11.5109565 L174.038261,13.0135652 C174.770783,14.9481739 176.536348,16.2629565 179.297391,16.2629565 Z M190.285217,16.2629565 C193.140174,16.2629565 195.168696,14.7603478 195.168696,12.2246957 C195.168696,9.44486957 192.933565,8.74991304 190.942609,8.14886957 C188.895304,7.52904348 188.576,7.11582609 188.576,6.51478261 C188.576,5.98886957 189.045565,5.51930435 189.984696,5.51930435 C191.186783,5.51930435 191.806609,6.10156522 192.257391,7.04069565 L194.793043,5.55686957 C193.83513,3.62226087 192.144696,2.58921739 189.984696,2.58921739 C187.712,2.58921739 185.570783,4.05426087 185.570783,6.58991304 C185.570783,9.10678261 187.486609,10.045913 189.44,10.5906087 C191.412174,11.1353043 192.163478,11.4546087 192.163478,12.2622609 C192.163478,12.7693913 191.806609,13.3328696 190.37913,13.3328696 C188.895304,13.3328696 188.087652,12.6003478 187.618087,11.5109565 L185.026087,13.0135652 C185.758609,14.9481739 187.524174,16.2629565 190.285217,16.2629565 Z M196.671304,2.85217391 L196.671304,16 L199.676522,16 L199.676522,2.85217391 L196.671304,2.85217391 Z M210.288696,16 L209.631304,13.933913 L204.747826,13.933913 L204.090435,16 L200.803478,16 L205.273739,2.85217391 L209.105391,2.85217391 L213.575652,16 L210.288696,16 Z M205.649391,11.1165217 L208.729739,11.1165217 L207.189565,6.2893913 L205.649391,11.1165217 Z" id="BUSINESS-RUSSIA" fill="#2B2A29"></path>
        </g>
    </g>
</svg>