<?xml version="1.0" encoding="UTF-8"?>
<svg width="92px" height="87px" viewBox="0 0 92 87" version="1.1" xmlns="http://www.w3.org/2000/svg" xmlns:xlink="http://www.w3.org/1999/xlink">
    <!-- Generator: Sketch 46.2 (44496) - http://www.bohemiancoding.com/sketch -->
    <title>10 freshFoodRussia/square</title>
    <desc>Created with Sketch.</desc>
    <defs></defs>
    <g id="Icons" stroke="none" stroke-width="1" fill="none" fill-rule="evenodd">
        <g id="10-freshFoodRussia/square">
            <rect id="Rectangle-4-Copy-2" fill="#FFFFFF" x="0" y="0" width="92" height="87" rx="2"></rect>
            <path d="M2,0 L90,0 L90,0 C91.1045695,7.64553222e-15 92,0.8954305 92,2 L92,32 L-9.09494702e-13,32 L-9.09494702e-13,2 L-9.09494702e-13,2 C-9.09629973e-13,0.8954305 0.8954305,2.02906125e-16 2,0 Z" id="Rectangle-11" fill="#6ABD76"></path>
            <path d="M14.3339844,23.1992188 L9.87109375,23.1992188 L9.87109375,29 L7,29 L7,14.78125 L14.8710938,14.78125 L14.8710938,17.1738281 L9.87109375,17.1738281 L9.87109375,20.8164062 L14.3339844,20.8164062 L14.3339844,23.1992188 Z M20.1183594,23.8046875 L18.6925781,23.8046875 L18.6925781,29 L15.8214844,29 L15.8214844,14.78125 L20.4015625,14.78125 C21.8403718,14.78125 22.9520143,15.1539676 23.7365234,15.8994141 C24.5210326,16.6448605 24.9132813,17.7044202 24.9132813,19.078125 C24.9132813,20.9661553 24.2264392,22.2877566 22.8527344,23.0429688 L25.3429688,28.8632812 L25.3429688,29 L22.2570313,29 L20.1183594,23.8046875 Z M18.6925781,21.4121094 L20.3234375,21.4121094 C20.896357,21.4121094 21.3260402,21.2216816 21.6125,20.8408203 C21.8989598,20.459959 22.0421875,19.950524 22.0421875,19.3125 C22.0421875,17.8867116 21.4855525,17.1738281 20.3722656,17.1738281 L18.6925781,17.1738281 L18.6925781,21.4121094 Z M33.5296875,22.8476562 L29.0570313,22.8476562 L29.0570313,26.6171875 L34.35,26.6171875 L34.35,29 L26.1859375,29 L26.1859375,14.78125 L34.3304688,14.78125 L34.3304688,17.1738281 L29.0570313,17.1738281 L29.0570313,20.5332031 L33.5296875,20.5332031 L33.5296875,22.8476562 Z M41.30625,25.2695312 C41.30625,24.6901013 41.1581395,24.2522801 40.8619141,23.9560547 C40.5656887,23.6598292 40.0269571,23.3522151 39.2457032,23.0332031 C37.8199148,22.4928358 36.7945344,21.8597042 36.1695313,21.1337891 C35.5445282,20.407874 35.2320313,19.5501352 35.2320313,18.5605469 C35.2320313,17.3626242 35.6568317,16.4007198 36.5064453,15.6748047 C37.356059,14.9488896 38.4351497,14.5859375 39.74375,14.5859375 C40.6161502,14.5859375 41.3941372,14.7698549 42.0777344,15.1376953 C42.7613316,15.5055357 43.2870425,16.0247362 43.6548828,16.6953125 C44.0227232,17.3658888 44.2066407,18.1275999 44.2066407,18.9804688 L41.3453125,18.9804688 C41.3453125,18.3164029 41.2037124,17.8102231 40.9205078,17.4619141 C40.6373033,17.113605 40.2287787,16.9394531 39.6949219,16.9394531 C39.1936173,16.9394531 38.8029962,17.0875636 38.5230469,17.3837891 C38.2430976,17.6800145 38.103125,18.0787735 38.103125,18.5800781 C38.103125,18.9707051 38.2593735,19.3238917 38.571875,19.6396484 C38.8843766,19.9554052 39.4377565,20.2825504 40.2320313,20.6210938 C41.618757,21.1223983 42.6262339,21.7376266 43.2544922,22.4667969 C43.8827506,23.1959672 44.196875,24.1236923 44.196875,25.25 C44.196875,26.4869854 43.8029988,27.4537726 43.0152344,28.1503906 C42.2274701,28.8470087 41.1565172,29.1953125 39.8023438,29.1953125 C38.8843704,29.1953125 38.0477903,29.0065123 37.2925782,28.6289062 C36.5373661,28.2513002 35.9465516,27.710941 35.5201172,27.0078125 C35.0936828,26.304684 34.8804688,25.4746142 34.8804688,24.5175781 L37.7613282,24.5175781 C37.7613282,25.3378947 37.9208318,25.9335919 38.2398438,26.3046875 C38.5588558,26.6757831 39.0796839,26.8613281 39.8023438,26.8613281 C40.804953,26.8613281 41.30625,26.3307345 41.30625,25.2695312 Z M55.371875,29 L52.5105469,29 L52.5105469,22.9160156 L48.2722657,22.9160156 L48.2722657,29 L45.4011719,29 L45.4011719,14.78125 L48.2722657,14.78125 L48.2722657,20.5332031 L52.5105469,20.5332031 L52.5105469,14.78125 L55.371875,14.78125 L55.371875,29 Z" id="FRESH" fill="#FFFFFF"></path>
            <path d="M14.3339844,46.1992188 L9.87109375,46.1992188 L9.87109375,52 L7,52 L7,37.78125 L14.8710938,37.78125 L14.8710938,40.1738281 L9.87109375,40.1738281 L9.87109375,43.8164062 L14.3339844,43.8164062 L14.3339844,46.1992188 Z M25.8214844,46.1699219 C25.8214844,48.0774835 25.3706425,49.5585885 24.4689453,50.6132812 C23.5672481,51.667974 22.315633,52.1953125 20.7140625,52.1953125 C19.1190025,52.1953125 17.8657598,51.6728568 16.9542969,50.6279297 C16.042834,49.5830026 15.580599,48.1198011 15.5675781,46.2382812 L15.5675781,43.8066406 C15.5675781,41.8535059 16.0200476,40.328456 16.925,39.2314453 C17.8299525,38.1344346 19.0864503,37.5859375 20.6945313,37.5859375 C22.2765704,37.5859375 23.5233027,38.1246691 24.4347656,39.2021484 C25.3462285,40.2796278 25.8084635,41.7916569 25.8214844,43.7382812 L25.8214844,46.1699219 Z M22.940625,43.7871094 C22.940625,42.5045509 22.7583352,41.5507844 22.39375,40.9257812 C22.0291649,40.3007781 21.4627643,39.9882812 20.6945313,39.9882812 C19.9328087,39.9882812 19.3696633,40.289385 19.0050781,40.8916016 C18.640493,41.4938181 18.4516928,42.4101501 18.4386719,43.640625 L18.4386719,46.1699219 C18.4386719,47.4134177 18.6242169,48.3297497 18.9953125,48.9189453 C19.3664081,49.508141 19.9393191,49.8027344 20.7140625,49.8027344 C21.4627642,49.8027344 22.0193992,49.5146513 22.3839844,48.9384766 C22.7485695,48.3623018 22.9341146,47.4687561 22.940625,46.2578125 L22.940625,43.7871094 Z M37.1917969,46.1699219 C37.1917969,48.0774835 36.7409551,49.5585885 35.8392578,50.6132812 C34.9375606,51.667974 33.6859455,52.1953125 32.084375,52.1953125 C30.489315,52.1953125 29.2360723,51.6728568 28.3246094,50.6279297 C27.4131465,49.5830026 26.9509115,48.1198011 26.9378906,46.2382812 L26.9378906,43.8066406 C26.9378906,41.8535059 27.3903601,40.328456 28.2953125,39.2314453 C29.200265,38.1344346 30.4567628,37.5859375 32.0648438,37.5859375 C33.6468829,37.5859375 34.8936153,38.1246691 35.8050781,39.2021484 C36.716541,40.2796278 37.178776,41.7916569 37.1917969,43.7382812 L37.1917969,46.1699219 Z M34.3109375,43.7871094 C34.3109375,42.5045509 34.1286477,41.5507844 33.7640625,40.9257812 C33.3994774,40.3007781 32.8330768,39.9882812 32.0648438,39.9882812 C31.3031212,39.9882812 30.7399758,40.289385 30.3753906,40.8916016 C30.0108055,41.4938181 29.8220053,42.4101501 29.8089844,43.640625 L29.8089844,46.1699219 C29.8089844,47.4134177 29.9945294,48.3297497 30.365625,48.9189453 C30.7367206,49.508141 31.3096316,49.8027344 32.084375,49.8027344 C32.8330767,49.8027344 33.3897117,49.5146513 33.7542969,48.9384766 C34.1188821,48.3623018 34.3044271,47.4687561 34.3109375,46.2578125 L34.3109375,43.7871094 Z M38.5523438,52 L38.5523438,37.78125 L42.3121094,37.78125 C43.972274,37.78125 45.2955029,38.3085885 46.281836,39.3632812 C47.268169,40.417974 47.7710937,41.8632721 47.790625,43.6992188 L47.790625,46.0039062 C47.790625,47.8724052 47.2974659,49.3388619 46.3111328,50.4033203 C45.3247998,51.4677788 43.9657639,52 42.2339844,52 L38.5523438,52 Z M41.4234375,40.1738281 L41.4234375,49.6171875 L42.2828125,49.6171875 C43.2398486,49.6171875 43.91367,49.3649114 44.3042969,48.8603516 C44.6949239,48.3557917 44.8999999,47.4850322 44.9195313,46.2480469 L44.9195313,43.7773438 C44.9195313,42.4492121 44.7339863,41.5231146 44.3628907,40.9990234 C43.9917951,40.4749323 43.360291,40.1998699 42.4683594,40.1738281 L41.4234375,40.1738281 Z M11.3066406,67.8046875 L9.88085938,67.8046875 L9.88085938,73 L7.00976562,73 L7.00976562,58.78125 L11.5898438,58.78125 C13.028653,58.78125 14.1402956,59.1539676 14.9248047,59.8994141 C15.7093138,60.6448605 16.1015625,61.7044202 16.1015625,63.078125 C16.1015625,64.9661553 15.4147204,66.2877566 14.0410156,67.0429688 L16.53125,72.8632812 L16.53125,73 L13.4453125,73 L11.3066406,67.8046875 Z M9.88085938,65.4121094 L11.5117188,65.4121094 C12.0846383,65.4121094 12.5143215,65.2216816 12.8007813,64.8408203 C13.087241,64.459959 13.2304688,63.950524 13.2304688,63.3125 C13.2304688,61.8867116 12.6738337,61.1738281 11.5605469,61.1738281 L9.88085938,61.1738281 L9.88085938,65.4121094 Z M26.6222656,58.78125 L26.6222656,68.625 C26.6092447,70.102872 26.2023478,71.2340456 25.4015625,72.0185547 C24.6007773,72.8030638 23.4517002,73.1953125 21.9542969,73.1953125 C20.4308518,73.1953125 19.2671264,72.7981811 18.4630859,72.0039062 C17.6590455,71.2096314 17.2570313,70.0605544 17.2570313,68.5566406 L17.2570313,58.78125 L20.1476563,58.78125 L20.1476563,68.5664062 C20.1476563,69.373702 20.2778633,69.9498681 20.5382813,70.2949219 C20.7986992,70.6399757 21.2706997,70.8125 21.9542969,70.8125 C22.6378941,70.8125 23.1066394,70.6416033 23.3605469,70.2998047 C23.6144544,69.9580061 23.7446614,69.3964883 23.7511719,68.6152344 L23.7511719,58.78125 L26.6222656,58.78125 Z M34.1058594,69.2695312 C34.1058594,68.6901013 33.9577489,68.2522801 33.6615235,67.9560547 C33.365298,67.6598292 32.8265664,67.3522151 32.0453125,67.0332031 C30.6195241,66.4928358 29.5941438,65.8597042 28.9691406,65.1337891 C28.3441375,64.407874 28.0316406,63.5501352 28.0316406,62.5605469 C28.0316406,61.3626242 28.4564411,60.4007198 29.3060547,59.6748047 C30.1556683,58.9488896 31.2347591,58.5859375 32.5433594,58.5859375 C33.4157596,58.5859375 34.1937466,58.7698549 34.8773438,59.1376953 C35.5609409,59.5055357 36.0866518,60.0247362 36.4544922,60.6953125 C36.8223326,61.3658888 37.00625,62.1275999 37.00625,62.9804688 L34.1449219,62.9804688 C34.1449219,62.3164029 34.0033218,61.8102231 33.7201172,61.4619141 C33.4369127,61.113605 33.0283881,60.9394531 32.4945313,60.9394531 C31.9932267,60.9394531 31.6026056,61.0875636 31.3226563,61.3837891 C31.042707,61.6800145 30.9027344,62.0787735 30.9027344,62.5800781 C30.9027344,62.9707051 31.0589828,63.3238917 31.3714844,63.6396484 C31.683986,63.9554052 32.2373658,64.2825504 33.0316406,64.6210938 C34.4183663,65.1223983 35.4258432,65.7376266 36.0541016,66.4667969 C36.6823599,67.1959672 36.9964844,68.1236923 36.9964844,69.25 C36.9964844,70.4869854 36.6026081,71.4537726 35.8148438,72.1503906 C35.0270794,72.8470087 33.9561266,73.1953125 32.6019531,73.1953125 C31.6839798,73.1953125 30.8473996,73.0065123 30.0921875,72.6289062 C29.3369754,72.2513002 28.746161,71.710941 28.3197266,71.0078125 C27.8932922,70.304684 27.6800781,69.4746142 27.6800781,68.5175781 L30.5609375,68.5175781 C30.5609375,69.3378947 30.7204411,69.9335919 31.0394531,70.3046875 C31.3584652,70.6757831 31.8792933,70.8613281 32.6019531,70.8613281 C33.6045623,70.8613281 34.1058594,70.3307345 34.1058594,69.2695312 Z M44.2066407,69.2695312 C44.2066407,68.6901013 44.0585302,68.2522801 43.7623047,67.9560547 C43.4660793,67.6598292 42.9273477,67.3522151 42.1460938,67.0332031 C40.7203054,66.4928358 39.694925,65.8597042 39.0699219,65.1337891 C38.4449188,64.407874 38.1324219,63.5501352 38.1324219,62.5605469 C38.1324219,61.3626242 38.5572224,60.4007198 39.406836,59.6748047 C40.2564496,58.9488896 41.3355404,58.5859375 42.6441407,58.5859375 C43.5165409,58.5859375 44.2945279,58.7698549 44.978125,59.1376953 C45.6617222,59.5055357 46.1874331,60.0247362 46.5552735,60.6953125 C46.9231139,61.3658888 47.1070313,62.1275999 47.1070313,62.9804688 L44.2457032,62.9804688 C44.2457032,62.3164029 44.104103,61.8102231 43.8208985,61.4619141 C43.5376939,61.113605 43.1291694,60.9394531 42.5953125,60.9394531 C42.0940079,60.9394531 41.7033869,61.0875636 41.4234375,61.3837891 C41.1434882,61.6800145 41.0035157,62.0787735 41.0035157,62.5800781 C41.0035157,62.9707051 41.1597641,63.3238917 41.4722657,63.6396484 C41.7847672,63.9554052 42.3381471,64.2825504 43.1324219,64.6210938 C44.5191476,65.1223983 45.5266245,65.7376266 46.1548828,66.4667969 C46.7831412,67.1959672 47.0972657,68.1236923 47.0972657,69.25 C47.0972657,70.4869854 46.7033894,71.4537726 45.915625,72.1503906 C45.1278607,72.8470087 44.0569078,73.1953125 42.7027344,73.1953125 C41.7847611,73.1953125 40.9481809,73.0065123 40.1929688,72.6289062 C39.4377567,72.2513002 38.8469423,71.710941 38.4205078,71.0078125 C37.9940734,70.304684 37.7808594,69.4746142 37.7808594,68.5175781 L40.6617188,68.5175781 C40.6617188,69.3378947 40.8212224,69.9335919 41.1402344,70.3046875 C41.4592464,70.6757831 41.9800745,70.8613281 42.7027344,70.8613281 C43.7053436,70.8613281 44.2066407,70.3307345 44.2066407,69.2695312 Z M51.2996094,73 L48.4285157,73 L48.4285157,58.78125 L51.2996094,58.78125 L51.2996094,73 Z M59.7988282,70.0898438 L55.8828126,70.0898438 L55.1210938,73 L52.0839844,73 L56.5273438,58.78125 L59.1542969,58.78125 L63.6269532,73 L60.5605469,73 L59.7988282,70.0898438 Z M56.5078126,67.6972656 L59.1640626,67.6972656 L57.8359376,62.6289062 L56.5078126,67.6972656 Z" id="FOOD-RUSSIA" fill="#2B2A29"></path>
        </g>
    </g>
</svg>