<svg width="183px" height="19px" viewBox="0 0 183 19" version="1.1" xmlns="http://www.w3.org/2000/svg" xmlns:xlink="http://www.w3.org/1999/xlink">
    <title>Fresh Food Russia</title>
    <g id="Icons" stroke="none" stroke-width="1" fill="none" fill-rule="evenodd">
        <g id="10-freshFoodRussia/rect">
            <rect id="Rectangle-27" fill="#6ABD76" x="0" y="0" width="116" height="19" rx="1"></rect>
            <path d="M10.9560926,5.73421399 L10.9560926,2.85130044 L3,2.85130044 L3,15.9554529 L5.99523485,15.9554529 L5.99523485,11.1443569 L10.8624915,11.1443569 L10.8624915,8.2614434 L5.99523485,8.2614434 L5.99523485,5.73421399 L10.9560926,5.73421399 Z M19.6235534,15.9554529 L17.1524847,11.6498028 L15.7297481,11.6498028 L15.7297481,15.9554529 L12.7345133,15.9554529 L12.7345133,2.85130044 L17.9761743,2.85130044 C20.4659632,2.85130044 22.4690265,4.85436375 22.4690265,7.34415272 C22.4690265,8.95409146 21.4955752,10.4142684 20.0541184,11.1443569 L22.8434309,15.9554529 L19.6235534,15.9554529 Z M15.7297481,5.65933312 L15.7297481,9.02897233 L17.9761743,9.02897233 C18.7998639,9.02897233 19.4737917,8.29888383 19.4737917,7.34415272 C19.4737917,6.38942161 18.7998639,5.65933312 17.9761743,5.65933312 L15.7297481,5.65933312 Z M27.2426821,13.0725394 L27.2426821,10.7512324 L31.9227366,10.7512324 L31.9227366,7.90575926 L27.2426821,7.90575926 L27.2426821,5.73421399 L32.390742,5.73421399 L32.390742,2.85130044 L24.2474472,2.85130044 L24.2474472,15.9554529 L32.4843431,15.9554529 L32.4843431,13.0725394 L27.2426821,13.0725394 Z M38.7556161,16.217536 C41.6010892,16.217536 43.6228727,14.7199185 43.6228727,12.1926891 C43.6228727,9.4220969 41.3951668,8.72944884 39.4108237,8.13040187 C37.3703199,7.51263468 37.0520762,7.10078989 37.0520762,6.50174292 C37.0520762,5.97757682 37.5200817,5.50957137 38.4560926,5.50957137 C39.6541865,5.50957137 40.2719537,6.08989813 40.7212389,7.02590902 L43.2484683,5.54701181 C42.2937372,3.61882937 40.6089176,2.58921739 38.4560926,2.58921739 C36.1909462,2.58921739 34.0568414,4.04939438 34.0568414,6.57662379 C34.0568414,9.08513298 35.9663036,10.0211439 37.9132063,10.5640302 C39.8788291,11.1069165 40.6276378,11.4251602 40.6276378,12.2301296 C40.6276378,12.7355755 40.2719537,13.297182 38.8492172,13.297182 C37.3703199,13.297182 36.5653506,12.5670935 36.0973451,11.4813209 L33.5139551,12.9789383 C34.2440436,14.9071207 36.003744,16.217536 38.7556161,16.217536 Z M52.2341729,2.85130044 L52.2341729,7.86831882 L48.115725,7.86831882 L48.115725,2.85130044 L45.1204901,2.85130044 L45.1204901,15.9554529 L48.115725,15.9554529 L48.115725,10.7512324 L52.2341729,10.7512324 L52.2341729,15.9554529 L55.2294078,15.9554529 L55.2294078,2.85130044 L52.2341729,2.85130044 Z M70.1119809,5.73421399 L70.1119809,2.85130044 L62.1558884,2.85130044 L62.1558884,15.9554529 L65.1511232,15.9554529 L65.1511232,11.1443569 L70.0183799,11.1443569 L70.0183799,8.2614434 L65.1511232,8.2614434 L65.1511232,5.73421399 L70.1119809,5.73421399 Z M78.1429544,16.217536 C74.3801906,16.217536 71.3287951,13.2597416 71.3287951,9.40337668 C71.3287951,5.54701181 74.3801906,2.58921739 78.1429544,2.58921739 C81.9057182,2.58921739 84.9571137,5.54701181 84.9571137,9.40337668 C84.9571137,13.2597416 81.9057182,16.217536 78.1429544,16.217536 Z M78.1429544,13.297182 C80.2770592,13.297182 81.9618788,11.7434039 81.9618788,9.40337668 C81.9618788,7.06334945 80.2770592,5.50957137 78.1429544,5.50957137 C76.0088496,5.50957137 74.32403,7.06334945 74.32403,9.40337668 C74.32403,11.7434039 76.0088496,13.297182 78.1429544,13.297182 Z M92.894486,16.217536 C89.1317223,16.217536 86.0803268,13.2597416 86.0803268,9.40337668 C86.0803268,5.54701181 89.1317223,2.58921739 92.894486,2.58921739 C96.6572498,2.58921739 99.7086453,5.54701181 99.7086453,9.40337668 C99.7086453,13.2597416 96.6572498,16.217536 92.894486,16.217536 Z M92.894486,13.297182 C95.0285909,13.297182 96.7134105,11.7434039 96.7134105,9.40337668 C96.7134105,7.06334945 95.0285909,5.50957137 92.894486,5.50957137 C90.7603812,5.50957137 89.0755616,7.06334945 89.0755616,9.40337668 C89.0755616,11.7434039 90.7603812,13.297182 92.894486,13.297182 Z M106.635126,2.85130044 C110.248128,2.85130044 113,5.69677355 113,9.40337668 C113,13.1099798 110.248128,15.9554529 106.635126,15.9554529 L101.393465,15.9554529 L101.393465,2.85130044 L106.635126,2.85130044 Z M106.635126,13.0725394 C108.69435,13.0725394 110.117086,11.6498028 110.117086,9.40337668 C110.117086,7.15695054 108.69435,5.73421399 106.635126,5.73421399 L104.3887,5.73421399 L104.3887,13.0725394 L106.635126,13.0725394 Z" id="FRESH-FOOD" fill="#FFFFFF"></path>
            <path d="M127.841379,15.8629805 L125.387406,11.5871184 L123.974513,11.5871184 L123.974513,15.8629805 L121,15.8629805 L121,2.84948726 L126.205397,2.84948726 C128.677961,2.84948726 130.667166,4.83869265 130.667166,7.31125637 C130.667166,8.91005697 129.70045,10.3601319 128.268966,11.0851694 L131.038981,15.8629805 L127.841379,15.8629805 Z M123.974513,5.63809295 L123.974513,8.98441979 L126.205397,8.98441979 C127.023388,8.98441979 127.692654,8.25938231 127.692654,7.31125637 C127.692654,6.36313043 127.023388,5.63809295 126.205397,5.63809295 L123.974513,5.63809295 Z M137.35982,16.1232504 C140.222789,16.1232504 142.37931,14.450087 142.37931,11.6614813 L142.37931,2.84948726 L139.404798,2.84948726 L139.404798,11.4012114 C139.404798,12.3865187 138.94003,13.2231004 137.35982,13.2231004 C135.77961,13.2231004 135.314843,12.3865187 135.314843,11.4012114 L135.314843,2.84948726 L132.34033,2.84948726 L132.34033,11.6614813 C132.34033,14.450087 134.496852,16.1232504 137.35982,16.1232504 Z M149.071964,16.1232504 C151.897751,16.1232504 153.905547,14.635994 153.905547,12.1262489 C153.905547,9.37482459 151.693253,8.68696852 149.722639,8.09206597 C147.696252,7.47857271 147.38021,7.06957721 147.38021,6.47467466 C147.38021,5.95413493 147.844978,5.48936732 148.774513,5.48936732 C149.964318,5.48936732 150.577811,6.06567916 151.023988,6.99521439 L153.533733,5.52654873 C152.585607,3.61170615 150.912444,2.58921739 148.774513,2.58921739 C146.525037,2.58921739 144.405697,4.03929235 144.405697,6.54903748 C144.405697,9.0401919 146.301949,9.96972714 148.235382,10.5088576 C150.187406,11.047988 150.931034,11.36403 150.931034,12.1634303 C150.931034,12.6653793 150.577811,13.2231004 149.164918,13.2231004 C147.696252,13.2231004 146.896852,12.498063 146.432084,11.4198021 L143.866567,12.9070585 C144.591604,14.821901 146.33913,16.1232504 149.071964,16.1232504 Z M159.947526,16.1232504 C162.773313,16.1232504 164.781109,14.635994 164.781109,12.1262489 C164.781109,9.37482459 162.568816,8.68696852 160.598201,8.09206597 C158.571814,7.47857271 158.255772,7.06957721 158.255772,6.47467466 C158.255772,5.95413493 158.72054,5.48936732 159.650075,5.48936732 C160.83988,5.48936732 161.453373,6.06567916 161.89955,6.99521439 L164.409295,5.52654873 C163.461169,3.61170615 161.788006,2.58921739 159.650075,2.58921739 C157.4006,2.58921739 155.281259,4.03929235 155.281259,6.54903748 C155.281259,9.0401919 157.177511,9.96972714 159.110945,10.5088576 C161.062969,11.047988 161.806597,11.36403 161.806597,12.1634303 C161.806597,12.6653793 161.453373,13.2231004 160.04048,13.2231004 C158.571814,13.2231004 157.772414,12.498063 157.307646,11.4198021 L154.742129,12.9070585 C155.467166,14.821901 157.214693,16.1232504 159.947526,16.1232504 Z M166.268366,2.84948726 L166.268366,15.8629805 L169.242879,15.8629805 L169.242879,2.84948726 L166.268366,2.84948726 Z M179.746627,15.8629805 L179.095952,13.818003 L174.262369,13.818003 L173.611694,15.8629805 L170.358321,15.8629805 L174.782909,2.84948726 L178.575412,2.84948726 L183,15.8629805 L179.746627,15.8629805 Z M175.154723,11.0293973 L178.203598,11.0293973 L176.67916,6.25158621 L175.154723,11.0293973 Z" id="RUSSIA" fill="#2B2A29"></path>
        </g>
    </g>
</svg>