<svg width="90" height="85" viewBox="0 0 90 85" version="1.1" xmlns="http://www.w3.org/2000/svg" xmlns:xlink="http://www.w3.org/1999/xlink">
<title>8</title>
<desc>Created using Figma</desc>
<g id="Canvas" transform="translate(-15940 1392)">
<g id="8">
<g id="Rectangle 4 Copy 2">
<use xlink:href="#path0_fill" transform="translate(15940 -1392)" fill="#FFFFFF"/>
</g>
<g id="Rectangle 11">
<use xlink:href="#path1_fill" transform="translate(15940 -1382)" fill="#1DB312"/>
</g>
<g id="FRESH">
<use xlink:href="#path2_fill" transform="translate(15946 -1378.14)" fill="#FFFFFF"/>
<use xlink:href="#path3_fill" transform="translate(15946 -1378.14)" fill="#FFFFFF"/>
<use xlink:href="#path4_fill" transform="translate(15946 -1378.14)" fill="#FFFFFF"/>
<use xlink:href="#path5_fill" transform="translate(15946 -1378.14)" fill="#FFFFFF"/>
<use xlink:href="#path6_fill" transform="translate(15946 -1378.14)" fill="#FFFFFF"/>
</g>
<g id="FOOD RUSSIA">
<use xlink:href="#path7_fill" transform="translate(15945.9 -1354.53)" fill="#4C4B4A"/>
<use xlink:href="#path8_fill" transform="translate(15945.9 -1354.53)" fill="#4C4B4A"/>
<use xlink:href="#path9_fill" transform="translate(15945.9 -1354.53)" fill="#4C4B4A"/>
<use xlink:href="#path10_fill" transform="translate(15945.9 -1354.53)" fill="#4C4B4A"/>
<use xlink:href="#path11_fill" transform="translate(15945.9 -1354.53)" fill="#4C4B4A"/>
<use xlink:href="#path12_fill" transform="translate(15945.9 -1354.53)" fill="#4C4B4A"/>
<use xlink:href="#path13_fill" transform="translate(15945.9 -1354.53)" fill="#4C4B4A"/>
<use xlink:href="#path14_fill" transform="translate(15945.9 -1354.53)" fill="#4C4B4A"/>
<use xlink:href="#path15_fill" transform="translate(15945.9 -1354.53)" fill="#4C4B4A"/>
<use xlink:href="#path16_fill" transform="translate(15945.9 -1354.53)" fill="#4C4B4A"/>
</g>
</g>
</g>
<defs>
<path id="path0_fill" fill-rule="evenodd" d="M 0 1.69811C 0 0.760271 0.760271 0 1.69811 0L 88.3019 0C 89.2397 0 90 0.760271 90 1.69811L 90 83.3019C 90 84.2397 89.2397 85 88.3019 85L 1.69811 85C 0.760271 85 0 84.2397 0 83.3019L 0 1.69811Z"/>
<path id="path1_fill" fill-rule="evenodd" d="M 0 0L 90 0L 90 21L 0 21L 0 0Z"/>
<path id="path2_fill" d="M 7.225 2.856L 7.225 0.238L 0 0.238L 0 12.138L 2.72 12.138L 2.72 7.769L 7.14 7.769L 7.14 5.151L 2.72 5.151L 2.72 2.856L 7.225 2.856Z"/>
<path id="path3_fill" d="M 15.088 12.138L 18.012 12.138L 15.479 7.769C 16.788 7.106 17.672 5.78 17.672 4.318C 17.672 2.057 15.853 0.238 13.592 0.238L 8.83203 0.238L 8.83203 12.138L 11.552 12.138L 11.552 8.228L 12.844 8.228L 15.088 12.138ZM 11.552 2.788L 13.592 2.788C 14.34 2.788 14.952 3.451 14.952 4.318C 14.952 5.185 14.34 5.848 13.592 5.848L 11.552 5.848L 11.552 2.788Z"/>
<path id="path4_fill" d="M 22.011 9.52L 22.011 7.412L 26.261 7.412L 26.261 4.828L 22.011 4.828L 22.011 2.856L 26.686 2.856L 26.686 0.238L 19.291 0.238L 19.291 12.138L 26.771 12.138L 26.771 9.52L 22.011 9.52Z"/>
<path id="path5_fill" d="M 32.4707 12.376C 35.0547 12.376 36.8907 11.016 36.8907 8.721C 36.8907 6.205 34.8677 5.576 33.0657 5.032C 31.2127 4.471 30.9237 4.097 30.9237 3.553C 30.9237 3.077 31.3487 2.652 32.1987 2.652C 33.2867 2.652 33.8477 3.179 34.2557 4.029L 36.5507 2.686C 35.6837 0.935 34.1537 0 32.1987 0C 30.1417 0 28.2037 1.326 28.2037 3.621C 28.2037 5.899 29.9377 6.749 31.7057 7.242C 33.4907 7.735 34.1707 8.024 34.1707 8.755C 34.1707 9.214 33.8477 9.724 32.5557 9.724C 31.2127 9.724 30.4817 9.061 30.0567 8.075L 27.7107 9.435C 28.3737 11.186 29.9717 12.376 32.4707 12.376Z"/>
<path id="path6_fill" d="M 44.627 0.238L 44.627 4.794L 40.887 4.794L 40.887 0.238L 38.167 0.238L 38.167 12.138L 40.887 12.138L 40.887 7.412L 44.627 7.412L 44.627 12.138L 47.347 12.138L 47.347 0.238L 44.627 0.238Z"/>
<path id="path7_fill" d="M 7.16406 7L 2.74219 7L 2.74219 11.5312L 0 11.5312L 0 0.15625L 7.60938 0.15625L 7.60938 2.27344L 2.74219 2.27344L 2.74219 4.89062L 7.16406 4.89062L 7.16406 7Z"/>
<path id="path8_fill" d="M 18.3828 6.07812C 18.3828 7.1875 18.1771 8.16927 17.7656 9.02344C 17.3542 9.8776 16.7682 10.5365 16.0078 11C 15.2526 11.4583 14.3906 11.6875 13.4219 11.6875C 12.4531 11.6875 11.5938 11.4661 10.8438 11.0234C 10.0938 10.5755 9.50781 9.9375 9.08594 9.10938C 8.66927 8.28125 8.45052 7.33073 8.42969 6.25781L 8.42969 5.61719C 8.42969 4.5026 8.63281 3.52083 9.03906 2.67188C 9.45052 1.81771 10.0365 1.15885 10.7969 0.695312C 11.5625 0.231771 12.4323 0 13.4062 0C 14.3698 0 15.2292 0.229167 15.9844 0.6875C 16.7396 1.14583 17.3255 1.79948 17.7422 2.64844C 18.1641 3.49219 18.3776 4.46094 18.3828 5.55469L 18.3828 6.07812ZM 15.5938 5.60156C 15.5938 4.47135 15.4036 3.61458 15.0234 3.03125C 14.6484 2.44271 14.1094 2.14844 13.4062 2.14844C 12.0312 2.14844 11.3047 3.17969 11.2266 5.24219L 11.2188 6.07812C 11.2188 7.19271 11.4036 8.04948 11.7734 8.64844C 12.1432 9.2474 12.6927 9.54688 13.4219 9.54688C 14.1146 9.54688 14.6484 9.2526 15.0234 8.66406C 15.3984 8.07552 15.5885 7.22917 15.5938 6.125L 15.5938 5.60156Z"/>
<path id="path9_fill" d="M 29.4297 6.07812C 29.4297 7.1875 29.224 8.16927 28.8125 9.02344C 28.401 9.8776 27.8151 10.5365 27.0547 11C 26.2995 11.4583 25.4375 11.6875 24.4688 11.6875C 23.5 11.6875 22.6406 11.4661 21.8906 11.0234C 21.1406 10.5755 20.5547 9.9375 20.1328 9.10938C 19.7161 8.28125 19.4974 7.33073 19.4766 6.25781L 19.4766 5.61719C 19.4766 4.5026 19.6797 3.52083 20.0859 2.67188C 20.4974 1.81771 21.0833 1.15885 21.8438 0.695312C 22.6094 0.231771 23.4792 0 24.4531 0C 25.4167 0 26.276 0.229167 27.0312 0.6875C 27.7865 1.14583 28.3724 1.79948 28.7891 2.64844C 29.2109 3.49219 29.4245 4.46094 29.4297 5.55469L 29.4297 6.07812ZM 26.6406 5.60156C 26.6406 4.47135 26.4505 3.61458 26.0703 3.03125C 25.6953 2.44271 25.1562 2.14844 24.4531 2.14844C 23.0781 2.14844 22.3516 3.17969 22.2734 5.24219L 22.2656 6.07812C 22.2656 7.19271 22.4505 8.04948 22.8203 8.64844C 23.1901 9.2474 23.7396 9.54688 24.4688 9.54688C 25.1615 9.54688 25.6953 9.2526 26.0703 8.66406C 26.4453 8.07552 26.6354 7.22917 26.6406 6.125L 26.6406 5.60156Z"/>
<path id="path10_fill" d="M 30.8438 11.5312L 30.8438 0.15625L 34.5078 0.15625C 35.513 0.15625 36.4167 0.385417 37.2188 0.84375C 38.0208 1.29688 38.6458 1.9401 39.0938 2.77344C 39.5469 3.60156 39.776 4.53125 39.7812 5.5625L 39.7812 6.08594C 39.7812 7.1276 39.5599 8.0625 39.1172 8.89062C 38.6797 9.71354 38.0599 10.3594 37.2578 10.8281C 36.4609 11.2917 35.5703 11.526 34.5859 11.5312L 30.8438 11.5312ZM 33.5859 2.27344L 33.5859 9.42188L 34.5391 9.42188C 35.3255 9.42188 35.9297 9.14323 36.3516 8.58594C 36.7734 8.02344 36.9844 7.1901 36.9844 6.08594L 36.9844 5.59375C 36.9844 4.49479 36.7734 3.66667 36.3516 3.10938C 35.9297 2.55208 35.3151 2.27344 34.5078 2.27344L 33.5859 2.27344Z"/>
<path id="path11_fill" d="M 4.22656 26.5156L 2.74219 26.5156L 2.74219 30.5312L 0 30.5312L 0 19.1562L 4.47656 19.1562C 5.82552 19.1562 6.88021 19.4557 7.64062 20.0547C 8.40104 20.6536 8.78125 21.5 8.78125 22.5938C 8.78125 23.3854 8.61979 24.0417 8.29688 24.5625C 7.97917 25.0833 7.47917 25.5052 6.79688 25.8281L 9.17188 30.4141L 9.17188 30.5312L 6.23438 30.5312L 4.22656 26.5156ZM 2.74219 24.3984L 4.47656 24.3984C 4.9974 24.3984 5.38802 24.263 5.64844 23.9922C 5.91406 23.7161 6.04688 23.3333 6.04688 22.8438C 6.04688 22.3542 5.91406 21.9714 5.64844 21.6953C 5.38281 21.4141 4.99219 21.2734 4.47656 21.2734L 2.74219 21.2734L 2.74219 24.3984Z"/>
<path id="path12_fill" d="M 19.3594 19.1562L 19.3594 26.6016C 19.3594 27.4453 19.1797 28.1771 18.8203 28.7969C 18.4609 29.4115 17.9453 29.8802 17.2734 30.2031C 16.6016 30.526 15.8073 30.6875 14.8906 30.6875C 13.5052 30.6875 12.4141 30.3281 11.6172 29.6094C 10.8203 28.8906 10.4141 27.9062 10.3984 26.6562L 10.3984 19.1562L 13.1562 19.1562L 13.1562 26.7109C 13.1875 27.9557 13.7656 28.5781 14.8906 28.5781C 15.4583 28.5781 15.888 28.4219 16.1797 28.1094C 16.4714 27.7969 16.6172 27.2891 16.6172 26.5859L 16.6172 19.1562L 19.3594 19.1562Z"/>
<path id="path13_fill" d="M 26.9453 27.5078C 26.9453 27.1068 26.8021 26.7943 26.5156 26.5703C 26.2344 26.3464 25.737 26.1146 25.0234 25.875C 24.3099 25.6354 23.7266 25.4036 23.2734 25.1797C 21.7995 24.4557 21.0625 23.4609 21.0625 22.1953C 21.0625 21.5651 21.2448 21.0104 21.6094 20.5312C 21.9792 20.0469 22.5 19.6719 23.1719 19.4062C 23.8438 19.1354 24.599 19 25.4375 19C 26.2552 19 26.987 19.1458 27.6328 19.4375C 28.2839 19.7292 28.7891 20.1458 29.1484 20.6875C 29.5078 21.224 29.6875 21.8385 29.6875 22.5312L 26.9531 22.5312C 26.9531 22.0677 26.8099 21.7083 26.5234 21.4531C 26.2422 21.1979 25.8594 21.0703 25.375 21.0703C 24.8854 21.0703 24.4974 21.1797 24.2109 21.3984C 23.9297 21.612 23.7891 21.8854 23.7891 22.2188C 23.7891 22.5104 23.9453 22.776 24.2578 23.0156C 24.5703 23.25 25.1198 23.4948 25.9062 23.75C 26.6927 24 27.3385 24.2708 27.8438 24.5625C 29.0729 25.2708 29.6875 26.2474 29.6875 27.4922C 29.6875 28.487 29.3125 29.2682 28.5625 29.8359C 27.8125 30.4036 26.7839 30.6875 25.4766 30.6875C 24.5547 30.6875 23.7188 30.5234 22.9688 30.1953C 22.224 29.862 21.6615 29.4089 21.2812 28.8359C 20.9062 28.2578 20.7188 27.5938 20.7188 26.8438L 23.4688 26.8438C 23.4688 27.4531 23.625 27.9036 23.9375 28.1953C 24.2552 28.4818 24.7682 28.625 25.4766 28.625C 25.9297 28.625 26.2865 28.5286 26.5469 28.3359C 26.8125 28.138 26.9453 27.862 26.9453 27.5078Z"/>
<path id="path14_fill" d="M 36.9609 27.5078C 36.9609 27.1068 36.8177 26.7943 36.5312 26.5703C 36.25 26.3464 35.7526 26.1146 35.0391 25.875C 34.3255 25.6354 33.7422 25.4036 33.2891 25.1797C 31.8151 24.4557 31.0781 23.4609 31.0781 22.1953C 31.0781 21.5651 31.2604 21.0104 31.625 20.5312C 31.9948 20.0469 32.5156 19.6719 33.1875 19.4062C 33.8594 19.1354 34.6146 19 35.4531 19C 36.2708 19 37.0026 19.1458 37.6484 19.4375C 38.2995 19.7292 38.8047 20.1458 39.1641 20.6875C 39.5234 21.224 39.7031 21.8385 39.7031 22.5312L 36.9688 22.5312C 36.9688 22.0677 36.8255 21.7083 36.5391 21.4531C 36.2578 21.1979 35.875 21.0703 35.3906 21.0703C 34.901 21.0703 34.513 21.1797 34.2266 21.3984C 33.9453 21.612 33.8047 21.8854 33.8047 22.2188C 33.8047 22.5104 33.9609 22.776 34.2734 23.0156C 34.5859 23.25 35.1354 23.4948 35.9219 23.75C 36.7083 24 37.3542 24.2708 37.8594 24.5625C 39.0885 25.2708 39.7031 26.2474 39.7031 27.4922C 39.7031 28.487 39.3281 29.2682 38.5781 29.8359C 37.8281 30.4036 36.7995 30.6875 35.4922 30.6875C 34.5703 30.6875 33.7344 30.5234 32.9844 30.1953C 32.2396 29.862 31.6771 29.4089 31.2969 28.8359C 30.9219 28.2578 30.7344 27.5938 30.7344 26.8438L 33.4844 26.8438C 33.4844 27.4531 33.6406 27.9036 33.9531 28.1953C 34.2708 28.4818 34.7839 28.625 35.4922 28.625C 35.9453 28.625 36.3021 28.5286 36.5625 28.3359C 36.8281 28.138 36.9609 27.862 36.9609 27.5078Z"/>
<path id="path15_fill" d="M 44.0312 30.5312L 41.2969 30.5312L 41.2969 19.1562L 44.0312 19.1562L 44.0312 30.5312Z"/>
<path id="path16_fill" d="M 52.5391 28.4062L 48.7812 28.4062L 48.125 30.5312L 45.1953 30.5312L 49.3672 19.1562L 51.9453 19.1562L 56.1484 30.5312L 53.2031 30.5312L 52.5391 28.4062ZM 49.4375 26.2891L 51.8828 26.2891L 50.6562 22.3438L 49.4375 26.2891Z"/>
</defs>
</svg>
