<svg width="90" height="85" viewBox="0 0 90 85" version="1.1" xmlns="http://www.w3.org/2000/svg" xmlns:xlink="http://www.w3.org/1999/xlink">
<title>3</title>
<desc>Created using Figma</desc>
<g id="Canvas" transform="translate(-15389 1392)">
<g id="3">
<g id="Group 67">
<g id="Group 24">
<g id="Rectangle 4 Copy 2">
<use xlink:href="#path0_fill" transform="translate(15389 -1392)" fill="#FFFFFF"/>
</g>
<g id="Rectangle 11">
<use xlink:href="#path1_fill" transform="translate(15389 -1382)" fill="#1A9DFF"/>
</g>
</g>
</g>
<g id="ONLINE">
<use xlink:href="#path2_fill" transform="translate(15394.5 -1378.14)" fill="#FFFFFF"/>
<use xlink:href="#path3_fill" transform="translate(15394.5 -1378.14)" fill="#FFFFFF"/>
<use xlink:href="#path4_fill" transform="translate(15394.5 -1378.14)" fill="#FFFFFF"/>
<use xlink:href="#path5_fill" transform="translate(15394.5 -1378.14)" fill="#FFFFFF"/>
<use xlink:href="#path6_fill" transform="translate(15394.5 -1378.14)" fill="#FFFFFF"/>
<use xlink:href="#path7_fill" transform="translate(15394.5 -1378.14)" fill="#FFFFFF"/>
</g>
<g id="RETAIL RUSSIA">
<use xlink:href="#path8_fill" transform="translate(15394 -1358)" fill="#4C4B4A"/>
</g>
</g>
</g>
<defs>
<path id="path0_fill" fill-rule="evenodd" d="M 0 1.69811C 0 0.760271 0.760271 0 1.69811 0L 88.3019 0C 89.2397 0 90 0.760271 90 1.69811L 90 83.3019C 90 84.2397 89.2397 85 88.3019 85L 1.69811 85C 0.760271 85 0 84.2397 0 83.3019L 0 1.69811Z"/>
<path id="path1_fill" fill-rule="evenodd" d="M 0 0L 90 0L 90 21L 0 21L 0 0Z"/>
<path id="path2_fill" d="M 6.188 12.376C 9.605 12.376 12.376 9.69 12.376 6.188C 12.376 2.686 9.605 0 6.188 0C 2.771 0 0 2.686 0 6.188C 0 9.69 2.771 12.376 6.188 12.376ZM 6.188 9.724C 4.25 9.724 2.72 8.313 2.72 6.188C 2.72 4.063 4.25 2.652 6.188 2.652C 8.126 2.652 9.656 4.063 9.656 6.188C 9.656 8.313 8.126 9.724 6.188 9.724Z"/>
<path id="path3_fill" d="M 20.5375 0.238L 20.5375 6.698L 15.9475 0.238L 13.9075 0.238L 13.9075 12.138L 16.6275 12.138L 16.6275 5.678L 21.2175 12.138L 23.2575 12.138L 23.2575 0.238L 20.5375 0.238Z"/>
<path id="path4_fill" d="M 28.0161 9.52L 28.0161 0.238L 25.2961 0.238L 25.2961 12.138L 32.2661 12.138L 32.2661 9.52L 28.0161 9.52Z"/>
<path id="path5_fill" d="M 33.4641 0.238L 33.4641 12.138L 36.1841 12.138L 36.1841 0.238L 33.4641 0.238Z"/>
<path id="path6_fill" d="M 44.8588 0.238L 44.8588 6.698L 40.2688 0.238L 38.2288 0.238L 38.2288 12.138L 40.9488 12.138L 40.9488 5.678L 45.5388 12.138L 47.5788 12.138L 47.5788 0.238L 44.8588 0.238Z"/>
<path id="path7_fill" d="M 52.3374 9.52L 52.3374 7.412L 56.5874 7.412L 56.5874 4.828L 52.3374 4.828L 52.3374 2.856L 57.0124 2.856L 57.0124 0.238L 49.6174 0.238L 49.6174 12.138L 57.0974 12.138L 57.0974 9.52L 52.3374 9.52Z"/>
<path id="path8_fill" d="M 5.08594 10.9844L 3.60156 10.9844L 3.60156 15L 0.859375 15L 0.859375 3.625L 5.33594 3.625C 6.6849 3.625 7.73958 3.92448 8.5 4.52344C 9.26042 5.1224 9.64062 5.96875 9.64062 7.0625C 9.64062 7.85417 9.47917 8.51042 9.15625 9.03125C 8.83854 9.55208 8.33854 9.97396 7.65625 10.2969L 10.0312 14.8828L 10.0312 15L 7.09375 15L 5.08594 10.9844ZM 3.60156 8.86719L 5.33594 8.86719C 5.85677 8.86719 6.2474 8.73177 6.50781 8.46094C 6.77344 8.1849 6.90625 7.80208 6.90625 7.3125C 6.90625 6.82292 6.77344 6.4401 6.50781 6.16406C 6.24219 5.88281 5.85156 5.74219 5.33594 5.74219L 3.60156 5.74219L 3.60156 8.86719ZM 18.3516 10.1797L 14.0391 10.1797L 14.0391 12.8906L 19.1328 12.8906L 19.1328 15L 11.2969 15L 11.2969 3.625L 19.1484 3.625L 19.1484 5.74219L 14.0391 5.74219L 14.0391 8.14062L 18.3516 8.14062L 18.3516 10.1797ZM 29.3359 5.74219L 25.9219 5.74219L 25.9219 15L 23.1797 15L 23.1797 5.74219L 19.8281 5.74219L 19.8281 3.625L 29.3359 3.625L 29.3359 5.74219ZM 36.0234 12.875L 32.2656 12.875L 31.6094 15L 28.6797 15L 32.8516 3.625L 35.4297 3.625L 39.6328 15L 36.6875 15L 36.0234 12.875ZM 32.9219 10.7578L 35.3672 10.7578L 34.1406 6.8125L 32.9219 10.7578ZM 43.3906 15L 40.6562 15L 40.6562 3.625L 43.3906 3.625L 43.3906 15ZM 48.0391 12.8906L 52.8125 12.8906L 52.8125 15L 45.2969 15L 45.2969 3.625L 48.0391 3.625L 48.0391 12.8906ZM 5.08594 29.9844L 3.60156 29.9844L 3.60156 34L 0.859375 34L 0.859375 22.625L 5.33594 22.625C 6.6849 22.625 7.73958 22.9245 8.5 23.5234C 9.26042 24.1224 9.64062 24.9688 9.64062 26.0625C 9.64062 26.8542 9.47917 27.5104 9.15625 28.0312C 8.83854 28.5521 8.33854 28.974 7.65625 29.2969L 10.0312 33.8828L 10.0312 34L 7.09375 34L 5.08594 29.9844ZM 3.60156 27.8672L 5.33594 27.8672C 5.85677 27.8672 6.2474 27.7318 6.50781 27.4609C 6.77344 27.1849 6.90625 26.8021 6.90625 26.3125C 6.90625 25.8229 6.77344 25.4401 6.50781 25.1641C 6.24219 24.8828 5.85156 24.7422 5.33594 24.7422L 3.60156 24.7422L 3.60156 27.8672ZM 20.2188 22.625L 20.2188 30.0703C 20.2188 30.9141 20.0391 31.6458 19.6797 32.2656C 19.3203 32.8802 18.8047 33.349 18.1328 33.6719C 17.4609 33.9948 16.6667 34.1562 15.75 34.1562C 14.3646 34.1562 13.2734 33.7969 12.4766 33.0781C 11.6797 32.3594 11.2734 31.375 11.2578 30.125L 11.2578 22.625L 14.0156 22.625L 14.0156 30.1797C 14.0469 31.4245 14.625 32.0469 15.75 32.0469C 16.3177 32.0469 16.7474 31.8906 17.0391 31.5781C 17.3307 31.2656 17.4766 30.7578 17.4766 30.0547L 17.4766 22.625L 20.2188 22.625ZM 27.8047 30.9766C 27.8047 30.5755 27.6615 30.263 27.375 30.0391C 27.0938 29.8151 26.5964 29.5833 25.8828 29.3438C 25.1693 29.1042 24.5859 28.8724 24.1328 28.6484C 22.6589 27.9245 21.9219 26.9297 21.9219 25.6641C 21.9219 25.0339 22.1042 24.4792 22.4688 24C 22.8385 23.5156 23.3594 23.1406 24.0312 22.875C 24.7031 22.6042 25.4583 22.4688 26.2969 22.4688C 27.1146 22.4688 27.8464 22.6146 28.4922 22.9062C 29.1432 23.1979 29.6484 23.6146 30.0078 24.1562C 30.3672 24.6927 30.5469 25.3073 30.5469 26L 27.8125 26C 27.8125 25.5365 27.6693 25.1771 27.3828 24.9219C 27.1016 24.6667 26.7188 24.5391 26.2344 24.5391C 25.7448 24.5391 25.3568 24.6484 25.0703 24.8672C 24.7891 25.0807 24.6484 25.3542 24.6484 25.6875C 24.6484 25.9792 24.8047 26.2448 25.1172 26.4844C 25.4297 26.7188 25.9792 26.9635 26.7656 27.2188C 27.5521 27.4688 28.1979 27.7396 28.7031 28.0312C 29.9323 28.7396 30.5469 29.7161 30.5469 30.9609C 30.5469 31.9557 30.1719 32.737 29.4219 33.3047C 28.6719 33.8724 27.6432 34.1562 26.3359 34.1562C 25.4141 34.1562 24.5781 33.9922 23.8281 33.6641C 23.0833 33.3307 22.5208 32.8776 22.1406 32.3047C 21.7656 31.7266 21.5781 31.0625 21.5781 30.3125L 24.3281 30.3125C 24.3281 30.9219 24.4844 31.3724 24.7969 31.6641C 25.1146 31.9505 25.6276 32.0938 26.3359 32.0938C 26.7891 32.0938 27.1458 31.9974 27.4062 31.8047C 27.6719 31.6068 27.8047 31.3307 27.8047 30.9766ZM 37.8203 30.9766C 37.8203 30.5755 37.6771 30.263 37.3906 30.0391C 37.1094 29.8151 36.612 29.5833 35.8984 29.3438C 35.1849 29.1042 34.6016 28.8724 34.1484 28.6484C 32.6745 27.9245 31.9375 26.9297 31.9375 25.6641C 31.9375 25.0339 32.1198 24.4792 32.4844 24C 32.8542 23.5156 33.375 23.1406 34.0469 22.875C 34.7188 22.6042 35.474 22.4688 36.3125 22.4688C 37.1302 22.4688 37.862 22.6146 38.5078 22.9062C 39.1589 23.1979 39.6641 23.6146 40.0234 24.1562C 40.3828 24.6927 40.5625 25.3073 40.5625 26L 37.8281 26C 37.8281 25.5365 37.6849 25.1771 37.3984 24.9219C 37.1172 24.6667 36.7344 24.5391 36.25 24.5391C 35.7604 24.5391 35.3724 24.6484 35.0859 24.8672C 34.8047 25.0807 34.6641 25.3542 34.6641 25.6875C 34.6641 25.9792 34.8203 26.2448 35.1328 26.4844C 35.4453 26.7188 35.9948 26.9635 36.7812 27.2188C 37.5677 27.4688 38.2135 27.7396 38.7188 28.0312C 39.9479 28.7396 40.5625 29.7161 40.5625 30.9609C 40.5625 31.9557 40.1875 32.737 39.4375 33.3047C 38.6875 33.8724 37.6589 34.1562 36.3516 34.1562C 35.4297 34.1562 34.5938 33.9922 33.8438 33.6641C 33.099 33.3307 32.5365 32.8776 32.1562 32.3047C 31.7812 31.7266 31.5938 31.0625 31.5938 30.3125L 34.3438 30.3125C 34.3438 30.9219 34.5 31.3724 34.8125 31.6641C 35.1302 31.9505 35.6432 32.0938 36.3516 32.0938C 36.8047 32.0938 37.1615 31.9974 37.4219 31.8047C 37.6875 31.6068 37.8203 31.3307 37.8203 30.9766ZM 44.8906 34L 42.1562 34L 42.1562 22.625L 44.8906 22.625L 44.8906 34ZM 53.3984 31.875L 49.6406 31.875L 48.9844 34L 46.0547 34L 50.2266 22.625L 52.8047 22.625L 57.0078 34L 54.0625 34L 53.3984 31.875ZM 50.2969 29.7578L 52.7422 29.7578L 51.5156 25.8125L 50.2969 29.7578Z"/>
</defs>
</svg>
