<svg width="200px" height="19px" viewBox="0 0 200 19" version="1.1" xmlns="http://www.w3.org/2000/svg" xmlns:xlink="http://www.w3.org/1999/xlink">
    <title>Online Retail Russia</title>
    <g id="Icons" stroke="none" stroke-width="1" fill="none" fill-rule="evenodd">
        <g id="3-onlineRetailRussia/rect">
            <rect id="Rectangle-27" fill="#49B5E8" x="0" y="0" width="69" height="19" rx="1"></rect>
            <path d="M9.83686957,16.2629565 C6.06156522,16.2629565 3,13.2953043 3,9.42608696 C3,5.55686957 6.06156522,2.58921739 9.83686957,2.58921739 C13.6121739,2.58921739 16.6737391,5.55686957 16.6737391,9.42608696 C16.6737391,13.2953043 13.6121739,16.2629565 9.83686957,16.2629565 Z M9.83686957,13.3328696 C11.978087,13.3328696 13.6685217,11.773913 13.6685217,9.42608696 C13.6685217,7.07826087 11.978087,5.51930435 9.83686957,5.51930435 C7.69565217,5.51930435 6.00521739,7.07826087 6.00521739,9.42608696 C6.00521739,11.773913 7.69565217,13.3328696 9.83686957,13.3328696 Z M25.6893913,2.85217391 L25.6893913,9.98956522 L20.618087,2.85217391 L18.3641739,2.85217391 L18.3641739,16 L21.3693913,16 L21.3693913,8.8626087 L26.4406957,16 L28.6946087,16 L28.6946087,2.85217391 L25.6893913,2.85217391 Z M33.9537391,13.1074783 L33.9537391,2.85217391 L30.9485217,2.85217391 L30.9485217,16 L38.6493913,16 L38.6493913,13.1074783 L33.9537391,13.1074783 Z M39.9641739,2.85217391 L39.9641739,16 L42.9693913,16 L42.9693913,2.85217391 L39.9641739,2.85217391 Z M52.5485217,2.85217391 L52.5485217,9.98956522 L47.4772174,2.85217391 L45.2233043,2.85217391 L45.2233043,16 L48.2285217,16 L48.2285217,8.8626087 L53.2998261,16 L55.5537391,16 L55.5537391,2.85217391 L52.5485217,2.85217391 Z M60.8128696,13.1074783 L60.8128696,10.7784348 L65.5085217,10.7784348 L65.5085217,7.92347826 L60.8128696,7.92347826 L60.8128696,5.74469565 L65.978087,5.74469565 L65.978087,2.85217391 L57.8076522,2.85217391 L57.8076522,16 L66.072,16 L66.072,13.1074783 L60.8128696,13.1074783 Z" id="ONLINE" fill="#FFFFFF"></path>
            <path d="M80.912,16 L78.4326957,11.68 L77.0052174,11.68 L77.0052174,16 L74,16 L74,2.85217391 L79.2591304,2.85217391 C81.7572174,2.85217391 83.7669565,4.86191304 83.7669565,7.36 C83.7669565,8.97530435 82.7902609,10.4403478 81.344,11.1728696 L84.1426087,16 L80.912,16 Z M77.0052174,5.66956522 L77.0052174,9.05043478 L79.2591304,9.05043478 C80.0855652,9.05043478 80.7617391,8.31791304 80.7617391,7.36 C80.7617391,6.40208696 80.0855652,5.66956522 79.2591304,5.66956522 L77.0052174,5.66956522 Z M88.5565217,13.1074783 L88.5565217,10.7784348 L93.2521739,10.7784348 L93.2521739,7.92347826 L88.5565217,7.92347826 L88.5565217,5.74469565 L93.7217391,5.74469565 L93.7217391,2.85217391 L85.5513043,2.85217391 L85.5513043,16 L93.8156522,16 L93.8156522,13.1074783 L88.5565217,13.1074783 Z M104.333913,2.85217391 L94.5669565,2.85217391 L94.5669565,5.74469565 L97.9478261,5.74469565 L97.9478261,16 L100.953043,16 L100.953043,5.74469565 L104.333913,5.74469565 L104.333913,2.85217391 Z M114.006957,16 L113.349565,13.933913 L108.466087,13.933913 L107.808696,16 L104.521739,16 L108.992,2.85217391 L112.823652,2.85217391 L117.293913,16 L114.006957,16 Z M109.367652,11.1165217 L112.448,11.1165217 L110.907826,6.2893913 L109.367652,11.1165217 Z M118.42087,2.85217391 L118.42087,16 L121.426087,16 L121.426087,2.85217391 L118.42087,2.85217391 Z M126.685217,13.1074783 L126.685217,2.85217391 L123.68,2.85217391 L123.68,16 L131.38087,16 L131.38087,13.1074783 L126.685217,13.1074783 Z M144.303304,16 L141.824,11.68 L140.396522,11.68 L140.396522,16 L137.391304,16 L137.391304,2.85217391 L142.650435,2.85217391 C145.148522,2.85217391 147.158261,4.86191304 147.158261,7.36 C147.158261,8.97530435 146.181565,10.4403478 144.735304,11.1728696 L147.533913,16 L144.303304,16 Z M140.396522,5.66956522 L140.396522,9.05043478 L142.650435,9.05043478 C143.47687,9.05043478 144.153043,8.31791304 144.153043,7.36 C144.153043,6.40208696 143.47687,5.66956522 142.650435,5.66956522 L140.396522,5.66956522 Z M153.92,16.2629565 C156.812522,16.2629565 158.991304,14.5725217 158.991304,11.7551304 L158.991304,2.85217391 L155.986087,2.85217391 L155.986087,11.4921739 C155.986087,12.4876522 155.516522,13.3328696 153.92,13.3328696 C152.323478,13.3328696 151.853913,12.4876522 151.853913,11.4921739 L151.853913,2.85217391 L148.848696,2.85217391 L148.848696,11.7551304 C148.848696,14.5725217 151.027478,16.2629565 153.92,16.2629565 Z M165.753043,16.2629565 C168.608,16.2629565 170.636522,14.7603478 170.636522,12.2246957 C170.636522,9.44486957 168.401391,8.74991304 166.410435,8.14886957 C164.36313,7.52904348 164.043826,7.11582609 164.043826,6.51478261 C164.043826,5.98886957 164.513391,5.51930435 165.452522,5.51930435 C166.654609,5.51930435 167.274435,6.10156522 167.725217,7.04069565 L170.26087,5.55686957 C169.302957,3.62226087 167.612522,2.58921739 165.452522,2.58921739 C163.179826,2.58921739 161.038609,4.05426087 161.038609,6.58991304 C161.038609,9.10678261 162.954435,10.045913 164.907826,10.5906087 C166.88,11.1353043 167.631304,11.4546087 167.631304,12.2622609 C167.631304,12.7693913 167.274435,13.3328696 165.846957,13.3328696 C164.36313,13.3328696 163.555478,12.6003478 163.085913,11.5109565 L160.493913,13.0135652 C161.226435,14.9481739 162.992,16.2629565 165.753043,16.2629565 Z M176.74087,16.2629565 C179.595826,16.2629565 181.624348,14.7603478 181.624348,12.2246957 C181.624348,9.44486957 179.389217,8.74991304 177.398261,8.14886957 C175.350957,7.52904348 175.031652,7.11582609 175.031652,6.51478261 C175.031652,5.98886957 175.501217,5.51930435 176.440348,5.51930435 C177.642435,5.51930435 178.262261,6.10156522 178.713043,7.04069565 L181.248696,5.55686957 C180.290783,3.62226087 178.600348,2.58921739 176.440348,2.58921739 C174.167652,2.58921739 172.026435,4.05426087 172.026435,6.58991304 C172.026435,9.10678261 173.942261,10.045913 175.895652,10.5906087 C177.867826,11.1353043 178.61913,11.4546087 178.61913,12.2622609 C178.61913,12.7693913 178.262261,13.3328696 176.834783,13.3328696 C175.350957,13.3328696 174.543304,12.6003478 174.073739,11.5109565 L171.481739,13.0135652 C172.214261,14.9481739 173.979826,16.2629565 176.74087,16.2629565 Z M183.126957,2.85217391 L183.126957,16 L186.132174,16 L186.132174,2.85217391 L183.126957,2.85217391 Z M196.744348,16 L196.086957,13.933913 L191.203478,13.933913 L190.546087,16 L187.25913,16 L191.729391,2.85217391 L195.561043,2.85217391 L200.031304,16 L196.744348,16 Z M192.105043,11.1165217 L195.185391,11.1165217 L193.645217,6.2893913 L192.105043,11.1165217 Z" id="RETAIL-RUSSIA" fill="#2B2A29"></path>
        </g>
    </g>
</svg>