<svg width="330px" height="19px" viewBox="0 0 330 19" version="1.1" xmlns="http://www.w3.org/2000/svg" xmlns:xlink="http://www.w3.org/1999/xlink">
    <title>Online Retail Russia</title>
    <g id="Icons" stroke="none" stroke-width="1" fill="none" fill-rule="evenodd">
        <g id="3-onlineRetailRussia/rect">
            <rect id="Rectangle-27" fill="#FDBF47" x="0" y="0" width="267" height="19" rx="1"></rect>
            <path d="M8.25913043,2.85217391 C11.8841739,2.85217391 14.6452174,5.70713043 14.6452174,9.42608696 C14.6452174,13.1450435 11.8841739,16 8.25913043,16 L3,16 L3,2.85217391 L8.25913043,2.85217391 Z M8.25913043,13.1074783 C10.3252174,13.1074783 11.7526957,11.68 11.7526957,9.42608696 C11.7526957,7.17217391 10.3252174,5.74469565 8.25913043,5.74469565 L6.00521739,5.74469565 L6.00521739,13.1074783 L8.25913043,13.1074783 Z M16.3356522,2.85217391 L16.3356522,16 L19.3408696,16 L19.3408696,2.85217391 L16.3356522,2.85217391 Z M32.3008696,2.85217391 L28.8824348,2.85217391 L26.3843478,7.92347826 L23.8862609,2.85217391 L20.4678261,2.85217391 L24.8817391,10.9474783 L24.8817391,16 L27.8869565,16 L27.8869565,10.9474783 L32.3008696,2.85217391 Z M45.2608696,2.85217391 L45.2608696,7.88591304 L41.1286957,7.88591304 L41.1286957,2.85217391 L38.1234783,2.85217391 L38.1234783,16 L41.1286957,16 L41.1286957,10.7784348 L45.2608696,10.7784348 L45.2608696,16 L48.266087,16 L48.266087,2.85217391 L45.2608696,2.85217391 Z M56.7933913,16.2629565 C53.018087,16.2629565 49.9565217,13.2953043 49.9565217,9.42608696 C49.9565217,5.55686957 53.018087,2.58921739 56.7933913,2.58921739 C60.5686957,2.58921739 63.6302609,5.55686957 63.6302609,9.42608696 C63.6302609,13.2953043 60.5686957,16.2629565 56.7933913,16.2629565 Z M56.7933913,13.3328696 C58.9346087,13.3328696 60.6250435,11.773913 60.6250435,9.42608696 C60.6250435,7.07826087 58.9346087,5.51930435 56.7933913,5.51930435 C54.6521739,5.51930435 52.9617391,7.07826087 52.9617391,9.42608696 C52.9617391,11.773913 54.6521739,13.3328696 56.7933913,13.3328696 Z M70.298087,16.2629565 C73.1906087,16.2629565 75.3693913,14.5725217 75.3693913,11.7551304 L75.3693913,2.85217391 L72.3641739,2.85217391 L72.3641739,11.4921739 C72.3641739,12.4876522 71.8946087,13.3328696 70.298087,13.3328696 C68.7015652,13.3328696 68.232,12.4876522 68.232,11.4921739 L68.232,2.85217391 L65.2267826,2.85217391 L65.2267826,11.7551304 C65.2267826,14.5725217 67.4055652,16.2629565 70.298087,16.2629565 Z M82.1311304,16.2629565 C84.986087,16.2629565 87.0146087,14.7603478 87.0146087,12.2246957 C87.0146087,9.44486957 84.7794783,8.74991304 82.7885217,8.14886957 C80.7412174,7.52904348 80.421913,7.11582609 80.421913,6.51478261 C80.421913,5.98886957 80.8914783,5.51930435 81.8306087,5.51930435 C83.0326957,5.51930435 83.6525217,6.10156522 84.1033043,7.04069565 L86.6389565,5.55686957 C85.6810435,3.62226087 83.9906087,2.58921739 81.8306087,2.58921739 C79.557913,2.58921739 77.4166957,4.05426087 77.4166957,6.58991304 C77.4166957,9.10678261 79.3325217,10.045913 81.285913,10.5906087 C83.258087,11.1353043 84.0093913,11.4546087 84.0093913,12.2622609 C84.0093913,12.7693913 83.6525217,13.3328696 82.2250435,13.3328696 C80.7412174,13.3328696 79.9335652,12.6003478 79.464,11.5109565 L76.872,13.0135652 C77.6045217,14.9481739 79.370087,16.2629565 82.1311304,16.2629565 Z M91.5224348,13.1074783 L91.5224348,10.7784348 L96.218087,10.7784348 L96.218087,7.92347826 L91.5224348,7.92347826 L91.5224348,5.74469565 L96.6876522,5.74469565 L96.6876522,2.85217391 L88.5172174,2.85217391 L88.5172174,16 L96.7815652,16 L96.7815652,13.1074783 L91.5224348,13.1074783 Z M105.609391,2.85217391 L105.609391,7.88591304 L101.477217,7.88591304 L101.477217,2.85217391 L98.472,2.85217391 L98.472,16 L101.477217,16 L101.477217,10.7784348 L105.609391,10.7784348 L105.609391,16 L108.614609,16 L108.614609,2.85217391 L105.609391,2.85217391 Z M117.141913,16.2629565 C113.366609,16.2629565 110.305043,13.2953043 110.305043,9.42608696 C110.305043,5.55686957 113.366609,2.58921739 117.141913,2.58921739 C120.917217,2.58921739 123.978783,5.55686957 123.978783,9.42608696 C123.978783,13.2953043 120.917217,16.2629565 117.141913,16.2629565 Z M117.141913,13.3328696 C119.28313,13.3328696 120.973565,11.773913 120.973565,9.42608696 C120.973565,7.07826087 119.28313,5.51930435 117.141913,5.51930435 C115.000696,5.51930435 113.310261,7.07826087 113.310261,9.42608696 C113.310261,11.773913 115.000696,13.3328696 117.141913,13.3328696 Z M128.674435,13.1074783 L128.674435,2.85217391 L125.669217,2.85217391 L125.669217,16 L133.370087,16 L133.370087,13.1074783 L128.674435,13.1074783 Z M139.944,2.85217391 C143.569043,2.85217391 146.330087,5.70713043 146.330087,9.42608696 C146.330087,13.1450435 143.569043,16 139.944,16 L134.68487,16 L134.68487,2.85217391 L139.944,2.85217391 Z M139.944,13.1074783 C142.010087,13.1074783 143.437565,11.68 143.437565,9.42608696 C143.437565,7.17217391 142.010087,5.74469565 139.944,5.74469565 L137.690087,5.74469565 L137.690087,13.1074783 L139.944,13.1074783 Z M163.948174,15.136 L161.600348,16.4883478 L160.435826,15.229913 C159.515478,15.8685217 158.388522,16.2629565 157.036174,16.2629565 C154.331478,16.2629565 152.340522,14.7791304 152.340522,12.2998261 C152.340522,10.7972174 153.091826,9.38852174 154.444174,8.52452174 C154.106087,7.94226087 153.899478,7.28486957 153.899478,6.43965217 C153.899478,4.22330435 155.608696,2.58921739 158.125565,2.58921739 C160.022609,2.58921739 161.637913,3.52834783 162.445565,5.46295652 L159.872348,6.94678261 C159.534261,6.064 159.008348,5.51930435 158.16313,5.51930435 C157.411826,5.51930435 156.904696,5.98886957 156.904696,6.62747826 C156.904696,7.36 157.355478,7.84834783 157.937739,8.48695652 L160.360696,11.1728696 C160.623652,10.5718261 160.830261,9.87686957 160.980522,9.10678261 L163.497391,10.5342609 C163.253217,11.4546087 162.858783,12.4313043 162.295304,13.2953043 L163.948174,15.136 Z M157.280348,13.5206957 C157.768696,13.5206957 158.200696,13.4267826 158.59513,13.2201739 L156.190957,10.6281739 L156.078261,10.5154783 C155.589913,10.909913 155.383304,11.4546087 155.383304,11.9805217 C155.383304,12.8633043 155.946783,13.5206957 157.280348,13.5206957 Z M178.129043,5.74469565 L178.129043,2.85217391 L170.146435,2.85217391 L170.146435,16 L173.151652,16 L173.151652,11.1728696 L178.03513,11.1728696 L178.03513,8.28034783 L173.151652,8.28034783 L173.151652,5.74469565 L178.129043,5.74469565 Z M184.890783,16.2629565 C187.783304,16.2629565 189.962087,14.5725217 189.962087,11.7551304 L189.962087,2.85217391 L186.95687,2.85217391 L186.95687,11.4921739 C186.95687,12.4876522 186.487304,13.3328696 184.890783,13.3328696 C183.294261,13.3328696 182.824696,12.4876522 182.824696,11.4921739 L182.824696,2.85217391 L179.819478,2.85217391 L179.819478,11.7551304 C179.819478,14.5725217 181.998261,16.2629565 184.890783,16.2629565 Z M199.034087,16 L196.554783,11.68 L195.127304,11.68 L195.127304,16 L192.122087,16 L192.122087,2.85217391 L197.381217,2.85217391 C199.879304,2.85217391 201.889043,4.86191304 201.889043,7.36 C201.889043,8.97530435 200.912348,10.4403478 199.466087,11.1728696 L202.264696,16 L199.034087,16 Z M195.127304,5.66956522 L195.127304,9.05043478 L197.381217,9.05043478 C198.207652,9.05043478 198.883826,8.31791304 198.883826,7.36 C198.883826,6.40208696 198.207652,5.66956522 197.381217,5.66956522 L195.127304,5.66956522 Z M210.998609,2.85217391 L210.998609,9.98956522 L205.927304,2.85217391 L203.673391,2.85217391 L203.673391,16 L206.678609,16 L206.678609,8.8626087 L211.749913,16 L214.003826,16 L214.003826,2.85217391 L210.998609,2.85217391 Z M216.257739,2.85217391 L216.257739,16 L219.262957,16 L219.262957,2.85217391 L216.257739,2.85217391 Z M230.344696,2.85217391 L220.577739,2.85217391 L220.577739,5.74469565 L223.958609,5.74469565 L223.958609,16 L226.963826,16 L226.963826,5.74469565 L230.344696,5.74469565 L230.344696,2.85217391 Z M236.63687,16.2629565 C239.529391,16.2629565 241.708174,14.5725217 241.708174,11.7551304 L241.708174,2.85217391 L238.702957,2.85217391 L238.702957,11.4921739 C238.702957,12.4876522 238.233391,13.3328696 236.63687,13.3328696 C235.040348,13.3328696 234.570783,12.4876522 234.570783,11.4921739 L234.570783,2.85217391 L231.565565,2.85217391 L231.565565,11.7551304 C231.565565,14.5725217 233.744348,16.2629565 236.63687,16.2629565 Z M250.780174,16 L248.30087,11.68 L246.873391,11.68 L246.873391,16 L243.868174,16 L243.868174,2.85217391 L249.127304,2.85217391 C251.625391,2.85217391 253.63513,4.86191304 253.63513,7.36 C253.63513,8.97530435 252.658435,10.4403478 251.212174,11.1728696 L254.010783,16 L250.780174,16 Z M246.873391,5.66956522 L246.873391,9.05043478 L249.127304,9.05043478 C249.953739,9.05043478 250.629913,8.31791304 250.629913,7.36 C250.629913,6.40208696 249.953739,5.66956522 249.127304,5.66956522 L246.873391,5.66956522 Z M258.424696,13.1074783 L258.424696,10.7784348 L263.120348,10.7784348 L263.120348,7.92347826 L258.424696,7.92347826 L258.424696,5.74469565 L263.589913,5.74469565 L263.589913,2.85217391 L255.419478,2.85217391 L255.419478,16 L263.683826,16 L263.683826,13.1074783 L258.424696,13.1074783 Z" id="DIY-HOUSEHOLD-&amp;-FURN" fill="#FFFFFF"></path>
            <path d="M278.912,16 L276.432696,11.68 L275.005217,11.68 L275.005217,16 L272,16 L272,2.85217391 L277.25913,2.85217391 C279.757217,2.85217391 281.766957,4.86191304 281.766957,7.36 C281.766957,8.97530435 280.790261,10.4403478 279.344,11.1728696 L282.142609,16 L278.912,16 Z M275.005217,5.66956522 L275.005217,9.05043478 L277.25913,9.05043478 C278.085565,9.05043478 278.761739,8.31791304 278.761739,7.36 C278.761739,6.40208696 278.085565,5.66956522 277.25913,5.66956522 L275.005217,5.66956522 Z M286.556522,13.1074783 L286.556522,10.7784348 L291.252174,10.7784348 L291.252174,7.92347826 L286.556522,7.92347826 L286.556522,5.74469565 L291.721739,5.74469565 L291.721739,2.85217391 L283.551304,2.85217391 L283.551304,16 L291.815652,16 L291.815652,13.1074783 L286.556522,13.1074783 Z M302.333913,2.85217391 L292.566957,2.85217391 L292.566957,5.74469565 L295.947826,5.74469565 L295.947826,16 L298.953043,16 L298.953043,5.74469565 L302.333913,5.74469565 L302.333913,2.85217391 Z M312.006957,16 L311.349565,13.933913 L306.466087,13.933913 L305.808696,16 L302.521739,16 L306.992,2.85217391 L310.823652,2.85217391 L315.293913,16 L312.006957,16 Z M307.367652,11.1165217 L310.448,11.1165217 L308.907826,6.2893913 L307.367652,11.1165217 Z M316.42087,2.85217391 L316.42087,16 L319.426087,16 L319.426087,2.85217391 L316.42087,2.85217391 Z M324.685217,13.1074783 L324.685217,2.85217391 L321.68,2.85217391 L321.68,16 L329.38087,16 L329.38087,13.1074783 L324.685217,13.1074783 Z" id="RETAIL" fill="#2B2A29"></path>
        </g>
    </g>
</svg>