<svg width="282px" height="19px" viewBox="0 0 282 19" version="1.1" xmlns="http://www.w3.org/2000/svg" xmlns:xlink="http://www.w3.org/1999/xlink">
    <title>Private Labels Reload</title>
    <g id="Icons" stroke="none" stroke-width="1" fill="none" fill-rule="evenodd">
        <g id="9-privateLavelsReload/rect">
            <g id="Group-5">
                <rect id="Rectangle-27" fill="#85AE61" x="0" y="0" width="78" height="19" rx="1"></rect>
                <path d="M7.9773913,2.85217391 C10.5693913,2.85217391 12.5791304,4.86191304 12.5791304,7.36 C12.5791304,9.85808696 10.5693913,11.8678261 7.9773913,11.8678261 L6.00521739,11.8678261 L6.00521739,16 L3,16 L3,2.85217391 L7.9773913,2.85217391 Z M7.9773913,9.05043478 C8.89773913,9.05043478 9.57391304,8.31791304 9.57391304,7.36 C9.57391304,6.40208696 8.89773913,5.66956522 7.9773913,5.66956522 L6.00521739,5.66956522 L6.00521739,9.05043478 L7.9773913,9.05043478 Z M20.9937391,16 L18.5144348,11.68 L17.0869565,11.68 L17.0869565,16 L14.0817391,16 L14.0817391,2.85217391 L19.3408696,2.85217391 C21.8389565,2.85217391 23.8486957,4.86191304 23.8486957,7.36 C23.8486957,8.97530435 22.872,10.4403478 21.4257391,11.1728696 L24.2243478,16 L20.9937391,16 Z M17.0869565,5.66956522 L17.0869565,9.05043478 L19.3408696,9.05043478 C20.1673043,9.05043478 20.8434783,8.31791304 20.8434783,7.36 C20.8434783,6.40208696 20.1673043,5.66956522 19.3408696,5.66956522 L17.0869565,5.66956522 Z M25.6330435,2.85217391 L25.6330435,16 L28.6382609,16 L28.6382609,2.85217391 L25.6330435,2.85217391 Z M34.0476522,16 L37.8793043,16 L42.1617391,2.85217391 L38.8747826,2.85217391 L35.9634783,12.5252174 L33.0521739,2.85217391 L29.7652174,2.85217391 L34.0476522,16 Z M51.6469565,16 L50.9895652,13.933913 L46.106087,13.933913 L45.4486957,16 L42.1617391,16 L46.632,2.85217391 L50.4636522,2.85217391 L54.933913,16 L51.6469565,16 Z M47.0076522,11.1165217 L50.088,11.1165217 L48.5478261,6.2893913 L47.0076522,11.1165217 Z M64.8886957,2.85217391 L55.1217391,2.85217391 L55.1217391,5.74469565 L58.5026087,5.74469565 L58.5026087,16 L61.5078261,16 L61.5078261,5.74469565 L64.8886957,5.74469565 L64.8886957,2.85217391 Z M69.2086957,13.1074783 L69.2086957,10.7784348 L73.9043478,10.7784348 L73.9043478,7.92347826 L69.2086957,7.92347826 L69.2086957,5.74469565 L74.373913,5.74469565 L74.373913,2.85217391 L66.2034783,2.85217391 L66.2034783,16 L74.4678261,16 L74.4678261,13.1074783 L69.2086957,13.1074783 Z" id="PRIVATE" fill="#FFFFFF"></path>
                <path d="M85.9801527,13.0197517 L85.9801527,2.84998075 L83,2.84998075 L83,15.8881487 L90.6366412,15.8881487 L90.6366412,13.0197517 L85.9801527,13.0197517 Z M100.229008,15.8881487 L99.5770992,13.8392937 L94.7343511,13.8392937 L94.0824427,15.8881487 L90.8229008,15.8881487 L95.2558779,2.84998075 L99.0555725,2.84998075 L103.48855,15.8881487 L100.229008,15.8881487 Z M95.6283969,11.0454006 L98.6830534,11.0454006 L97.1557252,6.25853037 L95.6283969,11.0454006 Z M112.689771,9.12692731 C113.658321,9.7415838 114.291603,10.7473853 114.291603,12.0698281 C114.291603,14.3794464 112.410382,15.8881487 110.082137,15.8881487 L104.606107,15.8881487 L104.606107,2.84998075 L109.709618,2.84998075 C111.981985,2.84998075 113.825954,4.32143113 113.825954,6.57517159 C113.825954,7.65547693 113.397557,8.51227083 112.689771,9.12692731 Z M109.709618,5.64387388 L107.58626,5.64387388 L107.58626,7.9534922 L109.709618,7.9534922 C110.380153,7.9534922 110.845802,7.46921739 110.845802,6.79868304 C110.845802,6.12814869 110.398779,5.64387388 109.709618,5.64387388 Z M110.082137,13.0942556 C110.827176,13.0942556 111.31145,12.5727288 111.31145,11.8463166 C111.31145,11.1199044 110.827176,10.5983777 110.082137,10.5983777 L107.58626,10.5983777 L107.58626,13.0942556 L110.082137,13.0942556 Z M118.761832,13.0197517 L118.761832,10.7101334 L123.418321,10.7101334 L123.418321,7.87898838 L118.761832,7.87898838 L118.761832,5.7183777 L123.883969,5.7183777 L123.883969,2.84998075 L115.781679,2.84998075 L115.781679,15.8881487 L123.977099,15.8881487 L123.977099,13.0197517 L118.761832,13.0197517 Z M128.633588,13.0197517 L128.633588,2.84998075 L125.653435,2.84998075 L125.653435,15.8881487 L133.290076,15.8881487 L133.290076,13.0197517 L128.633588,13.0197517 Z M139.157252,16.148912 C141.988397,16.148912 144,14.6588357 144,12.1443319 C144,9.38769067 141.783511,8.69853037 139.80916,8.10249983 C137.778931,7.48784335 137.46229,7.07807235 137.46229,6.48204182 C137.46229,5.9605151 137.927939,5.49486625 138.859237,5.49486625 C140.051298,5.49486625 140.665954,6.07227083 141.112977,7.00356854 L143.627481,5.53211815 C142.677557,3.61364487 141.001221,2.58921739 138.859237,2.58921739 C136.605496,2.58921739 134.482137,4.04204182 134.482137,6.55654564 C134.482137,9.0524235 136.381985,9.98372121 138.319084,10.5238739 C140.274809,11.0640266 141.019847,11.3806678 141.019847,12.1815838 C141.019847,12.6844846 140.665954,13.2432632 139.250382,13.2432632 C137.778931,13.2432632 136.978015,12.516851 136.512366,11.4365456 L133.941985,12.926622 C134.668397,14.8450953 136.419237,16.148912 139.157252,16.148912 Z" id="LABELS" fill="#2B2A29"></path>
            </g>
            <path d="M159.971494,2.85261534 L150,2.85261534 L150,16.0225127 L153.010262,16.0225127 L153.010262,5.74999276 L156.961231,5.74999276 L156.961231,16.0225127 L159.971494,16.0225127 L159.971494,2.85261534 Z M165.239453,13.1251353 L165.239453,10.792182 L169.942987,10.792182 L169.942987,7.9324329 L165.239453,7.9324329 L165.239453,5.74999276 L170.413341,5.74999276 L170.413341,2.85261534 L162.22919,2.85261534 L162.22919,16.0225127 L170.507412,16.0225127 L170.507412,13.1251353 L165.239453,13.1251353 Z M177.186431,2.85261534 C179.782782,2.85261534 181.795895,4.86572822 181.795895,7.36800873 C181.795895,9.87028923 179.782782,11.8834021 177.186431,11.8834021 L175.210946,11.8834021 L175.210946,16.0225127 L172.200684,16.0225127 L172.200684,2.85261534 L177.186431,2.85261534 Z M177.186431,9.06128125 C178.108324,9.06128125 178.785633,8.32752982 178.785633,7.36800873 C178.785633,6.40848763 178.108324,5.67473621 177.186431,5.67473621 L175.210946,5.67473621 L175.210946,9.06128125 L177.186431,9.06128125 Z M186.311288,13.1251353 L186.311288,10.792182 L191.014823,10.792182 L191.014823,7.9324329 L186.311288,7.9324329 L186.311288,5.74999276 L191.485177,5.74999276 L191.485177,2.85261534 L183.301026,2.85261534 L183.301026,16.0225127 L191.579247,16.0225127 L191.579247,13.1251353 L186.311288,13.1251353 Z M200.515964,9.21179436 C201.343786,8.57211363 201.832953,7.66903495 201.832953,6.48374419 C201.832953,4.07553438 199.913911,2.58921739 197.298746,2.58921739 C194.852908,2.58921739 193.441847,3.81213643 192.632839,5.4301524 L195.210376,6.91646939 C195.549031,6.1074614 196.132269,5.41133826 197.298746,5.41133826 C198.371152,5.41133826 198.822691,5.90050587 198.822691,6.70951386 C198.822691,7.51852184 198.220639,8.00768946 197.035348,8.00768946 L195.737172,8.00768946 L195.737172,10.6792972 L197.411631,10.6792972 C198.672178,10.6792972 199.293044,11.2060931 199.293044,12.0715435 C199.293044,12.9369939 198.690992,13.4637898 197.430445,13.4637898 C196.019384,13.4637898 195.360889,12.6924101 195.022235,11.6764466 L192.425884,13.1627636 C193.197263,15.0253633 194.721209,16.2859107 197.430445,16.2859107 C200.196123,16.2859107 202.303307,14.7619654 202.303307,12.2973132 C202.303307,10.8862527 201.625998,9.83266095 200.515964,9.21179436 Z M212.18073,16.0225127 L211.522235,13.9529574 L206.630559,13.9529574 L205.972064,16.0225127 L202.67959,16.0225127 L207.157355,2.85261534 L210.995439,2.85261534 L215.473204,16.0225127 L212.18073,16.0225127 Z M207.533637,11.1308365 L210.619156,11.1308365 L209.076397,6.2956028 L207.533637,11.1308365 Z M224.127708,2.85261534 L216.602052,2.85261534 L216.602052,16.0225127 L219.612315,16.0225127 L219.612315,5.74999276 L224.127708,5.74999276 L224.127708,2.85261534 Z M230.430445,2.85261534 C233.026796,2.85261534 235.039909,4.86572822 235.039909,7.36800873 C235.039909,9.87028923 233.026796,11.8834021 230.430445,11.8834021 L228.45496,11.8834021 L228.45496,16.0225127 L225.444698,16.0225127 L225.444698,2.85261534 L230.430445,2.85261534 Z M230.430445,9.06128125 C231.352338,9.06128125 232.029647,8.32752982 232.029647,7.36800873 C232.029647,6.40848763 231.352338,5.67473621 230.430445,5.67473621 L228.45496,5.67473621 L228.45496,9.06128125 L230.430445,9.06128125 Z M243.694413,2.85261534 L241.380274,8.60974191 L238.802737,2.85261534 L235.792474,2.85261534 L240.006842,11.9022163 C239.49886,12.8241091 238.746294,13.3320908 237.372862,13.2003918 L237.372862,16.0225127 C239.837514,16.1542117 241.737742,14.9877351 242.904219,12.1468001 L246.704675,2.85261534 L243.694413,2.85261534 Z M255.265108,9.21179436 C256.09293,8.57211363 256.582098,7.66903495 256.582098,6.48374419 C256.582098,4.07553438 254.663056,2.58921739 252.047891,2.58921739 C249.602052,2.58921739 248.190992,3.81213643 247.381984,5.4301524 L249.959521,6.91646939 C250.298176,6.1074614 250.881414,5.41133826 252.047891,5.41133826 C253.120296,5.41133826 253.571836,5.90050587 253.571836,6.70951386 C253.571836,7.51852184 252.969783,8.00768946 251.784493,8.00768946 L250.486317,8.00768946 L250.486317,10.6792972 L252.160775,10.6792972 C253.421323,10.6792972 254.042189,11.2060931 254.042189,12.0715435 C254.042189,12.9369939 253.440137,13.4637898 252.17959,13.4637898 C250.768529,13.4637898 250.110034,12.6924101 249.77138,11.6764466 L247.175029,13.1627636 C247.946408,15.0253633 249.470353,16.2859107 252.17959,16.2859107 C254.945268,16.2859107 257.052452,14.7619654 257.052452,12.2973132 C257.052452,10.8862527 256.375143,9.83266095 255.265108,9.21179436 Z M269.206385,16.0225127 L264.578107,9.26823678 L269.018244,2.85261534 L265.594071,2.85261534 L261.567845,8.57211363 L261.567845,2.85261534 L258.557583,2.85261534 L258.557583,16.0225127 L261.567845,16.0225127 L261.567845,9.92673164 L265.782212,16.0225127 L269.206385,16.0225127 Z M278.707526,16.0225127 L278.049031,13.9529574 L273.157355,13.9529574 L272.49886,16.0225127 L269.206385,16.0225127 L273.684151,2.85261534 L277.522235,2.85261534 L282,16.0225127 L278.707526,16.0225127 Z M274.060433,11.1308365 L277.145952,11.1308365 L275.603193,6.2956028 L274.060433,11.1308365 Z" id="ПЕРЕЗАГРУЗКА" fill="#85AE61"></path>
        </g>
    </g>
</svg>