<svg width="90" height="85" viewBox="0 0 90 85" version="1.1" xmlns="http://www.w3.org/2000/svg" xmlns:xlink="http://www.w3.org/1999/xlink">
<title>2</title>
<desc>Created using Figma</desc>
<g id="Canvas" transform="translate(-15279 1392)">
<g id="2">
<g id="Group 67">
<g id="Group 24">
<g id="Rectangle 4 Copy 2">
<use xlink:href="#path0_fill" transform="translate(15279 -1392)" fill="#FFFFFF"/>
</g>
<g id="Rectangle 11">
<use xlink:href="#path1_fill" transform="translate(15279 -1382)" fill="#7DAD52"/>
</g>
</g>
</g>
<g id="PRIVATE">
<use xlink:href="#path2_fill" transform="translate(15285 -1377.9)" fill="#FFFFFF"/>
<use xlink:href="#path3_fill" transform="translate(15285 -1377.9)" fill="#FFFFFF"/>
<use xlink:href="#path4_fill" transform="translate(15285 -1377.9)" fill="#FFFFFF"/>
<use xlink:href="#path5_fill" transform="translate(15285 -1377.9)" fill="#FFFFFF"/>
<use xlink:href="#path6_fill" transform="translate(15285 -1377.9)" fill="#FFFFFF"/>
<use xlink:href="#path7_fill" transform="translate(15285 -1377.9)" fill="#FFFFFF"/>
<use xlink:href="#path8_fill" transform="translate(15285 -1377.9)" fill="#FFFFFF"/>
</g>
<g id="LABELS">
<use xlink:href="#path9_fill" transform="translate(15284 -1358)" fill="#4C4B4A"/>
</g>
<g id="&#208;&#159;&#208;&#149;&#208;&#160;&#208;&#149;&#208;&#151;&#208;&#144;&#208;&#147;&#208;&#160;&#208;&#163;&#208;&#151;&#208;&#154;&#208;&#144;">
<use xlink:href="#path10_fill" transform="translate(15284.5 -1335.2)" fill="#7DAD52"/>
<use xlink:href="#path11_fill" transform="translate(15284.5 -1335.2)" fill="#7DAD52"/>
<use xlink:href="#path12_fill" transform="translate(15284.5 -1335.2)" fill="#7DAD52"/>
<use xlink:href="#path13_fill" transform="translate(15284.5 -1335.2)" fill="#7DAD52"/>
<use xlink:href="#path14_fill" transform="translate(15284.5 -1335.2)" fill="#7DAD52"/>
<use xlink:href="#path15_fill" transform="translate(15284.5 -1335.2)" fill="#7DAD52"/>
<use xlink:href="#path16_fill" transform="translate(15284.5 -1335.2)" fill="#7DAD52"/>
<use xlink:href="#path17_fill" transform="translate(15284.5 -1335.2)" fill="#7DAD52"/>
<use xlink:href="#path18_fill" transform="translate(15284.5 -1335.2)" fill="#7DAD52"/>
<use xlink:href="#path19_fill" transform="translate(15284.5 -1335.2)" fill="#7DAD52"/>
<use xlink:href="#path20_fill" transform="translate(15284.5 -1335.2)" fill="#7DAD52"/>
<use xlink:href="#path21_fill" transform="translate(15284.5 -1335.2)" fill="#7DAD52"/>
</g>
</g>
</g>
<defs>
<path id="path0_fill" fill-rule="evenodd" d="M 0 1.69811C 0 0.760271 0.760271 0 1.69811 0L 88.3019 0C 89.2397 0 90 0.760271 90 1.69811L 90 83.3019C 90 84.2397 89.2397 85 88.3019 85L 1.69811 85C 0.760271 85 0 84.2397 0 83.3019L 0 1.69811Z"/>
<path id="path1_fill" fill-rule="evenodd" d="M 0 0L 90 0L 90 21L 0 21L 0 0Z"/>
<path id="path2_fill" d="M 4.505 0L 0 0L 0 11.9L 2.72 11.9L 2.72 8.16L 4.505 8.16C 6.851 8.16 8.67 6.341 8.67 4.08C 8.67 1.819 6.851 0 4.505 0ZM 4.505 5.61L 2.72 5.61L 2.72 2.55L 4.505 2.55C 5.338 2.55 5.95 3.213 5.95 4.08C 5.95 4.947 5.338 5.61 4.505 5.61Z"/>
<path id="path3_fill" d="M 16.2833 11.9L 19.2073 11.9L 16.6743 7.531C 17.9833 6.868 18.8673 5.542 18.8673 4.08C 18.8673 1.819 17.0483 0 14.7873 0L 10.0273 0L 10.0273 11.9L 12.7473 11.9L 12.7473 7.99L 14.0393 7.99L 16.2833 11.9ZM 12.7473 2.55L 14.7873 2.55C 15.5353 2.55 16.1473 3.213 16.1473 4.08C 16.1473 4.947 15.5353 5.61 14.7873 5.61L 12.7473 5.61L 12.7473 2.55Z"/>
<path id="path4_fill" d="M 20.4863 0L 20.4863 11.9L 23.2063 11.9L 23.2063 0L 20.4863 0Z"/>
<path id="path5_fill" d="M 28.107 11.9L 31.575 11.9L 35.451 0L 32.476 0L 29.841 8.755L 27.206 0L 24.231 0L 28.107 11.9Z"/>
<path id="path6_fill" d="M 43.358 11.9L 46.333 11.9L 42.287 0L 38.819 0L 34.773 11.9L 37.748 11.9L 38.343 10.03L 42.763 10.03L 43.358 11.9ZM 39.159 7.48L 40.553 3.111L 41.947 7.48L 39.159 7.48Z"/>
<path id="path7_fill" d="M 54.491 0L 45.651 0L 45.651 2.618L 48.711 2.618L 48.711 11.9L 51.431 11.9L 51.431 2.618L 54.491 2.618L 54.491 0Z"/>
<path id="path8_fill" d="M 58.4016 9.282L 58.4016 7.174L 62.6516 7.174L 62.6516 4.59L 58.4016 4.59L 58.4016 2.618L 63.0766 2.618L 63.0766 0L 55.6816 0L 55.6816 11.9L 63.1616 11.9L 63.1616 9.282L 58.4016 9.282Z"/>
<path id="path9_fill" d="M 3.60156 12.8906L 8.375 12.8906L 8.375 15L 0.859375 15L 0.859375 3.625L 3.60156 3.625L 3.60156 12.8906ZM 16.1484 12.875L 12.3906 12.875L 11.7344 15L 8.80469 15L 12.9766 3.625L 15.5547 3.625L 19.7578 15L 16.8125 15L 16.1484 12.875ZM 13.0469 10.7578L 15.4922 10.7578L 14.2656 6.8125L 13.0469 10.7578ZM 20.5938 15L 20.5938 3.625L 24.6797 3.625C 26.1432 3.625 27.2552 3.89323 28.0156 4.42969C 28.7812 4.96615 29.1641 5.74479 29.1641 6.76562C 29.1641 7.35417 29.0286 7.85677 28.7578 8.27344C 28.487 8.6901 28.0885 8.9974 27.5625 9.19531C 28.1562 9.35156 28.612 9.64323 28.9297 10.0703C 29.2474 10.4974 29.4062 11.0182 29.4062 11.6328C 29.4062 12.7474 29.0521 13.5859 28.3438 14.1484C 27.6406 14.7057 26.5964 14.9896 25.2109 15L 20.5938 15ZM 23.3359 10.1641L 23.3359 12.8906L 25.1328 12.8906C 25.6276 12.8906 26.0078 12.7786 26.2734 12.5547C 26.5391 12.3255 26.6719 12.0052 26.6719 11.5938C 26.6719 10.6458 26.2005 10.1693 25.2578 10.1641L 23.3359 10.1641ZM 23.3359 8.36719L 24.7656 8.36719C 25.3646 8.36198 25.7917 8.2526 26.0469 8.03906C 26.3021 7.82552 26.4297 7.51042 26.4297 7.09375C 26.4297 6.61458 26.2917 6.27083 26.0156 6.0625C 25.7396 5.84896 25.2943 5.74219 24.6797 5.74219L 23.3359 5.74219L 23.3359 8.36719ZM 37.9766 10.1797L 33.6641 10.1797L 33.6641 12.8906L 38.7578 12.8906L 38.7578 15L 30.9219 15L 30.9219 3.625L 38.7734 3.625L 38.7734 5.74219L 33.6641 5.74219L 33.6641 8.14062L 37.9766 8.14062L 37.9766 10.1797ZM 42.6172 12.8906L 47.3906 12.8906L 47.3906 15L 39.875 15L 39.875 3.625L 42.6172 3.625L 42.6172 12.8906ZM 54.4141 11.9766C 54.4141 11.5755 54.2708 11.263 53.9844 11.0391C 53.7031 10.8151 53.2057 10.5833 52.4922 10.3438C 51.7786 10.1042 51.1953 9.8724 50.7422 9.64844C 49.2682 8.92448 48.5312 7.92969 48.5312 6.66406C 48.5312 6.03385 48.7135 5.47917 49.0781 5C 49.4479 4.51562 49.9688 4.14062 50.6406 3.875C 51.3125 3.60417 52.0677 3.46875 52.9062 3.46875C 53.724 3.46875 54.4557 3.61458 55.1016 3.90625C 55.7526 4.19792 56.2578 4.61458 56.6172 5.15625C 56.9766 5.69271 57.1562 6.30729 57.1562 7L 54.4219 7C 54.4219 6.53646 54.2786 6.17708 53.9922 5.92188C 53.7109 5.66667 53.3281 5.53906 52.8438 5.53906C 52.3542 5.53906 51.9661 5.64844 51.6797 5.86719C 51.3984 6.08073 51.2578 6.35417 51.2578 6.6875C 51.2578 6.97917 51.4141 7.24479 51.7266 7.48438C 52.0391 7.71875 52.5885 7.96354 53.375 8.21875C 54.1615 8.46875 54.8073 8.73958 55.3125 9.03125C 56.5417 9.73958 57.1562 10.7161 57.1562 11.9609C 57.1562 12.9557 56.7812 13.737 56.0312 14.3047C 55.2812 14.8724 54.2526 15.1562 52.9453 15.1562C 52.0234 15.1562 51.1875 14.9922 50.4375 14.6641C 49.6927 14.3307 49.1302 13.8776 48.75 13.3047C 48.375 12.7266 48.1875 12.0625 48.1875 11.3125L 50.9375 11.3125C 50.9375 11.9219 51.0938 12.3724 51.4062 12.6641C 51.724 12.9505 52.237 13.0938 52.9453 13.0938C 53.3984 13.0938 53.7552 12.9974 54.0156 12.8047C 54.2812 12.6068 54.4141 12.3307 54.4141 11.9766Z"/>
<path id="path10_fill" d="M 5.98145 7.20215L 4.26758 7.20215L 4.26758 1.41602L 1.71387 1.41602L 1.71387 7.20215L 0 7.20215L 0 0.0927734L 5.98145 0.0927734L 5.98145 7.20215Z"/>
<path id="path11_fill" d="M 11.46 4.18945L 8.76465 4.18945L 8.76465 5.88379L 11.9482 5.88379L 11.9482 7.20215L 7.05078 7.20215L 7.05078 0.0927734L 11.958 0.0927734L 11.958 1.41602L 8.76465 1.41602L 8.76465 2.91504L 11.46 2.91504L 11.46 4.18945Z"/>
<path id="path12_fill" d="M 14.3604 4.79004L 14.3604 7.20215L 12.6465 7.20215L 12.6465 0.0927734L 15.4834 0.0927734C 16.027 0.0927734 16.5072 0.193685 16.9238 0.395508C 17.3438 0.594076 17.6676 0.878906 17.8955 1.25C 18.1266 1.61784 18.2422 2.03613 18.2422 2.50488C 18.2422 3.19824 17.9932 3.75326 17.4951 4.16992C 17.0003 4.58333 16.32 4.79004 15.4541 4.79004L 14.3604 4.79004ZM 14.3604 3.4668L 15.4834 3.4668C 15.8154 3.4668 16.0677 3.38379 16.2402 3.21777C 16.416 3.05176 16.5039 2.81738 16.5039 2.51465C 16.5039 2.18262 16.4144 1.91732 16.2354 1.71875C 16.0563 1.52018 15.8122 1.41927 15.5029 1.41602L 14.3604 1.41602L 14.3604 3.4668Z"/>
<path id="path13_fill" d="M 23.5693 4.18945L 20.874 4.18945L 20.874 5.88379L 24.0576 5.88379L 24.0576 7.20215L 19.1602 7.20215L 19.1602 0.0927734L 24.0674 0.0927734L 24.0674 1.41602L 20.874 1.41602L 20.874 2.91504L 23.5693 2.91504L 23.5693 4.18945Z"/>
<path id="path14_fill" d="M 28.2178 2.06543C 28.2178 1.84082 28.1299 1.66016 27.9541 1.52344C 27.7816 1.38672 27.5472 1.31836 27.251 1.31836C 26.9743 1.31836 26.7513 1.38509 26.582 1.51855C 26.416 1.64876 26.333 1.82129 26.333 2.03613L 24.624 2.03613C 24.624 1.64551 24.7347 1.29557 24.9561 0.986328C 25.1807 0.677083 25.4964 0.436198 25.9033 0.263672C 26.3102 0.0878906 26.7594 0 27.251 0C 28.0973 0 28.7549 0.177409 29.2236 0.532227C 29.6956 0.887044 29.9316 1.38346 29.9316 2.02148C 29.9316 2.34701 29.8356 2.64486 29.6436 2.91504C 29.4548 3.18197 29.1927 3.39355 28.8574 3.5498C 29.2415 3.68652 29.5345 3.89486 29.7363 4.1748C 29.9414 4.4515 30.0439 4.79655 30.0439 5.20996C 30.0439 5.84798 29.79 6.35579 29.2822 6.7334C 28.7744 7.10775 28.0973 7.29492 27.251 7.29492C 26.4665 7.29492 25.8154 7.111 25.2979 6.74316C 24.7803 6.37207 24.5215 5.86751 24.5215 5.22949L 26.2402 5.22949C 26.2402 5.44108 26.3346 5.62012 26.5234 5.7666C 26.7122 5.90983 26.9548 5.98145 27.251 5.98145C 27.57 5.98145 27.8288 5.90658 28.0273 5.75684C 28.2259 5.6071 28.3252 5.41178 28.3252 5.1709C 28.3252 4.81934 28.2406 4.57194 28.0713 4.42871C 27.902 4.28223 27.6546 4.20898 27.3291 4.20898L 26.416 4.20898L 26.416 2.93945L 27.3877 2.93945C 27.9411 2.92318 28.2178 2.63184 28.2178 2.06543Z"/>
<path id="path15_fill" d="M 35.0928 5.87402L 32.7441 5.87402L 32.334 7.20215L 30.5029 7.20215L 33.1104 0.0927734L 34.7217 0.0927734L 37.3486 7.20215L 35.5078 7.20215L 35.0928 5.87402ZM 33.1543 4.55078L 34.6826 4.55078L 33.916 2.08496L 33.1543 4.55078Z"/>
<path id="path16_fill" d="M 42.666 1.41602L 39.5752 1.41602L 39.5752 7.20215L 37.8613 7.20215L 37.8613 0.0927734L 42.666 0.0927734L 42.666 1.41602Z"/>
<path id="path17_fill" d="M 45.1611 4.79004L 45.1611 7.20215L 43.4473 7.20215L 43.4473 0.0927734L 46.2842 0.0927734C 46.8278 0.0927734 47.3079 0.193685 47.7246 0.395508C 48.1445 0.594076 48.4684 0.878906 48.6963 1.25C 48.9274 1.61784 49.043 2.03613 49.043 2.50488C 49.043 3.19824 48.7939 3.75326 48.2959 4.16992C 47.8011 4.58333 47.1208 4.79004 46.2549 4.79004L 45.1611 4.79004ZM 45.1611 3.4668L 46.2842 3.4668C 46.6162 3.4668 46.8685 3.38379 47.041 3.21777C 47.2168 3.05176 47.3047 2.81738 47.3047 2.51465C 47.3047 2.18262 47.2152 1.91732 47.0361 1.71875C 46.8571 1.52018 46.613 1.41927 46.3037 1.41602L 45.1611 1.41602L 45.1611 3.4668Z"/>
<path id="path18_fill" d="M 52.7197 3.17871L 52.7197 3.18359L 53.8965 0.0927734L 55.7031 0.0927734L 53.3105 5.73242C 53.0534 6.30208 52.7637 6.7041 52.4414 6.93848C 52.1224 7.1696 51.748 7.29167 51.3184 7.30469L 50.9717 7.30469L 50.708 7.29492L 50.6787 5.9668C 50.7178 5.97982 50.8317 5.98633 51.0205 5.98633C 51.2809 5.98633 51.4762 5.94238 51.6064 5.85449C 51.7399 5.76335 51.8473 5.58919 51.9287 5.33203L 52.0117 5.09766L 49.4434 0.0927734L 51.2646 0.0927734L 52.7197 3.17871Z"/>
<path id="path19_fill" d="M 59.751 2.06543C 59.751 1.84082 59.6631 1.66016 59.4873 1.52344C 59.3148 1.38672 59.0804 1.31836 58.7842 1.31836C 58.5075 1.31836 58.2845 1.38509 58.1152 1.51855C 57.9492 1.64876 57.8662 1.82129 57.8662 2.03613L 56.1572 2.03613C 56.1572 1.64551 56.2679 1.29557 56.4893 0.986328C 56.7139 0.677083 57.0296 0.436198 57.4365 0.263672C 57.8434 0.0878906 58.2926 0 58.7842 0C 59.6305 0 60.2881 0.177409 60.7568 0.532227C 61.2288 0.887044 61.4648 1.38346 61.4648 2.02148C 61.4648 2.34701 61.3688 2.64486 61.1768 2.91504C 60.988 3.18197 60.7259 3.39355 60.3906 3.5498C 60.7747 3.68652 61.0677 3.89486 61.2695 4.1748C 61.4746 4.4515 61.5771 4.79655 61.5771 5.20996C 61.5771 5.84798 61.3232 6.35579 60.8154 6.7334C 60.3076 7.10775 59.6305 7.29492 58.7842 7.29492C 57.9997 7.29492 57.3486 7.111 56.8311 6.74316C 56.3135 6.37207 56.0547 5.86751 56.0547 5.22949L 57.7734 5.22949C 57.7734 5.44108 57.8678 5.62012 58.0566 5.7666C 58.2454 5.90983 58.488 5.98145 58.7842 5.98145C 59.1032 5.98145 59.362 5.90658 59.5605 5.75684C 59.7591 5.6071 59.8584 5.41178 59.8584 5.1709C 59.8584 4.81934 59.7738 4.57194 59.6045 4.42871C 59.4352 4.28223 59.1878 4.20898 58.8623 4.20898L 57.9492 4.20898L 57.9492 2.93945L 58.9209 2.93945C 59.4743 2.92318 59.751 2.63184 59.751 2.06543Z"/>
<path id="path20_fill" d="M 65.1025 4.38965L 64.292 4.38965L 64.292 7.20215L 62.5781 7.20215L 62.5781 0.0927734L 64.292 0.0927734L 64.292 2.8418L 64.9512 2.8418L 66.3184 0.0927734L 68.3936 0.0927734L 66.4404 3.37402L 68.6377 7.20215L 66.6113 7.20215L 65.1025 4.38965Z"/>
<path id="path21_fill" d="M 73.1006 5.87402L 70.752 5.87402L 70.3418 7.20215L 68.5107 7.20215L 71.1182 0.0927734L 72.7295 0.0927734L 75.3564 7.20215L 73.5156 7.20215L 73.1006 5.87402ZM 71.1621 4.55078L 72.6904 4.55078L 71.9238 2.08496L 71.1621 4.55078Z"/>
</defs>
</svg>
