<svg width="90" height="85" viewBox="0 0 90 85" version="1.1" xmlns="http://www.w3.org/2000/svg" xmlns:xlink="http://www.w3.org/1999/xlink">
<title>6</title>
<desc>Created using Figma</desc>
<g id="Canvas" transform="translate(-15720 1392)">
<g id="6">
<g id="Rectangle 4 Copy 2">
<use xlink:href="#path0_fill" transform="translate(15720 -1392)" fill="#FFFFFF"/>
</g>
<g id="Rectangle 11">
<use xlink:href="#path1_fill" transform="translate(15720 -1382)" fill="#AD1B34"/>
</g>
<g id="RETAIL">
<use xlink:href="#path2_fill" transform="translate(15726 -1377.9)" fill="#FFFFFF"/>
<use xlink:href="#path3_fill" transform="translate(15726 -1377.9)" fill="#FFFFFF"/>
<use xlink:href="#path4_fill" transform="translate(15726 -1377.9)" fill="#FFFFFF"/>
<use xlink:href="#path5_fill" transform="translate(15726 -1377.9)" fill="#FFFFFF"/>
<use xlink:href="#path6_fill" transform="translate(15726 -1377.9)" fill="#FFFFFF"/>
<use xlink:href="#path7_fill" transform="translate(15726 -1377.9)" fill="#FFFFFF"/>
</g>
<g id="BUSINESS RUSSIA">
<use xlink:href="#path8_fill" transform="translate(15725.9 -1354.53)" fill="#4C4B4A"/>
<use xlink:href="#path9_fill" transform="translate(15725.9 -1354.53)" fill="#4C4B4A"/>
<use xlink:href="#path10_fill" transform="translate(15725.9 -1354.53)" fill="#4C4B4A"/>
<use xlink:href="#path11_fill" transform="translate(15725.9 -1354.53)" fill="#4C4B4A"/>
<use xlink:href="#path12_fill" transform="translate(15725.9 -1354.53)" fill="#4C4B4A"/>
<use xlink:href="#path13_fill" transform="translate(15725.9 -1354.53)" fill="#4C4B4A"/>
<use xlink:href="#path14_fill" transform="translate(15725.9 -1354.53)" fill="#4C4B4A"/>
<use xlink:href="#path15_fill" transform="translate(15725.9 -1354.53)" fill="#4C4B4A"/>
<use xlink:href="#path16_fill" transform="translate(15725.9 -1354.53)" fill="#4C4B4A"/>
<use xlink:href="#path17_fill" transform="translate(15725.9 -1354.53)" fill="#4C4B4A"/>
<use xlink:href="#path18_fill" transform="translate(15725.9 -1354.53)" fill="#4C4B4A"/>
<use xlink:href="#path19_fill" transform="translate(15725.9 -1354.53)" fill="#4C4B4A"/>
<use xlink:href="#path20_fill" transform="translate(15725.9 -1354.53)" fill="#4C4B4A"/>
<use xlink:href="#path21_fill" transform="translate(15725.9 -1354.53)" fill="#4C4B4A"/>
</g>
</g>
</g>
<defs>
<path id="path0_fill" fill-rule="evenodd" d="M 0 1.69811C 0 0.760271 0.760271 0 1.69811 0L 88.3019 0C 89.2397 0 90 0.760271 90 1.69811L 90 83.3019C 90 84.2397 89.2397 85 88.3019 85L 1.69811 85C 0.760271 85 0 84.2397 0 83.3019L 0 1.69811Z"/>
<path id="path1_fill" fill-rule="evenodd" d="M 0 0L 90 0L 90 21L 0 21L 0 0Z"/>
<path id="path2_fill" d="M 6.256 11.9L 9.18 11.9L 6.647 7.531C 7.956 6.868 8.84 5.542 8.84 4.08C 8.84 1.819 7.021 0 4.76 0L 0 0L 0 11.9L 2.72 11.9L 2.72 7.99L 4.012 7.99L 6.256 11.9ZM 2.72 2.55L 4.76 2.55C 5.508 2.55 6.12 3.213 6.12 4.08C 6.12 4.947 5.508 5.61 4.76 5.61L 2.72 5.61L 2.72 2.55Z"/>
<path id="path3_fill" d="M 13.179 9.282L 13.179 7.174L 17.429 7.174L 17.429 4.59L 13.179 4.59L 13.179 2.618L 17.854 2.618L 17.854 0L 10.459 0L 10.459 11.9L 17.939 11.9L 17.939 9.282L 13.179 9.282Z"/>
<path id="path4_fill" d="M 27.4636 0L 18.6236 0L 18.6236 2.618L 21.6836 2.618L 21.6836 11.9L 24.4036 11.9L 24.4036 2.618L 27.4636 2.618L 27.4636 0Z"/>
<path id="path5_fill" d="M 35.3726 11.9L 38.3476 11.9L 34.3016 0L 30.8336 0L 26.7876 11.9L 29.7626 11.9L 30.3576 10.03L 34.7776 10.03L 35.3726 11.9ZM 31.1736 7.48L 32.5676 3.111L 33.9616 7.48L 31.1736 7.48Z"/>
<path id="path6_fill" d="M 39.3623 0L 39.3623 11.9L 42.0823 11.9L 42.0823 0L 39.3623 0Z"/>
<path id="path7_fill" d="M 46.847 9.282L 46.847 0L 44.127 0L 44.127 11.9L 51.097 11.9L 51.097 9.282L 46.847 9.282Z"/>
<path id="path8_fill" d="M 0 11.5312L 0 0.15625L 4.08594 0.15625C 5.54948 0.15625 6.66146 0.424479 7.42188 0.960938C 8.1875 1.4974 8.57031 2.27604 8.57031 3.29688C 8.57031 3.88542 8.4349 4.38802 8.16406 4.80469C 7.89323 5.22135 7.49479 5.52865 6.96875 5.72656C 7.5625 5.88281 8.01823 6.17448 8.33594 6.60156C 8.65365 7.02865 8.8125 7.54948 8.8125 8.16406C 8.8125 9.27865 8.45833 10.1172 7.75 10.6797C 7.04688 11.237 6.0026 11.5208 4.61719 11.5312L 0 11.5312ZM 2.74219 6.69531L 2.74219 9.42188L 4.53906 9.42188C 5.03385 9.42188 5.41406 9.3099 5.67969 9.08594C 5.94531 8.85677 6.07812 8.53646 6.07812 8.125C 6.07812 7.17708 5.60677 6.70052 4.66406 6.69531L 2.74219 6.69531ZM 2.74219 4.89844L 4.17188 4.89844C 4.77083 4.89323 5.19792 4.78385 5.45312 4.57031C 5.70833 4.35677 5.83594 4.04167 5.83594 3.625C 5.83594 3.14583 5.69792 2.80208 5.42188 2.59375C 5.14583 2.38021 4.70052 2.27344 4.08594 2.27344L 2.74219 2.27344L 2.74219 4.89844Z"/>
<path id="path9_fill" d="M 19.25 0.15625L 19.25 7.60156C 19.25 8.44531 19.0703 9.17708 18.7109 9.79688C 18.3516 10.4115 17.8359 10.8802 17.1641 11.2031C 16.4922 11.526 15.6979 11.6875 14.7812 11.6875C 13.3958 11.6875 12.3047 11.3281 11.5078 10.6094C 10.7109 9.89062 10.3047 8.90625 10.2891 7.65625L 10.2891 0.15625L 13.0469 0.15625L 13.0469 7.71094C 13.0781 8.95573 13.6562 9.57812 14.7812 9.57812C 15.349 9.57812 15.7786 9.42188 16.0703 9.10938C 16.362 8.79688 16.5078 8.28906 16.5078 7.58594L 16.5078 0.15625L 19.25 0.15625Z"/>
<path id="path10_fill" d="M 26.8359 8.50781C 26.8359 8.10677 26.6927 7.79427 26.4062 7.57031C 26.125 7.34635 25.6276 7.11458 24.9141 6.875C 24.2005 6.63542 23.6172 6.40365 23.1641 6.17969C 21.6901 5.45573 20.9531 4.46094 20.9531 3.19531C 20.9531 2.5651 21.1354 2.01042 21.5 1.53125C 21.8698 1.04688 22.3906 0.671875 23.0625 0.40625C 23.7344 0.135417 24.4896 0 25.3281 0C 26.1458 0 26.8776 0.145833 27.5234 0.4375C 28.1745 0.729167 28.6797 1.14583 29.0391 1.6875C 29.3984 2.22396 29.5781 2.83854 29.5781 3.53125L 26.8438 3.53125C 26.8438 3.06771 26.7005 2.70833 26.4141 2.45312C 26.1328 2.19792 25.75 2.07031 25.2656 2.07031C 24.776 2.07031 24.388 2.17969 24.1016 2.39844C 23.8203 2.61198 23.6797 2.88542 23.6797 3.21875C 23.6797 3.51042 23.8359 3.77604 24.1484 4.01562C 24.4609 4.25 25.0104 4.49479 25.7969 4.75C 26.5833 5 27.2292 5.27083 27.7344 5.5625C 28.9635 6.27083 29.5781 7.2474 29.5781 8.49219C 29.5781 9.48698 29.2031 10.2682 28.4531 10.8359C 27.7031 11.4036 26.6745 11.6875 25.3672 11.6875C 24.4453 11.6875 23.6094 11.5234 22.8594 11.1953C 22.1146 10.862 21.5521 10.4089 21.1719 9.83594C 20.7969 9.25781 20.6094 8.59375 20.6094 7.84375L 23.3594 7.84375C 23.3594 8.45312 23.5156 8.90365 23.8281 9.19531C 24.1458 9.48177 24.6589 9.625 25.3672 9.625C 25.8203 9.625 26.1771 9.52865 26.4375 9.33594C 26.7031 9.13802 26.8359 8.86198 26.8359 8.50781Z"/>
<path id="path11_fill" d="M 33.9062 11.5312L 31.1719 11.5312L 31.1719 0.15625L 33.9062 0.15625L 33.9062 11.5312Z"/>
<path id="path12_fill" d="M 45.3125 11.5312L 42.5859 11.5312L 38.5547 4.45312L 38.5547 11.5312L 35.8125 11.5312L 35.8125 0.15625L 38.5547 0.15625L 42.5781 7.23438L 42.5781 0.15625L 45.3125 0.15625L 45.3125 11.5312Z"/>
<path id="path13_fill" d="M 54.1016 6.71094L 49.7891 6.71094L 49.7891 9.42188L 54.8828 9.42188L 54.8828 11.5312L 47.0469 11.5312L 47.0469 0.15625L 54.8984 0.15625L 54.8984 2.27344L 49.7891 2.27344L 49.7891 4.67188L 54.1016 4.67188L 54.1016 6.71094Z"/>
<path id="path14_fill" d="M 61.8672 8.50781C 61.8672 8.10677 61.724 7.79427 61.4375 7.57031C 61.1562 7.34635 60.6589 7.11458 59.9453 6.875C 59.2318 6.63542 58.6484 6.40365 58.1953 6.17969C 56.7214 5.45573 55.9844 4.46094 55.9844 3.19531C 55.9844 2.5651 56.1667 2.01042 56.5312 1.53125C 56.901 1.04688 57.4219 0.671875 58.0938 0.40625C 58.7656 0.135417 59.5208 0 60.3594 0C 61.1771 0 61.9089 0.145833 62.5547 0.4375C 63.2057 0.729167 63.7109 1.14583 64.0703 1.6875C 64.4297 2.22396 64.6094 2.83854 64.6094 3.53125L 61.875 3.53125C 61.875 3.06771 61.7318 2.70833 61.4453 2.45312C 61.1641 2.19792 60.7812 2.07031 60.2969 2.07031C 59.8073 2.07031 59.4193 2.17969 59.1328 2.39844C 58.8516 2.61198 58.7109 2.88542 58.7109 3.21875C 58.7109 3.51042 58.8672 3.77604 59.1797 4.01562C 59.4922 4.25 60.0417 4.49479 60.8281 4.75C 61.6146 5 62.2604 5.27083 62.7656 5.5625C 63.9948 6.27083 64.6094 7.2474 64.6094 8.49219C 64.6094 9.48698 64.2344 10.2682 63.4844 10.8359C 62.7344 11.4036 61.7057 11.6875 60.3984 11.6875C 59.4766 11.6875 58.6406 11.5234 57.8906 11.1953C 57.1458 10.862 56.5833 10.4089 56.2031 9.83594C 55.8281 9.25781 55.6406 8.59375 55.6406 7.84375L 58.3906 7.84375C 58.3906 8.45312 58.5469 8.90365 58.8594 9.19531C 59.1771 9.48177 59.6901 9.625 60.3984 9.625C 60.8516 9.625 61.2083 9.52865 61.4688 9.33594C 61.7344 9.13802 61.8672 8.86198 61.8672 8.50781Z"/>
<path id="path15_fill" d="M 71.8828 8.50781C 71.8828 8.10677 71.7396 7.79427 71.4531 7.57031C 71.1719 7.34635 70.6745 7.11458 69.9609 6.875C 69.2474 6.63542 68.6641 6.40365 68.2109 6.17969C 66.737 5.45573 66 4.46094 66 3.19531C 66 2.5651 66.1823 2.01042 66.5469 1.53125C 66.9167 1.04688 67.4375 0.671875 68.1094 0.40625C 68.7812 0.135417 69.5365 0 70.375 0C 71.1927 0 71.9245 0.145833 72.5703 0.4375C 73.2214 0.729167 73.7266 1.14583 74.0859 1.6875C 74.4453 2.22396 74.625 2.83854 74.625 3.53125L 71.8906 3.53125C 71.8906 3.06771 71.7474 2.70833 71.4609 2.45312C 71.1797 2.19792 70.7969 2.07031 70.3125 2.07031C 69.8229 2.07031 69.4349 2.17969 69.1484 2.39844C 68.8672 2.61198 68.7266 2.88542 68.7266 3.21875C 68.7266 3.51042 68.8828 3.77604 69.1953 4.01562C 69.5078 4.25 70.0573 4.49479 70.8438 4.75C 71.6302 5 72.276 5.27083 72.7812 5.5625C 74.0104 6.27083 74.625 7.2474 74.625 8.49219C 74.625 9.48698 74.25 10.2682 73.5 10.8359C 72.75 11.4036 71.7214 11.6875 70.4141 11.6875C 69.4922 11.6875 68.6562 11.5234 67.9062 11.1953C 67.1615 10.862 66.599 10.4089 66.2188 9.83594C 65.8438 9.25781 65.6562 8.59375 65.6562 7.84375L 68.4062 7.84375C 68.4062 8.45312 68.5625 8.90365 68.875 9.19531C 69.1927 9.48177 69.7057 9.625 70.4141 9.625C 70.8672 9.625 71.224 9.52865 71.4844 9.33594C 71.75 9.13802 71.8828 8.86198 71.8828 8.50781Z"/>
<path id="path16_fill" d="M 4.22656 26.5156L 2.74219 26.5156L 2.74219 30.5312L 0 30.5312L 0 19.1562L 4.47656 19.1562C 5.82552 19.1562 6.88021 19.4557 7.64062 20.0547C 8.40104 20.6536 8.78125 21.5 8.78125 22.5938C 8.78125 23.3854 8.61979 24.0417 8.29688 24.5625C 7.97917 25.0833 7.47917 25.5052 6.79688 25.8281L 9.17188 30.4141L 9.17188 30.5312L 6.23438 30.5312L 4.22656 26.5156ZM 2.74219 24.3984L 4.47656 24.3984C 4.9974 24.3984 5.38802 24.263 5.64844 23.9922C 5.91406 23.7161 6.04688 23.3333 6.04688 22.8438C 6.04688 22.3542 5.91406 21.9714 5.64844 21.6953C 5.38281 21.4141 4.99219 21.2734 4.47656 21.2734L 2.74219 21.2734L 2.74219 24.3984Z"/>
<path id="path17_fill" d="M 19.3594 19.1562L 19.3594 26.6016C 19.3594 27.4453 19.1797 28.1771 18.8203 28.7969C 18.4609 29.4115 17.9453 29.8802 17.2734 30.2031C 16.6016 30.526 15.8073 30.6875 14.8906 30.6875C 13.5052 30.6875 12.4141 30.3281 11.6172 29.6094C 10.8203 28.8906 10.4141 27.9062 10.3984 26.6562L 10.3984 19.1562L 13.1562 19.1562L 13.1562 26.7109C 13.1875 27.9557 13.7656 28.5781 14.8906 28.5781C 15.4583 28.5781 15.888 28.4219 16.1797 28.1094C 16.4714 27.7969 16.6172 27.2891 16.6172 26.5859L 16.6172 19.1562L 19.3594 19.1562Z"/>
<path id="path18_fill" d="M 26.9453 27.5078C 26.9453 27.1068 26.8021 26.7943 26.5156 26.5703C 26.2344 26.3464 25.737 26.1146 25.0234 25.875C 24.3099 25.6354 23.7266 25.4036 23.2734 25.1797C 21.7995 24.4557 21.0625 23.4609 21.0625 22.1953C 21.0625 21.5651 21.2448 21.0104 21.6094 20.5312C 21.9792 20.0469 22.5 19.6719 23.1719 19.4062C 23.8438 19.1354 24.599 19 25.4375 19C 26.2552 19 26.987 19.1458 27.6328 19.4375C 28.2839 19.7292 28.7891 20.1458 29.1484 20.6875C 29.5078 21.224 29.6875 21.8385 29.6875 22.5312L 26.9531 22.5312C 26.9531 22.0677 26.8099 21.7083 26.5234 21.4531C 26.2422 21.1979 25.8594 21.0703 25.375 21.0703C 24.8854 21.0703 24.4974 21.1797 24.2109 21.3984C 23.9297 21.612 23.7891 21.8854 23.7891 22.2188C 23.7891 22.5104 23.9453 22.776 24.2578 23.0156C 24.5703 23.25 25.1198 23.4948 25.9062 23.75C 26.6927 24 27.3385 24.2708 27.8438 24.5625C 29.0729 25.2708 29.6875 26.2474 29.6875 27.4922C 29.6875 28.487 29.3125 29.2682 28.5625 29.8359C 27.8125 30.4036 26.7839 30.6875 25.4766 30.6875C 24.5547 30.6875 23.7188 30.5234 22.9688 30.1953C 22.224 29.862 21.6615 29.4089 21.2812 28.8359C 20.9062 28.2578 20.7188 27.5938 20.7188 26.8438L 23.4688 26.8438C 23.4688 27.4531 23.625 27.9036 23.9375 28.1953C 24.2552 28.4818 24.7682 28.625 25.4766 28.625C 25.9297 28.625 26.2865 28.5286 26.5469 28.3359C 26.8125 28.138 26.9453 27.862 26.9453 27.5078Z"/>
<path id="path19_fill" d="M 36.9609 27.5078C 36.9609 27.1068 36.8177 26.7943 36.5312 26.5703C 36.25 26.3464 35.7526 26.1146 35.0391 25.875C 34.3255 25.6354 33.7422 25.4036 33.2891 25.1797C 31.8151 24.4557 31.0781 23.4609 31.0781 22.1953C 31.0781 21.5651 31.2604 21.0104 31.625 20.5312C 31.9948 20.0469 32.5156 19.6719 33.1875 19.4062C 33.8594 19.1354 34.6146 19 35.4531 19C 36.2708 19 37.0026 19.1458 37.6484 19.4375C 38.2995 19.7292 38.8047 20.1458 39.1641 20.6875C 39.5234 21.224 39.7031 21.8385 39.7031 22.5312L 36.9688 22.5312C 36.9688 22.0677 36.8255 21.7083 36.5391 21.4531C 36.2578 21.1979 35.875 21.0703 35.3906 21.0703C 34.901 21.0703 34.513 21.1797 34.2266 21.3984C 33.9453 21.612 33.8047 21.8854 33.8047 22.2188C 33.8047 22.5104 33.9609 22.776 34.2734 23.0156C 34.5859 23.25 35.1354 23.4948 35.9219 23.75C 36.7083 24 37.3542 24.2708 37.8594 24.5625C 39.0885 25.2708 39.7031 26.2474 39.7031 27.4922C 39.7031 28.487 39.3281 29.2682 38.5781 29.8359C 37.8281 30.4036 36.7995 30.6875 35.4922 30.6875C 34.5703 30.6875 33.7344 30.5234 32.9844 30.1953C 32.2396 29.862 31.6771 29.4089 31.2969 28.8359C 30.9219 28.2578 30.7344 27.5938 30.7344 26.8438L 33.4844 26.8438C 33.4844 27.4531 33.6406 27.9036 33.9531 28.1953C 34.2708 28.4818 34.7839 28.625 35.4922 28.625C 35.9453 28.625 36.3021 28.5286 36.5625 28.3359C 36.8281 28.138 36.9609 27.862 36.9609 27.5078Z"/>
<path id="path20_fill" d="M 44.0312 30.5312L 41.2969 30.5312L 41.2969 19.1562L 44.0312 19.1562L 44.0312 30.5312Z"/>
<path id="path21_fill" d="M 52.5391 28.4062L 48.7812 28.4062L 48.125 30.5312L 45.1953 30.5312L 49.3672 19.1562L 51.9453 19.1562L 56.1484 30.5312L 53.2031 30.5312L 52.5391 28.4062ZM 49.4375 26.2891L 51.8828 26.2891L 50.6562 22.3438L 49.4375 26.2891Z"/>
</defs>
</svg>
