<?xml version="1.0" encoding="UTF-8"?>
<svg width="92px" height="87px" viewBox="0 0 92 87" version="1.1" xmlns="http://www.w3.org/2000/svg" xmlns:xlink="http://www.w3.org/1999/xlink">
    <!-- Generator: Sketch 46.2 (44496) - http://www.bohemiancoding.com/sketch -->
    <title>6 russianExportDay/square</title>
    <desc>Created with Sketch.</desc>
    <defs></defs>
    <g id="Icons" stroke="none" stroke-width="1" fill="none" fill-rule="evenodd">
        <g id="6-russianExportDay/square">
            <rect id="Rectangle-4-Copy-2" fill="#FFFFFF" x="0" y="0" width="92" height="87" rx="2"></rect>
            <path d="M2,0 L90,0 L90,0 C91.1045695,-2.02906125e-16 92,0.8954305 92,2 L92,32 L0,32 L0,2 L0,2 C-1.3527075e-16,0.8954305 0.8954305,2.02906125e-16 2,0 Z" id="Rectangle-11" fill="#426290"></path>
            <path d="M11.296875,23.8046875 L9.87109375,23.8046875 L9.87109375,29 L7,29 L7,14.78125 L11.5800781,14.78125 C13.0188874,14.78125 14.1305299,15.1539676 14.9150391,15.8994141 C15.6995482,16.6448605 16.0917969,17.7044202 16.0917969,19.078125 C16.0917969,20.9661553 15.4049548,22.2877566 14.03125,23.0429688 L16.5214844,28.8632812 L16.5214844,29 L13.4355469,29 L11.296875,23.8046875 Z M9.87109375,21.4121094 L11.5019531,21.4121094 C12.0748727,21.4121094 12.5045559,21.2216816 12.7910156,20.8408203 C13.0774754,20.459959 13.2207031,19.950524 13.2207031,19.3125 C13.2207031,17.8867116 12.6640681,17.1738281 11.5507812,17.1738281 L9.87109375,17.1738281 L9.87109375,21.4121094 Z M26.6125,14.78125 L26.6125,24.625 C26.5994791,26.102872 26.1925821,27.2340456 25.3917969,28.0185547 C24.5910116,28.8030638 23.4419346,29.1953125 21.9445313,29.1953125 C20.4210861,29.1953125 19.2573608,28.7981811 18.4533203,28.0039062 C17.6492798,27.2096314 17.2472656,26.0605544 17.2472656,24.5566406 L17.2472656,14.78125 L20.1378906,14.78125 L20.1378906,24.5664062 C20.1378906,25.373702 20.2680977,25.9498681 20.5285156,26.2949219 C20.7889336,26.6399757 21.2609341,26.8125 21.9445313,26.8125 C22.6281284,26.8125 23.0968737,26.6416033 23.3507813,26.2998047 C23.6046888,25.9580061 23.7348958,25.3964883 23.7414063,24.6152344 L23.7414063,14.78125 L26.6125,14.78125 Z M34.0960938,25.2695312 C34.0960938,24.6901013 33.9479833,24.2522801 33.6517578,23.9560547 C33.3555324,23.6598292 32.8168008,23.3522151 32.0355469,23.0332031 C30.6097585,22.4928358 29.5843781,21.8597042 28.959375,21.1337891 C28.3343719,20.407874 28.021875,19.5501352 28.021875,18.5605469 C28.021875,17.3626242 28.4466755,16.4007198 29.2962891,15.6748047 C30.1459027,14.9488896 31.2249935,14.5859375 32.5335938,14.5859375 C33.405994,14.5859375 34.183981,14.7698549 34.8675781,15.1376953 C35.5511753,15.5055357 36.0768862,16.0247362 36.4447266,16.6953125 C36.812567,17.3658888 36.9964844,18.1275999 36.9964844,18.9804688 L34.1351563,18.9804688 C34.1351563,18.3164029 33.9935561,17.8102231 33.7103516,17.4619141 C33.427147,17.113605 33.0186225,16.9394531 32.4847656,16.9394531 C31.9834611,16.9394531 31.59284,17.0875636 31.3128906,17.3837891 C31.0329413,17.6800145 30.8929688,18.0787735 30.8929688,18.5800781 C30.8929688,18.9707051 31.0492172,19.3238917 31.3617188,19.6396484 C31.6742203,19.9554052 32.2276002,20.2825504 33.021875,20.6210938 C34.4086007,21.1223983 35.4160776,21.7376266 36.044336,22.4667969 C36.6725943,23.1959672 36.9867188,24.1236923 36.9867188,25.25 C36.9867188,26.4869854 36.5928425,27.4537726 35.8050781,28.1503906 C35.0173138,28.8470087 33.946361,29.1953125 32.5921875,29.1953125 C31.6742142,29.1953125 30.837634,29.0065123 30.0824219,28.6289062 C29.3272098,28.2513002 28.7363954,27.710941 28.309961,27.0078125 C27.8835265,26.304684 27.6703125,25.4746142 27.6703125,24.5175781 L30.5511719,24.5175781 C30.5511719,25.3378947 30.7106755,25.9335919 31.0296875,26.3046875 C31.3486995,26.6757831 31.8695277,26.8613281 32.5921875,26.8613281 C33.5947967,26.8613281 34.0960938,26.3307345 34.0960938,25.2695312 Z M44.196875,25.2695312 C44.196875,24.6901013 44.0487645,24.2522801 43.7525391,23.9560547 C43.4563137,23.6598292 42.9175821,23.3522151 42.1363282,23.0332031 C40.7105398,22.4928358 39.6851594,21.8597042 39.0601563,21.1337891 C38.4351532,20.407874 38.1226563,19.5501352 38.1226563,18.5605469 C38.1226563,17.3626242 38.5474567,16.4007198 39.3970703,15.6748047 C40.246684,14.9488896 41.3257747,14.5859375 42.634375,14.5859375 C43.5067752,14.5859375 44.2847622,14.7698549 44.9683594,15.1376953 C45.6519566,15.5055357 46.1776675,16.0247362 46.5455078,16.6953125 C46.9133482,17.3658888 47.0972657,18.1275999 47.0972657,18.9804688 L44.2359375,18.9804688 C44.2359375,18.3164029 44.0943374,17.8102231 43.8111328,17.4619141 C43.5279283,17.113605 43.1194037,16.9394531 42.5855469,16.9394531 C42.0842423,16.9394531 41.6936212,17.0875636 41.4136719,17.3837891 C41.1337226,17.6800145 40.99375,18.0787735 40.99375,18.5800781 C40.99375,18.9707051 41.1499985,19.3238917 41.4625,19.6396484 C41.7750016,19.9554052 42.3283815,20.2825504 43.1226563,20.6210938 C44.509382,21.1223983 45.5168589,21.7376266 46.1451172,22.4667969 C46.7733756,23.1959672 47.0875,24.1236923 47.0875,25.25 C47.0875,26.4869854 46.6936238,27.4537726 45.9058594,28.1503906 C45.1180951,28.8470087 44.0471422,29.1953125 42.6929688,29.1953125 C41.7749954,29.1953125 40.9384153,29.0065123 40.1832032,28.6289062 C39.4279911,28.2513002 38.8371766,27.710941 38.4107422,27.0078125 C37.9843078,26.304684 37.7710938,25.4746142 37.7710938,24.5175781 L40.6519532,24.5175781 C40.6519532,25.3378947 40.8114568,25.9335919 41.1304688,26.3046875 C41.4494808,26.6757831 41.9703089,26.8613281 42.6929688,26.8613281 C43.695578,26.8613281 44.196875,26.3307345 44.196875,25.2695312 Z M51.2898438,29 L48.41875,29 L48.41875,14.78125 L51.2898438,14.78125 L51.2898438,29 Z M59.9648438,26.0898438 L56.0488282,26.0898438 L55.2871094,29 L52.2500001,29 L56.6933594,14.78125 L59.3203126,14.78125 L63.7929688,29 L60.7265626,29 L59.9648438,26.0898438 Z M56.6738282,23.6972656 L59.3300782,23.6972656 L58.0019532,18.6289062 L56.6738282,23.6972656 Z M74.3625001,29 L71.4914063,29 L67.2921876,19.6738281 L67.2921876,29 L64.4210938,29 L64.4210938,14.78125 L67.2921876,14.78125 L71.5011719,24.1171875 L71.5011719,14.78125 L74.3625001,14.78125 L74.3625001,29 Z" id="RUSSIAN" fill="#FFFFFF"></path>
            <path d="M14.34375,45.8476562 L9.87109375,45.8476562 L9.87109375,49.6171875 L15.1640625,49.6171875 L15.1640625,52 L7,52 L7,37.78125 L15.1445313,37.78125 L15.1445313,40.1738281 L9.87109375,40.1738281 L9.87109375,43.5332031 L14.34375,43.5332031 L14.34375,45.8476562 Z M20.5675781,42.6640625 L22.4816406,37.78125 L25.7726563,37.78125 L22.4328125,44.8320312 L25.8507813,52 L22.5207031,52 L20.5675781,47.0292969 L18.6242188,52 L15.2941406,52 L18.7121094,44.8320312 L15.3625,37.78125 L18.6535156,37.78125 L20.5675781,42.6640625 Z M29.4769531,47 L29.4769531,52 L26.6058594,52 L26.6058594,37.78125 L31.4496094,37.78125 C32.8558664,37.78125 33.9772745,38.2174436 34.8138672,39.0898438 C35.6504599,39.9622439 36.06875,41.0950451 36.06875,42.4882812 C36.06875,43.8815174 35.6553427,44.9817668 34.8285156,45.7890625 C34.0016886,46.5963582 32.8558667,47 31.3910156,47 L29.4769531,47 Z M29.4769531,44.6074219 L31.4496094,44.6074219 C31.9964871,44.6074219 32.41966,44.4283872 32.7191406,44.0703125 C33.0186213,43.7122378 33.1683594,43.1914097 33.1683594,42.5078125 C33.1683594,41.7981735 33.0153661,41.2334005 32.709375,40.8134766 C32.4033839,40.3935526 31.9932318,40.1803386 31.4789063,40.1738281 L29.4769531,40.1738281 L29.4769531,44.6074219 Z M47.2925782,46.1699219 C47.2925782,48.0774835 46.8417363,49.5585885 45.9400391,50.6132812 C45.0383419,51.667974 43.7867268,52.1953125 42.1851563,52.1953125 C40.5900962,52.1953125 39.3368536,51.6728568 38.4253907,50.6279297 C37.5139278,49.5830026 37.0516928,48.1198011 37.0386719,46.2382812 L37.0386719,43.8066406 C37.0386719,41.8535059 37.4911413,40.328456 38.3960938,39.2314453 C39.3010462,38.1344346 40.5575441,37.5859375 42.165625,37.5859375 C43.7476642,37.5859375 44.9943965,38.1246691 45.9058594,39.2021484 C46.8173223,40.2796278 47.2795573,41.7916569 47.2925782,43.7382812 L47.2925782,46.1699219 Z M44.4117188,43.7871094 C44.4117188,42.5045509 44.2294289,41.5507844 43.8648438,40.9257812 C43.5002586,40.3007781 42.933858,39.9882812 42.165625,39.9882812 C41.4039025,39.9882812 40.8407571,40.289385 40.4761719,40.8916016 C40.1115868,41.4938181 39.9227866,42.4101501 39.9097657,43.640625 L39.9097657,46.1699219 C39.9097657,47.4134177 40.0953107,48.3297497 40.4664063,48.9189453 C40.8375019,49.508141 41.4104128,49.8027344 42.1851563,49.8027344 C42.9338579,49.8027344 43.490493,49.5146513 43.8550782,48.9384766 C44.2196633,48.3623018 44.4052083,47.4687561 44.4117188,46.2578125 L44.4117188,43.7871094 Z M52.9597657,46.8046875 L51.5339844,46.8046875 L51.5339844,52 L48.6628907,52 L48.6628907,37.78125 L53.2429688,37.78125 C54.6817781,37.78125 55.7934206,38.1539676 56.5779297,38.8994141 C57.3624389,39.6448605 57.7546875,40.7044202 57.7546875,42.078125 C57.7546875,43.9661553 57.0678455,45.2877566 55.6941407,46.0429688 L58.184375,51.8632812 L58.184375,52 L55.0984375,52 L52.9597657,46.8046875 Z M51.5339844,44.4121094 L53.1648438,44.4121094 C53.7377633,44.4121094 54.1674465,44.2216816 54.4539063,43.8408203 C54.7403661,43.459959 54.8835938,42.950524 54.8835938,42.3125 C54.8835938,40.8867116 54.3269587,40.1738281 53.2136719,40.1738281 L51.5339844,40.1738281 L51.5339844,44.4121094 Z M67.7480469,40.1738281 L64.2324219,40.1738281 L64.2324219,52 L61.3515626,52 L61.3515626,40.1738281 L57.8945313,40.1738281 L57.8945313,37.78125 L67.7480469,37.78125 L67.7480469,40.1738281 Z M7,73 L7,58.78125 L10.7597656,58.78125 C12.4199302,58.78125 13.7431591,59.3085885 14.7294922,60.3632812 C15.7158252,61.417974 16.2187499,62.8632721 16.2382812,64.6992188 L16.2382812,67.0039062 C16.2382812,68.8724052 15.7451221,70.3388619 14.7587891,71.4033203 C13.772456,72.4677788 12.4134201,73 10.6816406,73 L7,73 Z M9.87109375,61.1738281 L9.87109375,70.6171875 L10.7304688,70.6171875 C11.6875048,70.6171875 12.3613262,70.3649114 12.7519531,69.8603516 C13.1425801,69.3557917 13.3476562,68.4850322 13.3671875,67.2480469 L13.3671875,64.7773438 C13.3671875,63.4492121 13.1816425,62.5231146 12.8105469,61.9990234 C12.4394513,61.4749323 11.8079472,61.1998699 10.9160156,61.1738281 L9.87109375,61.1738281 Z M24.1808594,70.0898438 L20.2648438,70.0898438 L19.503125,73 L16.4660156,73 L20.909375,58.78125 L23.5363281,58.78125 L28.0089844,73 L24.9425781,73 L24.1808594,70.0898438 Z M20.8898438,67.6972656 L23.5460938,67.6972656 L22.2179688,62.6289062 L20.8898438,67.6972656 Z M32.9242188,65.1679688 L35.0628906,58.78125 L38.1878906,58.78125 L34.3792969,67.84375 L34.3792969,73 L31.4691406,73 L31.4691406,67.84375 L27.6507813,58.78125 L30.7757813,58.78125 L32.9242188,65.1679688 Z" id="EXPORT-DAY" fill="#2B2A29"></path>
        </g>
    </g>
</svg>