<svg width="90" height="85" viewBox="0 0 90 85" version="1.1" xmlns="http://www.w3.org/2000/svg" xmlns:xlink="http://www.w3.org/1999/xlink">
<title>4</title>
<desc>Created using Figma</desc>
<g id="Canvas" transform="translate(-15499 1392)">
<g id="4">
<g id="Rectangle 4 Copy 2">
<use xlink:href="#path0_fill" transform="translate(15499 -1392)" fill="#FFFFFF"/>
</g>
<g id="Rectangle 11">
<use xlink:href="#path1_fill" transform="translate(15499 -1382)" fill="#243689"/>
</g>
<g id="RUSSIAN">
<use xlink:href="#path2_fill" transform="translate(15505 -1378.14)" fill="#FFFFFF"/>
<use xlink:href="#path3_fill" transform="translate(15505 -1378.14)" fill="#FFFFFF"/>
<use xlink:href="#path4_fill" transform="translate(15505 -1378.14)" fill="#FFFFFF"/>
<use xlink:href="#path5_fill" transform="translate(15505 -1378.14)" fill="#FFFFFF"/>
<use xlink:href="#path6_fill" transform="translate(15505 -1378.14)" fill="#FFFFFF"/>
<use xlink:href="#path7_fill" transform="translate(15505 -1378.14)" fill="#FFFFFF"/>
<use xlink:href="#path8_fill" transform="translate(15505 -1378.14)" fill="#FFFFFF"/>
</g>
<g id="EXPORT DAY">
<use xlink:href="#path9_fill" transform="translate(15504.9 -1354.53)" fill="#4C4B4A"/>
<use xlink:href="#path10_fill" transform="translate(15504.9 -1354.53)" fill="#4C4B4A"/>
<use xlink:href="#path11_fill" transform="translate(15504.9 -1354.53)" fill="#4C4B4A"/>
<use xlink:href="#path12_fill" transform="translate(15504.9 -1354.53)" fill="#4C4B4A"/>
<use xlink:href="#path13_fill" transform="translate(15504.9 -1354.53)" fill="#4C4B4A"/>
<use xlink:href="#path14_fill" transform="translate(15504.9 -1354.53)" fill="#4C4B4A"/>
<use xlink:href="#path15_fill" transform="translate(15504.9 -1354.53)" fill="#4C4B4A"/>
<use xlink:href="#path16_fill" transform="translate(15504.9 -1354.53)" fill="#4C4B4A"/>
<use xlink:href="#path17_fill" transform="translate(15504.9 -1354.53)" fill="#4C4B4A"/>
</g>
</g>
</g>
<defs>
<path id="path0_fill" fill-rule="evenodd" d="M 0 1.69811C 0 0.760271 0.760271 0 1.69811 0L 88.3019 0C 89.2397 0 90 0.760271 90 1.69811L 90 83.3019C 90 84.2397 89.2397 85 88.3019 85L 1.69811 85C 0.760271 85 0 84.2397 0 83.3019L 0 1.69811Z"/>
<path id="path1_fill" fill-rule="evenodd" d="M 0 0L 90 0L 90 21L 0 21L 0 0Z"/>
<path id="path2_fill" d="M 6.256 12.138L 9.18 12.138L 6.647 7.769C 7.956 7.106 8.84 5.78 8.84 4.318C 8.84 2.057 7.021 0.238 4.76 0.238L 0 0.238L 0 12.138L 2.72 12.138L 2.72 8.228L 4.012 8.228L 6.256 12.138ZM 2.72 2.788L 4.76 2.788C 5.508 2.788 6.12 3.451 6.12 4.318C 6.12 5.185 5.508 5.848 4.76 5.848L 2.72 5.848L 2.72 2.788Z"/>
<path id="path3_fill" d="M 14.881 12.376C 17.499 12.376 19.471 10.846 19.471 8.296L 19.471 0.238L 16.751 0.238L 16.751 8.058C 16.751 8.959 16.326 9.724 14.881 9.724C 13.436 9.724 13.011 8.959 13.011 8.058L 13.011 0.238L 10.291 0.238L 10.291 8.296C 10.291 10.846 12.263 12.376 14.881 12.376Z"/>
<path id="path4_fill" d="M 25.5976 12.376C 28.1816 12.376 30.0176 11.016 30.0176 8.721C 30.0176 6.205 27.9946 5.576 26.1926 5.032C 24.3396 4.471 24.0506 4.097 24.0506 3.553C 24.0506 3.077 24.4756 2.652 25.3256 2.652C 26.4136 2.652 26.9746 3.179 27.3826 4.029L 29.6776 2.686C 28.8106 0.935 27.2806 0 25.3256 0C 23.2686 0 21.3306 1.326 21.3306 3.621C 21.3306 5.899 23.0646 6.749 24.8326 7.242C 26.6176 7.735 27.2976 8.024 27.2976 8.755C 27.2976 9.214 26.9746 9.724 25.6826 9.724C 24.3396 9.724 23.6086 9.061 23.1836 8.075L 20.8376 9.435C 21.5006 11.186 23.0986 12.376 25.5976 12.376Z"/>
<path id="path5_fill" d="M 35.2099 12.376C 37.7939 12.376 39.6299 11.016 39.6299 8.721C 39.6299 6.205 37.6069 5.576 35.8049 5.032C 33.9519 4.471 33.6629 4.097 33.6629 3.553C 33.6629 3.077 34.0879 2.652 34.9379 2.652C 36.0259 2.652 36.5869 3.179 36.9949 4.029L 39.2899 2.686C 38.4229 0.935 36.8929 0 34.9379 0C 32.8809 0 30.9429 1.326 30.9429 3.621C 30.9429 5.899 32.6769 6.749 34.4449 7.242C 36.2299 7.735 36.9099 8.024 36.9099 8.755C 36.9099 9.214 36.5869 9.724 35.2949 9.724C 33.9519 9.724 33.2209 9.061 32.7959 8.075L 30.4499 9.435C 31.1129 11.186 32.7109 12.376 35.2099 12.376Z"/>
<path id="path6_fill" d="M 40.9062 0.238L 40.9062 12.138L 43.6263 12.138L 43.6263 0.238L 40.9062 0.238Z"/>
<path id="path7_fill" d="M 53.2359 12.138L 56.2109 12.138L 52.1649 0.238L 48.6969 0.238L 44.6509 12.138L 47.6259 12.138L 48.2209 10.268L 52.6409 10.268L 53.2359 12.138ZM 49.0369 7.718L 50.4309 3.349L 51.8249 7.718L 49.0369 7.718Z"/>
<path id="path8_fill" d="M 63.8556 0.238L 63.8556 6.698L 59.2656 0.238L 57.2256 0.238L 57.2256 12.138L 59.9456 12.138L 59.9456 5.678L 64.5356 12.138L 66.5756 12.138L 66.5756 0.238L 63.8556 0.238Z"/>
<path id="path9_fill" d="M 7.05469 6.71094L 2.74219 6.71094L 2.74219 9.42188L 7.83594 9.42188L 7.83594 11.5312L 0 11.5312L 0 0.15625L 7.85156 0.15625L 7.85156 2.27344L 2.74219 2.27344L 2.74219 4.67188L 7.05469 4.67188L 7.05469 6.71094Z"/>
<path id="path10_fill" d="M 13.1953 3.9375L 15.0547 0.15625L 18.1875 0.15625L 15.0078 5.79688L 18.2734 11.5312L 15.1094 11.5312L 13.1953 7.67969L 11.2812 11.5312L 8.125 11.5312L 11.3828 5.79688L 8.21094 0.15625L 11.3359 0.15625L 13.1953 3.9375Z"/>
<path id="path11_fill" d="M 21.9141 7.67188L 21.9141 11.5312L 19.1719 11.5312L 19.1719 0.15625L 23.7109 0.15625C 24.5807 0.15625 25.349 0.317708 26.0156 0.640625C 26.6875 0.958333 27.2057 1.41406 27.5703 2.00781C 27.9401 2.59635 28.125 3.26562 28.125 4.01562C 28.125 5.125 27.7266 6.01302 26.9297 6.67969C 26.138 7.34115 25.0495 7.67188 23.6641 7.67188L 21.9141 7.67188ZM 21.9141 5.55469L 23.7109 5.55469C 24.2422 5.55469 24.6458 5.42188 24.9219 5.15625C 25.2031 4.89062 25.3438 4.51562 25.3438 4.03125C 25.3438 3.5 25.2005 3.07552 24.9141 2.75781C 24.6276 2.4401 24.237 2.27865 23.7422 2.27344L 21.9141 2.27344L 21.9141 5.55469Z"/>
<path id="path12_fill" d="M 39.2266 6.07812C 39.2266 7.1875 39.0208 8.16927 38.6094 9.02344C 38.1979 9.8776 37.612 10.5365 36.8516 11C 36.0964 11.4583 35.2344 11.6875 34.2656 11.6875C 33.2969 11.6875 32.4375 11.4661 31.6875 11.0234C 30.9375 10.5755 30.3516 9.9375 29.9297 9.10938C 29.513 8.28125 29.2943 7.33073 29.2734 6.25781L 29.2734 5.61719C 29.2734 4.5026 29.4766 3.52083 29.8828 2.67188C 30.2943 1.81771 30.8802 1.15885 31.6406 0.695312C 32.4062 0.231771 33.276 0 34.25 0C 35.2135 0 36.0729 0.229167 36.8281 0.6875C 37.5833 1.14583 38.1693 1.79948 38.5859 2.64844C 39.0078 3.49219 39.2214 4.46094 39.2266 5.55469L 39.2266 6.07812ZM 36.4375 5.60156C 36.4375 4.47135 36.2474 3.61458 35.8672 3.03125C 35.4922 2.44271 34.9531 2.14844 34.25 2.14844C 32.875 2.14844 32.1484 3.17969 32.0703 5.24219L 32.0625 6.07812C 32.0625 7.19271 32.2474 8.04948 32.6172 8.64844C 32.987 9.2474 33.5365 9.54688 34.2656 9.54688C 34.9583 9.54688 35.4922 9.2526 35.8672 8.66406C 36.2422 8.07552 36.4323 7.22917 36.4375 6.125L 36.4375 5.60156Z"/>
<path id="path13_fill" d="M 44.8672 7.51562L 43.3828 7.51562L 43.3828 11.5312L 40.6406 11.5312L 40.6406 0.15625L 45.1172 0.15625C 46.4661 0.15625 47.5208 0.455729 48.2812 1.05469C 49.0417 1.65365 49.4219 2.5 49.4219 3.59375C 49.4219 4.38542 49.2604 5.04167 48.9375 5.5625C 48.6198 6.08333 48.1198 6.50521 47.4375 6.82812L 49.8125 11.4141L 49.8125 11.5312L 46.875 11.5312L 44.8672 7.51562ZM 43.3828 5.39844L 45.1172 5.39844C 45.638 5.39844 46.0286 5.26302 46.2891 4.99219C 46.5547 4.71615 46.6875 4.33333 46.6875 3.84375C 46.6875 3.35417 46.5547 2.97135 46.2891 2.69531C 46.0234 2.41406 45.6328 2.27344 45.1172 2.27344L 43.3828 2.27344L 43.3828 5.39844Z"/>
<path id="path14_fill" d="M 59.6172 2.27344L 56.2031 2.27344L 56.2031 11.5312L 53.4609 11.5312L 53.4609 2.27344L 50.1094 2.27344L 50.1094 0.15625L 59.6172 0.15625L 59.6172 2.27344Z"/>
<path id="path15_fill" d="M 0 30.5312L 0 19.1562L 3.66406 19.1562C 4.66927 19.1562 5.57292 19.3854 6.375 19.8438C 7.17708 20.2969 7.80208 20.9401 8.25 21.7734C 8.70312 22.6016 8.93229 23.5312 8.9375 24.5625L 8.9375 25.0859C 8.9375 26.1276 8.71615 27.0625 8.27344 27.8906C 7.83594 28.7135 7.21615 29.3594 6.41406 29.8281C 5.61719 30.2917 4.72656 30.526 3.74219 30.5312L 0 30.5312ZM 2.74219 21.2734L 2.74219 28.4219L 3.69531 28.4219C 4.48177 28.4219 5.08594 28.1432 5.50781 27.5859C 5.92969 27.0234 6.14062 26.1901 6.14062 25.0859L 6.14062 24.5938C 6.14062 23.4948 5.92969 22.6667 5.50781 22.1094C 5.08594 21.5521 4.47135 21.2734 3.66406 21.2734L 2.74219 21.2734Z"/>
<path id="path16_fill" d="M 16.6328 28.4062L 12.875 28.4062L 12.2188 30.5312L 9.28906 30.5312L 13.4609 19.1562L 16.0391 19.1562L 20.2422 30.5312L 17.2969 30.5312L 16.6328 28.4062ZM 13.5312 26.2891L 15.9766 26.2891L 14.75 22.3438L 13.5312 26.2891Z"/>
<path id="path17_fill" d="M 24.0703 24.0938L 26.1641 19.1562L 29.125 19.1562L 25.4609 26.4453L 25.4609 30.5312L 22.6797 30.5312L 22.6797 26.4453L 19.0234 19.1562L 21.9688 19.1562L 24.0703 24.0938Z"/>
</defs>
</svg>
