<svg width="197px" height="19px" viewBox="0 0 197 19" version="1.1" xmlns="http://www.w3.org/2000/svg" xmlns:xlink="http://www.w3.org/1999/xlink">
    <title>Russian Export Day</title>
    <g id="Icons" stroke="none" stroke-width="1" fill="none" fill-rule="evenodd">
        <g id="6-russianExportDay/rect">
            <rect id="Rectangle-27" fill="#426290" x="0" y="0" width="155" height="19" rx="1"></rect>
            <path d="M9.912,16 L7.43269565,11.68 L6.00521739,11.68 L6.00521739,16 L3,16 L3,2.85217391 L8.25913043,2.85217391 C10.7572174,2.85217391 12.7669565,4.86191304 12.7669565,7.36 C12.7669565,8.97530435 11.7902609,10.4403478 10.344,11.1728696 L13.1426087,16 L9.912,16 Z M6.00521739,5.66956522 L6.00521739,9.05043478 L8.25913043,9.05043478 C9.08556522,9.05043478 9.76173913,8.31791304 9.76173913,7.36 C9.76173913,6.40208696 9.08556522,5.66956522 8.25913043,5.66956522 L6.00521739,5.66956522 Z M19.5286957,16.2629565 C22.4212174,16.2629565 24.6,14.5725217 24.6,11.7551304 L24.6,2.85217391 L21.5947826,2.85217391 L21.5947826,11.4921739 C21.5947826,12.4876522 21.1252174,13.3328696 19.5286957,13.3328696 C17.9321739,13.3328696 17.4626087,12.4876522 17.4626087,11.4921739 L17.4626087,2.85217391 L14.4573913,2.85217391 L14.4573913,11.7551304 C14.4573913,14.5725217 16.6361739,16.2629565 19.5286957,16.2629565 Z M31.3617391,16.2629565 C34.2166957,16.2629565 36.2452174,14.7603478 36.2452174,12.2246957 C36.2452174,9.44486957 34.010087,8.74991304 32.0191304,8.14886957 C29.9718261,7.52904348 29.6525217,7.11582609 29.6525217,6.51478261 C29.6525217,5.98886957 30.122087,5.51930435 31.0612174,5.51930435 C32.2633043,5.51930435 32.8831304,6.10156522 33.333913,7.04069565 L35.8695652,5.55686957 C34.9116522,3.62226087 33.2212174,2.58921739 31.0612174,2.58921739 C28.7885217,2.58921739 26.6473043,4.05426087 26.6473043,6.58991304 C26.6473043,9.10678261 28.5631304,10.045913 30.5165217,10.5906087 C32.4886957,11.1353043 33.24,11.4546087 33.24,12.2622609 C33.24,12.7693913 32.8831304,13.3328696 31.4556522,13.3328696 C29.9718261,13.3328696 29.1641739,12.6003478 28.6946087,11.5109565 L26.1026087,13.0135652 C26.8351304,14.9481739 28.6006957,16.2629565 31.3617391,16.2629565 Z M42.3495652,16.2629565 C45.2045217,16.2629565 47.2330435,14.7603478 47.2330435,12.2246957 C47.2330435,9.44486957 44.997913,8.74991304 43.0069565,8.14886957 C40.9596522,7.52904348 40.6403478,7.11582609 40.6403478,6.51478261 C40.6403478,5.98886957 41.109913,5.51930435 42.0490435,5.51930435 C43.2511304,5.51930435 43.8709565,6.10156522 44.3217391,7.04069565 L46.8573913,5.55686957 C45.8994783,3.62226087 44.2090435,2.58921739 42.0490435,2.58921739 C39.7763478,2.58921739 37.6351304,4.05426087 37.6351304,6.58991304 C37.6351304,9.10678261 39.5509565,10.045913 41.5043478,10.5906087 C43.4765217,11.1353043 44.2278261,11.4546087 44.2278261,12.2622609 C44.2278261,12.7693913 43.8709565,13.3328696 42.4434783,13.3328696 C40.9596522,13.3328696 40.152,12.6003478 39.6824348,11.5109565 L37.0904348,13.0135652 C37.8229565,14.9481739 39.5885217,16.2629565 42.3495652,16.2629565 Z M48.7356522,2.85217391 L48.7356522,16 L51.7408696,16 L51.7408696,2.85217391 L48.7356522,2.85217391 Z M62.3530435,16 L61.6956522,13.933913 L56.8121739,13.933913 L56.1547826,16 L52.8678261,16 L57.338087,2.85217391 L61.1697391,2.85217391 L65.64,16 L62.3530435,16 Z M57.7137391,11.1165217 L60.794087,11.1165217 L59.253913,6.2893913 L57.7137391,11.1165217 Z M74.0921739,2.85217391 L74.0921739,9.98956522 L69.0208696,2.85217391 L66.7669565,2.85217391 L66.7669565,16 L69.7721739,16 L69.7721739,8.8626087 L74.8434783,16 L77.0973913,16 L77.0973913,2.85217391 L74.0921739,2.85217391 Z M87.0521739,13.1074783 L87.0521739,10.7784348 L91.7478261,10.7784348 L91.7478261,7.92347826 L87.0521739,7.92347826 L87.0521739,5.74469565 L92.2173913,5.74469565 L92.2173913,2.85217391 L84.0469565,2.85217391 L84.0469565,16 L92.3113043,16 L92.3113043,13.1074783 L87.0521739,13.1074783 Z M104.332174,16 L100.406609,9.25704348 L104.144348,2.85217391 L100.725913,2.85217391 L98.6973913,6.32695652 L96.6688696,2.85217391 L93.2504348,2.85217391 L96.9881739,9.25704348 L93.0626087,16 L96.4810435,16 L98.6973913,12.205913 L100.913739,16 L104.332174,16 Z M110.624348,2.85217391 C113.216348,2.85217391 115.226087,4.86191304 115.226087,7.36 C115.226087,9.85808696 113.216348,11.8678261 110.624348,11.8678261 L108.652174,11.8678261 L108.652174,16 L105.646957,16 L105.646957,2.85217391 L110.624348,2.85217391 Z M110.624348,9.05043478 C111.544696,9.05043478 112.22087,8.31791304 112.22087,7.36 C112.22087,6.40208696 111.544696,5.66956522 110.624348,5.66956522 L108.652174,5.66956522 L108.652174,9.05043478 L110.624348,9.05043478 Z M123.002087,16.2629565 C119.226783,16.2629565 116.165217,13.2953043 116.165217,9.42608696 C116.165217,5.55686957 119.226783,2.58921739 123.002087,2.58921739 C126.777391,2.58921739 129.838957,5.55686957 129.838957,9.42608696 C129.838957,13.2953043 126.777391,16.2629565 123.002087,16.2629565 Z M123.002087,13.3328696 C125.143304,13.3328696 126.833739,11.773913 126.833739,9.42608696 C126.833739,7.07826087 125.143304,5.51930435 123.002087,5.51930435 C120.86087,5.51930435 119.170435,7.07826087 119.170435,9.42608696 C119.170435,11.773913 120.86087,13.3328696 123.002087,13.3328696 Z M138.441391,16 L135.962087,11.68 L134.534609,11.68 L134.534609,16 L131.529391,16 L131.529391,2.85217391 L136.788522,2.85217391 C139.286609,2.85217391 141.296348,4.86191304 141.296348,7.36 C141.296348,8.97530435 140.319652,10.4403478 138.873391,11.1728696 L141.672,16 L138.441391,16 Z M134.534609,5.66956522 L134.534609,9.05043478 L136.788522,9.05043478 C137.614957,9.05043478 138.29113,8.31791304 138.29113,7.36 C138.29113,6.40208696 137.614957,5.66956522 136.788522,5.66956522 L134.534609,5.66956522 Z M151.908522,2.85217391 L142.141565,2.85217391 L142.141565,5.74469565 L145.522435,5.74469565 L145.522435,16 L148.527652,16 L148.527652,5.74469565 L151.908522,5.74469565 L151.908522,2.85217391 Z" id="RUSSIAN-EXPORT" fill="#FFFFFF"></path>
            <path d="M165.25913,2.85217391 C168.884174,2.85217391 171.645217,5.70713043 171.645217,9.42608696 C171.645217,13.1450435 168.884174,16 165.25913,16 L160,16 L160,2.85217391 L165.25913,2.85217391 Z M165.25913,13.1074783 C167.325217,13.1074783 168.752696,11.68 168.752696,9.42608696 C168.752696,7.17217391 167.325217,5.74469565 165.25913,5.74469565 L163.005217,5.74469565 L163.005217,13.1074783 L165.25913,13.1074783 Z M181.693913,16 L181.036522,13.933913 L176.153043,13.933913 L175.495652,16 L172.208696,16 L176.678957,2.85217391 L180.510609,2.85217391 L184.98087,16 L181.693913,16 Z M177.054609,11.1165217 L180.134957,11.1165217 L178.594783,6.2893913 L177.054609,11.1165217 Z M196.813913,2.85217391 L193.395478,2.85217391 L190.897391,7.92347826 L188.399304,2.85217391 L184.98087,2.85217391 L189.394783,10.9474783 L189.394783,16 L192.4,16 L192.4,10.9474783 L196.813913,2.85217391 Z" id="DAY" fill="#2B2A29"></path>
        </g>
    </g>
</svg>