<svg width="179px" height="19px" viewBox="0 0 179 19" version="1.1" xmlns="http://www.w3.org/2000/svg" xmlns:xlink="http://www.w3.org/1999/xlink">
    <title>Staff Only Forum</title>
    <g id="Icons" stroke="none" stroke-width="1" fill="none" fill-rule="evenodd">
        <g id="2-staffOnlyForum/rect">
            <rect id="Rectangle-27" fill="#354168" x="0" y="0" width="112" height="19" rx="1"></rect>
            <path d="M8.25913043,16.2629565 C11.114087,16.2629565 13.1426087,14.7603478 13.1426087,12.2246957 C13.1426087,9.44486957 10.9074783,8.74991304 8.91652174,8.14886957 C6.86921739,7.52904348 6.54991304,7.11582609 6.54991304,6.51478261 C6.54991304,5.98886957 7.01947826,5.51930435 7.9586087,5.51930435 C9.16069565,5.51930435 9.78052174,6.10156522 10.2313043,7.04069565 L12.7669565,5.55686957 C11.8090435,3.62226087 10.1186087,2.58921739 7.9586087,2.58921739 C5.68591304,2.58921739 3.54469565,4.05426087 3.54469565,6.58991304 C3.54469565,9.10678261 5.46052174,10.045913 7.41391304,10.5906087 C9.38608696,11.1353043 10.1373913,11.4546087 10.1373913,12.2622609 C10.1373913,12.7693913 9.78052174,13.3328696 8.35304348,13.3328696 C6.86921739,13.3328696 6.06156522,12.6003478 5.592,11.5109565 L3,13.0135652 C3.73252174,14.9481739 5.49808696,16.2629565 8.25913043,16.2629565 Z M23.4730435,2.85217391 L13.706087,2.85217391 L13.706087,5.74469565 L17.0869565,5.74469565 L17.0869565,16 L20.0921739,16 L20.0921739,5.74469565 L23.4730435,5.74469565 L23.4730435,2.85217391 Z M33.146087,16 L32.4886957,13.933913 L27.6052174,13.933913 L26.9478261,16 L23.6608696,16 L28.1311304,2.85217391 L31.9627826,2.85217391 L36.4330435,16 L33.146087,16 Z M28.5067826,11.1165217 L31.5871304,11.1165217 L30.0469565,6.2893913 L28.5067826,11.1165217 Z M45.5426087,5.74469565 L45.5426087,2.85217391 L37.56,2.85217391 L37.56,16 L40.5652174,16 L40.5652174,11.1728696 L45.4486957,11.1728696 L45.4486957,8.28034783 L40.5652174,8.28034783 L40.5652174,5.74469565 L45.5426087,5.74469565 Z M55.3095652,5.74469565 L55.3095652,2.85217391 L47.3269565,2.85217391 L47.3269565,16 L50.3321739,16 L50.3321739,11.1728696 L55.2156522,11.1728696 L55.2156522,8.28034783 L50.3321739,8.28034783 L50.3321739,5.74469565 L55.3095652,5.74469565 Z M68.0629565,16.2629565 C64.2876522,16.2629565 61.226087,13.2953043 61.226087,9.42608696 C61.226087,5.55686957 64.2876522,2.58921739 68.0629565,2.58921739 C71.8382609,2.58921739 74.8998261,5.55686957 74.8998261,9.42608696 C74.8998261,13.2953043 71.8382609,16.2629565 68.0629565,16.2629565 Z M68.0629565,13.3328696 C70.2041739,13.3328696 71.8946087,11.773913 71.8946087,9.42608696 C71.8946087,7.07826087 70.2041739,5.51930435 68.0629565,5.51930435 C65.9217391,5.51930435 64.2313043,7.07826087 64.2313043,9.42608696 C64.2313043,11.773913 65.9217391,13.3328696 68.0629565,13.3328696 Z M83.9154783,2.85217391 L83.9154783,9.98956522 L78.8441739,2.85217391 L76.5902609,2.85217391 L76.5902609,16 L79.5954783,16 L79.5954783,8.8626087 L84.6667826,16 L86.9206957,16 L86.9206957,2.85217391 L83.9154783,2.85217391 Z M92.1798261,13.1074783 L92.1798261,2.85217391 L89.1746087,2.85217391 L89.1746087,16 L96.8754783,16 L96.8754783,13.1074783 L92.1798261,13.1074783 Z M108.896348,2.85217391 L105.477913,2.85217391 L102.979826,7.92347826 L100.481739,2.85217391 L97.0633043,2.85217391 L101.477217,10.9474783 L101.477217,16 L104.482435,16 L104.482435,10.9474783 L108.896348,2.85217391 Z" id="STAFF-ONLY" fill="#FFFFFF"></path>
            <path d="M124.982609,5.74469565 L124.982609,2.85217391 L117,2.85217391 L117,16 L120.005217,16 L120.005217,11.1728696 L124.888696,11.1728696 L124.888696,8.28034783 L120.005217,8.28034783 L120.005217,5.74469565 L124.982609,5.74469565 Z M133.040348,16.2629565 C129.265043,16.2629565 126.203478,13.2953043 126.203478,9.42608696 C126.203478,5.55686957 129.265043,2.58921739 133.040348,2.58921739 C136.815652,2.58921739 139.877217,5.55686957 139.877217,9.42608696 C139.877217,13.2953043 136.815652,16.2629565 133.040348,16.2629565 Z M133.040348,13.3328696 C135.181565,13.3328696 136.872,11.773913 136.872,9.42608696 C136.872,7.07826087 135.181565,5.51930435 133.040348,5.51930435 C130.89913,5.51930435 129.208696,7.07826087 129.208696,9.42608696 C129.208696,11.773913 130.89913,13.3328696 133.040348,13.3328696 Z M148.479652,16 L146.000348,11.68 L144.57287,11.68 L144.57287,16 L141.567652,16 L141.567652,2.85217391 L146.826783,2.85217391 C149.32487,2.85217391 151.334609,4.86191304 151.334609,7.36 C151.334609,8.97530435 150.357913,10.4403478 148.911652,11.1728696 L151.710261,16 L148.479652,16 Z M144.57287,5.66956522 L144.57287,9.05043478 L146.826783,9.05043478 C147.653217,9.05043478 148.329391,8.31791304 148.329391,7.36 C148.329391,6.40208696 147.653217,5.66956522 146.826783,5.66956522 L144.57287,5.66956522 Z M158.096348,16.2629565 C160.98887,16.2629565 163.167652,14.5725217 163.167652,11.7551304 L163.167652,2.85217391 L160.162435,2.85217391 L160.162435,11.4921739 C160.162435,12.4876522 159.69287,13.3328696 158.096348,13.3328696 C156.499826,13.3328696 156.030261,12.4876522 156.030261,11.4921739 L156.030261,2.85217391 L153.025043,2.85217391 L153.025043,11.7551304 C153.025043,14.5725217 155.203826,16.2629565 158.096348,16.2629565 Z M178.475478,2.85217391 L175.470261,2.85217391 L171.901565,8.69356522 L168.33287,2.85217391 L165.327652,2.85217391 L165.327652,16 L168.33287,16 L168.33287,8.35547826 L171.732522,13.933913 L172.070609,13.933913 L175.470261,8.35547826 L175.470261,16 L178.475478,16 L178.475478,2.85217391 Z" id="FORUM" fill="#2B2A29"></path>
        </g>
    </g>
</svg>