<?xml version="1.0" encoding="UTF-8"?>
<svg width="90px" height="85px" viewBox="0 0 90 85" version="1.1" xmlns="http://www.w3.org/2000/svg" xmlns:xlink="http://www.w3.org/1999/xlink">
    <!-- Generator: Sketch 47.1 (45422) - http://www.bohemiancoding.com/sketch -->
    <title>ural-export-day</title>
    <desc>Created with Sketch.</desc>
    <defs></defs>
    <g id="Главная" stroke="none" stroke-width="1" fill="none" fill-rule="evenodd">
        <g id="Group-34" transform="translate(-110.000000, -105.000000)">
            <g id="ural-export-day" transform="translate(110.000000, 105.000000)">
                <rect id="Rectangle-4-Copy-2" fill="#FFFFFF" x="0" y="0" width="90" height="85" rx="1.69811321"></rect>
                <rect id="Rectangle-11" fill="#365789" x="-8.57980353e-13" y="10" width="90" height="21"></rect>
                <path d="M10.525,26.238 C13.143,26.238 15.115,24.708 15.115,22.158 L15.115,14.1 L12.395,14.1 L12.395,21.92 C12.395,22.821 11.97,23.586 10.525,23.586 C9.08,23.586 8.655,22.821 8.655,21.92 L8.655,14.1 L5.935,14.1 L5.935,22.158 C5.935,24.708 7.907,26.238 10.525,26.238 Z M23.326,26 L21.082,22.09 L19.79,22.09 L19.79,26 L17.07,26 L17.07,14.1 L21.83,14.1 C24.091,14.1 25.91,15.919 25.91,18.18 C25.91,19.642 25.026,20.968 23.717,21.631 L26.25,26 L23.326,26 Z M19.79,16.65 L19.79,19.71 L21.83,19.71 C22.578,19.71 23.19,19.047 23.19,18.18 C23.19,17.313 22.578,16.65 21.83,16.65 L19.79,16.65 Z M35.09,26 L34.495,24.13 L30.075,24.13 L29.48,26 L26.505,26 L30.551,14.1 L34.019,14.1 L38.065,26 L35.09,26 Z M30.891,21.58 L33.679,21.58 L32.285,17.211 L30.891,21.58 Z M41.805,23.382 L41.805,14.1 L39.085,14.1 L39.085,26 L46.055,26 L46.055,23.382 L41.805,23.382 Z" id="URAL" fill="#FFFFFF"></path>
                <path d="M13.4140625,48.734375 L7.8359375,48.734375 L7.8359375,44.859375 L13.125,44.859375 L13.125,43.609375 L7.8359375,43.609375 L7.8359375,39.9921875 L13.4140625,39.9921875 L13.4140625,38.7265625 L6.4296875,38.7265625 L6.4296875,50 L13.4140625,50 L13.4140625,48.734375 Z M14.9140625,50 L16.5078125,50 L19.515625,45.5546875 L19.640625,45.5546875 L22.59375,50 L24.28125,50 L20.4609375,44.390625 L24.3671875,38.7265625 L22.765625,38.7265625 L19.75,43.2109375 L19.625,43.2109375 L16.65625,38.7265625 L14.9609375,38.7265625 L18.7734375,44.328125 L18.3828125,44.9023438 C18.1223945,45.2851582 17.8007832,45.7578097 17.4179688,46.3203125 L16.2695312,48.0078125 C15.8867168,48.5703153 15.5651055,49.0429668 15.3046875,49.4257812 L14.9140625,50 Z M26.1953125,38.7265625 L30.453125,38.7265625 C31.5208387,38.7265625 32.3893196,39.0664029 33.0585938,39.7460938 C33.7278679,40.4257846 34.0625,41.302078 34.0625,42.375 C34.0625,43.4270886 33.7226596,44.2903612 33.0429688,44.9648438 C32.3632779,45.6393263 31.494797,45.9765625 30.4375,45.9765625 L27.6015625,45.9765625 L27.6015625,50 L26.1953125,50 L26.1953125,38.7265625 Z M27.6015625,39.9765625 L27.6015625,44.7265625 L30.0859375,44.7265625 C30.8880248,44.7265625 31.5104145,44.5208354 31.953125,44.109375 C32.3958355,43.6979146 32.6171875,43.1197954 32.6171875,42.375 C32.6171875,41.5989545 32.3997418,41.0052104 31.9648437,40.59375 C31.5299457,40.1822896 30.9036499,39.9765625 30.0859375,39.9765625 L27.6015625,39.9765625 Z M40.7890625,38.4609375 C42.3932372,38.4609375 43.6536412,38.9921822 44.5703125,40.0546875 C45.4869838,41.1171928 45.9453125,42.5520743 45.9453125,44.359375 C45.9453125,46.1614673 45.4882858,47.5963488 44.5742188,48.6640625 C43.6601517,49.7317762 42.3984455,50.265625 40.7890625,50.265625 C39.1744711,50.265625 37.9075567,49.7317762 36.9882812,48.6640625 C36.0690058,47.5963488 35.609375,46.1614673 35.609375,44.359375 C35.609375,42.5468659 36.0742141,41.1106824 37.0039062,40.0507812 C37.9335984,38.9908801 39.1953045,38.4609375 40.7890625,38.4609375 Z M40.7890625,39.7578125 C39.6432234,39.7578125 38.7343784,40.1718709 38.0625,41 C37.3906216,41.8281291 37.0546875,42.9479096 37.0546875,44.359375 C37.0546875,45.7552153 37.3841113,46.8723916 38.0429687,47.7109375 C38.7018262,48.5494834 39.6171816,48.96875 40.7890625,48.96875 C41.9453183,48.96875 42.8528613,48.5494834 43.5117187,47.7109375 C44.1705762,46.8723916 44.5,45.7552153 44.5,44.359375 C44.5,42.9479096 44.1692741,41.8281291 43.5078125,41 C42.8463509,40.1718709 41.9401099,39.7578125 40.7890625,39.7578125 Z M49.4765625,39.9765625 L49.4765625,44.2890625 L52.25,44.2890625 C52.973962,44.2890625 53.5325501,44.1028664 53.9257812,43.7304688 C54.3190124,43.3580711 54.515625,42.8255243 54.515625,42.1328125 C54.515625,41.4557258 54.3098979,40.9270852 53.8984375,40.546875 C53.4869771,40.1666648 52.9166703,39.9765625 52.1875,39.9765625 L49.4765625,39.9765625 Z M49.4765625,45.5390625 L49.4765625,50 L48.0703125,50 L48.0703125,38.7265625 L52.375,38.7265625 C53.4635471,38.7265625 54.3346321,39.032549 54.9882812,39.6445312 C55.6419304,40.2565135 55.96875,41.0703074 55.96875,42.0859375 C55.96875,42.8723998 55.7682312,43.5520805 55.3671875,44.125 C54.9661438,44.6979195 54.4114619,45.096353 53.703125,45.3203125 L56.3125,50 L54.6640625,50 L52.25,45.5390625 L49.4765625,45.5390625 Z M62.546875,50 L62.546875,39.9921875 L66.1796875,39.9921875 L66.1796875,38.7265625 L57.5078125,38.7265625 L57.5078125,39.9921875 L61.140625,39.9921875 L61.140625,50 L62.546875,50 Z M6.4296875,57.7265625 L10.296875,57.7265625 C11.9687584,57.7265625 13.2734328,58.2213492 14.2109375,59.2109375 C15.1484422,60.2005258 15.6171875,61.5833245 15.6171875,63.359375 C15.6171875,65.1354255 15.1497443,66.5195263 14.2148438,67.5117188 C13.2799432,68.5039112 11.9739667,69 10.296875,69 L6.4296875,69 L6.4296875,57.7265625 Z M7.8359375,58.9921875 L7.8359375,67.734375 L10.203125,67.734375 C11.463548,67.734375 12.4414028,67.3515663 13.1367188,66.5859375 C13.8320347,65.8203087 14.1796875,64.7500069 14.1796875,63.375 C14.1796875,61.9947848 13.8294306,60.9192747 13.1289062,60.1484375 C12.4283819,59.3776003 11.4531313,58.9921875 10.203125,58.9921875 L7.8359375,58.9921875 Z M25.0625,69 L24.890625,68.5117188 C24.7760411,68.1861963 24.644532,67.8112 24.4960937,67.3867188 C24.3476555,66.9622375 24.2161464,66.5872412 24.1015625,66.2617188 L23.9296875,65.7734375 L19.4453125,65.7734375 L18.3125,69 L16.8359375,69 L20.9921875,57.7265625 L22.3828125,57.7265625 L26.5390625,69 L25.0625,69 Z M21.625,59.546875 L21.4453125,60.0546875 C21.3255202,60.3932309 21.1783863,60.8124975 21.0039062,61.3125 L20.4804688,62.8125 C20.3059887,63.3125025 20.1588548,63.7317691 20.0390625,64.0703125 L19.859375,64.578125 L23.515625,64.578125 L21.75,59.546875 L21.625,59.546875 Z M32.71875,69 L32.71875,64.1484375 L36.71875,57.7265625 L35.1171875,57.7265625 L32.078125,62.734375 L31.953125,62.734375 L28.9140625,57.7265625 L27.3125,57.7265625 L31.3125,64.1484375 L31.3125,69 L32.71875,69 Z" id="EXPORT-DAY" fill="#DB363D" opacity="0.849999964"></path>
            </g>
        </g>
    </g>
</svg>